<svg width="28" height="26" viewBox="0 0 28 26" fill="none" xmlns="http://www.w3.org/2000/svg">
	<g>
		<path d="M11.2848 16.17L10.5474 16.9075H11.2848V16.17Z" fill="white"/>
		<path fill-rule="evenodd" clip-rule="evenodd" d="M21.9158 9.36017C21.9158 9.32059 21.9003 9.28262 21.8727 9.25462L21.4685 8.8445C21.4409 8.8165 21.4034 8.80078 21.3644 8.80078H5.30116C5.26214 8.80078 5.22471 8.8165 5.19712 8.8445L4.79285 9.25462C4.76526 9.28262 4.74976 9.32058 4.74976 9.36017V19.4366C4.74976 19.4762 4.76526 19.5142 4.79285 19.5422L5.19712 19.9523C5.22471 19.9803 5.26214 19.996 5.30116 19.996L21.3644 19.996C21.4034 19.996 21.4409 19.9803 21.4685 19.9523L21.8727 19.5422C21.9003 19.5142 21.9158 19.4762 21.9158 19.4366V9.36017ZM7.70713 17.522C8.15964 17.522 8.4669 17.3935 8.62332 17.1365L9.26578 17.5499C8.91941 18.008 8.36634 18.2538 7.70713 18.2538C6.61775 18.2538 5.82446 17.6337 5.82446 16.6449C5.82446 15.6617 6.61775 15.036 7.70713 15.036C8.36634 15.036 8.91941 15.2874 9.26578 15.7399L8.62332 16.1589C8.4669 15.9019 8.15964 15.7734 7.70713 15.7734C6.99763 15.7734 6.65127 15.9969 6.65127 16.6449C6.65127 17.2985 6.99763 17.522 7.70713 17.522ZM12.0949 15.0863L11.3407 15.0863L9.4692 16.9633V17.6226L11.2848 17.6226V18.2091H12.0949V17.6226H12.5195V16.9131H12.0949V15.0863ZM13.5318 11.11H19.8556C19.9656 11.11 20.0547 11.1978 20.0547 11.3062L20.0547 14.4382C20.0547 14.5466 19.9656 14.6344 19.8557 14.6344H13.5319C13.422 14.6344 13.3328 14.5466 13.3328 14.4382L13.3328 11.3062C13.3328 11.1978 13.4219 11.11 13.5318 11.11ZM14.4075 15.0823C14.5559 15.0823 14.6762 15.2026 14.6762 15.3509V16.157C14.6762 16.3054 14.5559 16.4257 14.4075 16.4257H13.6015C13.4531 16.4257 13.3328 16.3054 13.3328 16.157V15.3509C13.3328 15.2026 13.4531 15.0823 13.6015 15.0823H14.4075ZM16.4675 15.3509C16.4675 15.2026 16.3472 15.0823 16.1988 15.0823H15.3927C15.2443 15.0823 15.124 15.2026 15.124 15.3509V16.157C15.124 16.3054 15.2443 16.4257 15.3927 16.4257H16.1988C16.3472 16.4257 16.4675 16.3054 16.4675 16.157V15.3509ZM17.99 15.0823C18.1384 15.0823 18.2587 15.2026 18.2587 15.3509V16.157C18.2587 16.3054 18.1384 16.4257 17.99 16.4257H17.184C17.0356 16.4257 16.9153 16.3054 16.9153 16.157V15.3509C16.9153 15.2026 17.0356 15.0823 17.184 15.0823H17.99ZM20.0499 15.3509C20.0499 15.2026 19.9297 15.0823 19.7813 15.0823H18.9752C18.8268 15.0823 18.7065 15.2026 18.7065 15.3509V16.157C18.7065 16.3054 18.8268 16.4257 18.9752 16.4257H19.7813C19.9297 16.4257 20.0499 16.3054 20.0499 16.157V15.3509ZM14.4075 16.8734C14.5559 16.8734 14.6762 16.9937 14.6762 17.1421V17.9482C14.6762 18.0966 14.5559 18.2169 14.4075 18.2169H13.6015C13.4531 18.2169 13.3328 18.0966 13.3328 17.9482V17.1421C13.3328 16.9937 13.4531 16.8734 13.6015 16.8734H14.4075ZM16.4675 17.1421C16.4675 16.9937 16.3472 16.8734 16.1988 16.8734H15.3927C15.2443 16.8734 15.124 16.9937 15.124 17.1421V17.9482C15.124 18.0966 15.2443 18.2169 15.3927 18.2169H16.1988C16.3472 18.2169 16.4675 18.0966 16.4675 17.9482V17.1421ZM17.99 16.8734C18.1384 16.8734 18.2587 16.9937 18.2587 17.1421V17.9482C18.2587 18.0966 18.1384 18.2169 17.99 18.2169H17.184C17.0356 18.2169 16.9153 18.0966 16.9153 17.9482V17.1421C16.9153 16.9937 17.0356 16.8734 17.184 16.8734H17.99ZM20.0499 17.1421C20.0499 16.9937 19.9297 16.8734 19.7813 16.8734H18.9752C18.8268 16.8734 18.7065 16.9937 18.7065 17.1421V17.9482C18.7065 18.0966 18.8268 18.2169 18.9752 18.2169H19.7813C19.9297 18.2169 20.0499 18.0966 20.0499 17.9482V17.1421Z" fill="white"/>
		<path d="M15.4996 12.6094L15.3105 12.3863L15.1021 12.5706L15.1312 12.3088H14.8209L14.85 12.5706L14.6367 12.3863L14.4476 12.6094L14.7869 12.7984L14.4476 12.9875L14.6367 13.2105L14.85 13.0263L14.8209 13.2881H15.1312L15.1021 13.0263L15.3154 13.2105L15.5045 12.9875L15.1602 12.7984L15.4996 12.6094Z" fill="white"/>
		<path d="M16.8549 12.6094L16.6658 12.3863L16.4574 12.5706L16.4865 12.3088H16.1762L16.2053 12.5706L15.992 12.3863L15.8029 12.6094L16.1423 12.7984L15.8029 12.9875L15.992 13.2105L16.2053 13.0263L16.1762 13.2881H16.4865L16.4574 13.0263L16.6707 13.2105L16.8598 12.9875L16.5156 12.7984L16.8549 12.6094Z" fill="white"/>
		<path d="M18.2106 12.6094L18.0215 12.3863L17.8131 12.5706L17.8421 12.3088H17.5319L17.561 12.5706L17.3476 12.3863L17.1586 12.6094L17.4979 12.7984L17.1586 12.9875L17.3476 13.2105L17.561 13.0263L17.5319 13.2881H17.8421L17.8131 13.0263L18.0264 13.2105L18.2154 12.9875L17.8712 12.7984L18.2106 12.6094Z" fill="white"/>
		<path d="M17.4393 4.14845C17.3875 3.55957 16.5266 3.55956 16.4748 4.14845L16.1281 8.08741L17.786 8.08741L17.4393 4.14845Z" fill="white"/>
		<path d="M19.4602 8.08741H21.1931L22.3005 5.70944C22.55 5.17353 21.8045 4.74311 21.4652 5.22719L19.4602 8.08741Z" fill="white"/>
		<path d="M22.6492 9.86659V11.6514L25.7299 9.49187C26.2139 9.15254 25.7835 8.40704 25.2476 8.65659L22.6492 9.86659Z" fill="white"/>
		<path d="M22.6492 13.1516L22.6492 14.8484L26.8086 14.4823C27.3975 14.4304 27.3975 13.5696 26.8086 13.5178L22.6492 13.1516Z" fill="white"/>
		<path d="M22.6492 16.3486V18.1334L25.2476 19.3434C25.7835 19.593 26.2139 18.8475 25.7299 18.5081L22.6492 16.3486Z" fill="white"/>
		<path d="M21.5597 20.6999H20.0121L21.4652 22.7728C21.8045 23.2569 22.55 22.8265 22.3005 22.2906L21.5597 20.6999Z" fill="white"/>
		<path d="M17.7167 20.6999H16.1974L16.4748 23.8516C16.5266 24.4404 17.3875 24.4404 17.4393 23.8516L17.7167 20.6999Z" fill="white"/>
		<path d="M13.902 20.6999H12.3544L11.6136 22.2906C11.3641 22.8265 12.1096 23.2569 12.4489 22.7728L13.902 20.6999Z" fill="white"/>
		<path d="M12.721 8.08741H14.4539L12.4489 5.22719C12.1096 4.74312 11.3641 5.17353 11.6136 5.70944L12.721 8.08741Z" fill="white"/>
	</g>
</svg>
