<svg width="24" height="24" viewBox="0 0 24 24" fill="none" xmlns="http://www.w3.org/2000/svg">
	<path opacity="0.5" d="M11.5775 20.1384C11.486 20.1384 11.4119 20.0642 11.4119 19.9727V10.9895C11.4119 10.898 11.486 10.8239 11.5775 10.8239L12.4224 10.8239C12.5139 10.8239 12.588 10.898 12.588 10.9895V19.9727C12.588 20.0642 12.5139 20.1384 12.4224 20.1384H11.5775Z" fill="white"/>
	<path d="M19.0686 8.4714H16.6929C16.6929 6.12485 17.3582 3.82643 17.7741 2.82977C17.8151 2.73151 17.9468 2.73151 17.9878 2.82978C18.4036 3.82643 19.0686 6.12486 19.0686 8.4714Z" fill="white"/>
	<path fill-rule="evenodd" clip-rule="evenodd" d="M19.9984 10.0406L19.9982 20.1383C20.3037 20.1383 20.3193 21.4092 19.9982 21.4092H17.8809L15.7636 21.4092C15.4425 21.4092 15.4581 20.1383 15.7636 20.1383L15.7634 10.0406C16.5297 9.67327 16.6931 8.58901 16.6931 8.58901H19.0687C19.0687 8.58901 19.2321 9.67327 19.9984 10.0406ZM17.6751 20.1383C17.464 20.1383 17.2928 19.9671 17.2928 19.756V11.206C17.2928 10.9949 17.464 10.8237 17.6751 10.8237H18.0867C18.2978 10.8237 18.469 10.9949 18.469 11.206V19.756C18.469 19.9671 18.2978 20.1383 18.0867 20.1383H17.6751Z" fill="white"/>
	<path d="M13.1877 8.4714H10.8121C10.8121 6.12485 11.4774 3.82643 11.8932 2.82977C11.9342 2.73151 12.0659 2.73151 12.1069 2.82978C12.5228 3.82643 13.1877 6.12486 13.1877 8.4714Z" fill="white"/>
	<path fill-rule="evenodd" clip-rule="evenodd" d="M14.1175 10.0406L14.1174 20.1383C14.4228 20.1383 14.4384 21.4092 14.1174 21.4092H12.0001L9.8827 21.4092C9.56162 21.4092 9.57723 20.1383 9.8827 20.1383L9.88254 10.0406C10.6488 9.67327 10.8122 8.58901 10.8122 8.58901H13.1879C13.1879 8.58901 13.3513 9.67327 14.1175 10.0406ZM11.7942 20.1383C11.5831 20.1383 11.412 19.9671 11.412 19.756V11.206C11.412 10.9949 11.5831 10.8237 11.7942 10.8237H12.2059C12.417 10.8237 12.5881 10.9949 12.5881 11.206V19.756C12.5881 19.9671 12.417 20.1383 12.2059 20.1383H11.7942Z" fill="white"/>
	<path d="M7.30712 8.4714H4.93145C4.93145 6.12485 5.59674 3.82643 6.01263 2.82977C6.05363 2.73151 6.18531 2.73151 6.22631 2.82978C6.64214 3.82643 7.30712 6.12486 7.30712 8.4714Z" fill="white"/>
	<path fill-rule="evenodd" clip-rule="evenodd" d="M8.23691 10.0406L8.23675 20.1383C8.54223 20.1383 8.55783 21.4092 8.23675 21.4092H6.11945L4.00208 21.4092C3.681 21.4092 3.69661 20.1383 4.00208 20.1383L4.00193 10.0406C4.76819 9.67327 4.93159 8.58901 4.93159 8.58901H7.30725C7.30725 8.58901 7.47065 9.67327 8.23691 10.0406Z" fill="white"/>
</svg>
