<svg width="32" height="32" viewBox="0 0 32 32" fill="none" xmlns="http://www.w3.org/2000/svg">
	<path d="M16.0005 3.66772C6.55209 3.66772 5.0376 4.50507 5.0376 4.50507V17.1225C5.0376 19.958 6.52346 22.686 8.60753 24.6896C10.9756 26.9632 14.8474 28.3322 16.0005 28.3322C17.2913 28.3322 20.8783 26.9392 23.2286 24.6896C25.3583 22.6511 26.9618 19.8915 26.9618 17.1697V4.50507C26.9618 4.50507 24.3933 3.66772 16.0005 3.66772ZM16.1212 8.65232C19.079 8.65232 19.955 9.63671 20.9657 10.7031C21.978 11.7711 22.4454 13.9124 22.5545 14.3992C22.7186 15.1375 23.0057 15.4246 23.2897 16.1041C23.5118 16.6473 23.542 17.0598 23.5675 17.7648C23.5853 18.2849 23.5095 18.7167 23.4158 18.9551C23.282 19.2948 23.1218 19.3505 22.8819 19.3505C22.7093 19.3505 22.4578 19.3219 22.1776 19.3141C21.9416 19.3072 21.9114 19.0549 21.8967 18.8885C21.8704 18.5604 21.8712 18.4219 21.8712 17.9846C21.8712 17.9846 21.8712 17.6023 21.3496 17.3013C20.8295 16.9995 20.3923 16.5893 16.1227 16.5893C11.8532 16.5893 11.1157 17.0799 10.7597 17.3539C10.4037 17.6279 10.1019 17.8739 10.1019 18.12V18.9698C10.1019 19.2871 9.97499 19.3374 9.89451 19.3374C9.85581 19.3374 9.8295 19.325 9.8295 19.325C9.8295 19.325 9.61436 19.3505 9.38142 19.3505C9.2927 19.3509 9.20405 19.3457 9.11598 19.335C8.81571 19.2963 8.43109 18.7763 8.43109 17.7362C8.43109 16.6976 8.56806 16.4794 8.81493 15.8502C9.06103 15.2203 9.41547 14.756 9.55245 14.1531C9.6902 13.551 10.3472 11.6349 11.1412 10.6784C11.8818 9.78297 13.2748 8.65232 16.1212 8.65232Z" fill="white"/>
</svg>
