<svg width="20" height="20" viewBox="0 0 20 20" fill="none" xmlns="http://www.w3.org/2000/svg">
<path d="M16 9.99998C16 13.3137 13.3137 16 10 16C6.68629 16 4 13.3137 4 9.99998C4 6.68627 6.68629 3.99998 10 3.99998C13.3137 3.99998 16 6.68627 16 9.99998ZM5.8 9.99998C5.8 12.3196 7.6804 14.2 10 14.2C12.3196 14.2 14.2 12.3196 14.2 9.99998C14.2 7.68039 12.3196 5.79998 10 5.79998C7.6804 5.79998 5.8 7.68039 5.8 9.99998Z" fill="white"/>
<path fill-rule="evenodd" clip-rule="evenodd" d="M11 3H9V7H11V3ZM17 11L13 11V9H17V11ZM9 13H11V17H9V13ZM7 11H3L3 9H7V11Z" fill="white"/>
</svg>
