<?xml version="1.0" encoding="utf-8"?>
<!-- Generator: Adobe Illustrator 24.2.3, SVG Export Plug-In . SVG Version: 6.00 Build 0)  -->
<svg version="1.1" id="Слой_1" xmlns="http://www.w3.org/2000/svg" xmlns:xlink="http://www.w3.org/1999/xlink" x="0px" y="0px"
	 viewBox="0 0 468 384.3" style="enable-background:new 0 0 468 384.3;" xml:space="preserve">
<style type="text/css">
	.st0{fill:#FFFFFF;}
	.st1{fill:url(#SVGID_1_);}
	.st2{fill:url(#SVGID_2_);}
	.st3{fill:url(#SVGID_3_);}
	.st4{fill:url(#SVGID_4_);}
	.st5{fill:url(#SVGID_5_);}
	.st6{fill:url(#SVGID_6_);}
	.st7{fill:url(#SVGID_7_);}
</style>
<g>
	<path class="st0" d="M66.2,129.3H45.6v-9.2c0-3.6,2.2-5.8,5.2-5.8c2.2-0.1,4.2,1.4,4.7,3.6c0.5-2.4,2.7-4,5.1-4
		c3.3,0,5.6,2.2,5.6,6V129.3z M51.2,117c-1.8-0.1-3.3,1.3-3.4,3.1c0,0.1,0,0.3,0,0.4v6.2h6.6v-6.2C54.5,118.3,53.1,117,51.2,117
		L51.2,117z M60.3,116.6c-1.9,0-3.5,1.6-3.5,3.5c0,0.1,0,0.2,0,0.3v6.3H64v-6.3C63.9,118.1,62.6,116.6,60.3,116.6L60.3,116.6z"/>
	<path class="st0" d="M66.2,104.7h-8.7l-11.9,8.1v-3l9.6-6.4l-9.6-6.4v-3l11.9,8.1h8.7V104.7z"/>
	<path class="st0" d="M63.3,84.7l-1.9-1.5c1.9-1.6,2.9-4,2.9-6.5c0-3.7-2-4.8-3.5-4.8C55.4,71.8,58.4,84,51,84c-3.4,0-5.7-3-5.7-7.1
		c-0.1-2.7,0.9-5.4,2.9-7.3l1.9,1.5c-1.6,1.6-2.5,3.7-2.5,6c0,2.4,1.3,4.2,3.3,4.2c4.6,0,2-12.2,9.7-12.2c3,0,6.1,2,6.1,7.6
		C66.7,79.8,65.5,82.6,63.3,84.7z"/>
	<path class="st0" d="M55.9,66.5c-5.7,0.2-10.5-4.3-10.6-10c0-0.2,0-0.4,0-0.6c-0.1-3.1,1.4-6.1,3.9-8l1.3,2c-1.8,1.5-2.9,3.7-2.8,6
		c0,4.5,3.5,7.9,8.4,7.9s8.4-3.4,8.4-7.9c0-2.1-0.8-4-2.2-5.5h-4.2v7.1h-2.3v-9.7h7.5c2.3,2.1,3.6,5,3.5,8.1
		c0.2,5.7-4.3,10.5-10,10.6C56.3,66.5,56.1,66.5,55.9,66.5z"/>
	<path class="st0" d="M66.2,43.5H45.6v-2.6h18.3v-9.5h2.3V43.5z"/>
	
		<linearGradient id="SVGID_1_" gradientUnits="userSpaceOnUse" x1="71.4674" y1="91.7587" x2="416.3974" y2="144.1587" gradientTransform="matrix(1 0 0 -1 0 161.2756)">
		<stop  offset="0" style="stop-color:#289548"/>
		<stop  offset="0.5" style="stop-color:#FFED00"/>
		<stop  offset="1" style="stop-color:#C20E1A"/>
	</linearGradient>
	<path class="st1" d="M86,97.3V30.9h15.9v52.2h25.9v14.2H86z"/>
	
		<linearGradient id="SVGID_2_" gradientUnits="userSpaceOnUse" x1="72.5303" y1="84.7299" x2="417.4702" y2="137.1399" gradientTransform="matrix(1 0 0 -1 0 161.2756)">
		<stop  offset="0" style="stop-color:#289548"/>
		<stop  offset="0.5" style="stop-color:#FFED00"/>
		<stop  offset="1" style="stop-color:#C20E1A"/>
	</linearGradient>
	<path class="st2" d="M133.4,97.3V30.9h40.9v13.7h-25.5v12h21.8v13.6h-21.8v13.2h25.9v14L133.4,97.3z"/>
	
		<linearGradient id="SVGID_3_" gradientUnits="userSpaceOnUse" x1="74.0565" y1="74.7145" x2="418.9865" y2="127.1145" gradientTransform="matrix(1 0 0 -1 0 161.2756)">
		<stop  offset="0" style="stop-color:#289548"/>
		<stop  offset="0.5" style="stop-color:#FFED00"/>
		<stop  offset="1" style="stop-color:#C20E1A"/>
	</linearGradient>
	<path class="st3" d="M177.5,97.3l33.8-68.4h1l33.1,68.4h-16.6l-4.2-9.7h-26.9l-4.3,9.7H177.5z M202.4,76.2h17.4l-8.6-20.8
		L202.4,76.2z"/>
	
		<linearGradient id="SVGID_4_" gradientUnits="userSpaceOnUse" x1="75.3037" y1="66.4629" x2="420.2437" y2="118.8629" gradientTransform="matrix(1 0 0 -1 0 161.2756)">
		<stop  offset="0" style="stop-color:#289548"/>
		<stop  offset="0.5" style="stop-color:#FFED00"/>
		<stop  offset="1" style="stop-color:#C20E1A"/>
	</linearGradient>
	<path class="st4" d="M302.7,60.5v32.3c-4.2,2.1-8.5,3.8-13,5c-4,1.1-8.1,1.7-12.3,1.7c-10.1,0-18.5-3.3-25.2-10
		c-6.7-6.7-10-15.1-10-25.3c0-10.3,3.4-18.7,10.1-25.5s15.3-10.1,25.7-10.1c7.6-0.1,15.1,2.2,21.4,6.5l-1.7,16.6
		c-2.6-2.8-5.8-5.1-9.2-6.8c-3-1.4-6.3-2.2-9.6-2.2c-5.6-0.2-10.9,2-14.8,6c-3.9,4-6,9.4-5.9,15c0,6.3,1.9,11.4,5.7,15.4
		c3.8,4,9.1,6.2,14.6,6c1.4,0,2.8-0.1,4.2-0.4c1.5-0.3,2.9-0.6,4.4-1.1V74h-12.6V60.5H302.7z"/>
	
		<linearGradient id="SVGID_5_" gradientUnits="userSpaceOnUse" x1="76.6259" y1="57.7788" x2="421.5659" y2="110.1788" gradientTransform="matrix(1 0 0 -1 0 161.2756)">
		<stop  offset="0" style="stop-color:#289548"/>
		<stop  offset="0.5" style="stop-color:#FFED00"/>
		<stop  offset="1" style="stop-color:#C20E1A"/>
	</linearGradient>
	<path class="st5" d="M328.9,30.9v36.5c0,5.9,1.1,10.2,3.2,13.2c2.2,2.9,5.4,4.4,9.8,4.4c4.2,0,7.4-1.4,9.6-4.1s3.3-6.7,3.4-11.9
		V30.9H369V69c0,9.6-2.5,17-7.4,22.4s-11.7,8-20.5,8c-8.8,0-15.7-2.7-20.6-8c-4.9-5.3-7.3-12.8-7.4-22.4V30.9H328.9z"/>
	
		<linearGradient id="SVGID_6_" gradientUnits="userSpaceOnUse" x1="78.1304" y1="47.8888" x2="423.0604" y2="100.2888" gradientTransform="matrix(1 0 0 -1 0 161.2756)">
		<stop  offset="0" style="stop-color:#289548"/>
		<stop  offset="0.5" style="stop-color:#FFED00"/>
		<stop  offset="1" style="stop-color:#C20E1A"/>
	</linearGradient>
	<path class="st6" d="M381.5,97.3V30.9h40.9v13.7h-25.5v12h21.8v13.6h-21.8v13.2h25.9v14L381.5,97.3z"/>
	<path class="st0" d="M139,120.7c0,7.1-4.8,11.6-11.4,11.7H97c-6.7,0-11.5-4.5-11.5-11.7S90.3,109,97,109h30.5
		C134.1,109,139,113.5,139,120.7z M127.5,114.4H97c-4.3,0-6.4,1.6-6.4,6.3s2.1,6.3,6.4,6.3h30.6c4.3,0,6.3-1.6,6.3-6.3
		S131.9,114.4,127.5,114.4z"/>
	<path class="st0" d="M195.1,109.3v5.2H146v4.6h46.8v5.1H146v7.7h-4.9v-22.6H195.1z"/>
	<path class="st0" d="M241.4,132.3h-21.9c-6.6,0-11.5-4.5-11.5-11.7s4.8-11.7,11.5-11.7h21.9c3.8-0.1,7.4,1.9,9.4,5.1l-3.9,3
		c-1-1.8-2.8-2.8-5.5-2.8h-21.9c-4.3,0-6.4,1.6-6.4,6.3s2.1,6.3,6.4,6.3h21.9c2.7,0,4.6-0.9,5.5-2.8l3.9,3
		C248.8,130.5,245.2,132.4,241.4,132.3z"/>
	<path class="st0" d="M289.7,126.8v5.1h-37.2v-22.6h4.9v17.5H289.7z"/>
	<path class="st0" d="M328.1,109.3h4.9V120c0,7.7-3.7,12.3-9.8,12.3h-22.7c-6.1,0-9.9-4.6-9.9-12.3v-10.7h4.9V120c0,5,1.4,7,4.9,7
		h22.7c3.4,0,4.9-2.1,4.9-7V109.3z"/>
	<path class="st0" d="M374.3,125.7c0,4.3-2.5,6.2-6.5,6.2h-32.3v-22.6h30.7c5.8,0,6.7,3.2,6.7,5.8c0,2-0.5,3.5-2,4.4
		C373.5,120.3,374.3,122.5,374.3,125.7z M366.6,117.9c1.4,0,2.8-0.3,2.8-1.8s-1.2-1.7-3.2-1.7h-25.9v3.4H366.6z M370.4,125.1
		c0-1.9-1.1-2-3.8-2h-26.2v3.8h27.5C369.1,126.9,370.4,126.9,370.4,125.1z"/>
	<path class="st0" d="M422.5,124.8c0,4.5-3.6,7.5-9,7.5h-27.4c-3.7-0.1-7.3-1.3-10.4-3.3l2.1-4.9c0,0,4.7,2.8,8.3,2.8h27.3
		c2.8,0,4.4-0.7,4.4-2.1c0-1.1-0.3-1.8-5.2-1.8h-27.3c-6.7,0-8.2-4.1-8.2-7.2c0-5,3.4-6.7,9-6.8h27.4c2.9,0,5.7,0.8,8.1,2.3l-1.7,5
		c-2-1.1-4.3-1.8-6.6-1.9H386c-2.8,0-4.3,0.3-4.3,1.4s0.1,1.8,5.3,1.8h27.2C419.4,117.6,422.5,120.2,422.5,124.8z"/>
</g>
<g>
	<path class="st0" d="M229.8,314.8h-10.9c-4.3,0-7.9,3.5-7.9,7.9v38.9c-0.1,4.2,3.1,7.7,7.3,7.9c0.2,0,0.3,0,0.5,0h10.9
		c4.3,0,7.9-3.5,7.9-7.9v-10.3h-8.4v8.7c0,1-0.8,1.7-1.7,1.7h-6c-1,0-1.7-0.8-1.7-1.7v-35.9c0-1,0.8-1.7,1.7-1.7h6
		c1,0,1.7,0.8,1.7,1.7v9.3h8.4v-10.7C237.7,318.4,234.1,314.8,229.8,314.8"/>
	<polygon class="st0" points="265.6,325.7 240.9,325.7 240.9,333.4 249.1,333.4 249.1,369.5 257.5,369.5 257.5,333.4 265.6,333.4 	
		"/>
	<polygon class="st0" points="129.7,350.3 128.9,350.3 128.9,325.7 120.5,325.7 120.5,369.5 127.9,369.5 137.1,346 138,346 
		138,369.5 146.4,369.5 146.4,325.7 138.9,325.7 	"/>
	<polygon class="st0" points="93.4,314.8 83.2,369.5 92.1,369.5 99.1,323.7 99.9,323.7 107.3,369.5 116.2,369.5 106,314.8 	"/>
	<path class="st0" d="M274.1,325.7l-9.2,43.8h8.5l1-5.6h11.2l1,5.6h8.5l-9.1-43.8H274.1z M275.8,356.6l3.9-23.2h0.8l3.9,23.2H275.8z
		"/>
	<path class="st0" d="M178.6,325.7l-9.2,43.8h8.5l1-5.6h11.3l1,5.6h8.5l-9.1-43.8H178.6z M180.3,356.6l3.9-23.2h0.8l3.9,23.2H180.3z
		"/>
	<polygon class="st0" points="171.7,325.7 152.7,325.7 152.7,369.5 161.1,369.5 161.1,333.4 171.7,333.4 	"/>
	<path class="st0" d="M346.3,325.7H337c-4.3,0-7.9,3.5-7.9,7.9v28.1c0,4.3,3.5,7.9,7.9,7.9h9.3c4.3,0,7.9-3.5,7.9-7.9v-28.1
		C354.2,329.2,350.6,325.7,346.3,325.7 M345.7,360.1c0,1-0.8,1.7-1.7,1.7h-4.7c-1,0-1.7-0.8-1.7-1.7v-24.9c0-1,0.8-1.7,1.7-1.7h4.7
		c1,0,1.7,0.8,1.7,1.8c0,0,0,0,0,0V360.1z"/>
	<polygon class="st0" points="44.8,248.7 44.8,369.5 68.1,369.5 68.1,270.7 399.2,270.7 399.2,369.5 422.5,369.5 422.5,248.7 	"/>
	<polygon class="st0" points="386.9,325.7 377.8,325.7 370.2,344.3 368.8,344.3 368.8,325.7 360.4,325.7 360.4,369.5 368.8,369.5 
		368.8,351.6 370.6,351.6 378.3,369.5 387.4,369.5 377.6,347.5 	"/>
	<path class="st0" d="M318,348.1v-0.8l0,0c3.3-0.7,5.7-3.6,5.7-7l0,0v-6.7c0-4.3-3.5-7.8-7.9-7.8h-16.3v43.8h16.7
		c4.3,0,7.9-3.5,7.9-7.9v-6.2l0,0C324.1,351.9,321.6,348.8,318,348.1L318,348.1z M308,333.4h5.6c1,0,1.7,0.8,1.7,1.7v7.4
		c0,1-0.8,1.7-1.7,1.7H308V333.4z M315.7,360c0,1-0.8,1.7-1.7,1.7h-6v-10.2h6c1,0,1.7,0.8,1.7,1.7V360z"/>
</g>
<linearGradient id="SVGID_7_" gradientUnits="userSpaceOnUse" x1="45.2629" y1="192.1378" x2="422.4771" y2="192.1378">
	<stop  offset="0" style="stop-color:#289548"/>
	<stop  offset="0.5" style="stop-color:#FFED00"/>
	<stop  offset="1" style="stop-color:#C20E1A"/>
</linearGradient>
<rect x="45.3" y="189.6" class="st7" width="377.2" height="5"/>
</svg>
