<svg width="320" height="80" viewBox="0 0 320 80" fill="none" xmlns="http://www.w3.org/2000/svg">
<path d="M310.81 13.6778C311.734 13.6641 312.657 13.6641 313.585 13.6572C313.818 13.9772 314.23 14.2469 314.198 14.6949C314.173 17.7738 314.173 20.8527 314.154 23.9315C315.098 23.9612 316.047 23.8835 316.991 23.9635C317.757 24.3544 318.287 25.0858 318.929 25.6504C319.473 26.1212 319.743 26.8367 319.66 27.5521C317.816 27.5635 315.971 27.5475 314.127 27.5612C314.04 28.1349 313.951 28.7109 313.846 29.2824C313.471 29.2801 313.096 29.2778 312.726 29.2778C312.646 29.3624 312.486 29.5315 312.406 29.6161C311.951 29.6275 311.427 29.5315 311.155 29.9955C310.522 30.1235 309.85 30.0184 309.208 30.0504C309.144 29.9429 309.018 29.7281 308.957 29.6207C303.091 29.6298 297.229 29.6092 291.366 29.6298C291.368 29.8264 291.37 30.2218 291.373 30.4184C290.451 30.4229 289.53 30.4229 288.611 30.4115C288.614 30.2149 288.614 29.8218 288.614 29.6252C281.713 29.6229 274.813 29.6069 267.912 29.6344C267.885 29.9269 267.853 30.2172 267.83 30.5144C266.92 30.5349 266.013 30.4892 265.112 30.3909C265.009 30.5829 264.909 30.7772 264.81 30.9715C261.078 31.6572 257.279 31.7578 253.503 32.0618C249.487 32.3841 245.464 32.6149 241.453 32.9624C239.715 33.3578 238.017 33.9109 236.285 34.3315C235.258 34.5029 234.211 34.3727 233.178 34.4229C231.578 34.5441 230.138 33.7349 228.685 33.2047C228.671 33.0058 228.643 32.6104 228.63 32.4138C223.997 32.6104 219.366 32.8778 214.733 33.0972C215.962 36.1395 217.224 39.1658 218.438 42.2127C218.584 42.5829 218.785 42.9327 219.032 43.2481C220.849 45.5521 222.639 47.8789 224.447 50.1875C224.92 50.7727 225.315 51.4332 225.901 51.9201C227.805 53.4424 229.704 54.9715 231.592 56.5121C231.992 56.8298 232.497 56.9624 232.954 57.1772C230.134 61.5521 227.185 65.8469 224.289 70.1738C224.083 69.9978 223.88 69.8241 223.679 69.6527C223.738 69.5224 223.859 69.2641 223.919 69.1338C221.295 66.9738 218.57 64.9372 215.933 62.7955C213.814 60.4229 211.777 57.9749 209.667 55.5932C209.299 55.1795 209.03 54.6972 208.765 54.2172C207.034 51.1315 205.256 48.0732 203.542 44.9829C202.845 43.2527 202.262 41.4789 201.631 39.7258C201.379 39.6321 201.137 39.5475 200.893 39.4561C200.648 41.3075 200.525 43.1932 200.104 45.0127C199.933 45.0195 199.59 45.0355 199.418 45.0424C199.475 43.8149 199.729 42.6081 199.807 41.3829C198.705 41.2435 197.608 41.0607 196.499 41.0012C196.518 40.5578 196.525 40.1144 196.534 39.6732C196.136 40.0732 195.866 40.5784 195.473 40.9784C194.767 41.3326 193.971 41.5018 193.183 41.4926C190.442 41.5086 187.704 41.5887 184.963 41.6229C184.259 41.0012 183.594 40.2927 183.411 39.3395C182.63 39.9864 181.441 40.3269 181.158 41.4081C179.587 45.5727 177.974 49.7235 176.399 53.8858C176.184 55.0835 176.397 56.3155 176.383 57.5269C174.966 58.1121 173.4 58.1167 171.914 58.4344C170.319 57.7144 168.696 57.0607 167.11 56.3247C166.707 56.1075 166.106 55.9109 166.141 55.3487C166.115 54.3818 165.786 53.4058 165.978 52.4458C167.304 48.4687 168.598 44.4801 169.937 40.5075C169.741 39.8721 169.528 39.2435 169.336 38.6104C169.002 37.5749 169.094 36.4755 169.005 35.4081C167.981 35.4195 166.959 35.5201 165.937 35.5521C165.393 35.2367 164.753 35.3441 164.159 35.3304C163.094 35.3487 162.003 35.1818 160.963 35.4835C156.275 36.6241 151.553 37.6344 146.879 38.8207C135.4 43.4195 123.917 48.0092 112.445 52.6287C111.101 53.3167 109.56 52.8549 108.122 52.9509C107.327 52.5372 107.062 51.6549 107 50.8229C107.295 44.0389 107.635 37.2572 107.933 30.4732C107.869 29.5429 108.547 28.8504 108.909 28.0595C109.208 27.4492 109.466 26.6904 110.193 26.4755C111.265 26.3887 112.339 26.3224 113.416 26.2972C123.165 26.5624 132.915 26.7932 142.666 27.0424C143.626 27.1567 144.657 26.9121 145.553 27.3624C146.778 27.9452 148.035 28.4572 149.311 28.9258C154.264 27.7121 159.208 26.4595 164.157 25.2252C164.698 25.0927 165.261 25.1064 165.818 25.1041C165.846 24.9715 165.901 24.7064 165.926 24.5738C166.877 23.7098 167.482 22.5601 168.186 21.5064C168.509 21.4515 168.895 21.5658 169.169 21.3349C170.739 20.1578 171.96 18.5875 173.489 17.3647C176.397 17.3121 179.306 17.2938 182.211 17.2184C183.439 17.0927 184.696 17.3121 185.901 16.9989C186.422 16.8047 186.927 17.1544 187.453 17.1475C191.192 17.1635 194.934 17.1429 198.673 17.1567C199.149 17.1704 199.601 17.0241 200.063 16.9304C200.595 16.9898 201.112 17.1772 201.656 17.1589C206.145 17.1498 210.634 17.1475 215.123 17.1589C215.898 17.1978 216.65 16.7429 217.409 17.0789C219.43 17.2527 221.475 17.1041 223.505 17.1498C223.512 16.8275 223.519 16.5052 223.528 16.1852C224.179 16.0892 224.794 16.2744 225.402 16.4915C226.275 16.5121 227.114 16.2104 227.971 16.0755C227.69 15.8127 227.414 15.5475 227.144 15.2755C225.672 15.2389 224.2 15.2412 222.728 15.1864C222.758 14.7772 222.785 14.3681 222.817 13.9589C223.137 14.0915 223.462 14.2469 223.599 14.5944C224.824 14.6469 226.049 14.6447 227.274 14.6629C227.311 14.5624 227.384 14.3612 227.421 14.2607C228.136 13.7235 229.089 13.9932 229.539 14.7292C231.203 14.7567 232.911 14.8001 234.536 14.4001C235.13 14.3864 235.624 14.7772 236.173 14.9487C236.993 15.2778 237.997 14.6812 238.735 15.2801C239.32 15.6801 239.368 16.4184 239.489 17.0515C239.485 16.8458 239.475 16.4389 239.471 16.2355C240.113 16.2538 240.931 15.8652 241.411 16.4618C241.462 16.3269 241.565 16.0572 241.615 15.9224C243.523 15.7555 245.443 15.8081 247.357 15.7509C253.302 15.5567 259.249 15.8744 265.19 16.0344C265.245 16.1761 265.357 16.4549 265.411 16.5944C265.599 15.8149 266.749 16.3109 267.334 16.1784C267.354 16.6172 267.375 17.0561 267.4 17.4972C269.174 17.5315 270.952 17.4218 272.721 17.5909C276.607 17.6275 280.493 17.5795 284.376 17.6138C284.961 18.8595 285.539 20.1144 286.23 21.3052C287.366 22.8412 289.425 22.9395 291.094 23.5018C291.133 23.6092 291.21 23.8195 291.249 23.9247C296.511 23.9475 301.773 23.9338 307.034 23.9315C307.068 23.5087 306.991 23.0492 307.203 22.6607C308.184 20.8984 309.256 19.1887 310.223 17.4195C310.561 16.2012 309.807 14.6927 310.81 13.6778ZM230.371 15.3829C230.104 15.2252 229.823 15.2138 229.533 15.3464C228.833 15.8835 230.355 15.8424 230.371 15.3829ZM309.695 20.4915C309.251 21.2572 308.769 21.9978 308.365 22.7841C309.91 22.8001 311.455 22.7909 313.002 22.7864C313.025 22.0664 313.151 21.3395 313.043 20.6241C311.971 20.2949 310.803 20.5532 309.695 20.4915ZM267.437 22.1738C267.421 22.3247 267.393 22.6264 267.377 22.7772C268.349 22.7224 269.32 22.7269 270.294 22.7407C270.296 23.1361 270.303 23.5361 270.31 23.9361C274.426 23.9361 278.545 23.9361 282.662 23.9361C282.671 23.4767 282.678 23.0195 282.691 22.5647C282.554 22.3955 282.419 22.2287 282.289 22.0618C280.403 21.9018 278.511 22.1144 276.623 21.9978C273.555 21.9612 270.504 22.2744 267.437 22.1738ZM240.931 22.8412C240.401 22.9098 239.841 22.8161 239.35 23.0652C246.742 23.1178 254.134 23.0721 261.526 23.0904C262.758 23.1201 263.967 22.8595 265.192 22.7681C263.601 22.5395 261.983 22.6881 260.394 22.4435C258.408 22.4435 256.415 22.3361 254.438 22.5532C251.923 22.5669 249.409 22.5281 246.897 22.4229C244.913 22.5327 242.838 22.1395 240.931 22.8412ZM270.381 27.5612C270.335 27.6618 270.241 27.8629 270.195 27.9635C269.45 28.0321 268.703 27.9818 267.958 27.9955C267.96 28.1441 267.962 28.4389 267.962 28.5852C274.838 28.6104 281.715 28.5487 288.589 28.6172C288.589 28.4618 288.589 28.1509 288.589 27.9955C286.801 27.9909 285.014 28.0047 283.226 27.9932C282.909 28.0138 282.698 27.8721 282.598 27.5635C278.525 27.5498 274.451 27.5544 270.381 27.5612ZM291.384 27.5567C291.384 27.8995 291.386 28.2447 291.389 28.5898C297.27 28.5829 303.149 28.5989 309.027 28.5829C309.03 28.4458 309.036 28.1715 309.039 28.0344C308.428 28.0321 307.818 28.0321 307.21 28.0207C307.133 27.6801 306.947 27.4607 306.577 27.5567C301.512 27.5567 296.447 27.5567 291.384 27.5567ZM186.696 34.5007C186.095 35.3967 185.853 36.5532 186.205 37.5932C186.435 38.4824 187.046 39.1887 187.587 39.9041C187.249 39.9955 186.97 39.9155 186.751 39.6687C185.873 38.8709 185.107 37.8538 184.936 36.6538C184.902 35.9772 184.92 35.2984 184.831 34.6264C184.497 34.6355 184.166 34.6447 183.837 34.6584C183.985 36.4298 183.702 38.3087 184.435 39.9795C184.79 40.4687 185.19 41.1109 185.83 41.2229C188.504 41.1361 191.183 41.1201 193.862 41.0652C194.255 41.0584 194.639 40.9601 195.021 40.8664C195.315 40.3704 195.773 39.8949 195.672 39.2709C195.585 37.7441 195.601 36.2081 195.405 34.6881C195.825 34.5281 196.271 34.4435 196.719 34.3864C196.225 34.3087 195.743 34.1738 195.256 34.0824C192.403 34.2149 189.551 34.3818 186.696 34.5007Z" fill="white"/>
</svg>
