<svg width="320" height="80" viewBox="0 0 320 80" fill="none" xmlns="http://www.w3.org/2000/svg">
<path d="M233.694 4.59814C235.367 4.48614 237.051 4.54328 238.717 4.32614C239.796 4.24157 240.882 3.97871 241.968 4.13414C242.649 4.39699 242.937 5.19014 243.556 5.53299C243.961 5.67014 244.093 5.29528 244.238 5.00956C245.198 5.15813 246.164 5.26785 247.14 5.24042C247.527 7.00042 247.52 8.81071 247.495 10.605C247.483 11.6976 247.401 12.7947 247.138 13.8598C246.139 13.8256 245.147 13.9398 244.162 14.0884C244.128 13.949 244.059 13.6701 244.025 13.5307C242.654 13.5307 241.28 13.5056 239.908 13.5536C240.091 13.629 240.457 13.7776 240.64 13.8507C240.628 14.029 240.605 14.3833 240.594 14.5593C241.234 14.6713 241.89 14.7238 242.516 14.9067C242.923 15.149 243.312 15.4324 243.769 15.5878C243.796 16.0358 243.822 16.4861 243.84 16.9364C244.144 16.9387 244.448 16.941 244.754 16.9456C244.809 17.0576 244.921 17.2793 244.976 17.389C245.65 17.3844 246.327 17.3867 247.006 17.3798C247.204 16.6896 248.311 16.7787 248.58 17.373C249.257 17.389 249.936 17.389 250.617 17.3753C250.786 16.8107 251.396 16.9616 251.849 16.8998C251.908 17.0233 252.029 17.2679 252.089 17.3913C252.841 17.3821 253.593 17.3821 254.347 17.3867C254.356 17.2701 254.375 17.0393 254.382 16.925C254.722 16.9364 255.063 16.9501 255.408 16.9661C255.479 17.0598 255.625 17.245 255.696 17.3387C256.414 17.4461 257.147 17.3753 257.872 17.3913C257.917 17.2633 258.013 17.0073 258.059 16.877C258.507 16.9456 259.063 16.8884 259.298 17.3776C259.997 17.3936 260.699 17.3913 261.401 17.3844C261.604 16.6987 262.722 16.765 262.98 17.3776C263.506 17.389 264.034 17.389 264.564 17.3776C264.722 17.0118 265.086 16.9364 265.438 16.8793C265.403 16.1456 266.235 16.0884 266.766 16.2164C267.543 16.4564 268.215 16.9296 268.914 17.3296C269.047 17.1193 269.179 16.9113 269.314 16.7033C269.906 17.037 270.496 17.373 271.088 17.7136C271.005 17.8827 270.839 18.2256 270.756 18.3947C272.05 19.261 273.959 19.7296 274.32 21.4713C273.732 21.6747 273.113 21.7158 272.5 21.629C272.505 21.8096 272.514 22.1684 272.519 22.3467C268.489 22.3216 264.455 22.4016 260.425 22.3353C262.093 22.5936 263.787 22.5158 265.469 22.5821C277.085 22.9113 288.697 23.2678 300.313 23.5924C300.32 23.4964 300.338 23.3067 300.345 23.2107C301.682 23.2564 303.042 23.0004 304.363 23.2564C304.434 23.3707 304.578 23.6016 304.651 23.7181C305.44 23.613 306.541 24.0998 307.092 23.3478C308.004 23.3158 308.919 23.3478 309.833 23.3067C310.098 23.1147 310.391 22.957 310.733 23.0027C313.755 23.0073 316.779 23.0073 319.803 23.005C319.961 24.6987 319.947 26.4061 319.844 28.1044C316.804 28.1044 313.767 28.125 310.729 28.0976C309.522 27.9124 308.306 27.869 307.088 27.8941C306.633 27.1993 305.675 27.5513 304.987 27.4918C304.605 27.3913 304.535 27.8644 304.32 28.045C302.996 28.077 301.673 28.0518 300.349 28.061C300.34 27.933 300.32 27.6747 300.311 27.5467C291.479 27.7524 282.649 28.0061 273.821 28.269C273.725 28.6736 273.634 29.0804 273.54 29.4873C273.143 29.3593 272.752 29.2336 272.365 29.0827C272.194 29.0713 271.851 29.053 271.68 29.0416C271.581 29.1307 271.385 29.3113 271.287 29.4004C269.805 29.4004 268.324 29.4256 266.843 29.4576C266.695 30.8016 266.528 32.1433 266.366 33.485C266.295 34.541 265.31 35.2724 265.337 36.3604C266.363 36.3558 267.401 36.2736 268.413 36.4976C268.251 38.4541 267.81 40.4016 267.997 42.3718C268.084 45.5741 268.128 48.7787 268.173 51.9833C268.176 52.3764 268.231 52.781 268.439 53.1284C268.989 54.0998 269.602 55.0393 270.1 56.0427C269.344 56.3993 268.594 56.8404 267.739 56.8884C266.299 56.9913 264.855 56.973 263.412 56.9593C262.34 56.9273 261.225 56.8998 260.244 56.4107C259.899 56.3238 259.988 55.8895 259.922 55.6313C259.869 54.4976 259.614 53.3501 259.854 52.2233C260.464 48.941 261.035 45.6496 261.65 42.3673C262.121 40.7718 260.989 39.3593 260.658 37.8553C261.524 37.2336 262.537 36.8701 263.584 36.6941C263.581 36.3741 263.584 36.0564 263.598 35.741C262.162 35.8827 260.727 36.0518 259.289 36.1456C259.266 36.0153 259.22 35.7547 259.198 35.6244C258.048 35.6518 256.891 35.5444 255.746 35.6633C253.89 35.965 252.004 35.6953 250.139 35.8324C249.449 35.9718 248.788 36.3444 248.333 36.8861C243.639 42.7056 238.941 48.5227 234.24 54.3353C232.457 54.797 230.72 55.4644 228.909 55.7958C224.105 55.8461 219.298 55.9444 214.493 55.949C213.664 55.9353 212.935 55.4804 212.18 55.1924C212.489 53.661 212.914 52.1547 213.266 50.6324C213.506 49.6678 213.643 48.6438 214.21 47.8004C215.218 46.205 216.146 44.5593 217.175 42.9753C218.18 41.7776 219.341 40.717 220.388 39.5558C220.361 38.4656 220.317 37.3753 220.295 36.2827C219.661 35.6061 219.021 34.9364 218.397 34.253C214.509 34.573 210.626 34.9456 206.738 35.2496C204.937 35.1604 204.082 37.2976 202.283 37.2838C202.948 40.877 203.597 44.4747 204.247 48.0724C204.407 48.9616 204.761 49.8004 205.069 50.6461C206.464 54.4221 207.815 58.2118 209.227 61.981C209.351 62.0404 209.597 62.157 209.721 62.2164C210.155 63.0736 210.423 64.0061 210.795 64.8953C208.962 65.6884 207.037 66.2393 205.152 66.8884C202.128 67.8941 199.102 68.9021 196.078 69.9124C196.062 68.9661 196.226 67.9924 195.954 67.069C194.333 61.9536 192.633 56.8587 191.065 51.7273C190.242 47.2061 189.483 42.6736 188.708 38.1456C188.315 38.0496 187.922 37.9558 187.529 37.869C185.762 39.0347 184.089 40.3513 182.249 41.4027C181.963 41.085 181.677 40.7627 181.396 40.4427C179.444 41.3684 177.481 42.2644 175.513 43.1536C175.063 43.3593 174.649 43.6358 174.272 43.9558C172.692 45.2747 171.111 46.5936 169.515 47.8918C168.551 48.5478 168.507 49.8393 168.21 50.8656C168.553 51.7753 169.319 52.461 169.668 53.3707C169.451 54.1456 169.044 54.8473 168.75 55.5947C165.337 55.8073 161.911 55.7204 158.498 55.9124C157.675 55.9467 156.814 55.7456 156.132 55.277C155.531 54.669 154.967 54.0176 154.459 53.3296C153.883 52.189 153.543 50.9387 153.351 49.6793C152.791 46.1387 151.799 42.6827 151.129 39.1627C150.759 35.8896 150.404 32.6141 150.052 29.3387C149.87 27.7776 150.187 26.2233 150.67 24.7444C151.938 23.7204 153.054 22.5227 154.295 21.4713C155.54 20.9158 156.898 20.477 158.281 20.5524C168.187 20.5296 178.089 20.3261 187.995 20.3467C195.981 20.3284 203.97 20.3421 211.956 20.3078C212.139 19.5261 212.941 19.2267 213.517 18.7833C214.299 18.2758 215.003 17.613 215.899 17.3044C216.631 17.1193 217.387 17.0278 218.142 16.9821C218.523 16.8907 218.829 17.1101 219.092 17.357C219.396 17.3661 219.705 17.373 220.014 17.3753C220.244 16.7238 220.983 16.9936 221.504 16.9433C221.554 16.2141 221.698 15.4964 221.961 14.813C221.799 14.7261 221.476 14.5501 221.314 14.4633C221.506 14.3398 221.89 14.0907 222.08 13.9673C221.929 13.8896 221.63 13.7364 221.479 13.6587C221.401 13.293 221.328 12.9296 221.245 12.5661C220.704 12.6324 220.055 12.5821 220.043 13.3136C218.999 13.2473 217.671 13.6496 216.994 12.605C216.164 12.5776 215.335 12.5684 214.507 12.6278C214.066 12.7993 213.591 12.845 213.124 12.8861C212.866 12.4724 212.569 12.0564 212.532 11.5513C212.324 10.1113 212.299 8.62785 212.583 7.19699C212.663 6.76728 212.994 6.46099 213.255 6.13642C214.507 6.60042 215.842 6.55699 217.154 6.52728C217.159 6.365 217.17 6.04042 217.175 5.87813C218.116 5.66099 219.092 5.67014 220.043 5.83242C220.075 6.24614 220.276 6.44728 220.649 6.43357C220.649 5.89871 220.615 5.36842 220.59 4.84042C221.794 4.73985 223.042 4.61185 224.224 4.93871C224.201 5.27242 224.178 5.60842 224.151 5.94442C225.188 5.86899 226.199 5.61299 227.216 5.40956C229.357 5.00728 231.524 4.76957 233.694 4.59814ZM233.659 35.8667C233.01 37.2724 233.527 38.813 233.593 40.2781C232.546 40.2896 231.502 40.2918 230.457 40.2896C230.345 40.5456 230.24 40.8061 230.148 41.0736C229.282 41.0713 228.411 40.9981 227.547 41.0918C226.686 41.9787 225.97 43.0027 225.191 43.9604C224.267 45.3593 223.597 46.9067 222.77 48.3627C221.934 49.6998 222.018 51.3387 221.657 52.8267C224.222 53.0827 226.791 53.3456 229.362 53.501C230.653 53.2244 231.924 52.7878 233.154 52.301C233.641 51.8027 233.97 51.1741 234.377 50.6118C237.04 46.7856 239.684 42.9456 242.356 39.1261C242.523 38.8701 242.708 38.6187 242.798 38.3238C242.491 37.4713 242.02 36.6918 241.636 35.8758C238.978 35.8713 236.32 35.8416 233.659 35.8667Z" fill="white"/>
</svg>
