<svg width="320" height="80" viewBox="0 0 320 80" fill="none" xmlns="http://www.w3.org/2000/svg">
<path d="M112.3 10.7136C113.291 10.7096 114.281 10.6385 115.271 10.6789C115.839 10.6886 116.405 10.7007 116.973 10.712C117.111 10.7047 117.236 10.7694 117.36 10.8268C117.354 12.2045 117.348 13.5823 117.362 14.9601C117.679 15.1096 118.147 14.8906 118.397 15.2163C118.708 15.5581 119.14 15.8102 119.317 16.2571C120.411 16.2554 121.505 16.2716 122.599 16.2482C122.61 15.9726 122.631 15.6995 122.644 15.4255C123.688 15.3997 124.732 15.4215 125.776 15.415C126.151 15.4264 126.547 15.3536 126.896 15.5298C126.926 15.7641 126.94 16.0009 126.939 16.2385C128.357 16.2773 129.778 16.2571 131.196 16.2482C133.65 15.6833 136.091 15.0546 138.54 14.4655C140.964 13.8724 143.389 13.2785 145.813 12.6853C146.078 12.6223 146.342 12.5294 146.619 12.5342C148.265 12.5375 149.911 12.5399 151.557 12.5431C152.39 12.5261 153.228 12.5973 154.057 12.4817C154.391 12.4445 154.728 12.4017 155.065 12.3799C155.203 14.9577 155.165 17.5403 155.179 20.1205C155.158 22.4461 155.212 24.7742 155.055 27.0958C154.482 27.0369 153.911 26.9512 153.337 26.9221C151.206 26.9237 149.076 26.9278 146.945 26.9342C146.277 26.9827 145.65 26.712 145.006 26.5876C140.416 25.474 135.826 24.3629 131.236 23.2502C130.927 23.196 130.613 23.2292 130.302 23.2227C129.199 23.2171 128.094 23.23 126.991 23.2146C126.947 24.2021 127.002 25.1912 126.998 26.1795C127.01 27.1225 126.953 28.0664 126.994 29.0102C127.263 28.8146 127.499 28.5722 127.787 28.4025C128.152 28.4486 128.384 28.8001 128.682 28.9932C128.895 28.9948 129.111 29.0094 129.325 28.99C129.659 28.8704 129.863 28.4672 130.214 28.4066C130.528 28.5278 130.755 28.809 131.033 28.9981C132.094 29.0013 133.155 28.9868 134.216 29.0053C134.216 29.3666 134.21 29.7278 134.205 30.0898C132.473 30.0962 130.74 30.093 129.009 30.0987C130.66 30.1286 132.313 30.0874 133.965 30.1213C133.974 30.2425 133.99 30.3686 134.003 30.4922C135.381 30.4971 136.761 30.493 138.139 30.4946C138.597 30.5035 139.073 30.4364 139.509 30.6231C140.151 30.7839 140.772 31.112 141.452 31.0441C194.087 31.0595 246.722 31.091 299.356 31.1047C299.449 30.7427 299.553 30.3823 299.636 30.0171C301.954 29.9702 304.274 30.0065 306.593 29.9977C306.669 30.2789 306.749 30.5609 306.826 30.8445C309.212 30.8518 311.597 30.8453 313.982 30.8478C315.626 30.8664 317.27 30.8979 318.914 30.9164C319.085 30.9092 319.229 31.0312 319.346 31.1492C319.847 32.1043 319.904 33.2154 319.847 34.2732C319.766 34.8308 319.768 35.4134 319.52 35.9322C319.439 36.2223 319.251 36.5528 318.909 36.5504C316.728 36.5763 314.546 36.6328 312.364 36.6223C310.523 36.6199 308.683 36.6264 306.843 36.6191C306.809 36.8664 306.777 37.1144 306.744 37.3625C306.303 37.596 305.872 37.8441 305.438 38.0866C305.225 38.1997 305.018 38.3653 304.766 38.3346C303.633 38.3177 302.498 38.3661 301.368 38.2926C301.199 38.2894 301.06 38.1868 300.924 38.1116C300.448 37.8344 299.961 37.5783 299.49 37.2963C299.459 36.9859 299.423 36.6781 299.387 36.3702C263.978 36.3831 228.57 36.396 193.161 36.4138C193.161 39.2841 193.161 42.1552 193.161 45.0255C192.663 45.0272 192.164 45.049 191.667 45.0336C191.808 45.3657 191.746 45.7326 191.72 46.0817C190.741 46.0849 189.763 46.076 188.786 46.0857C189.003 46.1754 189.213 46.2926 189.442 46.3597C189.957 46.3613 190.488 46.4146 190.988 46.2514C191.081 46.3177 191.184 46.3815 191.312 46.3653C195.288 46.3621 199.263 46.3645 203.24 46.3637C203.211 46.0017 203.395 45.6857 203.584 45.394C203.777 45.4005 203.973 45.4021 204.17 45.4029C204.172 45.5088 204.175 45.6162 204.18 45.7253C204.332 45.5274 204.615 45.6437 204.831 45.6138C204.938 45.8619 205.037 46.1132 205.142 46.3637C206.642 46.3621 208.142 46.3613 209.641 46.3637C209.71 46.1771 209.776 45.9896 209.837 45.8013C211.34 45.7835 212.845 45.7932 214.349 45.7892C214.353 45.8554 214.362 45.988 214.367 46.0542C214.696 46.055 215.027 46.0478 215.358 46.0696C215.363 46.2352 215.37 46.4017 215.381 46.5698C221.904 46.6037 228.426 46.6441 234.949 46.67C234.98 46.3855 235.018 46.1035 235.053 45.8207C236.302 45.7956 237.551 45.8215 238.8 45.8029C238.858 45.6179 238.917 45.4328 238.983 45.2502C239.232 45.5201 239.381 45.8676 239.633 46.1358C239.915 46.1698 240.202 46.1512 240.488 46.1342C240.536 45.9387 240.587 45.7439 240.646 45.5524C241.24 46.2764 241.749 47.0716 242.298 47.832C241.747 48.5884 241.21 49.3544 240.66 50.1116C240.604 49.9201 240.557 49.7294 240.512 49.5379C240.056 49.5193 239.601 49.5338 239.148 49.5257C239.091 49.5863 239.038 49.6494 238.989 49.7132C238.972 49.6672 238.94 49.5758 238.924 49.5298C238.214 49.5249 237.506 49.5274 236.797 49.5249C236.754 49.3851 236.71 49.2461 236.668 49.1104C236.13 49.1201 235.592 49.1161 235.056 49.1169C235.037 48.9803 235.02 48.8453 235.01 48.7128C228.474 48.7306 221.938 48.7645 215.402 48.7936C215.383 49.0538 215.367 49.3156 215.352 49.5783C213.81 49.5734 212.269 49.5767 210.727 49.5678C210.701 49.4587 210.679 49.3512 210.66 49.2462C210.395 49.2421 210.13 49.2429 209.868 49.2558C209.831 49.1678 209.798 49.0813 209.768 48.9956C208.182 48.9908 206.597 48.9884 205.01 48.9916C204.953 49.1863 204.893 49.3803 204.832 49.5742C204.627 49.5702 204.425 49.5686 204.225 49.5694C204.213 49.4223 204.208 49.2793 204.209 49.1354C204.148 49.4247 203.763 49.2591 203.554 49.2817C203.532 49.1831 203.515 49.0861 203.499 48.9908C202.818 48.9924 202.137 48.9714 201.457 48.9989C201.344 49.2179 201.248 49.4465 201.118 49.6558C200.902 49.7795 200.643 49.794 200.407 49.8498C200.344 49.6171 200.277 49.3859 200.211 49.1556C199.933 49.3326 199.682 49.5468 199.409 49.7294C199.068 49.6049 198.69 49.5233 198.479 49.2009C198.209 49.2179 197.907 48.9488 197.701 49.2243C197.474 49.4627 197.145 49.5072 196.835 49.5362C196.597 49.3399 196.444 48.8914 196.075 48.9989C195.86 49.0328 195.647 48.9593 195.437 48.9876C195.225 49.0764 195.055 49.2421 194.864 49.3666C194.69 49.2437 194.519 49.1185 194.357 48.9843C191.62 48.9779 188.883 48.9787 186.146 48.973C185.618 48.8963 185.532 49.6219 185.086 49.7472C184.656 49.8676 184.223 49.9791 183.797 50.1051C183.559 50.1633 183.449 50.4203 183.232 50.5084C182.722 50.535 182.21 50.5245 181.7 50.5302C181.549 50.4009 181.404 50.2643 181.245 50.1488C181.041 50.0025 180.743 50.1173 180.553 49.9532C179.869 49.2914 179.196 48.6167 178.521 47.9451C178.332 47.752 178.107 47.5807 177.999 47.327C177.791 46.8874 177.586 46.4478 177.373 46.0114C177.237 45.7698 177.274 45.4837 177.26 45.2195C165.944 45.3132 154.627 45.3463 143.311 45.4223C143.069 45.428 142.818 45.3924 142.589 45.4821C138.241 47.0942 133.891 48.6991 129.542 50.3072C129.229 50.4074 128.934 50.5763 128.602 50.6013C126.044 50.7548 123.485 50.9132 120.927 51.0684C119.931 51.1169 118.934 51.2138 117.938 51.2324C116.749 50.8655 115.578 50.4348 114.39 50.0647C113.761 50.4534 113.121 50.8227 112.488 51.2025C112.235 51.3383 112.008 51.5435 111.714 51.575C111.419 51.6033 111.222 51.9015 110.913 51.8732C107.92 52.0154 104.935 52.2934 101.94 52.3742C101.62 52.3468 101.286 52.4922 101.121 52.7734C100.698 53.4514 100.269 54.1253 99.8475 54.8033C99.7433 54.9819 99.5283 55.0328 99.3586 55.1233C98.7283 55.4061 98.1263 55.756 97.4693 55.9734C97.1049 56.0542 96.7267 55.9993 96.3582 56.0227C93.6398 56.0631 90.9214 56.1035 88.2031 56.1439C87.9033 56.1423 87.5922 56.1876 87.3069 56.0769C86.6717 55.8514 86.0156 55.6809 85.3893 55.436C84.9012 55.0369 84.4988 54.5165 83.9978 54.148C83.8386 54.4098 83.7909 54.7387 83.6721 55.0255C83.0782 56.754 82.4915 58.4857 81.8968 60.2134C81.6778 60.7484 81.6722 61.3342 81.5784 61.8983C81.2665 64.2029 80.9513 66.5076 80.6402 68.8122C80.3606 68.9148 80.1061 69.1257 79.7974 69.1193C77.8289 69.0433 75.8596 68.9665 73.8903 68.8962C73.6083 68.8946 73.3562 68.7548 73.0968 68.6659C70.9635 67.8756 68.8366 67.0676 66.7 66.2886C64.5821 65.9548 62.4544 65.676 60.3332 65.3641C59.9534 65.3213 59.5776 65.2162 59.1946 65.2445C57.6827 65.3811 56.1716 65.5185 54.6596 65.6494C53.3029 64.6554 51.9396 63.672 50.5804 62.6821C50.3655 62.5221 50.1303 62.3839 49.955 62.1795C48.6718 60.6975 47.3707 59.2316 46.0924 57.7455C41.942 57.7843 37.7909 57.8692 33.6406 57.9217C33.1542 59.9484 32.6855 61.9799 32.2023 64.0082C31.5598 64.1366 30.9303 64.4162 30.2629 64.3274C26.5724 64.2288 22.8827 64.1116 19.1922 64.0292C19.1267 64.2191 19.0556 64.4098 18.9764 64.5964C18.5174 64.6991 18.0447 64.6627 17.5784 64.6878C15.8095 64.7451 14.039 64.7694 12.2717 64.8478C9.98649 65.4061 7.71255 66.0146 5.42649 66.569C5.2972 66.2045 5.10164 65.849 5.1275 65.4506C5.10326 63.3528 4.9174 61.255 5.04346 59.1589C5.38366 51.6162 5.56306 44.0672 5.87013 36.5229C5.88791 36.0639 5.86932 35.5969 6.00831 35.1532C6.12144 34.7459 6.17397 34.3193 6.32023 33.9233C6.49477 33.7617 6.65801 33.5338 6.88831 33.4668C8.96912 33.5904 11.0475 33.7657 13.1283 33.887C15.0225 33.8433 16.9166 33.807 18.8099 33.7504C18.9732 33.9031 19.1566 34.0429 19.2851 34.2296C19.3368 34.367 19.3513 34.5156 19.3837 34.6611C20.0641 34.3007 20.7517 33.9565 21.4346 33.6001C21.6439 33.4934 21.8532 33.3472 22.1012 33.3666C30.9877 33.3657 39.8734 33.3674 48.759 33.3666C49.0289 33.3771 49.3239 33.3124 49.5695 33.4595C50.4463 33.9346 51.3408 34.3799 52.2136 34.8623C52.4059 35.4223 52.4827 36.0211 52.6394 36.5948C62.0164 36.5948 71.3934 36.5973 80.7703 36.5754C81.4322 36.5657 82.0948 36.5892 82.7566 36.5633C83.218 36.3888 83.6657 36.173 84.1449 36.0397C84.1449 35.9112 84.1465 35.7835 84.1497 35.6583C84.5909 35.6179 85.0362 35.6381 85.4782 35.5969C85.2681 35.575 85.0572 35.5686 84.8471 35.5629C84.8487 33.7439 84.8705 31.9249 84.8956 30.106C88.4746 30.1011 92.0536 30.114 95.6326 30.11C96.4924 30.0987 97.3554 30.1698 98.2144 30.1035C97.4895 30.0235 96.7614 30.127 96.0358 30.0971C95.1647 30.0922 94.2936 30.1011 93.4225 30.0874C93.4095 29.7245 93.3966 29.3617 93.3837 29.0005C94.2144 28.9859 95.0467 29.0126 95.8774 28.9876C96.1707 28.8356 96.38 28.5593 96.6742 28.409C97.0774 28.3144 97.3417 28.6676 97.6285 28.8785C97.795 29.0457 98.0552 29.0142 98.2685 28.9771C98.5287 28.7993 98.7639 28.5859 99.0168 28.3969C99.4871 28.3266 99.7554 28.7629 100.113 28.9763C100.326 29.0126 100.591 29.0482 100.761 28.8793C100.96 28.7169 101.161 28.5569 101.363 28.3969C101.846 28.3395 102.13 28.7896 102.496 29.0191C102.487 27.0837 102.501 25.1484 102.489 23.213C101.317 23.2259 100.143 23.1936 98.9715 23.2276C96.6184 23.6154 94.2661 24.0138 91.9138 24.4082C91.6738 24.4462 91.4297 24.4405 91.1889 24.4429C86.5037 24.4785 81.8184 24.531 77.1332 24.5609C76.9901 24.2692 76.7623 24.009 76.721 23.6785C76.6079 22.872 76.4309 22.0712 76.4398 21.2534C76.3647 20.1496 76.3703 19.0449 76.4431 17.9411C76.4334 17.1767 76.6112 16.4308 76.7194 15.6793C76.7526 15.3706 76.9861 15.1443 77.1469 14.8971C81.8023 14.9447 86.4568 14.9827 91.1113 15.0215C91.7926 14.9868 92.4568 15.1605 93.1259 15.2575C95.1485 15.5872 97.1695 15.9274 99.193 16.2506C100.298 16.2781 101.407 16.2643 102.514 16.2554C102.539 15.9758 102.572 15.6971 102.601 15.4183C103.836 15.4078 105.072 15.4199 106.307 15.4118C106.552 15.4013 106.789 15.4773 107.022 15.5435C107.057 15.7811 107.082 16.0211 107.099 16.2611C107.993 16.2579 108.888 16.2732 109.78 16.2538C109.837 15.8498 110.225 15.6777 110.498 15.432C110.676 15.2938 110.834 15.1249 111.035 15.0167C111.452 14.9746 111.874 14.9876 112.295 14.9641C112.299 13.5468 112.288 12.1302 112.3 10.7136ZM107.14 23.2163C107.128 25.0433 107.138 26.8712 107.134 28.6983C107.262 28.6037 107.388 28.5051 107.51 28.4009C107.967 28.3476 108.239 28.7742 108.583 28.9973C108.711 28.9956 108.84 28.9956 108.972 28.9973C109.219 28.8009 109.47 28.6094 109.71 28.4025C110.16 28.35 110.429 28.7734 110.767 28.9948C110.976 28.9965 111.184 28.9965 111.394 28.9981C111.641 28.8009 111.893 28.6086 112.132 28.4017C112.502 28.3492 112.738 28.6684 113.005 28.8647C113.217 29.0765 113.546 28.9908 113.816 28.9868C114.113 28.8364 114.319 28.5488 114.62 28.4057C115.125 28.3524 115.332 29.049 115.835 29.0013C116.016 28.99 116.231 29.0433 116.38 28.9084C116.607 28.7476 116.795 28.5294 117.046 28.4049C117.452 28.3944 117.693 28.8025 118.016 28.9965C118.219 28.9868 118.436 29.0288 118.635 28.9698C118.896 28.792 119.128 28.5738 119.382 28.3864C119.794 28.413 120.016 28.8138 120.361 28.9868C120.607 28.9964 120.909 29.0668 121.105 28.868C121.313 28.7169 121.487 28.5124 121.724 28.4041C122.08 28.4049 122.291 28.7629 122.579 28.9294C122.563 27.0304 122.56 25.1306 122.585 23.2316C121.479 23.2041 120.373 23.2276 119.266 23.2179C119.234 23.4926 119.001 23.651 118.82 23.8304C118.652 23.9896 118.488 24.1504 118.323 24.3128C116.392 24.3993 114.457 24.3621 112.524 24.354C111.992 24.3266 111.453 24.3807 110.928 24.2991C110.535 23.9686 110.124 23.6373 109.818 23.2211C108.925 23.209 108.032 23.2179 107.14 23.2163ZM309.503 31.8029C309.412 32.0235 309.251 32.2377 309.285 32.489C309.326 32.9173 309.352 33.3472 309.348 33.7787C309.341 34.1544 309.498 34.5027 309.583 34.8639C309.75 34.8954 309.923 34.8825 310.092 34.8421C310.181 34.4922 310.325 34.1488 310.319 33.7819C310.315 33.3455 310.34 32.9108 310.387 32.4777C310.412 32.2393 310.275 32.0292 310.201 31.815C309.968 31.7609 309.733 31.7601 309.503 31.8029ZM64.9918 45.9637C64.3913 46.1464 63.7724 46.2789 63.1825 46.4914C62.3275 47.306 61.5105 48.1641 60.6645 48.99C60.5578 49.0975 60.4334 49.2017 60.3905 49.3536C60.1045 50.2288 59.816 51.1031 59.5315 51.9783C59.4798 52.0979 59.5105 52.2263 59.5364 52.3516C59.7449 53.327 59.9412 54.3039 60.1465 55.2801C61.0992 56.0793 62.0366 56.8995 63.0031 57.6809C63.5057 57.7835 64.0212 57.815 64.5295 57.8926C65.441 57.996 66.3493 58.1488 67.2633 58.2247C68.3841 57.8344 69.4895 57.3965 70.6071 56.994C70.9465 56.8849 71.1744 56.594 71.4483 56.3823C72.0802 55.828 72.7429 55.3059 73.357 54.7322C73.7756 54.0163 74.1562 53.2761 74.5619 52.552C74.7307 52.2142 74.9489 51.8991 75.0928 51.55C75.172 50.4785 75.2099 49.4021 75.2617 48.3282C74.6063 47.5039 73.9582 46.674 73.3029 45.849C72.0204 45.6502 70.738 45.4554 69.4556 45.2583C69.0225 45.2074 68.595 45.0926 68.1602 45.0821C67.1 45.3601 66.0487 45.6736 64.9918 45.9637ZM86.498 45.5476C86.0794 46.2086 85.6212 46.847 85.2204 47.5185C85.1695 48.4041 85.1905 49.2946 85.1647 50.1819C85.1663 50.9019 85.1146 51.6251 85.1526 52.3443C85.4903 52.914 85.875 53.4571 86.2265 54.0203C86.3324 54.1771 86.4148 54.3783 86.6136 54.4413C87.1752 54.6684 87.7206 54.9431 88.2903 55.1484C91.3037 55.1799 94.3194 55.1621 97.3336 55.1799C97.6148 55.2162 97.8111 54.9819 98.0334 54.8518C98.233 54.6999 98.481 54.5997 98.6402 54.4017C98.8802 53.9354 99.0992 53.4587 99.336 52.9908C99.4637 52.6773 99.7093 52.392 99.6932 52.0365C99.6996 50.9108 99.7425 49.7843 99.736 48.6595C99.6261 48.367 99.4289 48.1165 99.2859 47.8409C98.8512 47.1112 98.4447 46.3637 97.9946 45.6445C95.6988 45.6453 93.4031 45.6017 91.1081 45.5904C91.0031 46.2837 90.8827 46.9754 90.7914 47.6712C90.7501 48.6207 90.7631 49.5726 90.7299 50.5237C91.121 51.0037 91.5388 51.4627 91.9364 51.9387C92.0439 52.0631 92.1473 52.2158 92.3235 52.249C92.9837 52.4413 93.6423 52.6441 94.3025 52.8389C94.2839 52.9657 94.2677 53.0967 94.2515 53.2276C94.0956 53.2583 93.9388 53.3035 93.782 53.2744C93.0119 53.1694 92.241 53.0732 91.4726 52.9682C90.9909 52.4558 90.5077 51.9459 90.0229 51.4377C89.8515 51.2316 89.6083 51.0708 89.4952 50.8276C89.4322 49.8053 89.378 48.7815 89.3384 47.7577C89.3829 47.0255 89.5113 46.3007 89.5905 45.5718C88.5594 45.5662 87.5291 45.55 86.498 45.5476ZM187.338 46.0817C187.377 46.1795 187.422 46.2797 187.469 46.3799C187.546 46.3476 187.701 46.2829 187.779 46.2514C187.814 46.2797 187.882 46.3379 187.917 46.367C188.091 46.3637 188.267 46.3621 188.446 46.3621C188.471 46.2676 188.503 46.1763 188.534 46.0849C188.134 46.0801 187.736 46.0809 187.338 46.0817ZM199.097 48.9787C199.025 49.0789 199.196 49.2203 199.28 49.1217C199.346 49.0158 199.177 48.8833 199.097 48.9787Z" fill="white"/>
</svg>
