<svg width="320" height="80" viewBox="0 0 320 80" fill="none" xmlns="http://www.w3.org/2000/svg">
<path d="M226.374 24.5479C227.084 24.4856 227.799 24.4322 228.514 24.3833C229.961 28.0628 229.202 32.0583 229.45 35.898C230.569 35.9024 231.692 35.9291 232.815 35.9068C234.501 35.9914 235.97 34.8835 237.666 35.0348C254.688 35.0215 271.71 34.7723 288.728 34.8034C299.012 36.1026 309.234 37.9001 319.536 39.0569C316.309 41.4506 313.237 44.2136 309.416 45.6285C304.635 47.8753 299.247 47.8887 294.089 48.3959C290.104 48.8986 286.082 48.7029 282.079 48.7785C264.511 48.8319 246.947 49.09 229.379 49.1879C229.255 51.2879 229.135 53.3924 229.06 55.4969C228.163 55.5636 227.266 55.577 226.374 55.617C226.232 52.8852 226.019 50.1578 225.908 47.4259C223.502 47.5639 221.039 48.2046 218.664 47.5416C216.392 48.2001 213.973 48.0444 211.669 47.6707C209.423 48.1067 207.093 48.1334 204.851 47.6885C202.685 48.2179 200.391 48.3247 198.233 47.7152C195.894 48.2802 193.404 48.3959 191.11 47.5906C189.707 47.813 188.287 47.9287 186.92 48.3203C184.256 49.2279 181.411 48.645 178.664 48.8186C177.585 48.8453 176.524 49.1612 175.441 49.09C173.657 47.6929 174.083 45.1435 174.03 43.1458C174.167 41.1926 173.701 39.1192 174.38 37.2505C174.7 36.1382 175.996 36.3607 176.884 36.3117C179.702 36.374 182.521 36.1071 185.339 36.2806C187.568 36.6988 189.84 37.6643 192.135 37.0948C194.132 36.6009 196.245 36.6454 198.242 37.1615C200.395 36.6187 202.69 36.5253 204.843 37.1259C207.066 36.4719 209.41 36.641 211.674 36.9836C213.982 36.6899 216.374 36.3384 218.66 37.0192C220.977 36.3651 223.4 36.7389 225.771 36.6632C225.886 32.6277 225.331 28.5122 226.374 24.5479ZM293.357 41.5085C294.578 41.9 295.923 41.722 297.192 41.6864C298.213 41.8288 298.382 40.6275 298.803 39.9868C298.421 39.5019 298.075 39.0035 297.645 38.5764C296.273 38.3895 294.879 38.4207 293.512 38.5719C292.514 39.1014 292.536 40.8233 293.357 41.5085Z" fill="white"/>
</svg>
