<svg width="320" height="80" viewBox="0 0 320 80" fill="none" xmlns="http://www.w3.org/2000/svg">
<path d="M307.632 9.893C308.264 9.029 310.253 9.181 310.227 10.4797C310.379 13.7437 310.163 17.0183 310.008 20.2797C313.219 20.181 316.413 19.6423 319.632 19.7517C319.763 21.3997 319.8 23.061 319.627 24.709C316.395 24.8103 313.187 24.2637 309.963 24.173C309.957 24.6103 309.955 25.0503 309.955 25.4903C309.715 25.4903 309.237 25.4903 309 25.4903C308.979 25.2103 308.939 24.6477 308.917 24.3677C308.773 24.6663 308.635 24.9677 308.499 25.269C308.304 25.2717 307.915 25.277 307.72 25.277C307.595 24.9943 307.472 24.7117 307.352 24.429C306.645 24.4237 305.941 24.429 305.237 24.4477C304.739 25.0717 304.328 25.9757 303.405 25.9837C303.184 25.5543 302.963 25.1277 302.741 24.6983C302.333 24.9623 301.939 25.253 301.621 25.6263C302.611 26.0103 303.643 26.1917 304.707 26.1943C304.733 29.9357 304.803 33.6797 304.712 37.421C304.64 38.1117 304.712 38.9197 304.216 39.4717C302.333 39.5863 300.44 39.485 298.557 39.509C298.509 39.0957 298.464 38.6823 298.421 38.2743C282.357 38.2583 266.291 38.2797 250.227 38.2877C250.2 38.7517 250.173 39.2183 250.149 39.685C249.453 39.685 248.76 39.685 248.067 39.685C247.661 37.421 247.52 35.1357 247.379 32.845C246.885 32.7703 246.389 32.6957 245.899 32.6237C245.899 33.7383 246.115 35.1517 244.907 35.7463C244.272 36.9037 243.904 38.1943 243.213 39.317C243.056 39.3463 242.744 39.405 242.587 39.4343C242.875 38.533 243.309 37.6877 243.621 36.797C243.08 36.1863 242.288 35.885 241.491 35.821C241.189 36.3517 240.947 36.9783 240.411 37.3197C239.301 37.9197 238.005 37.8023 236.792 37.8663C234.744 37.9063 232.704 38.1143 230.656 38.1063C229.253 37.981 228.04 37.1383 227.44 35.8663C226.597 35.9997 225.272 35.629 224.907 36.6663C223.293 41.3117 221.763 45.9863 220.171 50.6397C219.779 51.541 220.355 52.429 220.664 53.2583C220.389 53.6743 220.197 54.2877 219.595 54.2877C218.523 54.4157 217.429 54.7623 216.352 54.5837C214.485 53.8903 212.656 53.101 210.808 52.3623C210.688 51.4957 210.411 50.589 210.749 49.7357C212.149 45.2823 213.525 40.821 214.915 36.3623C215.16 35.533 215.499 34.7223 215.635 33.8637C215.496 33.213 214.957 32.7143 214.792 32.0663C214.613 31.213 214.571 30.341 214.496 29.477C213.115 29.517 211.728 29.4423 210.355 29.5863C209.088 29.8023 207.843 30.1303 206.584 30.3863C206.461 30.2797 206.219 30.0717 206.096 29.965C194.264 33.1597 182.445 36.4077 170.619 39.621C167.304 40.4583 164.045 41.4983 160.773 42.4637C158.867 42.4983 156.904 43.3277 155.027 42.717C155.016 40.3223 155.352 37.941 155.392 35.549C155.712 32.2717 155.512 28.9837 155.381 25.7037C155.376 23.8637 155.013 22.0503 155 20.2103C156.043 20.1437 157.085 20.1383 158.131 20.1223C158.219 20.2183 158.397 20.4103 158.485 20.5063C171.96 20.4903 185.435 20.5037 198.909 20.4983C199.851 20.4823 200.8 20.5677 201.739 20.4503C202.336 19.9437 202.776 18.997 203.699 19.1223C204.515 19.0743 204.739 19.9783 205.109 20.5197C205.597 20.4743 206.117 20.429 206.416 19.9757C207.859 19.9197 209.301 19.9517 210.747 19.949C210.915 19.261 210.947 18.4957 211.405 17.9197C211.827 17.3917 212.365 16.9783 212.867 16.5357C212.648 16.437 212.208 16.2397 211.989 16.1437C212.445 15.3703 212.667 14.2717 213.659 14.0077C213.755 14.1463 213.949 14.4237 214.048 14.5623C214.352 14.6583 214.656 14.757 214.963 14.8557C215.765 14.1303 216.579 13.4157 217.437 12.757C232.117 12.7437 246.795 12.741 261.475 12.725C261.464 12.3277 261.459 11.933 261.456 11.5383C261.077 11.4077 260.699 11.2823 260.32 11.165C260.248 10.5543 260.179 9.94101 260.147 9.33301C260.509 9.63701 260.824 10.0023 261.005 10.4503C261.907 9.70367 262.765 10.773 263.717 10.6823C265.411 10.637 267.139 11.0343 268.803 10.5703C269.237 10.477 269.677 10.397 270.117 10.3117C270.453 10.0983 270.789 9.87434 271.173 9.75434C271.931 10.0557 272.629 10.493 273.384 10.813C273.387 11.669 273.387 12.525 273.384 13.381C281.091 13.381 288.797 13.3703 296.501 13.3863C297.595 13.3943 298.603 12.8477 299.715 12.9597C299.811 13.0397 300.008 13.2023 300.107 13.285C302.131 13.429 304.155 13.2903 306.179 13.333C306.256 13.4103 306.411 13.5677 306.491 13.645C306.8 12.3783 306.997 11.0503 307.632 9.893ZM262.749 11.1623C262.376 11.805 263.555 11.8023 263.584 11.2317C263.568 10.797 262.917 10.8743 262.749 11.1623ZM306.243 17.173C306.693 17.2077 307.152 17.2343 307.611 17.261C307.611 17.085 307.611 16.7357 307.608 16.5597C307.123 16.6957 306.656 16.8877 306.243 17.173ZM308.077 16.5463C308.075 16.725 308.067 17.0877 308.064 17.269C308.509 17.237 308.96 17.205 309.411 17.1783C308.968 16.9597 308.531 16.733 308.077 16.5463ZM282.051 18.077C281.837 18.381 281.629 18.685 281.419 18.9917C281.651 19.2983 281.885 19.6077 282.117 19.917C283.213 19.917 284.309 19.9223 285.405 19.9277C285.917 19.333 285.827 18.6397 285.36 18.0583C284.256 18.0743 283.152 18.069 282.051 18.077ZM290.496 18.0743C290.283 18.381 290.072 18.693 289.864 19.005C290.109 19.309 290.357 19.613 290.605 19.9223C291.667 19.9223 292.731 19.9223 293.795 19.9117C293.984 19.6103 294.181 19.3143 294.379 19.0183C294.157 18.701 293.939 18.3863 293.72 18.0717C292.645 18.069 291.571 18.069 290.496 18.0743ZM298.656 18.0663C298.48 18.357 298.291 18.645 298.163 18.9623C298.293 19.2903 298.475 19.597 298.643 19.9143C299.795 19.9223 300.947 19.9223 302.099 19.917C302.323 19.6157 302.547 19.3143 302.773 19.0183C302.528 18.701 302.285 18.3863 302.043 18.0717C300.912 18.069 299.784 18.0743 298.656 18.0663ZM306.84 18.309C306.771 18.6797 307.405 18.7597 307.557 18.4717C307.627 18.093 306.984 18.013 306.84 18.309ZM308.123 18.3117C308.184 18.6797 308.365 18.7383 308.667 18.485C308.603 18.109 308.421 18.0503 308.123 18.3117ZM202.459 20.4717C203.147 20.4877 203.832 20.4903 204.52 20.4823C204.381 20.189 204.245 19.893 204.112 19.6023C203.392 19.5357 202.8 19.8317 202.459 20.4717ZM315.627 20.597C315.011 20.7383 314.043 20.4423 313.792 21.2023C314.859 21.4397 315.963 21.3463 317.048 21.3517C317.459 21.325 318.016 21.4023 318.141 20.8797C317.528 20.2103 316.435 20.6823 315.627 20.597ZM158.549 23.245C158.704 25.213 158.768 27.189 158.891 29.1597C159.24 32.541 158.675 35.917 158.528 39.2957C173.611 35.581 188.675 31.797 203.757 28.077C203.52 27.6557 203.256 27.2477 203.019 26.829C202.067 27.101 201.104 27.3463 200.216 27.797C199.635 28.1303 198.957 27.9463 198.331 27.9197C198.051 27.3117 197.669 26.5837 198.051 25.933C198.667 24.925 199.435 24.0157 200.035 22.997C194.597 23.133 189.155 23.0663 183.717 23.1223C175.328 23.1623 166.939 23.2237 158.549 23.245ZM200.288 23.5677C199.549 24.613 198.771 25.6397 198.195 26.789C198.528 27.253 199.008 27.7383 199.643 27.5037C200.547 27.1143 201.437 26.6637 202.437 26.565C202.333 25.2983 202.496 24.037 203.267 22.989C202.299 23.1303 200.904 22.557 200.288 23.5677ZM314.2 23.1703C313.872 23.2157 313.8 23.381 313.984 23.6663C315.331 23.829 316.728 24.0423 318.075 23.7863C318.045 23.6397 317.984 23.3463 317.955 23.1997C316.715 23.037 315.443 23.0743 314.2 23.1703ZM299.064 24.8583C289.947 24.8717 280.829 24.8237 271.712 24.8343C269.563 24.8023 267.461 25.5303 265.309 25.3117C262.379 25.2957 259.448 25.3757 256.517 25.4023C256.685 25.517 257.021 25.7437 257.189 25.8583C257.192 26.037 257.195 26.3917 257.197 26.5677C264.173 26.5997 271.147 26.629 278.123 26.669C284.875 26.7223 291.627 26.6583 298.376 26.8077C299.248 26.8503 300.027 26.437 300.808 26.1143C300.832 25.4983 300.933 24.893 301.155 24.317C300.552 24.317 299.952 24.3117 299.355 24.3063C299.28 24.445 299.136 24.7197 299.064 24.8583ZM234.307 29.0743C233.803 29.461 233.189 29.613 232.568 29.6743C232.408 30.781 232.235 31.9277 232.581 33.021C232.869 34.3197 234.157 34.9863 235.221 35.5863C233.992 35.4663 232.803 34.9623 231.933 34.0797C231.227 32.7197 230.891 31.205 230.493 29.7357C229.864 29.749 229.235 29.7623 228.608 29.773C228.608 30.653 228.485 31.5223 228.336 32.3863C228.237 33.5223 228.253 34.6637 228.168 35.7997C228.437 36.2023 228.699 36.613 228.963 37.021C229.691 37.3357 230.429 37.7357 231.251 37.6797C233.891 37.605 236.533 37.5197 239.168 37.3357C240 37.3837 240.739 36.6397 240.699 35.813C240.787 33.517 240.571 31.2077 240.899 28.9223C238.701 28.9463 236.501 28.973 234.307 29.0743Z" fill="white"/>
</svg>
