<svg width="320" height="80" viewBox="0 0 320 80" fill="none" xmlns="http://www.w3.org/2000/svg">
<g clip-path="url(#clip0_79_1092)">
<path d="M236.252 3.35634C236.885 3.34634 237.518 3.33967 238.155 3.33301C238.342 3.81634 238.175 4.73967 238.965 4.60301C257.895 4.67967 276.832 4.57968 295.765 4.64968C295.935 4.35635 296.108 4.06301 296.282 3.76967C297.288 3.74301 298.305 3.83968 299.222 4.29301C299.228 4.75301 299.238 5.21967 299.248 5.68634C299.575 5.94301 299.908 6.20301 300.242 6.46301C300.438 6.47301 300.828 6.49301 301.025 6.49967C301.722 6.31634 301.622 7.23634 301.878 7.60301C307.905 7.65634 313.935 7.59301 319.962 7.63968C320.095 9.20968 320.092 10.793 319.948 12.3663C313.888 12.3563 307.832 12.3563 301.772 12.3363C301.702 12.583 301.562 13.0797 301.492 13.3263C300.882 13.2663 300.275 13.2097 299.672 13.1563C300.015 14.7097 300.055 16.3097 299.422 17.7997C295.495 17.8664 291.565 17.793 287.638 17.8297C287.052 17.783 286.562 18.123 286.085 18.403C287.888 18.5763 289.715 18.5397 291.508 18.8363C293.118 19.133 294.558 19.983 295.815 21.003C293.378 21.633 290.835 21.2097 288.352 21.3497C292.288 34.923 296.222 48.4997 300.192 62.063C299.795 62.1964 299.402 62.3297 299.008 62.4663C299.545 62.653 300.088 62.853 300.625 63.0497C300.578 63.6197 300.855 64.463 300.135 64.7097C298.138 65.8497 295.815 66.2697 293.542 66.3364C293.435 66.513 293.225 66.8664 293.118 67.0397C291.172 67.0297 289.225 67.0397 287.278 67.0297C286.455 63.0763 285.152 59.243 284.118 55.343C281.095 43.9863 277.845 32.6963 274.745 21.363C274.248 21.183 273.748 21.013 273.252 20.853C273.252 20.1797 273.255 19.5063 273.258 18.8363C272.718 18.8797 272.182 18.923 271.645 18.973C271.598 20.3963 270.732 21.543 270.098 22.753C269.685 23.3697 269.995 24.0963 270.135 24.7463C270.638 26.573 270.348 28.483 270.415 30.3497C270.318 30.4897 270.125 30.7697 270.028 30.9097C266.042 31.9197 262.192 33.8997 257.985 33.6797C255.768 33.6663 253.688 32.8164 251.642 32.063C250.882 32.5397 250.035 32.8264 249.228 33.2064C248.812 33.5597 248.635 34.113 248.382 34.5864C247.385 36.833 246.195 38.9864 245.288 41.273C244.078 44.293 242.888 47.323 241.655 50.3364C240.635 52.523 241.162 55.0097 241.498 57.293C234.778 57.503 228.055 57.343 221.332 57.3863C220.682 57.273 219.785 57.5597 219.318 56.9897C218.938 55.0197 218.825 52.9363 219.392 50.993C221.105 44.6563 224.102 38.7897 226.562 32.733C227.522 30.2697 230.232 28.463 229.942 25.5763C229.222 22.9063 227.308 20.6963 225.138 19.053C225.045 18.6263 225.032 18.1863 224.992 17.7563C226.585 17.253 228.215 16.4597 229.082 14.9564C229.778 13.9363 230.025 12.713 230.238 11.5197C229.518 10.5663 228.562 9.85635 227.468 9.39302C226.558 9.08635 226.558 8.02634 226.338 7.24967C226.762 6.76967 227.088 6.16634 227.668 5.85634C228.215 5.75968 228.775 5.79968 229.328 5.79968C229.722 6.40302 230.122 6.99635 230.535 7.58968C230.535 7.92301 230.538 8.25634 230.542 8.59301C230.808 6.77967 232.182 5.52635 233.678 4.63968C234.512 4.62968 235.345 4.62634 236.178 4.62634C236.202 4.19968 236.225 3.77634 236.252 3.35634ZM227.688 6.86301C227.722 7.53301 227.765 8.22968 228.138 8.81968C228.425 8.70302 229.002 8.46968 229.292 8.35634C229.265 7.91301 229.248 7.47302 229.182 7.03968C228.762 6.63635 228.192 6.83301 227.688 6.86301ZM262.538 20.803C262.002 20.9263 261.462 21.033 260.928 21.1497C261.532 21.1763 262.135 21.1963 262.742 21.2197C262.375 22.3663 261.678 23.3997 261.485 24.5997C261.428 25.6597 261.578 26.7364 261.885 27.753C262.482 29.2697 264.092 29.9397 265.185 31.0397C266.305 30.4263 267.868 29.933 268.065 28.4597C268.202 26.6797 268.435 24.8497 268.122 23.083C267.462 22.023 266.722 20.9397 265.708 20.1897C264.668 19.793 263.212 19.743 262.538 20.803ZM253.275 24.5063C252.228 26.0463 251.208 28.173 252.288 29.9463C252.798 31.1063 254.072 31.5597 255.082 32.1797C256.662 33.1163 258.572 32.8397 260.325 32.833C262.055 32.783 263.608 31.9497 265.055 31.0763C263.152 30.7197 260.915 30.093 260.062 28.1497C258.832 26.043 259.782 23.043 257.742 21.3897C256.142 22.2363 254.252 22.8663 253.275 24.5063ZM289.198 34.583C289.188 34.803 289.162 35.2463 289.148 35.4697C289.582 35.6263 290.015 35.7763 290.455 35.9297C290.385 35.5363 290.295 35.1497 290.192 34.7697C289.862 34.693 289.528 34.6297 289.198 34.583ZM292.105 47.2163C292.378 47.8263 293.038 47.8297 293.605 47.933C293.438 47.4863 293.265 47.0464 293.092 46.6064C292.755 46.7964 292.415 46.983 292.105 47.2163ZM293.705 50.5697C293.805 50.9697 293.905 51.373 294.008 51.7763C294.668 51.6997 295.332 51.6163 295.995 51.5263C295.825 50.9097 295.648 50.2964 295.468 49.6864C294.875 49.9797 294.292 50.273 293.705 50.5697Z" fill="white"/>
</g>
<defs>
<clipPath id="clip0_79_1092">
<rect width="320" height="80" fill="white"/>
</clipPath>
</defs>
</svg>
