<svg width="320" height="80" viewBox="0 0 320 80" fill="none" xmlns="http://www.w3.org/2000/svg">
<g clip-path="url(#clip0_79_1093)">
<path d="M231.153 3.60546C232.197 3.03546 233.707 3.40213 234.523 4.31213C235.253 5.11213 236.347 5.78213 236.48 6.94213C237.727 6.87546 239.103 7.08213 240.207 6.36213C240.943 5.97547 241.657 5.40213 242.54 5.47879C247.457 5.48546 252.377 5.4788 257.297 5.47547C257.383 5.66213 257.563 6.0388 257.653 6.22547C261.73 6.32547 265.813 6.23213 269.893 6.25547C270.72 6.23547 271.357 6.96879 272.203 6.89546C274.5 6.88879 276.803 7.04213 279.097 6.80546C277.61 7.07213 276.103 7.04213 274.607 7.1188C276.217 7.4188 277.907 6.76547 279.553 7.0788C287.863 7.00213 296.197 7.06547 304.513 7.0288C305.017 7.0088 305.513 7.10547 306.007 7.21547C307.417 6.82547 308.893 7.19879 310.323 6.96879C311.063 6.78879 311.74 6.32213 312.53 6.37213C313.243 6.34547 313.9 6.81547 314.62 6.71547C314.26 6.42547 313.877 6.16879 313.507 5.90546C314.567 4.81213 316.533 3.19213 317.997 4.5988C318.143 5.45546 318.017 6.65879 316.847 6.58213C317.913 7.01879 319.093 6.04546 320.247 6.43546C320.287 8.60879 320.28 10.7855 320.307 12.9588C320.4 14.2121 319.65 15.2655 319.19 16.3688C318.333 18.3155 317.5 20.2755 316.69 22.2421C315.84 22.2555 314.99 22.2021 314.147 22.2721C312.067 23.0055 309.827 22.3655 307.69 22.7188C307.693 23.3021 307.703 23.8855 307.717 24.4721C306.63 24.4955 305.543 24.5755 304.463 24.4955C304.407 24.3488 304.3 24.0555 304.247 23.9088C303.787 23.9055 303.327 23.9055 302.87 23.9121C302.573 24.9721 301.217 24.3588 300.417 24.5255C300.393 23.6188 299.433 23.9688 298.837 23.8888C298.743 24.0421 298.56 24.3521 298.467 24.5055C297.77 24.5121 297.077 24.5121 296.387 24.5355C296.28 24.3621 296.07 24.0155 295.963 23.8455C295.693 23.8655 295.153 23.9121 294.883 23.9321C294.54 24.9588 293.213 24.3621 292.403 24.5288C292.383 23.6421 291.477 23.9521 290.887 23.9055C290.433 24.9055 289.203 24.4021 288.347 24.5288C288.26 24.3688 288.08 24.0455 287.99 23.8855C287.707 23.8921 287.133 23.9055 286.847 23.9121C286.74 24.0621 286.527 24.3588 286.423 24.5055C285.72 24.5121 285.02 24.5155 284.323 24.5321C284.233 24.3721 284.057 24.0555 283.967 23.8955C283.677 23.8988 283.093 23.8988 282.803 23.8988C282.703 24.0521 282.5 24.3521 282.397 24.5055C278.217 24.5121 274.033 24.5155 269.853 24.5221C269.213 25.3021 269.213 26.3488 268.947 27.2788C268.43 28.9221 268.73 30.6555 268.73 32.3421C268.713 33.4455 269.317 34.4121 269.717 35.4021C269.477 35.6788 269.183 35.8188 268.837 35.8288C264.51 35.8588 260.183 35.8788 255.86 35.8988C254.307 35.9421 252.583 35.2888 251.193 36.2588C250.483 36.9988 249.517 37.6921 249.387 38.7855C248.673 42.9088 247.987 47.0355 247.273 51.1588C247.077 52.3121 246.71 53.5055 247.04 54.6721C247.417 56.1788 247.853 57.6688 248.19 59.1855C247.93 59.2188 247.407 59.2855 247.143 59.3188C246.97 60.2121 245.85 59.9455 245.193 60.0755C239.06 60.2021 232.927 60.3621 226.79 60.4521C226.783 60.2288 226.767 59.7888 226.76 59.5655C226.207 59.5121 225.657 59.4688 225.107 59.4255C225.073 56.3788 225.553 53.3555 225.723 50.3188C225.75 48.7255 226.99 47.5321 227.363 46.0355C228.237 42.2321 229.08 38.4188 229.96 34.6188C230.29 33.3255 230 31.9988 229.93 30.6955C229.923 29.5355 229.053 28.6855 228.52 27.7355C228 26.9188 227.587 25.8955 226.58 25.5821C225.117 25.0355 223.82 23.9055 222.183 23.9988C220.093 23.9755 217.96 23.6988 215.903 24.1821C215.27 24.2955 214.637 24.4055 214 24.4521C214.12 23.6755 215.033 23.6921 215.587 23.3955C217.27 22.6321 219.093 22.3221 220.867 21.8588C221.967 21.6055 222.53 20.4155 222.483 19.3655C220.93 18.5821 219.067 18.5321 217.343 18.4388C216.743 18.3055 216.437 17.5421 216.803 17.0288C218.58 15.4121 220.307 13.6521 221.387 11.4788C221.77 11.3655 222.157 11.2588 222.547 11.1621C223.223 11.9588 223.943 12.7121 224.62 13.5121C225.173 10.7688 227.703 9.1688 229.487 7.24213C229.99 7.23546 230.493 7.23547 231 7.23547C231.017 6.02547 230.943 4.80213 231.153 3.60546ZM257.007 24.7221C256.487 26.3788 256.477 28.1455 256.747 29.8488C257.097 31.2988 258.26 32.3521 258.717 33.7388C256.823 33.6588 255.36 32.0355 254.39 30.5355C253.95 29.0088 253.613 27.4288 253.76 25.8321C253.11 26.2288 252.827 26.9555 252.45 27.5821C251.687 28.6621 251.937 30.0588 251.857 31.3021C252.73 32.8921 253.91 34.6188 255.853 34.8988C258.743 34.9821 261.637 34.8488 264.52 35.0055C265.063 35.0021 265.643 35.1055 266.157 34.8721C267.487 33.6588 267.28 31.6355 267.307 29.9988C267.4 28.6221 266.43 27.5555 265.337 26.8855C265.173 26.0621 265.043 25.2355 264.97 24.4021C263.84 24.1588 262.68 24.2955 261.54 24.2755C260.023 24.3055 258.433 24.0755 257.007 24.7221Z" fill="white"/>
</g>
<defs>
<clipPath id="clip0_79_1093">
<rect width="320" height="80" fill="white"/>
</clipPath>
</defs>
</svg>
