<svg width="80" height="80" viewBox="0 0 80 80" fill="none" xmlns="http://www.w3.org/2000/svg">
<path d="M39.8464 75.8668H31.6618C31.3219 75.8668 31.0464 75.5912 31.0464 75.2514V71.6001L32.9797 68.2668V64.2873C32.9797 64.2023 33.0486 64.1334 33.1336 64.1334H33.8259C33.9108 64.1334 33.9797 64.0646 33.9797 63.9796V60.1539C33.9797 60.069 33.9108 60.0001 33.8259 60.0001H33.1336C33.0486 60.0001 32.9797 59.9312 32.9797 59.8463V56.0206C32.9797 55.9356 33.0486 55.8668 33.1336 55.8668H33.8259C33.9108 55.8668 33.9797 55.7979 33.9797 55.7129V51.8873C33.9797 51.8023 33.9108 51.7334 33.8259 51.7334H33.1336C33.0486 51.7334 32.9797 51.6646 32.9797 51.5796V47.7539C32.9797 47.669 33.0486 47.6001 33.1336 47.6001H33.8259C33.9108 47.6001 33.9797 47.5312 33.9797 47.4463V43.6873C33.9797 43.6023 33.9108 43.5334 33.8259 43.5334H33.1336C33.0486 43.5334 32.9797 43.4646 32.9797 43.3796V39.6001L31.0464 37.6668V31.5488C31.0464 31.2089 31.3219 30.9334 31.6618 30.9334H33.6464L36.0464 28.5334V25.1334H34.4618C34.1219 25.1334 33.8464 24.8579 33.8464 24.518V22.2155C33.8464 21.8756 34.1219 21.6001 34.4618 21.6001H39.8464H45.5041C45.7169 21.6001 45.9146 21.71 46.0269 21.8908L53.4815 33.894C53.6328 34.1376 53.713 34.4188 53.713 34.7056V60.4435C53.713 60.7859 53.5235 61.1001 53.2208 61.2599L49.1912 63.3866C49.0386 63.4672 48.8495 63.4065 48.7724 63.2521L48.5705 62.8483C48.4999 62.7073 48.5474 62.5358 48.6805 62.4511L51.828 60.4481C52.0055 60.3352 52.113 60.1394 52.113 59.929V35.8949C52.113 35.6717 51.9922 35.4661 51.7974 35.3574L48.6464 33.6001V37.6668L46.713 39.6001V43.3796C46.713 43.4646 46.6441 43.5334 46.5592 43.5334H45.8669C45.7819 43.5334 45.713 43.6023 45.713 43.6873V47.4463C45.713 47.5312 45.7819 47.6001 45.8669 47.6001H46.5592C46.6441 47.6001 46.713 47.669 46.713 47.7539V51.5796C46.713 51.6646 46.6441 51.7334 46.5592 51.7334H45.8669C45.7819 51.7334 45.713 51.8023 45.713 51.8873V55.7129C45.713 55.7979 45.7819 55.8668 45.8669 55.8668H46.5592C46.6441 55.8668 46.713 55.9356 46.713 56.0206V59.8463C46.713 59.9312 46.6441 60.0001 46.5592 60.0001H45.8669C45.7819 60.0001 45.713 60.069 45.713 60.1539V63.9796C45.713 64.0646 45.7819 64.1334 45.8669 64.1334H46.5592C46.6441 64.1334 46.713 64.2023 46.713 64.2873V68.2668L48.6464 71.6001V75.2514C48.6464 75.5912 48.3708 75.8668 48.031 75.8668H39.8464Z" fill="white"/>
<g opacity="0.4">
<path d="M57.5796 20.2666H60.3796V33.3333H57.5796V20.2666Z" fill="white"/>
<path d="M52.6216 24.7457L54.0216 22.3208L65.3377 28.8542L63.9377 31.279L52.6216 24.7457Z" fill="white"/>
<path d="M54.0216 31.279L52.6216 28.8542L63.9377 22.3208L65.3377 24.7457L54.0216 31.279Z" fill="white"/>
</g>
<g opacity="0.4">
<path d="M21.2484 13.2H24.977V30.5333H21.2484V13.2Z" fill="white"/>
<path d="M14.646 19.1416L16.5103 15.925L31.5793 24.5916L29.715 27.8083L14.646 19.1416Z" fill="white"/>
<path d="M16.5103 27.8083L14.646 24.5916L29.715 15.925L31.5793 19.1416L16.5103 27.8083Z" fill="white"/>
</g>
<g opacity="0.4">
<path d="M16.9183 39.6001H19.7074V52.5333H16.9183V39.6001Z" fill="white"/>
<path d="M11.9795 44.0335L13.3741 41.6334L24.6462 48.1L23.2516 50.5001L11.9795 44.0335Z" fill="white"/>
<path d="M13.3741 50.5001L11.9795 48.1L23.2516 41.6334L24.6461 44.0335L13.3741 50.5001Z" fill="white"/>
</g>
</svg>
