<svg width="320" height="80" viewBox="0 0 320 80" fill="none" xmlns="http://www.w3.org/2000/svg">
<g clip-path="url(#clip0_79_1094)">
<path d="M254.542 1.60561C255.169 1.07606 255.607 0.0716401 256.479 -0.0175781C257.552 0.814166 258.465 1.8301 259.42 2.79135C258.767 3.46481 258.111 4.13539 257.457 4.80884C258.332 5.68951 259.184 6.60759 260.203 7.33285C261.02 7.92572 261.728 8.67113 262.197 9.57482C261.012 10.7375 259.889 11.9665 258.721 13.1493C259.063 13.6213 259.391 14.1019 259.708 14.597C255.12 19.2651 250.671 24.0685 246.034 28.6906C246.161 29.3784 246.141 30.1296 246.492 30.757C247.836 32.6824 249.537 34.3113 251.232 35.9259C250.377 37.6958 249.644 39.5234 248.705 41.2531C247.897 42.4359 247.114 43.6562 246.135 44.7095C244.48 46.1342 242.604 47.294 241.007 48.7934C240.365 49.3518 240.051 50.1634 239.674 50.9059C240.333 52.1291 240.943 53.3781 241.631 54.5869C243.041 56.777 244.083 59.1744 245.355 61.4423C246.224 63.8886 248.512 65.3564 250.435 66.9163C250.406 67.4429 250.386 67.9696 250.375 68.4992C248.993 70.013 247.353 71.2592 245.859 72.6521C244.259 73.9703 242.874 75.5733 241.073 76.6267C240.972 76.5346 240.768 76.3504 240.667 76.2583C240.543 76.831 240.405 77.398 240.27 77.9678C239.51 78.365 238.678 78.4887 237.878 78.1261C237.729 78.2614 237.429 78.5262 237.28 78.6585C234.707 77.6771 232.75 75.5129 231.61 73.0493C230.407 70.3325 229.215 67.6099 227.963 64.9132C227.112 62.9964 226.668 60.9012 225.627 59.0708C224.711 58.0894 223.718 57.1425 222.605 56.3943C221.379 56.2245 220.124 56.2273 218.895 56.3396C217.741 56.9382 216.803 57.8707 215.726 58.5959C215.447 58.334 215.168 58.075 214.892 57.8189C215.346 56.4374 216.227 55.2229 216.451 53.7666C215.651 52.5003 214.402 51.2944 214.405 49.7087C213.366 49.2223 212.33 48.7359 211.271 48.3042C211.116 47.8236 210.88 47.3199 211.072 46.8134C211.87 46.0363 213.021 45.6622 213.602 44.6577C213.559 44.2376 213.539 43.8145 213.548 43.3972C213.925 42.7065 214.575 42.2201 215.107 41.6531C214.822 41.1725 214.538 40.6947 214.25 40.2199C214.512 39.9436 214.776 39.6702 215.041 39.3939C215.695 39.5004 216.544 40.2429 217.085 39.5896C220.668 35.8108 224.349 32.1269 227.903 28.3222C228.087 28.3366 228.45 28.3653 228.631 28.3826C235.766 20.943 242.955 13.5609 250.127 6.16151C250.107 5.98307 250.067 5.62619 250.046 5.44776C250.369 5.13981 250.691 4.83187 251.019 4.52392C250.884 3.90227 250.59 3.28925 250.648 2.6417C251.019 1.73225 252.009 1.45883 252.85 1.17103C252.999 1.27176 253.301 1.47323 253.451 1.57396C253.814 1.58259 254.176 1.5941 254.542 1.60561ZM241.355 33.8566C240.172 34.3171 239.418 35.4021 238.655 36.3576C238.48 36.6655 238.022 37.0512 238.342 37.4196C239.182 38.6801 240.247 39.8486 241.594 40.5739C243.013 41.2761 244.627 40.9825 246.132 40.8415C245.237 41.3509 244.331 41.8431 243.413 42.3064C242.546 42.1942 241.671 42.151 240.814 42.0042C239.519 41.6992 238.347 41.0458 237.17 40.4501C236.808 40.24 236.382 40.2342 235.993 40.3494C235.446 41.0113 235.017 41.7711 234.689 42.5626C234.833 44.108 235.222 45.8205 236.505 46.8307C237.337 47.3055 238.301 47.7861 239.286 47.5386C240.348 47.3084 241.513 47.1645 242.348 46.3932C243.634 45.2938 245.157 44.4246 246.155 43.023C246.757 42.174 247.554 41.4229 247.917 40.43C248.228 39.3219 248.576 38.2139 248.723 37.0742C248.294 36.0726 247.727 35.1028 247.039 34.2595C246.144 33.704 245.157 33.3011 244.17 32.9443C243.191 33.0968 242.27 33.4968 241.355 33.8566ZM211.516 47.081C211.668 47.3775 211.821 47.6739 211.97 47.9761C212.18 47.9588 212.598 47.9243 212.805 47.907C212.854 47.6538 212.949 47.1472 212.998 46.894C212.477 46.6206 211.953 46.681 211.516 47.081Z" fill="white"/>
<path d="M271.03 4.26489C271.942 3.177 272.924 2.13517 274.081 1.30055C274.737 1.95961 275.39 2.62155 276.064 3.26335C276.585 3.07628 277.108 2.88633 277.624 2.67335C278.47 2.90935 279.396 3.23457 279.788 4.10085C279.863 4.72538 279.572 5.33263 279.46 5.93989C279.788 6.2536 280.116 6.56731 280.447 6.88101C280.421 7.0652 280.372 7.43646 280.349 7.62065C287.639 14.9049 294.915 22.2035 302.161 29.5338C302.331 29.505 302.674 29.4446 302.846 29.4129C306.657 33.3069 310.519 37.1519 314.376 41.0027C314.816 40.758 315.256 40.5163 315.702 40.2774C315.936 40.5422 316.189 40.8012 316.399 41.0948C316.209 41.5294 315.941 41.9236 315.705 42.3323C316.215 42.8676 316.736 43.3943 317.251 43.9267C317.297 44.6146 317.133 45.4118 317.611 45.9903C318.224 46.6292 319.098 46.9371 319.755 47.53C319.942 48.0624 319.996 48.8827 319.401 49.1762C318.437 49.7461 317.38 50.1346 316.373 50.6181C316.186 52.1118 315.271 53.3321 314.508 54.5754C314.727 55.905 315.492 57.0188 316.031 58.2218C316.338 58.7801 315.763 59.1485 315.429 59.4996C314.407 58.7801 313.472 57.9254 312.378 57.3124C311.023 57.1541 309.65 57.3239 308.289 57.3383C307.33 58.3168 306.24 59.1715 305.353 60.2163C304.455 62.0467 304.124 64.1016 303.284 65.9637C302.038 68.6776 300.918 71.452 299.727 74.1919C298.65 76.6382 296.736 78.742 294.267 79.8184C293.985 79.6774 293.703 79.5363 293.424 79.4011C292.678 79.6169 291.919 79.5479 291.211 79.2485C290.906 78.5031 290.857 77.7059 291.075 76.9317C290.652 77.2138 290.226 77.4929 289.8 77.7692C287.429 75.746 285.089 73.6825 282.72 71.6535C282.211 71.2131 281.658 70.8102 281.256 70.2691C280.827 69.7281 280.974 68.9999 280.899 68.3668C282.346 67.1033 283.814 65.8485 285.066 64.3836C286.626 61.448 287.93 58.3628 289.665 55.5194C290.2 54.4257 290.848 53.3839 291.3 52.2499C291.165 50.6728 289.717 49.6914 288.574 48.7877C286.899 47.412 284.83 46.422 283.664 44.5196C281.848 42.4014 280.922 39.745 279.681 37.2872C281.379 35.5604 283.215 33.9084 284.488 31.8247C284.68 31.1829 284.701 30.5066 284.775 29.8475C280.168 25.2312 275.569 20.6062 270.949 16.0043C271.211 15.5237 271.488 15.0517 271.778 14.5912C270.624 13.4342 269.493 12.2542 268.333 11.1088C268.964 9.69857 270.302 8.8582 271.341 7.77895C271.867 7.25227 272.394 6.72559 272.927 6.20179C272.296 5.55424 271.66 4.91244 271.03 4.26489ZM283.857 35.5661C283.072 36.3835 282.672 37.4857 282.07 38.4355C282.441 39.673 282.643 40.9681 283.144 42.1654C283.757 43.1554 284.539 44.0361 285.262 44.9484C286.26 45.9816 287.507 46.7328 288.612 47.648C289.708 48.5834 291.225 48.5718 292.555 48.923C293.245 48.6323 293.968 48.3963 294.607 47.9991C295.775 46.9199 296.161 45.2564 296.244 43.7253C295.942 42.8993 295.398 42.1942 294.975 41.4315C293.717 41.3567 292.77 42.2834 291.657 42.6978C290.413 43.2936 289.023 43.5238 287.653 43.5181C286.617 43.2619 285.737 42.5942 284.793 42.1165C286.019 42.2316 287.288 42.5654 288.497 42.151C290.436 41.6646 291.628 39.9033 292.793 38.4182C292.065 37.3937 291.323 36.3547 290.376 35.5172C289.248 34.956 288.033 34.5214 286.807 34.2394C285.771 34.5415 284.784 35.0193 283.857 35.5661ZM317.965 47.6624C318.002 48.0135 318.045 48.3646 318.091 48.7215C318.419 48.7647 318.753 48.8107 319.09 48.8596C319.245 48.5373 319.401 48.2178 319.562 47.8984C319.084 47.5041 318.529 47.4321 317.965 47.6624Z" fill="white"/>
</g>
<defs>
<clipPath id="clip0_79_1094">
<rect width="320" height="80" fill="white"/>
</clipPath>
</defs>
</svg>
