<svg width="320" height="80" viewBox="0 0 320 80" fill="none" xmlns="http://www.w3.org/2000/svg">
<path d="M211.774 4.86274C213.237 4.03759 214.958 4.04902 216.583 4.18159C238.754 4.71645 260.923 5.25131 283.093 5.78845C284.933 5.77016 286.971 6.0513 288.338 7.39987C288.955 8.26616 289.504 9.26045 289.499 10.3553C289.57 12.337 289.605 14.3187 289.685 16.3004C289.73 17.3953 289.893 18.5107 289.653 19.5942C289.399 20.7576 289.115 21.9164 288.857 23.0799C289.543 23.0799 290.229 23.0822 290.917 23.0844C290.928 23.3976 290.944 23.7153 290.96 24.0307C291.657 24.0284 292.354 24.0216 293.054 24.017C293.115 24.3279 293.173 24.6387 293.227 24.9565C297.237 24.9313 301.248 24.9519 305.257 24.9496C305.605 24.9884 305.909 24.833 306.19 24.641C307.365 24.5976 308.542 24.625 309.719 24.6296C309.767 24.513 309.863 24.2822 309.911 24.1656C313.209 24.1793 316.507 24.1656 319.806 24.1724C319.851 25.649 319.851 27.1302 319.813 28.6067C316.706 28.6113 313.6 28.6113 310.496 28.6113C310.13 28.6753 309.849 28.4879 309.625 28.225C308.448 28.1884 307.273 28.209 306.096 28.209C306.039 28.1107 305.927 27.9119 305.87 27.8113C301.648 27.8204 297.426 27.8227 293.205 27.8113C293.182 28.049 293.163 28.2867 293.145 28.5267C292.411 28.5267 291.68 28.5267 290.951 28.5267C290.942 28.8284 290.933 29.1324 290.928 29.4364C289.904 29.4364 288.88 29.4387 287.858 29.4273C287.845 29.1233 287.835 28.8216 287.826 28.5222C287.529 28.5267 287.234 28.5336 286.942 28.5382C286.507 30.4833 286.027 32.4193 285.598 34.3667C285.479 34.7187 285.465 35.1942 285.115 35.4113C284.784 35.457 284.455 35.457 284.126 35.473C283.678 34.5907 283.221 33.7153 282.768 32.8376C279.758 32.5656 276.699 32.721 273.728 32.145C269.993 32.2753 266.265 32.5816 262.528 32.6822C261.648 32.7256 260.656 32.5747 259.904 33.1393C259.07 33.7267 258.105 34.2022 257.509 35.0616C256.93 35.8662 256.373 36.6844 255.872 37.5393C252.96 42.4833 250.034 47.4227 247.122 52.3667C246.747 52.9724 246.453 53.6353 245.973 54.1656C245.518 54.5016 244.955 54.6364 244.434 54.8353C240.987 56.0216 237.577 57.3313 234.117 58.4742C231.246 58.6182 228.361 58.4947 225.483 58.5427C224.434 58.5107 223.33 58.7027 222.334 58.2799C220.782 57.6902 219.221 57.1256 217.664 56.5564C216.766 56.2456 216.201 55.4387 215.527 54.8239C214.606 54.0193 214.233 52.6867 214.494 51.5073C214.814 49.7107 214.896 47.8707 215.323 46.097C216.023 44.433 216.855 42.8239 217.586 41.1713C218.567 38.5633 221.262 37.0342 222.032 34.3096C221.769 33.6627 221.499 33.0204 221.23 32.3782C219.879 32.1542 218.535 31.8913 217.177 31.7244C215.831 31.6399 214.482 31.6696 213.136 31.6399C211.936 31.6033 210.871 32.2502 209.755 32.593C208.878 32.993 207.767 33.0502 207.115 33.825C206.064 35.2033 204.926 36.5176 203.913 37.9233C203.161 39.5096 202.704 41.2239 202.037 42.849C200.654 43.4022 199.296 44.0787 197.79 44.2067C197.776 44.0284 197.749 43.6742 197.735 43.4982H197.557C197.499 45.1782 197.664 46.8536 197.831 48.5222C197.977 49.9782 197.995 51.4593 198.384 52.881C198.944 55.0022 199.312 57.1804 200.078 59.2467C201.301 62.7713 202.491 66.3096 203.721 69.8319C203.01 70.177 202.279 70.481 201.527 70.7256C196.645 72.3736 191.787 74.0925 186.898 75.7153C185.504 71.6765 184.117 67.633 182.738 63.5873C182.112 61.4639 181.559 59.3199 181.013 57.1759C180.706 55.441 180.393 53.7039 180.181 51.9553C180.055 49.5164 179.781 47.0844 179.813 44.641C179.815 42.2502 179.815 39.8593 179.813 37.4684C177.36 37.5073 174.907 37.3747 172.459 37.4684C170.693 37.3862 169.095 38.2959 167.41 38.6844C167.358 39.2216 167.479 39.8844 166.99 40.2616C166.379 41.0524 165.337 41.0547 164.434 41.1484C164.185 41.5713 163.936 41.9964 163.691 42.4239C162.839 42.5107 161.991 42.6204 161.141 42.7233C160.853 42.1107 160.569 41.4982 160.293 40.881C158.11 41.5393 155.931 42.209 153.753 42.8879C152.997 43.1302 152.201 43.2125 151.417 43.329C151.168 43.8296 150.866 44.3027 150.523 44.7462C148.238 44.7759 145.938 44.6022 143.666 44.897C142.933 44.9404 142.199 44.9199 141.467 44.9359C140.885 44.4604 140.469 43.8113 140.329 43.0662C139.963 41.3107 139.465 39.5736 139.314 37.7816C138.896 33.7359 138.375 29.7016 138 25.6536C138.126 23.5142 138.565 21.4022 138.832 19.2765C139.17 17.6696 139.298 15.985 140.011 14.4856C140.178 14.0239 140.727 13.8753 141.166 13.9896C142.521 14.1884 143.893 14.0833 145.255 14.1084C150.747 14.1084 156.238 14.1222 161.73 14.113C162.08 14.1062 162.446 14.1519 162.725 14.3873C164.647 15.8776 166.265 17.7084 168.062 19.3404C169.643 19.3313 171.227 19.3313 172.811 19.3427C172.827 19.0044 172.843 18.6662 172.864 18.3324C173.474 18.1542 174.091 17.953 174.738 17.9827C183.499 18.0079 192.261 17.9964 201.024 18.017C202.341 18.0307 203.687 17.9005 204.969 18.2845C205.086 18.513 205.202 18.7439 205.319 18.977C205.666 18.7325 205.989 18.4399 206.384 18.2707C207.207 18.1702 208.043 18.2433 208.873 18.241C209.093 15.3016 209.319 12.3644 209.538 9.42502C209.598 8.43988 209.771 7.43645 210.24 6.55873C210.665 5.92559 211.186 5.34731 211.774 4.86274ZM222.293 11.3999C220.738 11.6742 219.374 12.9496 219.054 14.5107C218.965 16.1039 218.592 17.8296 219.506 19.2673C219.739 19.3976 219.975 19.5302 220.21 19.6627C220.747 18.9405 221.371 18.2799 221.815 17.489C222.697 17.5096 223.579 17.5393 224.462 17.569C224.363 17.9233 224.265 18.2822 224.165 18.6387C223.968 18.9359 223.781 19.2376 223.598 19.5439C226.738 19.7542 229.888 19.5347 233.033 19.5324C236.942 19.3519 240.871 19.4684 244.775 19.2376C244.841 17.9736 244.905 16.6616 245.488 15.5096C246.096 14.2684 247.141 13.0753 248.603 12.9359C248.654 13.0776 248.754 13.3633 248.805 13.505C248.176 13.8753 247.502 14.3027 247.301 15.057C246.825 16.1976 247.394 17.4296 248.171 18.2822C248.85 18.2753 249.534 18.2364 250.21 18.3142C250.459 18.513 250.421 18.8902 250.537 19.1713C254.176 19.1256 257.81 19.0045 261.449 18.9565C261.637 18.7805 261.826 18.609 262.018 18.4376C262.011 17.4044 262 16.3736 261.982 15.3427C262.121 15.3359 262.4 15.3267 262.539 15.3222C262.743 14.7942 263.246 14.545 263.703 14.2776C263.806 14.449 264.007 14.7919 264.107 14.9633C264.158 14.785 264.254 14.433 264.302 14.2547C264.77 14.5107 265.25 14.7827 265.543 15.2513C270.537 15.2079 275.529 15.009 280.523 14.977C280.526 15.5073 280.528 16.0376 280.53 16.5702C275.721 16.6387 270.917 16.7713 266.11 16.865C266.114 17.4433 266.123 18.0239 266.158 18.6044C266.645 18.1839 267.083 17.6627 267.73 17.4867C267.808 17.6399 267.966 17.9484 268.043 18.1039C268.149 17.8684 268.254 17.633 268.363 17.3999C268.818 17.665 269.273 17.953 269.573 18.4033C271.525 18.401 273.474 18.2776 275.426 18.273C275.49 18.3804 275.614 18.593 275.678 18.6982C276.567 18.6982 277.465 18.625 278.297 18.2776C279.202 17.9165 280.187 17.9347 281.145 17.9096C281.186 16.497 281.23 15.0867 281.239 13.6742C281.262 13.0296 280.912 12.465 280.606 11.9256C280.181 11.105 279.291 10.721 278.571 10.2136C259.813 10.6182 241.051 10.9976 222.293 11.3999ZM244.894 33.505C244.873 33.6102 244.834 33.8182 244.814 33.9233C244.457 33.9279 244.101 33.937 243.746 33.9485C244.183 35.0547 244.144 36.2502 244.082 37.4182C243.746 37.4227 243.136 37.6993 243.081 37.1713C242.981 36.0856 242.962 34.993 242.709 33.9279C242.421 33.9325 242.137 33.937 241.854 33.9462C241.755 33.7884 241.659 33.6307 241.566 33.4753C240.165 33.4959 238.763 33.4776 237.362 33.4913C236.962 34.737 235.831 35.6285 235.655 36.9587C235.399 38.1222 236.121 39.1667 236.478 40.225C236.32 40.2319 236.002 40.2479 235.845 40.257C235.207 39.2262 234.466 38.1404 234.496 36.8787C234.363 35.7176 234.896 34.6364 234.958 33.4913C234.526 33.4822 234.094 33.473 233.664 33.4684C233.319 34.6113 232.917 35.7336 232.558 36.8719C232.261 37.7176 232.745 38.5656 232.919 39.3885C232.025 40.289 231.102 41.2353 230.697 42.4696C230.407 43.3702 230.656 44.2982 230.974 45.153C230.066 45.889 228.962 46.4399 228.338 47.4662C227.534 48.5496 227.826 49.9896 227.925 51.2353C226.715 52.1359 225.39 53.2696 225.333 54.8993C225.282 55.7336 225.342 57.0707 226.389 57.2216C227.817 57.5302 229.296 57.3222 230.745 57.4113C232.082 57.4044 233.467 57.6902 234.768 57.281C238.158 56.0353 241.547 54.785 244.946 53.5644C247.728 48.6616 250.505 43.7519 253.282 38.8467C253.755 37.9964 254.382 37.1827 254.434 36.1725C253.685 35.4959 253.074 34.5953 252.091 34.241C251.307 33.9507 250.553 33.5233 249.721 33.3976C248.112 33.3404 246.498 33.3999 244.894 33.505Z" fill="white"/>
</svg>
