<svg width="320" height="80" viewBox="0 0 320 80" fill="none" xmlns="http://www.w3.org/2000/svg">
<path d="M250.415 3.53967C250.698 3.48634 251.258 3.38634 251.542 3.33301C251.645 3.49967 251.855 3.82634 251.962 3.98967C252.912 3.85967 253.915 3.983 254.318 4.983C256.395 5.083 258.485 4.87968 260.552 5.14634C260.615 5.59634 260.688 6.04967 260.762 6.49967C270.215 6.57634 279.672 6.43634 289.125 6.46968C291.572 6.52301 294.038 6.283 296.452 6.78634C301.782 6.74967 307.128 6.89634 312.448 6.713C313.218 5.92634 313.498 4.74967 314.075 3.80967C314.795 4.11301 315.515 4.41634 316.242 4.71968C316.392 5.40968 316.545 6.10301 316.702 6.79301C317.578 6.79301 318.458 6.78967 319.338 6.78967C319.712 9.43967 319.575 12.133 319.522 14.7997C319.628 15.4097 319.018 15.5663 318.568 15.6297C318.568 16.1897 318.575 16.7563 318.578 17.323C317.158 17.3963 315.735 17.3763 314.315 17.3597C313.992 18.5263 313.718 19.7097 313.548 20.9097C313.038 20.9663 312.488 21.2897 312.018 20.9663C311.998 20.7163 311.962 20.2197 311.942 19.9697C311.638 19.9697 311.028 19.9697 310.722 19.9697C310.685 20.213 310.615 20.703 310.582 20.9463C310.078 21.023 309.578 21.113 309.078 21.1397C308.368 21.3163 308.405 20.3963 308.342 19.9663C307.928 19.9697 307.518 19.9697 307.112 19.9763C307.082 20.2163 307.022 20.6997 306.992 20.943C306.465 21.023 305.942 21.123 305.415 21.143C304.702 21.3063 304.725 20.4163 304.682 19.9763C304.408 19.9697 303.865 19.9563 303.595 19.9497C303.542 20.2863 303.485 20.6263 303.428 20.9663C302.695 21.0497 301.965 21.113 301.232 21.1563C301.218 20.863 301.185 20.273 301.168 19.9797C300.885 19.973 300.315 19.9663 300.032 19.963C300.002 20.2097 299.942 20.6997 299.912 20.9463C299.162 21.0363 298.415 21.1197 297.668 21.1997C297.615 20.7863 297.572 20.3797 297.532 19.9697C297.245 19.9697 296.675 19.9697 296.388 19.9697C296.365 20.213 296.322 20.703 296.298 20.9463C294.942 21.103 293.555 21.1563 292.282 21.6997C291.588 24.113 290.942 26.5397 290.292 28.9697C290.002 30.223 288.668 30.7597 287.838 31.6163C282.055 32.1197 276.265 32.543 270.478 32.9963C269.605 34.443 269.172 36.0897 269.088 37.7697C269.105 39.3163 267.912 40.483 267.695 41.9763C267.105 44.9397 266.468 47.893 265.898 50.8597C265.775 50.9864 265.528 51.2397 265.405 51.3697C265.765 52.5563 266.495 53.573 267.145 54.6163C262.032 55.8963 256.692 55.5897 251.485 56.193C249.692 56.523 247.872 56.0563 246.318 55.1563C247.185 53.5463 245.402 52.1063 245.995 50.4797C246.812 46.8397 247.498 43.1697 248.365 39.543C249.782 35.4863 251.252 31.453 252.702 27.4097C253.218 26.323 252.768 25.133 252.555 24.0297C252.555 23.5497 252.118 23.3497 251.752 23.1897C250.118 22.473 248.455 21.8263 246.838 21.0763C245.998 20.693 245.535 19.853 245.002 19.1463C244.955 16.5363 245.935 14.0897 246.582 11.603C246.912 10.5663 247.112 9.48634 247.552 8.493C248.085 7.72967 248.832 7.10968 249.618 6.62634C251.048 6.30968 252.542 6.49967 253.972 6.163C252.772 6.09634 251.578 6.25634 250.385 6.32301C250.398 5.39301 250.405 4.46634 250.415 3.53967ZM277.825 21.9897C278.025 22.143 278.432 22.453 278.635 22.6063C278.552 24.683 278.318 26.8263 279.112 28.8097C279.655 29.1163 280.192 29.4297 280.708 29.7863C279.535 29.8063 278.098 29.5863 277.582 28.3663C276.885 26.523 276.645 24.5497 276.302 22.6197C275.428 22.5163 274.555 22.3997 273.688 22.2697C272.305 23.7763 272.425 25.9363 271.918 27.7997C272.585 28.8197 273.248 29.843 273.935 30.853C278.218 30.5897 282.512 30.583 286.795 30.3297C287.672 30.3663 288.228 29.5763 288.872 29.1097C289.342 27.1897 290.178 25.193 289.315 23.2397C288.502 22.7463 287.848 21.7697 286.808 21.8297C284.472 21.8097 282.138 21.8297 279.802 21.7863C279.135 21.7663 278.465 21.7997 277.825 21.9897Z" fill="white"/>
</svg>
