<svg width="80" height="80" viewBox="0 0 80 80" fill="none" xmlns="http://www.w3.org/2000/svg">
<path opacity="0.4" d="M35.8379 2L45.1567 16.6268L60.2159 6.21984L55.0933 23.5854L70.2759 24.5707L59.105 33.8077L70.6462 43.2294L55.0933 44.6457L58.7347 60.5333L46.8848 51.5157V47.3552L32.8132 47.3552L32.8132 49.8938L20.0993 56.5306L26.5129 40.7662L9.71289 34.9793L26.5129 29.1892L16.1494 16.011L32.9366 18.8437L35.8379 2Z" fill="white"/>
<path d="M39.8464 75.8668V21.6001H34.4618C34.1219 21.6001 33.8464 21.8756 33.8464 22.2155V24.518C33.8464 24.8579 34.1219 25.1334 34.4618 25.1334H36.0464V28.5334L33.6464 30.9334H31.6618C31.3219 30.9334 31.0464 31.2089 31.0464 31.5488V37.6668L32.9797 39.6001V43.3796C32.9797 43.4646 33.0486 43.5334 33.1336 43.5334H33.8259C33.9108 43.5334 33.9797 43.6023 33.9797 43.6873V47.4462C33.9797 47.5312 33.9108 47.6001 33.8259 47.6001H33.1336C33.0486 47.6001 32.9797 47.669 32.9797 47.7539V51.5796C32.9797 51.6645 33.0486 51.7334 33.1336 51.7334H33.8259C33.9108 51.7334 33.9797 51.8023 33.9797 51.8873V55.7129C33.9797 55.7979 33.9108 55.8668 33.8259 55.8668H33.1336C33.0486 55.8668 32.9797 55.9356 32.9797 56.0206V59.8462C32.9797 59.9312 33.0486 60.0001 33.1336 60.0001H33.8259C33.9108 60.0001 33.9797 60.069 33.9797 60.1539V63.9796C33.9797 64.0645 33.9108 64.1334 33.8259 64.1334H33.1336C33.0486 64.1334 32.9797 64.2023 32.9797 64.2873V68.2668L31.0464 71.6001V75.2514C31.0464 75.5912 31.3219 75.8668 31.6618 75.8668H39.8464Z" fill="white"/>
<path d="M39.8464 75.8668V21.6001H45.5041C45.7169 21.6001 45.9146 21.71 46.0269 21.8908L53.4815 33.894C53.6328 34.1376 53.713 34.4188 53.713 34.7056V60.4435C53.713 60.7859 53.5235 61.1001 53.2208 61.2599L49.1912 63.3866C49.0386 63.4672 48.8495 63.4065 48.7724 63.2521L48.5705 62.8483C48.4999 62.7073 48.5474 62.5358 48.6805 62.4511L51.828 60.4481C52.0055 60.3352 52.113 60.1394 52.113 59.929V35.8948C52.113 35.6717 51.9922 35.4661 51.7974 35.3574L48.6463 33.6001V37.6668L46.713 39.6001V43.3796C46.713 43.4646 46.6441 43.5334 46.5592 43.5334H45.8669C45.7819 43.5334 45.713 43.6023 45.713 43.6873V47.4462C45.713 47.5312 45.7819 47.6001 45.8669 47.6001H46.5592C46.6441 47.6001 46.713 47.669 46.713 47.7539V51.5796C46.713 51.6645 46.6441 51.7334 46.5592 51.7334H45.8669C45.7819 51.7334 45.713 51.8023 45.713 51.8873V55.7129C45.713 55.7979 45.7819 55.8668 45.8669 55.8668H46.5592C46.6441 55.8668 46.713 55.9356 46.713 56.0206V59.8462C46.713 59.9312 46.6441 60.0001 46.5592 60.0001H45.8669C45.7819 60.0001 45.713 60.069 45.713 60.1539V63.9796C45.713 64.0645 45.7819 64.1334 45.8669 64.1334H46.5592C46.6441 64.1334 46.713 64.2023 46.713 64.2873V68.2668L48.6463 71.6001V75.2514C48.6463 75.5912 48.3708 75.8668 48.031 75.8668H39.8464Z" fill="white"/>
</svg>
