<svg width="320" height="80" viewBox="0 0 320 80" fill="none" xmlns="http://www.w3.org/2000/svg">
<g clip-path="url(#clip0_79_1113)">
<path d="M171.7 10.5327C171.707 9.52904 171.705 8.5254 171.707 7.52419C173.063 7.46601 174.423 7.47086 175.778 7.54358C175.783 8.60055 175.775 9.65753 175.792 10.7145C176.437 11.1727 177.036 11.6866 177.589 12.2539C177.833 12.5036 178.229 12.3921 178.544 12.4696C178.58 11.8466 178.638 11.2284 178.713 10.6102C179.814 10.5642 180.917 10.5715 182.02 10.5884C182.127 11.209 182.219 11.8345 182.296 12.4599C184.272 12.4721 186.248 12.4721 188.224 12.4696C189.227 12.5036 190.119 12.0066 191.021 11.6381C192.672 10.9424 194.33 10.2612 195.981 9.55813C196.515 9.3157 197.096 9.18722 197.686 9.21389C203.339 9.23328 208.995 9.21146 214.648 9.22601C215.305 9.25752 215.933 9.04419 216.549 8.84055C216.743 10.4381 216.728 12.0478 216.755 13.6551C216.759 16.2321 216.798 18.8163 216.59 21.3884C215.877 21.1872 215.155 20.969 214.408 21.003C208.75 21.0199 203.092 21.0006 197.436 21.0151C196.58 21.0636 195.809 20.6539 195.046 20.3387C193.244 19.5799 191.433 18.8478 189.635 18.0866C188.815 17.6963 187.889 17.8127 187.014 17.8006C185.366 17.8248 183.715 17.7521 182.071 17.883C182.478 17.963 182.89 18.0357 183.303 18.1109C183.298 18.4527 183.298 18.7969 183.3 19.1412C182.296 19.1799 181.266 19.0224 180.282 19.243C179.281 19.7545 178.313 20.3436 177.383 20.9739C176.852 21.563 176.602 22.3533 176.279 23.066C175.901 23.8781 176.163 24.7799 176.202 25.6284C183.846 25.626 191.489 25.6284 199.133 25.6284C203.753 25.5581 208.374 25.8054 212.995 25.6672C213.339 25.483 213.722 25.3739 214.117 25.4175C215.591 25.4854 217.065 25.4442 218.541 25.4515C219.441 25.449 220.309 25.7666 221.213 25.7327C231.063 25.7181 240.915 25.7302 250.767 25.7254C252.175 25.6818 253.509 26.2296 254.903 26.2951C262.92 26.2903 270.934 26.283 278.951 26.2975C279.046 26.203 279.237 26.0139 279.332 25.9218C280.173 25.929 281.014 25.9242 281.858 25.9266C282.124 26.0939 282.391 26.2612 282.658 26.4333C282.89 23.9896 282.478 21.529 282.847 19.0951C283.753 19.0927 284.663 19.0927 285.572 19.0927C286.413 21.3642 286.667 23.7933 286.6 26.2006C286.854 28.1181 286.396 30.0478 286.66 31.9606C287.259 32.0187 287.865 32.0042 288.471 32.0163C288.544 31.6963 288.621 31.3812 288.701 31.0636C289.249 31.0684 289.8 31.0709 290.352 31.0733C290.403 31.3884 290.454 31.7012 290.515 32.0163C295.552 32.1303 300.592 32.1569 305.632 32.2199C305.724 31.8636 305.814 31.5072 305.945 31.1606C306.299 31.0927 306.663 31.0636 307.029 31.0151C307.157 31.2333 307.29 31.4515 307.424 31.6721C308.185 31.6648 308.949 31.6696 309.712 31.6527C310.037 31.3496 310.41 31.0854 310.886 31.1606C313.85 31.1872 316.815 31.0781 319.778 31.129C319.909 31.8612 319.989 32.6006 320.049 33.3448C319.603 33.3448 319.169 33.3472 318.73 33.3496C318.728 33.6115 318.728 33.8757 318.733 34.1399C319.172 34.1472 319.608 34.1521 320.054 34.1642C319.991 34.906 319.904 35.6454 319.77 36.3799C316.534 36.3799 313.3 36.3509 310.066 36.3266C310.03 36.1569 309.962 35.8127 309.928 35.643C309.084 35.6333 308.241 35.6333 307.4 35.6309C307.32 35.883 307.242 36.1399 307.169 36.3969C306.75 36.3896 306.338 36.3824 305.926 36.3751C305.846 36.0575 305.766 35.7399 305.69 35.4272C300.624 35.5387 295.557 35.563 290.493 35.643C290.464 35.8296 290.408 36.2054 290.379 36.3921C289.824 36.3921 289.273 36.3921 288.723 36.3921C288.629 36.1399 288.539 35.8902 288.452 35.6406C287.819 35.6599 287.186 35.6769 286.556 35.7036C286.534 35.8999 286.49 36.2951 286.469 36.4915C285.273 36.4963 284.078 36.4939 282.886 36.4963C282.864 36.3242 282.825 35.9799 282.806 35.8078C282.711 35.7957 282.52 35.7666 282.425 35.7545C282.483 37.6163 282.699 39.4757 282.631 41.3424C281.322 41.3933 280.015 41.3424 278.726 41.1145C278.696 39.9363 278.757 38.7606 278.803 37.5848C259.198 38.3509 239.591 39.0321 219.986 39.7666C218.692 39.8709 217.409 39.5921 216.117 39.6139C211.664 39.66 207.213 39.7036 202.759 39.7618C202.73 40.3606 202.711 40.969 202.5 41.5387C202.549 43.2333 202.369 44.9303 202.561 46.6199C202.99 53.6818 203.482 60.7387 203.87 67.803C202.878 68.0793 201.86 68.2321 200.844 68.3824C195.901 69.1581 190.963 69.9484 186.023 70.7266C185.715 63.6066 185.346 56.4915 184.992 49.3763C184.883 49.3084 184.665 49.1751 184.556 49.1072C184.544 48.7096 184.534 48.3145 184.527 47.9218C183.887 47.9751 183.244 47.9945 182.604 47.9921C182.413 49.0975 182.197 50.1981 181.986 51.3012C181.753 51.3109 181.29 51.3351 181.058 51.3448C181.312 50.1981 181.572 49.0539 181.824 47.9096C180.786 47.723 179.729 47.7569 178.682 47.7666C178.653 48.6369 178.469 49.4902 178.141 50.2975C177.627 51.6066 177.273 52.9787 176.706 54.2684C176.187 54.9545 175.467 55.4612 174.801 55.9969C174.357 56.3824 173.732 56.2345 173.201 56.266C170.723 56.2006 168.241 56.2878 165.77 56.1618C164.025 55.2187 162.459 53.9533 160.767 52.9084C160.345 53.8393 159.867 54.746 159.496 55.6987C159.196 56.4163 159.261 57.2163 159.048 57.9557C158.723 58.6733 158.119 59.2284 157.812 59.9557C157.569 60.9181 157.652 61.9242 157.443 62.8915C156.91 64.123 155.863 65.0587 155.322 66.2878C155.077 67.0563 155.014 67.8684 154.876 68.6612C152.999 68.6369 151.043 68.2684 149.448 67.226C147.55 66.0842 145.484 65.1193 143.872 63.5751C144.178 62.2442 144.823 61.02 145.266 59.7327C145.593 58.9133 145.843 58.0527 146.299 57.289C147.783 55.1315 149.441 53.0878 150.876 50.8987C151.327 49.42 151.455 47.8587 151.785 46.3484C151.319 45.6309 150.946 44.8503 150.393 44.1957C149.686 43.6187 148.818 43.2381 148.231 42.5133C148.415 42.3799 148.781 42.1084 148.966 41.9727C144.355 41.9072 139.741 41.9387 135.133 41.9606C133.109 42.2733 131.067 42.5884 129.101 43.163C115.395 48.5424 101.686 53.9169 87.9813 59.3012C87.0746 59.6236 86.197 60.1593 85.2031 60.1181C82.9195 60.0818 80.6358 60.0915 78.3546 60.026C78.0976 59.2115 77.7849 58.3945 77.797 57.529C77.8019 54.2127 77.9401 50.8939 77.8552 47.5824C77.3243 44.026 76.6649 40.489 76.0758 36.9424C75.8576 35.6478 76.1122 34.266 76.8152 33.1557C79.5279 32.7654 82.2431 32.409 84.9534 32.0236C86.1995 31.8418 87.4601 31.9266 88.711 31.8975C88.8734 31.6042 88.9922 31.2624 89.3146 31.1048C90.1752 30.569 91.0916 30.1327 91.9619 29.6163C92.5728 29.2793 93.1861 28.8333 93.9183 28.8769C100.869 28.8769 107.819 28.8769 114.767 28.8769C116.202 28.9375 117.661 28.746 119.082 28.9739C120.49 29.643 121.782 30.54 123.164 31.2672C123.235 31.483 123.307 31.7036 123.378 31.9242C124.966 31.9848 126.556 31.7618 128.071 31.289C128.345 31.1945 128.575 31.0054 128.808 30.8357C130.636 29.3618 132.459 27.883 134.316 26.4454C136.006 26.2951 137.543 25.3618 139.256 25.4103C140.551 25.4151 141.846 25.4224 143.14 25.4127C144.391 25.3715 145.618 25.6987 146.871 25.6478C147.201 24.7484 147.23 23.7957 147.213 22.8503C147.174 22.1787 147.739 21.7206 148.233 21.3787C149.089 20.9133 150.086 21.2066 150.992 21.3036C151.094 20.9981 151.193 20.6951 151.298 20.3921C152.755 20.7824 154.166 21.323 155.564 21.8854C155.249 22.6418 154.941 23.4006 154.616 24.1521C154.796 24.1763 155.155 24.2199 155.334 24.2442C155.506 24.5981 155.678 24.9569 155.853 25.3133C156.156 22.8212 155.974 20.3072 156.032 17.8054C154.311 18.2466 152.655 18.9424 150.91 19.2672C146.374 19.3303 141.836 19.2648 137.298 19.2939C136.003 19.3206 134.738 19.6478 133.446 19.7375C131.819 19.8369 130.185 19.6818 128.561 19.7981C127.707 20.0212 126.968 20.5448 126.166 20.8963C125.072 19.5557 125.092 17.706 124.999 16.0648C125.036 13.8175 124.755 11.3278 126.032 9.34479C126.711 9.71328 127.339 10.2272 128.095 10.426C129.913 10.5545 131.741 10.346 133.557 10.5399C135.053 10.6781 136.539 10.9618 138.049 10.9351C141.928 10.923 145.809 10.9399 149.69 10.923C151.85 10.7702 153.833 11.7884 155.882 12.3048C155.993 11.7496 156.112 11.1945 156.226 10.6393C157.334 10.5739 158.454 10.5133 159.562 10.6272C159.833 11.1896 159.894 11.8272 160.02 12.4381C163.213 12.4793 166.41 12.5036 169.603 12.4333C170.253 11.7472 170.89 11.0418 171.7 10.5327ZM159.921 17.8078C159.921 18.3169 159.926 18.8284 159.928 19.3424C161.489 19.3351 163.053 19.3206 164.614 19.4103C164.027 19.2163 163.004 19.5145 162.99 18.6321C164.524 18.4333 166.078 18.569 167.623 18.5642C167.511 18.8381 167.397 19.1145 167.269 19.3836C168.524 19.3957 169.768 19.2066 171.019 19.1872C172.151 19.3278 173.298 19.3448 174.432 19.1775C175.38 19.1484 176.047 18.3775 176.886 18.0478C177.467 17.9169 178.073 17.963 178.665 17.8878C172.42 17.706 166.168 17.8515 159.921 17.8078ZM159.945 22.3242C159.93 23.4224 159.972 24.523 160.083 25.6187C161.812 25.6381 163.538 25.6187 165.266 25.6333C165.249 24.5424 165.179 23.4539 165.118 22.363C163.395 22.2903 161.669 22.3363 159.945 22.3242ZM167.283 22.3969C167.31 23.4709 167.332 24.5448 167.353 25.6212C168.02 25.626 168.687 25.6284 169.353 25.626C169.39 24.5206 169.438 23.4151 169.475 22.3096C168.743 22.3193 168.01 22.3412 167.283 22.3969ZM282.338 29.9193C282.34 30.6951 282.311 31.4854 282.532 32.2393C282.772 31.4854 282.735 30.6902 282.733 29.9121C282.633 29.9145 282.437 29.9169 282.338 29.9193ZM163.996 47.7715C163.048 49.2551 162.1 50.7412 161.128 52.2103C162.643 53.1751 164.124 54.1933 165.627 55.1751C166.204 55.609 166.963 55.449 167.635 55.4878C169.809 55.4612 171.989 55.5848 174.163 55.4927C175.113 54.9884 176.052 54.2321 176.289 53.1242C176.801 51.3424 177.824 49.6721 177.804 47.7715C174.796 47.7666 171.79 47.7642 168.781 47.7715C168.43 48.5036 167.865 49.1048 167.479 49.8127C167.256 50.7509 167.29 51.7278 167.225 52.6854C167.736 53.4103 168.216 54.169 168.532 55.0054C167.286 55.209 166.563 54.0284 165.959 53.1533C165.409 51.42 164.871 49.5969 165.259 47.769C164.837 47.7666 164.415 47.769 163.996 47.7715Z" fill="white"/>
</g>
<defs>
<clipPath id="clip0_79_1113">
<rect width="320" height="80" fill="white"/>
</clipPath>
</defs>
</svg>
