<svg width="320" height="80" viewBox="0 0 320 80" fill="none" xmlns="http://www.w3.org/2000/svg">
<g clip-path="url(#clip0_79_1110)">
<path d="M286.982 13.3281C287.648 12.7704 288.633 12.6675 289.449 12.9578C289.945 12.9693 290.027 13.495 290.192 13.8561C290.528 14.8093 290.923 15.7441 291.202 16.7178C291.686 18.9144 292.491 21.0195 293.206 23.1475C294.491 23.1293 295.776 23.1453 297.062 23.1315C297.115 23.2184 297.222 23.3921 297.275 23.479C300.754 23.4698 304.233 23.4881 307.712 23.4698C307.796 22.9281 308.299 22.9693 308.724 22.9441C308.772 22.823 308.866 22.5784 308.914 22.4573C309.584 22.4504 310.258 22.3955 310.93 22.4824C310.989 22.6058 311.108 22.8527 311.168 22.9738C314.153 23.0081 317.14 22.9533 320.128 23.0035C320.292 24.5784 320.297 26.1715 320.128 27.7464C317.147 27.7601 314.166 27.7304 311.186 27.7624C311.12 27.8653 310.985 28.0755 310.916 28.1807C310.251 28.311 309.568 28.2333 308.896 28.2424C308.859 28.119 308.786 27.8675 308.747 27.7418C308.459 27.7418 308.173 27.7441 307.89 27.7441C307.862 27.5933 307.803 27.287 307.776 27.1338C304.29 27.1224 300.806 27.1453 297.323 27.1201C297.248 27.2115 297.094 27.3967 297.019 27.4881C293.314 27.479 289.611 27.4881 285.91 27.4835C285.997 28.4001 285.908 29.479 284.994 29.9567C284.24 30.1167 283.442 30.1853 282.818 30.6881C282.672 30.6264 282.377 30.5053 282.228 30.4458C282.23 29.3395 282.23 28.2355 282.23 27.1315C278.429 27.1293 274.628 27.1293 270.827 27.1315C270.818 29.159 270.827 31.1864 270.804 33.2138C270.406 33.2161 270.009 33.2161 269.616 33.2207C269.604 32.6241 269.595 32.0275 269.593 31.4333C259.865 31.4195 250.137 31.4195 240.409 31.4333C240.347 31.3738 240.224 31.2527 240.164 31.1933C239.62 31.5681 239.035 31.8767 238.436 32.1464C238.384 32.7407 238.324 33.3373 238.251 33.9315C237.853 33.927 237.458 33.9224 237.065 33.9155C237.001 33.3578 236.939 32.8001 236.896 32.2424C235.25 32.5213 233.616 32.855 231.984 33.1955C232.155 34.5738 232.105 35.9681 232.272 37.3441C232.608 39.255 232.966 41.1613 233.3 43.0744C233.6 44.6333 233.769 46.2333 234.377 47.7144C235.588 50.9418 236.448 54.3087 238.006 57.3967C238.443 58.3247 238.868 59.2595 239.312 60.1852C235.515 62.6447 231.542 64.8344 227.675 67.1864C226.164 63.047 224.85 58.8435 223.62 54.615C223.113 52.7864 222.404 51.0058 222.139 49.1178C221.794 46.9921 221.414 44.8733 221.06 42.7498C220.813 41.1818 220.436 39.6253 220.432 38.0298C219.506 38.5075 218.473 38.5761 217.451 38.5121C217.254 38.807 217.046 39.0972 216.829 39.383C216.836 39.1658 216.85 38.7338 216.854 38.5167C215.522 38.5715 214.187 38.567 212.852 38.6013C211.906 38.5853 211.076 39.1864 210.125 39.1498C207.691 39.1453 205.254 39.1407 202.82 39.1498C202.086 39.1544 201.36 39.0538 200.637 38.9555C199.798 39.8172 199.119 40.8207 198.429 41.8013C198.1 42.5647 198.436 43.4744 198.089 44.2447C197.803 44.8458 197.414 45.4013 197.232 46.0481C196.722 47.7647 196.23 49.4858 195.702 51.1955C195.284 52.4321 195.723 53.7304 195.846 54.983C194.722 55.447 193.478 55.3235 192.29 55.3875C190.973 55.5064 189.807 54.7681 188.578 54.4367C187.007 54.0435 185.766 52.9715 184.418 52.1418C184.847 50.2721 185.312 48.4115 185.746 46.5441C185.949 45.5018 186.658 44.679 187.177 43.7853C188.598 41.4424 190.091 39.1407 191.481 36.7795C191.549 35.7441 191.225 34.7224 191.158 33.6915C189.337 33.3921 187.542 32.9647 185.741 32.5807C185.753 32.1693 185.766 31.7601 185.78 31.3533C182.719 31.3578 179.661 31.3395 176.603 31.3624C176.427 31.591 176.249 31.8195 176.07 32.0458C175.645 32.0915 175.183 32.0733 174.825 32.343C173.149 33.4173 171.481 34.5053 169.803 35.575C168.717 36.2538 167.684 37.0241 166.516 37.5635C164.962 38.5418 163.039 38.1075 161.305 38.2858C158.527 41.063 155.753 43.8424 152.969 46.615C152.621 47.0013 152.084 47.0721 151.615 47.2321C150.58 46.2538 149.51 45.3144 148.434 44.3818C146.815 45.4995 145.177 46.5853 143.577 47.7281C143.396 48.151 143.257 48.6081 142.948 48.9624C142.319 49.1544 141.638 49.127 140.989 49.2253C140.761 48.9281 140.45 48.6561 140.397 48.263C140.073 46.5944 140.077 44.887 139.931 43.1978C139.643 38.6241 139.35 34.0504 139.053 29.4767C138.923 28.1898 139.067 26.8984 139.115 25.6115C139.222 24.5464 139.321 23.4355 139.867 22.487C140.543 22.3955 141.22 22.311 141.897 22.2218C142.143 22.5418 142.386 22.8687 142.623 23.1978C153.773 23.2253 164.923 23.1978 176.073 23.2344C176.157 23.4767 176.242 23.719 176.329 23.9613C179.497 24.1258 182.671 23.9887 185.842 24.0367C185.842 23.6847 185.842 23.3327 185.844 22.983C186.025 22.903 186.205 22.8253 186.388 22.7475C186.39 22.4778 186.395 22.2104 186.402 21.9453C186.9 21.8858 187.403 21.8333 187.892 21.7075C187.433 21.5658 186.971 21.4447 186.507 21.3258C186.891 21.0447 187.273 20.7658 187.659 20.487C188.013 20.4755 188.374 20.5121 188.729 20.4481C190.073 19.6138 190.927 18.1898 192.292 17.3898C192.395 16.2538 192.573 15.0858 193.062 14.0481C193.769 13.2047 195.243 13.1933 196.082 13.8424C196.685 14.6767 196.902 15.735 197.531 16.567C197.558 16.3864 197.613 16.0253 197.641 15.8447C202.834 15.8401 208.027 15.8584 213.218 15.8378L213.06 16.1373C213.488 15.7578 214.075 15.8561 214.601 15.8127C214.58 15.8973 214.544 16.0664 214.523 16.151C214.866 15.7304 215.433 15.8744 215.906 15.8241C215.913 16.0001 215.926 16.3567 215.933 16.535C215.956 16.3635 216.004 16.0207 216.029 15.8493C216.434 15.847 216.841 15.847 217.25 15.8515C217.266 16.0253 217.296 16.3704 217.309 16.5441C217.33 16.3704 217.369 16.023 217.387 15.847C217.794 15.847 218.203 15.8493 218.612 15.8515C218.633 16.0321 218.669 16.391 218.69 16.5715C218.708 16.3887 218.742 16.0253 218.761 15.8424C219.131 15.847 219.506 15.8538 219.878 15.8653C219.954 16.2378 220.23 16.439 220.562 16.5693C220.66 16.9967 220.345 17.9498 221.065 17.8721C226.283 17.8835 231.501 17.8607 236.722 17.8813C236.891 17.7624 237.065 17.6435 237.238 17.5247C238.304 17.5384 239.371 17.5338 240.438 17.5338C240.448 17.255 240.464 16.9784 240.482 16.7041C240.653 16.4298 240.797 16.1418 240.937 15.8538C241.236 15.847 241.536 15.8424 241.84 15.8378C241.874 16.0047 241.945 16.3361 241.981 16.5007C242.443 16.4984 242.907 16.4984 243.373 16.5007C243.378 16.3361 243.387 16.0093 243.392 15.8447C243.741 15.847 244.089 15.8515 244.441 15.8538C244.45 16.0161 244.47 16.3384 244.48 16.5007C244.971 16.4984 245.462 16.5007 245.958 16.503C245.963 16.343 245.974 16.0207 245.979 15.8607C246.301 15.8538 246.626 15.847 246.953 15.8424C246.992 15.9978 247.067 16.3087 247.106 16.4641C247.597 16.519 248.098 16.503 248.596 16.5098C248.596 16.343 248.598 16.0115 248.601 15.8447C248.928 15.8447 249.257 15.8447 249.588 15.847C249.595 16.0093 249.604 16.3361 249.609 16.4984C250.134 16.4984 250.66 16.4984 251.19 16.503C251.197 16.3407 251.211 16.0138 251.218 15.8515C251.545 15.8493 251.869 15.847 252.201 15.847C252.214 16.0115 252.242 16.3361 252.256 16.4984C252.811 16.4984 253.369 16.4984 253.929 16.503C253.933 16.343 253.942 16.0207 253.947 15.8584C254.244 15.8493 254.544 15.8378 254.845 15.8287C254.886 15.9978 254.966 16.3338 255.008 16.5007C255.556 16.4984 256.107 16.4984 256.66 16.5007C256.665 16.3384 256.676 16.0115 256.681 15.8493C256.957 15.847 257.236 15.8447 257.52 15.8424C257.586 16.871 258.774 16.4047 259.449 16.503C259.456 16.8435 259.465 17.1864 259.478 17.5315C263.748 17.5887 268.025 17.415 272.292 17.6573C276.598 17.6527 280.909 17.6161 285.218 17.6504C285.785 16.2035 286.265 14.7087 286.982 13.3281ZM287.341 16.1647C287.718 16.1784 288.1 16.1944 288.484 16.2104C288.788 15.4538 288.877 14.6401 288.87 13.831C288.658 13.8515 288.237 13.8881 288.025 13.9087C287.545 14.5395 287.193 15.3578 287.341 16.1647ZM289.062 13.879C289.019 14.4778 288.971 15.079 288.925 15.6801C289.188 15.6984 289.453 15.7167 289.721 15.7373C289.506 15.1155 289.282 14.4984 289.062 13.879ZM290.713 17.7007C290.649 19.0035 290.704 20.3087 290.644 21.6138C291.222 21.8447 291.801 22.0778 292.384 22.3041C292.013 21.0355 291.613 19.7738 291.245 18.5053C291.168 18.1738 290.978 17.8995 290.713 17.7007ZM270.82 21.5795C270.82 22.2104 270.82 22.8413 270.822 23.4721C274.612 23.4858 278.402 23.4698 282.192 23.4813C282.212 23.3944 282.253 23.2207 282.274 23.1338C283.312 23.1407 284.352 23.1384 285.392 23.1384C285.387 22.6264 285.385 22.119 285.385 21.6115C280.53 21.5841 275.675 21.5933 270.82 21.5795ZM315.952 23.5841C314.676 23.6138 313.387 23.4813 312.137 23.783C313.088 24.3475 314.214 24.1418 315.268 24.1715C316.313 24.1533 317.426 24.3224 318.381 23.7784C317.593 23.5453 316.763 23.5681 315.952 23.5841ZM312.365 26.7887C312.809 27.2961 313.515 27.111 314.107 27.1475C315.522 27.0835 316.966 27.3007 318.358 26.9487C317.659 26.423 316.763 26.5853 315.949 26.567C314.754 26.599 313.531 26.4435 312.365 26.7887ZM202.466 32.7658C201.926 33.2687 200.969 33.399 200.923 34.2835C200.818 35.447 201.115 36.6081 201.152 37.7738C201.753 38.0618 202.347 38.4641 203.042 38.4573C204.868 38.4733 206.697 38.4504 208.523 38.4595C209.712 38.4435 210.937 38.5921 212.077 38.1647C212.084 36.5121 212.075 34.8573 212.075 33.2047C211.357 32.9578 210.676 32.5373 209.899 32.5304C208.585 32.5121 207.27 32.5441 205.958 32.5281C205.814 32.8275 205.643 33.1201 205.568 33.4493C205.44 34.7933 205.337 36.2584 206.189 37.4058C205.465 37.5773 204.985 36.8778 204.724 36.3087C204.31 35.0515 204.347 33.6504 203.627 32.4961C203.234 32.551 202.777 32.4687 202.466 32.7658Z" fill="white"/>
</g>
<defs>
<clipPath id="clip0_79_1110">
<rect width="320" height="80" fill="white"/>
</clipPath>
</defs>
</svg>
