<svg width="320" height="80" viewBox="0 0 320 80" fill="none" xmlns="http://www.w3.org/2000/svg">
<g clip-path="url(#clip0_79_1085)">
<path d="M247.225 3.40423C247.995 3.37756 248.765 3.37422 249.539 3.40089C249.815 3.91089 250.105 4.41089 250.399 4.91423C256.415 4.89089 262.429 4.91089 268.445 4.90423C274.669 4.83756 280.892 5.26423 287.115 4.90423C296.652 4.89756 306.192 4.91756 315.729 4.88089C315.842 4.37089 315.935 3.85756 316.052 3.35089C316.925 3.21422 317.442 3.88756 317.965 4.4609C318.495 5.1209 319.692 4.79757 320.029 5.6709C320.759 8.40423 319.532 11.2076 320.169 13.9409C320.332 15.2542 320.175 16.5809 319.962 17.8809C319.399 18.2709 318.872 18.8742 318.125 18.8109C310.889 18.8476 303.655 18.8576 296.422 18.8542C294.509 18.7476 292.552 20.3342 292.482 22.3009C292.339 24.0709 292.335 25.8609 292.495 27.6342C292.525 28.5442 293.279 29.3609 292.979 30.2842C292.919 30.8809 292.215 30.7409 291.799 30.8009C286.899 30.8109 281.995 30.7909 277.095 30.7809C276.182 30.7909 275.305 30.5309 274.425 30.3309C273.115 29.8876 271.815 30.9442 271.122 31.9642C270.569 33.9876 270.842 36.1176 271.045 38.1742C270.379 38.6342 269.672 39.0976 269.265 39.8242C268.149 41.3209 269.182 43.2176 268.935 44.9042C268.632 46.8909 268.505 48.9109 268.052 50.8742C265.649 50.8809 263.399 49.9442 261.125 49.2909C257.075 48.0942 253.062 46.7509 248.989 45.6409C249.105 45.1976 249.182 44.7476 249.309 44.3109C248.649 44.6109 247.869 45.1842 247.162 44.6809C246.012 43.9909 244.469 43.1976 244.625 41.6042C244.905 39.4542 245.965 37.4742 247.172 35.7009C248.865 33.7776 250.369 31.6476 251.322 29.2542C251.789 28.0676 252.465 26.9476 252.679 25.6742C253.125 23.6042 253.039 21.1676 251.585 19.4942C250.645 18.3242 250.079 16.5909 248.409 16.2976C247.015 16.1376 245.625 15.9376 244.365 15.2842C243.772 14.3642 244.049 13.3009 244.182 12.2976C244.259 10.3009 244.152 8.30422 244.225 6.30756C244.162 5.72422 244.719 5.41422 245.045 5.02756C245.515 4.97089 245.985 4.91756 246.459 4.86089C246.715 4.37422 246.969 3.88756 247.225 3.40423ZM282.565 19.1742C281.265 19.3609 279.389 18.7109 278.685 20.1976C277.652 21.5709 277.539 23.4842 278.329 25.0009C278.665 26.3609 280.059 26.8809 281.082 27.6342C281.022 27.8809 280.902 28.3709 280.845 28.6176C279.495 28.3142 278.135 27.8442 276.962 27.1242C275.872 25.5609 274.689 24.0076 274.119 22.1642C273.309 23.8209 273.509 25.7176 274.432 27.2776C275.602 28.5709 277.459 28.7976 279.109 28.7509C281.329 28.7209 283.549 28.7809 285.769 28.7576C288.059 28.7076 289.952 26.5309 289.999 24.2976C290.062 22.8576 290.175 21.1509 288.979 20.1042C287.282 18.3809 284.689 19.2709 282.565 19.1742Z" fill="white"/>
</g>
<defs>
<clipPath id="clip0_79_1085">
<rect width="320" height="80" fill="white"/>
</clipPath>
</defs>
</svg>
