<svg width="80" height="80" viewBox="0 0 80 80" fill="none" xmlns="http://www.w3.org/2000/svg">
<path d="M58.4492 56.8001C58.4492 66.1521 49.5987 73.3334 38.6809 73.3334C27.7632 73.3334 18.9126 66.1521 18.9126 56.8001C18.9126 48.4605 21.4531 41.211 33.7555 39.739C35.2491 39.5603 36.8866 39.4667 38.6809 39.4667C40.6637 39.4667 42.455 39.581 44.0723 39.7981C55.9731 41.3961 58.4492 48.5669 58.4492 56.8001Z" fill="white"/>
<path d="M33.7555 39.739C35.2491 39.5603 36.8866 39.4667 38.6809 39.4667C40.6637 39.4667 42.455 39.581 44.0723 39.7981V35.6411C44.0723 35.4712 44.21 35.3334 44.38 35.3334H50.7948L58.5546 47.5421C58.8545 48.014 59.0202 48.5588 59.0338 49.1178L59.5769 71.4425C59.579 71.5289 59.5096 71.6001 59.4231 71.6001H58.7175C58.6325 71.6001 58.5636 71.6689 58.5636 71.7539V72.1795C58.5636 72.2645 58.6325 72.3334 58.7175 72.3334H59.8972C60.2371 72.3334 60.5126 72.0579 60.5126 71.718V48.3639C60.5126 47.9049 60.4099 47.4518 60.2121 47.0376L47.2006 19.8001V18.3488C47.2006 18.0089 46.9251 17.7334 46.5852 17.7334H45.1536C44.8137 17.7334 44.5382 18.0089 44.5382 18.3488V19.8001H33.5012L32.8236 20.4001H30.1361C29.9662 20.4001 29.8284 20.5378 29.8284 20.7078V22.2001H29.2043C29.0344 22.2001 28.8966 22.3378 28.8966 22.5078V24.1334H32.8236V34.7394C32.8236 34.8209 32.856 34.8991 32.9136 34.9568L33.7555 35.8001V39.739Z" fill="white"/>
</svg>
