<svg width="320" height="80" viewBox="0 0 320 80" fill="none" xmlns="http://www.w3.org/2000/svg">
<g clip-path="url(#clip0_79_1086)">
<path d="M315.733 3.43968C316.48 3.29634 317.247 3.37301 318.007 3.35634C318.067 3.85301 318.12 4.35301 318.19 4.85634C318.92 4.99634 319.593 5.31635 320.223 5.71635C320.413 10.5863 320.233 15.4563 319.973 20.323C313.69 20.403 307.403 20.3363 301.12 20.3563C300.52 21.003 299.923 21.653 299.35 22.323C299.48 24.4663 299.133 26.6764 299.827 28.753C300 29.253 300.133 30.1797 299.397 30.2663C297.107 30.6797 294.777 30.8463 292.467 31.123C287.557 31.233 282.647 30.9963 277.743 30.7697C277.673 32.5963 276.497 34.0897 275.97 35.7897C275.667 36.853 275.713 37.9763 275.437 39.0463C274.98 40.313 274.13 41.3997 273.683 42.673C273.337 43.6897 273.05 44.7263 272.773 45.763C272.35 47.1963 272.973 48.663 272.843 50.1163C272.763 50.9563 272.747 51.803 272.903 52.6363C273.78 53.0797 275.173 53.2763 275.253 54.4897C274.81 55.0063 274.06 54.8463 273.46 54.9097C270.787 54.7963 268.16 54.233 265.543 53.7197C262.16 53.0763 258.787 52.3797 255.397 51.7597C255.093 51.3497 254.79 50.943 254.513 50.523C253.777 51.2197 252.833 50.9897 252 50.6464C252.39 48.3064 252.177 45.8797 252.907 43.5997C253.577 41.453 254.113 39.2597 254.863 37.1363C256.293 33.6897 258.253 30.4597 259.373 26.883C259.74 25.713 259.903 24.4197 259.66 23.2163C258.95 22.183 258.273 21.0063 257.123 20.4097C255.483 19.473 253.847 18.5063 252.04 17.9197C252.097 16.4263 251.827 14.8397 252.533 13.4563C253.157 12.113 253.527 10.6397 254.41 9.42968C254.95 7.71968 256.013 6.15634 257.547 5.18634C258.117 4.84301 258.817 4.98635 259.45 4.90302C259.497 4.38302 259.553 3.86301 259.6 3.34301C260.7 3.33634 261.803 3.33301 262.903 3.33301C263.1 3.86967 263.297 4.40634 263.487 4.94968C270.933 4.99968 278.38 4.97968 285.83 5.02301C286.02 5.23968 286.21 5.45968 286.403 5.68301C289.433 5.66968 292.463 5.69634 295.49 5.66634C295.547 5.47967 295.66 5.10301 295.717 4.91301C301.86 4.81968 308.007 4.96967 314.153 4.93634C314.657 4.41967 315.097 3.79968 315.733 3.43968ZM283.84 20.7797C283.05 21.4297 282.227 22.053 281.523 22.803C281.09 23.8763 281.02 25.063 280.687 26.173C281.127 27.1697 281.617 28.1397 282.1 29.1163C284.08 29.4797 286.077 29.9897 288.1 29.603C291.203 29.0663 294.313 30.2297 297.397 29.493C297.873 27.4963 297.61 25.4397 297.577 23.4163C297.623 22.253 296.85 21.273 296.123 20.453C293.783 20.233 291.407 20.403 289.053 20.363C288.583 20.223 288.32 20.6763 288.237 21.0497C287.777 22.2997 288.153 23.6597 288.4 24.9163C288.9 25.7864 289.683 26.4597 290.353 27.1997C291.223 27.2863 292.087 27.443 292.91 27.7563C291.907 28.0663 290.853 28.0297 289.82 27.9997C288.93 27.213 287.91 26.5797 287.077 25.733C286.377 24.0397 285.8 22.163 286.343 20.3397C285.507 20.4163 284.507 20.123 283.84 20.7797Z" fill="white"/>
</g>
<defs>
<clipPath id="clip0_79_1086">
<rect width="320" height="80" fill="white"/>
</clipPath>
</defs>
</svg>
