<svg width="80" height="80" viewBox="0 0 80 80" fill="none" xmlns="http://www.w3.org/2000/svg">
	<path opacity="0.4" d="M47.1401 15.534C48.5323 19.3573 45.3043 20.5966 45.7791 23.2892C45.8826 25.2335 47.2365 29.4369 51.824 30.6959C57.5584 32.2696 58.9352 28.6761 60.2188 27.5403C61.5024 26.4045 62.7423 25.5636 62.7316 24.4166C62.7208 23.2697 61.6722 23.0238 61.585 21.9861C61.4977 20.9484 64.1413 19.3813 63.552 16.0387C62.9626 12.6962 59.2599 11.2429 58.5665 9.21112C58.408 10.4836 57.5668 10.8713 57.9271 12.1002C58.2874 13.3291 59.6418 13.9519 59.3794 15.7214C56.1027 14.2409 57.3864 12.2913 55.5789 10.4559C53.7714 8.62061 50.1502 10.0729 48.6216 4.93335C47.8731 6.93217 47.6216 9.03483 48.1128 11.8203C48.6039 14.6057 54.1034 16.7474 50.3944 21.2308C49.8756 20.4607 50.9139 16.3046 47.1401 15.534Z" fill="white"/>
	<path d="M57.0465 21.494C58.1893 22.2942 59.8955 23.7848 59.1372 24.8677C56.3571 28.8381 56.0678 29.2513 55.6878 28.9852C55.6878 28.9852 52.5992 34.205 50.4778 37.6392C48.3564 41.0733 50.4956 47.3543 47.5004 51.6319L31.4888 74.4989C31.4888 74.4989 26.8727 75.4031 21.7907 71.8446C16.7087 68.2861 15.9795 63.6392 15.9795 63.6392L31.9911 40.7722C34.9863 36.4946 41.6202 36.3566 44.1216 33.1885C46.6231 30.0205 50.4717 25.3329 50.4717 25.3329C50.0917 25.0668 50.381 24.6536 53.1611 20.6832C53.9194 19.6002 55.9036 20.6937 57.0465 21.494Z" fill="white"/>
</svg>
