<svg width="320" height="80" viewBox="0 0 320 80" fill="none" xmlns="http://www.w3.org/2000/svg">
    <g clip-path="url(#clip0_79_1068)">
        <path d="M208.047 21.9587C213.968 20.7474 220.067 22.2482 226.01 21.1616C230.163 20.7964 234.307 21.5357 238.465 21.5134C242.036 21.3575 245.594 22.4352 249.161 21.8028C251.009 21.4956 252.888 21.5356 254.758 21.4956C254.754 21.7672 254.74 22.315 254.736 22.5911C254.34 22.6178 253.559 22.6757 253.163 22.7024C253.776 23.3749 254.256 24.5728 255.34 24.4704C260.528 24.0206 265.712 23.3749 270.9 22.9206C277.456 24.7153 284.124 26.2606 290.92 26.7772C298.862 27.4987 306.902 27.6634 314.813 26.4922C316.629 26.2206 318.442 25.9177 320.276 25.7619C318.153 27.9173 316.438 30.5893 313.716 32.0455C310.864 33.7734 308.101 35.6572 305.223 37.3361C301.252 38.6053 297.147 39.4469 293.127 40.5781C289.969 41.5756 286.629 41.5044 283.373 41.9542C279.522 42.4886 275.644 41.9141 271.775 42.0388C267.724 42.2303 263.771 41.1927 259.782 40.6672C258.285 40.5291 257.094 39.5316 255.846 38.7968C252.959 39.2733 250.094 40.066 247.176 40.2441C247.02 40.1105 246.7 39.8477 246.54 39.7141C243.316 41.1259 240.051 42.4485 236.733 43.6197C236.462 43.5173 235.92 43.3124 235.649 43.21C234.068 40.3421 233.09 37.0644 230.865 34.6062C229.408 32.8694 226.943 33.1767 224.926 33.1767C222.967 34.0851 221.652 35.8932 220.84 37.8482C216.353 38.4984 211.845 36.9219 207.341 37.4207C204.231 37.8482 201.18 38.6186 198.075 39.0773C196.138 39.5182 194.281 37.4964 192.447 38.632C189.711 39.5805 188.978 42.6444 188.063 45.0581C187.707 46.3674 186.024 46.6791 184.909 46.3006C183.057 45.2318 181.777 42.9829 179.356 43.2055C178.157 44.1452 176.86 44.978 175.812 46.1002C172.818 49.5248 170.104 53.1766 167.288 56.7481C166.484 57.6522 165.666 58.8724 164.343 58.9392C163.623 58.8679 163.579 57.9951 163.361 57.474C162.602 54.2454 163.139 50.8697 164.059 47.7346C164.956 44.5104 166.324 41.3396 168.558 38.8146C173.315 33.4038 179.272 28.897 186.135 26.5857C193.224 24.1587 200.673 23.0988 208.047 21.9587Z"
              fill="white"/>
    </g>
    <defs>
        <clipPath id="clip0_79_1068">
            <rect width="320" height="80" fill="white"/>
        </clipPath>
    </defs>
</svg>
