<svg width="320" height="80" viewBox="0 0 320 80" fill="none" xmlns="http://www.w3.org/2000/svg">
<path d="M225.226 20.507C225.581 18.9447 228.247 19.0694 228.451 20.6627C229.051 23.8005 229.011 27.0496 228.509 30.2007C228.314 31.2823 228.363 32.3861 228.465 33.4765C230.944 33.4721 233.423 33.4542 235.906 33.4631C237.959 33.3118 238.034 36.0624 239.501 36.9837C240.482 36.098 239.86 34.9497 239.345 34.0284C241.069 34.113 242.802 34.1219 244.516 34.38C244.819 35.0254 245.09 35.693 245.503 36.2805C246.058 36.3739 246.622 36.4274 247.191 36.4452C246.982 35.7375 246.818 35.0209 246.569 34.331C247.613 34.3889 248.657 34.4557 249.701 34.5224C250.008 35.1411 250.314 35.7642 250.625 36.3873C251.181 36.3695 251.745 36.3561 252.309 36.3383C252.122 35.7375 251.927 35.1322 251.731 34.5402C252.771 34.5313 253.815 34.518 254.855 34.5091C255.17 35.1455 255.49 35.7909 255.814 36.4318C256.374 36.3918 256.943 36.3472 257.507 36.3027C257.316 35.7108 257.103 35.1188 256.912 34.5358C257.938 34.518 258.969 34.5091 260.004 34.4957C260.337 35.1233 260.67 35.7509 261.003 36.3829C261.528 36.374 262.052 36.3695 262.581 36.3695C262.456 35.7642 262.336 35.1589 262.221 34.558C263.078 34.5625 263.94 34.5669 264.806 34.5803C265.175 35.3058 265.397 36.1692 266.081 36.6766C266.619 36.5787 267.143 36.4185 267.65 36.1959C267.49 35.7775 267.174 34.9364 267.014 34.518C267.872 34.5313 268.738 34.5536 269.605 34.5847C270.12 35.4482 270.733 36.2493 271.448 36.9659C271.91 36.4185 272.275 35.8042 272.364 35.0832C273.141 34.9764 273.923 34.883 274.709 34.7939C274.936 35.2613 275.167 35.733 275.393 36.2048C275.607 36.2716 276.033 36.4007 276.246 36.463C276.433 36.2805 276.802 35.9155 276.988 35.733C276.944 35.4259 276.851 34.8162 276.802 34.5091C277.997 34.518 279.205 34.4646 280.4 34.6426C287.198 35.9244 293.973 37.3398 300.793 38.5014C307.106 39.4672 313.383 40.6823 319.523 42.4359C315.933 44.2741 312.406 46.2458 308.803 48.0572C302.05 50.7677 294.684 51.4798 287.464 51.3508C272.35 51.3552 257.232 51.3374 242.117 51.3597C240.678 51.4398 239.581 50.2381 238.159 50.2247C234.947 50.1046 231.73 50.2025 228.523 50.1535C228.5 53.5228 228.22 56.8875 228.238 60.2612C227.305 60.595 226.323 60.7152 225.359 60.4748C225.346 57.6709 225.075 54.8714 225.102 52.0674C225.137 50.968 224.991 49.8731 224.582 48.8539C222.205 48.8673 219.833 48.7916 217.46 48.7471C217.291 48.5557 216.958 48.164 216.789 47.9682C216.634 48.1685 216.323 48.5691 216.172 48.7693C214.292 48.7693 212.418 48.983 210.543 48.8361C210.307 48.6536 209.836 48.2842 209.601 48.1017C209.432 48.3332 209.094 48.7916 208.926 49.0186C206.758 48.7827 204.363 49.5393 202.373 48.4266C200.511 49.4904 198.214 48.8094 196.157 49.0275C195.98 48.7916 195.624 48.3243 195.446 48.0884C195.238 48.3198 194.82 48.7916 194.611 49.023C192.403 48.7115 190.097 49.1254 187.996 48.2486C187.045 48.4444 186.139 48.8317 185.179 48.9741C180.372 49.299 175.552 49.2055 170.745 49.3301C170.714 46.8021 169.843 44.3586 170.025 41.8172C169.923 39.4628 170.803 37.2107 170.749 34.8607C172.144 34.5091 173.593 34.3756 174.992 34.8117C178.431 34.9586 181.874 34.9274 185.312 35.0521C186.619 35.0031 188 36.7612 189.084 35.3503C190.946 35.2212 192.812 35.1144 194.673 35.0165C194.873 35.2435 195.273 35.6974 195.469 35.9244C195.651 35.6974 196.006 35.239 196.188 35.012C198.014 35.1188 199.867 34.8963 201.675 35.1767C201.839 35.3236 202.173 35.6173 202.337 35.7642C204.212 34.3444 206.798 35.3636 208.983 35.012C209.161 35.2479 209.525 35.7197 209.703 35.9556C209.925 35.7241 210.37 35.2613 210.587 35.0254C212.449 35.1633 214.332 35.0832 216.176 35.377C216.336 35.515 216.656 35.7864 216.812 35.9244C217.278 35.4571 217.873 35.1945 218.54 35.2613C220.561 35.2168 222.587 35.1945 224.613 35.1945C225.239 33.7791 225.293 32.2036 225.071 30.6948C224.577 27.3255 224.444 23.8406 225.226 20.507ZM285.958 39.9524C285.283 40.9493 285.287 42.6006 286.607 43.0501C288.002 43.2014 289.415 43.0724 290.819 43.0813C291.343 42.0531 291.614 40.758 290.592 39.9301C289.068 39.5785 287.5 39.9435 285.958 39.9524Z" fill="white"/>
</svg>
