<svg width="320" height="80" viewBox="0 0 320 80" fill="none" xmlns="http://www.w3.org/2000/svg">
<path d="M245.544 27.8995C246.309 27.793 247.19 27.2783 247.88 27.8862C249.174 28.9379 249.455 30.6906 249.761 32.2304C260.167 32.3147 270.572 32.4656 280.972 32.5499C287.498 32.896 294.042 32.7407 300.554 33.2599C307.027 33.7524 313.428 34.8573 319.776 36.1752C315.728 39.8716 311.2 43.0399 306.991 46.5587C306.249 47.0867 305.577 47.9565 304.571 47.8633C296.822 47.8677 289.068 47.8633 281.315 47.8588C280.728 47.3219 280.002 46.9226 279.179 47.0158C272.2 47.0202 265.224 47.0424 258.245 47.0069C257.658 47.0335 257.03 46.9314 256.483 47.1799C254.428 48.2582 251.959 48.4579 249.713 47.9964C249.406 49.9178 248.351 53.1438 245.789 52.2519C244.33 50.7609 243.44 48.5999 241.34 47.8011C237.746 46.6519 233.929 47.4018 230.241 47.4861C222.541 47.6991 214.832 47.9787 207.127 47.8145C206.776 47.7524 206.073 47.6192 205.721 47.5571C204.845 47.9298 203.897 48.0497 203.017 47.6281C202.087 48.1695 201.033 48.3248 199.996 48.0186C199.178 48.4845 198.239 48.5378 197.318 48.5866C196.575 49.1102 195.743 49.4829 194.871 49.758C194.311 50.6455 193.773 51.675 192.718 52.061C191.575 52.558 190.294 51.9812 189.56 51.0671C187.847 49.0569 186.25 46.9536 184.537 44.9435C183.99 44.34 183.679 43.5812 183.341 42.8624C182.024 41.9438 180.783 40.7369 180 39.3524C180.916 37.786 182.496 36.7654 183.492 35.2567C184.422 33.5705 186.722 33.8589 188.359 33.921C189.177 33.6947 190.022 33.5971 190.859 33.7968C191.7 33.5838 192.563 33.5705 193.43 33.6504C195.107 33.0691 196.94 33.2466 198.693 33.1933C199.471 32.6919 200.379 32.7407 201.246 32.9359C201.998 32.6963 202.763 32.4656 203.564 32.4656C212.416 32.013 221.282 32.297 230.135 32.5765C231.536 32.6298 232.964 32.6298 234.312 33.0824C235.642 32.3103 237.008 33.9787 238.186 32.9005C238.538 32.9315 239.241 32.9892 239.592 33.0202C240.282 32.5809 241.06 32.3369 241.852 32.1372C243.578 31.2231 244.699 29.6124 245.544 27.8995ZM183.274 38.5359C182.758 39.8139 183.786 40.6259 184.942 40.8478C185.178 40.2576 185.418 39.6719 185.658 39.0906C185.022 38.3451 184.119 37.5996 183.274 38.5359Z" fill="white"/>
</svg>
