<svg width="320" height="80" viewBox="0 0 320 80" fill="none" xmlns="http://www.w3.org/2000/svg">
<path d="M268.169 27.8771C268.76 27.5931 269.453 27.4333 270.035 27.8416C269.919 28.7247 269.049 29.2173 268.538 29.8696C268.765 30.3311 268.996 30.7927 269.222 31.263C270.87 32.1195 272.758 32.1728 274.57 32.3503C280.566 32.5944 286.571 32.8473 292.554 32.1905C294.548 32.2216 296.529 31.3562 298.497 31.6802C305.639 34.6135 312.866 37.3604 319.941 40.4446C317.33 41.9135 314.98 43.9149 312.048 44.727C308.753 45.9829 305.315 47.2964 301.717 46.8926C298.315 46.4533 294.806 46.7683 291.506 45.6989C286.624 44.2344 281.61 43.338 276.635 42.2774C274.588 41.8647 272.496 41.7848 270.426 41.5984C269.946 41.0437 269.4 40.5556 268.787 40.1606C268.445 41.5851 268.165 43.1161 267.183 44.2655C266.446 44.6515 265.589 44.443 264.82 44.332C260.268 43.4933 255.702 42.5792 251.056 42.486C243.807 41.8514 236.527 42.2596 229.27 42.4727C223.837 42.6635 218.294 42.9874 213.155 44.9267C209.673 46.258 206.32 47.9399 203.233 50.0389C201.749 50.8954 200.394 52.1867 198.631 52.3953C197.716 52.5018 197.014 51.6631 197.01 50.8066C196.859 47.4873 198.458 44.1945 201.123 42.2108C207.092 36.8412 215.105 34.6668 222.838 33.3266C234.853 31.8089 246.965 31.2054 259.069 30.9524C262.093 29.9229 265.313 29.3726 268.169 27.8771Z" fill="white"/>
</svg>
