<svg width="320" height="80" viewBox="0 0 320 80" fill="none" xmlns="http://www.w3.org/2000/svg">
<g clip-path="url(#clip0_79_1070)">
<path d="M224.198 26.7344C225.224 26.6765 226.138 27.0996 226.982 27.6429C226.733 29.2907 226.413 30.9251 226.178 32.5773C228.957 32.2076 231.74 31.8113 234.533 31.5263C234.724 31.6777 235.11 31.9761 235.301 32.1275C235.567 31.8647 236.104 31.3303 236.371 31.0676C236.717 31.3214 237.063 31.5842 237.414 31.8469C237.796 31.4951 238.177 31.1477 238.559 30.7959C238.945 31.0275 239.336 31.2635 239.731 31.4996C240.162 31.1388 240.619 30.8004 241.098 30.4975C241.258 30.7069 241.582 31.121 241.746 31.3303C242.075 31.0542 242.728 30.5064 243.056 30.2303C243.358 30.4886 243.669 30.7469 243.984 31.0097C244.361 30.6846 244.743 30.3595 245.134 30.0433C246.208 30.9696 247.162 29.7538 248.285 29.7093C259.965 28.3955 271.64 26.6498 283.417 26.6676C285.788 26.5919 288.163 26.3915 290.538 26.5429C296.309 26.9259 302.129 26.7122 307.864 27.6251C312.148 27.9903 316.338 29.0457 320.409 30.4129C315.1 35.138 308.65 38.5136 301.831 40.4509C288.66 44.4545 274.73 43.016 261.195 44.1739C255.765 44.6682 250.274 45.2516 245.094 47.0463C242.004 48.1775 239.079 49.7095 236.007 50.8941C235.576 48.6674 234.493 46.3472 232.371 45.3051C229.552 44.0804 225.907 44.5302 223.79 46.8727C223.448 48.6585 223.186 50.5423 222.223 52.1188C221.384 52.6264 220.456 52.052 219.621 51.8427C220.123 49.9366 220.438 47.7544 219.315 45.9998C218.316 44.8775 216.918 44.2452 215.533 43.7375C213.571 44.6638 211.356 44.5435 209.291 45.1047C197.004 47.937 184.596 50.2884 172.402 53.5127C171.58 51.8337 170.768 50.1504 170 48.4492C170.4 48.1018 170.808 47.7678 171.212 47.4293C171.403 46.6678 171.971 46.1557 172.57 45.7014C172.61 45.4743 172.695 45.0156 172.735 44.7885C173.112 44.5702 173.494 44.3565 173.875 44.1516C173.929 43.8622 174.031 43.2877 174.08 43.0027C174.275 42.9269 174.67 42.7755 174.87 42.6998C175.149 41.9784 175.509 41.2836 176.206 40.8917C176.441 39.8942 176.93 38.8031 178.133 38.8209C188.072 37.4671 198.029 36.2558 207.973 34.9331C210.903 34.6258 213.806 34.0603 216.754 33.9445C218.436 33.1963 220.532 33.508 221.939 32.172C223.568 30.8449 223.497 28.5514 224.198 26.7344ZM173.782 50.2127C174.297 50.7961 175.114 50.4309 175.771 50.422C175.98 48.9702 175.314 47.456 173.64 47.5941C173.591 48.4402 173.121 49.4868 173.782 50.2127Z" fill="white"/>
</g>
<defs>
<clipPath id="clip0_79_1070">
<rect width="320" height="80" fill="white"/>
</clipPath>
</defs>
</svg>
