<svg width="320" height="80" viewBox="0 0 320 80" fill="none" xmlns="http://www.w3.org/2000/svg">
<g clip-path="url(#clip0_79_1076)">
<path d="M168.081 16.4359C169.213 14.9944 170.816 16.3827 172.019 16.9372C174.035 17.7134 174.834 19.8912 175.562 21.7409C175.096 23.7103 174.088 25.52 173.817 27.5426C173.258 29.6584 173.937 31.7919 174.27 33.8811C175.727 35.1497 177.134 36.8574 179.207 36.986C181.094 36.6045 183.15 36.0723 184.371 34.4577C185.942 32.4617 187.097 30.0532 187.31 27.4939C187.381 26.3539 187.94 25.3515 188.535 24.4067C189.698 25.1563 190.093 26.4958 190.564 27.7112C192.518 28.1858 194.533 28.239 196.54 28.2967C204.003 28.7757 211.484 29.4233 218.823 30.9137C223.4 31.752 227.96 32.9585 232.115 35.0965C234.85 36.1521 237.106 38.0594 239.308 39.9357C238.016 40.9159 236.768 41.9494 235.463 42.9075C228.302 47.3209 219.888 48.9355 211.666 50.0532C206.227 50.8428 200.735 51.2242 195.252 51.5391C193.667 51.6412 192.016 51.5658 190.511 52.1468C189.925 53.34 189.543 54.7727 188.136 55.2606C187.292 53.5396 187.301 51.588 186.759 49.7871C185.787 47.6669 184.806 45.2761 182.684 44.0652C181.303 43.4886 179.869 42.9031 178.368 42.8055C176.654 43.147 175.518 44.5886 174.27 45.6842C173.96 47.6137 173.334 49.5653 173.729 51.5347C173.991 53.6816 174.998 55.6288 175.522 57.7091C174.879 59.5764 174.057 61.8031 172.064 62.6059C171.003 63.1559 169.928 63.6882 168.876 64.2515C166.865 62.464 166.141 59.7539 164.729 57.5361C161.502 52.2843 161.435 45.9148 161 39.9578C161.444 33.9964 161.524 27.6225 164.783 22.3796C165.933 20.428 166.785 18.2989 168.081 16.4359ZM165.919 23.9853C166.115 24.6595 166.261 25.3603 166.55 26.0168C167.575 26.8507 168.809 27.3785 169.973 27.9995C170.448 27.8531 170.927 27.7112 171.407 27.5737C171.691 25.7773 172.024 23.9809 172.166 22.1667C172.108 20.5211 170.816 19.3058 169.347 18.7779C167.988 20.3614 167.038 22.2332 165.919 23.9853ZM164.432 30.8516C163.246 33.7347 163.047 36.884 162.962 39.9623C163.1 42.8632 163.238 45.835 164.37 48.554C165.027 48.7536 165.688 48.9576 166.35 49.1661C169.156 46.4959 172.086 43.9632 174.914 41.3196C174.91 40.4369 174.91 39.5631 174.91 38.6893C172.197 36.1787 169.449 33.6992 166.718 31.2064C166.123 30.5101 165.213 30.7806 164.432 30.8516ZM166.425 53.4731C166.31 54.3779 165.742 55.3892 166.359 56.2364C167.202 57.6647 167.966 59.1728 169.058 60.4325C169.791 60.6232 170.865 60.8672 171.3 60.0333C173.027 57.8466 171.535 55.0167 171.464 52.5549C170.807 52.2843 170.155 52.0138 169.502 51.7476C168.49 52.342 167.464 52.9231 166.425 53.4731Z" fill="white"/>
<path d="M249.976 15.7441C251.455 16.2365 252.876 16.9684 254.128 17.8998C255.033 19.0486 255.575 20.4325 256.281 21.71C255.357 24.1584 254.363 26.6424 254.181 29.2815C254.234 30.8783 254.642 32.4308 254.918 33.9966C256.338 35.1986 257.706 36.7023 259.642 37.0083C261.724 36.547 264.112 36.0902 265.453 34.2494C266.767 32.4131 267.891 30.3239 268.117 28.044C268.246 26.7444 268.703 25.5157 269.365 24.3935C270.261 25.294 270.714 26.4871 271.105 27.6714C273.01 28.1327 274.963 28.2525 276.921 28.2791C285.84 28.8069 294.782 29.6852 303.493 31.7433C305.93 32.4264 308.434 32.9764 310.716 34.1119C312.701 35.0877 314.845 35.8019 316.616 37.1725C317.766 38.0507 318.903 38.9422 320.048 39.8382C317.828 41.7588 315.538 43.6706 312.758 44.7218C308.643 46.8598 304.114 48.0219 299.581 48.8647C292.544 50.2796 285.383 50.9671 278.231 51.4107C275.815 51.5837 273.374 51.5304 271.016 52.1292C270.67 53.043 270.315 53.9478 269.955 54.8571C269.693 54.897 269.174 54.9769 268.912 55.0168C268.241 53.3845 268.139 51.6103 267.709 49.9248C266.821 47.7868 265.751 45.569 263.802 44.2028C262.483 43.5153 261.022 43.1028 259.579 42.7968C257.653 42.9165 256.303 44.4335 254.927 45.5956C254.647 47.1126 254.261 48.6251 254.163 50.1732C254.376 52.8168 255.286 55.3317 256.263 57.7757C255.526 59.1463 254.949 60.6189 254.03 61.8875C252.711 62.89 251.122 63.4577 249.674 64.2561C247.672 62.1714 246.793 59.3326 245.292 56.9152C243.707 54.4136 243.215 51.455 242.62 48.6118C242.242 44.4158 241.581 40.1842 242.189 35.9704C242.487 31.0868 243.277 26.048 245.967 21.8564C247.321 19.8603 247.801 17.0305 249.976 15.7441ZM246.505 23.9943C246.753 24.673 246.798 25.4802 247.25 26.0657C248.693 27.117 250.456 28.4477 252.312 27.5561C252.578 25.7641 252.915 23.981 253.066 22.1757C253.026 20.5124 251.695 19.2926 250.203 18.7825C248.516 20.1575 247.708 22.2423 246.505 23.9943ZM245.963 30.7808C244.609 30.8961 244.498 32.5106 244.16 33.5219C243.348 38.4765 243.241 43.7149 244.937 48.5054C245.661 48.7493 246.389 48.9933 247.122 49.2372C250.007 46.6025 252.893 43.9722 255.788 41.3463C255.788 40.4548 255.788 39.5677 255.788 38.6805C253.164 36.1966 250.416 33.8458 247.805 31.353C247.33 30.834 246.66 30.4969 245.963 30.7808ZM247.037 53.6107C246.873 54.2583 246.7 54.9059 246.536 55.5579C247.614 57.1814 248.405 59.0177 249.737 60.4637C250.576 60.7564 251.419 60.4371 252.232 60.2064C253.741 57.8245 252.574 55.0523 252.316 52.4974C251.659 52.2401 250.997 51.9829 250.345 51.7345C249.253 52.3732 248.147 52.9986 247.037 53.6107Z" fill="white"/>
</g>
<defs>
<clipPath id="clip0_79_1076">
<rect width="320" height="80" fill="white"/>
</clipPath>
</defs>
</svg>
