<svg width="320" height="80" viewBox="0 0 320 80" fill="none" xmlns="http://www.w3.org/2000/svg">
<path d="M232 25.8588C232.876 23.7906 235.307 22.7922 237.44 22.9616C238.312 22.9794 238.605 23.9689 238.636 24.6954C237.872 25.471 236.494 25.1501 235.992 26.2599C235.187 28.5821 237.907 30.3605 237.365 32.7362C240.97 32.6426 244.561 32.6515 248.166 32.7184C265.989 32.4153 283.657 35.8117 301.489 35.0673C307.565 34.7286 313.592 33.8059 319.637 33.2042C315.41 38.33 310.245 42.7827 304.205 45.6086C298.058 48.6841 291.084 49.2724 284.346 49.8073C273.772 50.097 263.193 49.6959 252.619 49.8251C251.544 49.8162 250.468 49.8786 249.401 49.7493C249.206 46.5268 246.081 43.7544 242.836 44.0753C240.685 44.0976 238.983 45.5685 237.436 46.8923C236.903 48.9337 235.276 50.9216 236.152 53.1279C236.44 54.3001 237.734 54.5809 238.609 55.1916C238.969 55.7666 238.792 56.6045 238.076 56.7873C235.631 57.7456 232.671 56.0251 231.973 53.5424C231.245 50.8993 231.622 48.118 231.498 45.4169C224.404 46.2237 217.301 47.1865 210.15 47.2355C203.096 47.4004 196.029 47.2221 189.024 46.3529C185.459 46.1568 181.961 45.2476 178.392 45.1986C176.796 46.0543 175.481 47.4004 173.912 48.3319C173.245 48.4969 172.641 48.2517 172.076 47.9264C171.356 46.4956 171.276 44.8821 171.098 43.3221C170.925 39.6672 170.929 35.9811 171.543 32.3618C171.814 31.4258 171.978 30.3917 172.774 29.741C173.325 29.7365 173.983 29.5315 174.454 29.9371C175.756 30.9444 177.085 31.9161 178.361 32.9591C181.81 32.8254 185.197 32.0676 188.642 31.876C202.918 30.2625 217.355 31.1182 231.529 33.2577C231.778 30.8018 231.227 28.2478 232 25.8588Z" fill="white"/>
</svg>
