<svg width="320" height="80" viewBox="0 0 320 80" fill="none" xmlns="http://www.w3.org/2000/svg">
<path d="M221.801 33.1109C223.924 32.2512 225.78 30.4166 228.214 30.5983C234.737 30.6204 241.265 30.5983 247.793 30.6027C250.24 30.5805 251.954 32.9381 254.383 33.0001C263.713 33.0755 273.048 32.9691 282.378 33.0711C292.463 34.0194 302.543 35.0785 312.628 36.0712C314.96 36.3282 317.304 36.4656 319.618 36.8822C311.833 40.454 304.24 44.4468 296.495 48.1028C295.54 48.5194 294.479 48.3731 293.475 48.4041C271.6 48.3421 249.72 48.4529 227.845 48.3465C227.508 47.4469 227.17 46.5473 226.828 45.6522C225.647 45.6433 224.466 45.6433 223.289 45.6522C223.276 46.9019 223.271 48.156 223.236 49.4145C222.454 49.3879 221.677 49.3613 220.9 49.3215C220.833 48.5991 220.771 47.8723 220.718 47.1544C213.293 47.0791 205.872 47.314 198.452 47.1899C191.209 47.1323 183.966 47.3051 176.728 47.1367C175.071 47.1943 173.401 47.6419 171.754 47.3051C170.901 46.955 170.861 45.9003 170.644 45.1514C168.93 43.8131 166.949 42.8293 165.31 41.4023C164.897 39.9754 164.88 38.2293 165.359 36.8201C167.26 35.3976 169.454 34.4005 171.452 33.1198C171.687 32.5614 171.932 32.0075 172.18 31.4624C174.72 31.8878 177.292 31.3516 179.845 31.6884C190.05 31.7682 200.264 31.6131 210.464 31.7815C212.831 31.4757 215.211 31.7903 217.578 31.5112C218.866 31.3383 220.083 31.9233 221.344 32.0872C221.459 32.3398 221.686 32.8539 221.801 33.1109ZM227.508 31.9676C226.628 32.2734 227.215 33.8244 228.169 33.5319C229.559 33.3768 228.653 31.2497 227.508 31.9676ZM231.647 32.6678C231.766 32.9248 232.011 33.4344 232.131 33.6915C235.883 33.5984 239.635 33.7181 243.388 33.6427C244.289 33.7757 244.316 32.6766 244.454 32.0872C242.5 31.5111 240.453 31.7682 238.454 31.7327C236.665 31.7505 234.875 31.6618 233.09 31.7549C232.557 31.8169 231.416 31.8081 231.647 32.6678ZM245.808 32.1537C245.542 33.04 246.252 33.4965 246.905 33.9042C247.34 33.3946 247.527 32.814 247.465 32.1714C246.949 31.8169 246.292 31.6751 245.808 32.1537ZM237.322 37.312C238.134 37.3696 238.947 37.4317 239.769 37.4361C251.759 37.4317 263.749 37.4272 275.739 37.4405C276.236 37.2854 277.555 37.64 277.293 36.6916C277.537 35.7699 276.44 35.4774 275.761 35.5837C262.967 35.6148 250.173 35.5571 237.384 35.6103C237.357 36.1776 237.335 36.7404 237.322 37.312ZM167.486 38.8764C167.291 39.9754 168.454 40.3476 169.249 40.6844C168.939 40.0596 168.534 39.4968 168.108 38.9561C168.339 38.4022 168.565 37.8527 168.783 37.2987C168.237 37.6976 167.42 38.0521 167.486 38.8764Z" fill="white"/>
</svg>
