<svg width="320" height="80" viewBox="0 0 320 80" fill="none" xmlns="http://www.w3.org/2000/svg">
<g clip-path="url(#clip0_79_1079)">
<path d="M232.915 30.8377C234.728 29.3103 235.772 27.1302 236.536 24.9368C237.309 24.9767 238.082 25.0211 238.864 25.0655C238.744 27.33 237.811 29.3991 236.527 31.2328C240.605 31.3749 244.688 31.2684 248.771 31.3217C248.5 30.8288 248.238 30.3359 247.976 29.8475C248.945 30.3626 249.922 30.8687 250.899 31.3838C251.033 31.1218 251.299 30.6023 251.432 30.3404C251.628 31.1174 252.13 31.5925 252.956 31.5836C252.761 31.1574 252.361 30.3093 252.161 29.8875C253.174 30.4158 254.196 30.9487 255.213 31.477C255.262 31.1973 255.351 30.6379 255.395 30.3581C255.822 31.1041 256.448 31.5214 257.275 31.6058C257.017 31.0819 256.75 30.5624 256.479 30.0518C257.381 30.4913 258.288 30.9176 259.19 31.366C259.358 31.1618 259.692 30.7533 259.856 30.549C260.154 31.2728 260.722 31.6502 261.522 31.668C261.233 31.1174 260.944 30.5713 260.656 30.0296C261.566 30.4958 262.459 31.0197 263.446 31.3172C263.583 31.1307 263.859 30.7533 263.997 30.5624C264.361 31.295 264.938 31.6724 265.734 31.6946C265.454 31.1618 265.17 30.629 264.885 30.105C265.867 30.5934 266.84 31.1041 267.795 31.6502C267.924 31.3794 268.182 30.8332 268.306 30.5624C268.448 30.8066 268.733 31.2906 268.875 31.5303L269.937 31.779C269.67 31.2195 269.399 30.6645 269.132 30.1139C270.137 30.6556 271.136 31.2018 272.14 31.7523C272.18 31.4637 272.256 30.8954 272.296 30.6112C272.718 31.366 273.344 31.7523 274.184 31.7701C273.957 31.3793 273.513 30.5979 273.291 30.2072C274.197 30.6734 275.108 31.1485 276.014 31.6191C276.201 31.3971 276.574 30.9576 276.761 30.7356C276.987 31.5525 277.609 31.8944 278.44 31.8767C278.249 31.4682 277.862 30.6512 277.671 30.2427C278.644 30.7533 279.622 31.2728 280.599 31.7923C280.657 31.4904 280.777 30.8865 280.835 30.5846C281.012 30.8776 281.359 31.4637 281.537 31.7568C285.628 31.5214 289.725 31.2728 293.781 30.6512C295.118 30.2871 296.113 31.3882 297.175 31.9743C304.013 36.1347 312.174 37.52 320.086 37.3114C316.43 40.6414 312.343 43.6296 307.638 45.2858C298.57 48.8734 288.387 48.5715 279.08 46.1072C268.284 43.6074 257.106 43.7762 246.128 44.6331C245.928 44.9839 245.732 45.3391 245.537 45.6943C244.129 45.7209 242.72 45.8541 241.316 45.7653C239.673 45.2103 238.269 44.118 236.7 43.3854C236.216 44.7175 236.22 46.1383 236.22 47.5325C234.168 49.6415 232.293 52.0925 231.769 55.0629C230.987 55.0407 230.209 55.023 229.432 55.0096C229.374 52.6342 230.343 50.4763 231.222 48.3317C229.463 46.7422 228.13 44.7352 226.344 43.1901C224.354 42.3154 221.964 41.9513 219.911 42.8482C217.947 43.6873 216.113 44.864 214.011 45.3701C210.141 46.378 206.125 45.6055 202.242 45.0682C195.938 44.3756 189.771 41.938 183.352 42.7771C182.121 43.1767 181.059 43.9537 180.006 44.6775C179.78 45.7742 179.526 46.8665 179.278 47.9632C178.114 48.8734 176.528 49.2641 175.408 48.0431C173.684 45.6765 175.51 42.4175 173.924 39.9976C173.698 39.9799 173.24 39.9488 173.009 39.931C173 39.2872 173 38.6523 173 38.0173C175.159 37.3557 174.471 34.8826 174.817 33.1954C174.75 31.9877 175.941 31.4016 176.967 31.295C182.245 32.3384 187.608 31.1573 192.926 31.1085C203.442 30.2427 213.993 30.8732 224.496 31.5703C226.38 31.7301 228.352 32.0054 230.169 31.2906C231.045 30.9531 231.969 30.7666 232.915 30.8377Z" fill="white"/>
</g>
<defs>
<clipPath id="clip0_79_1079">
<rect width="320" height="80" fill="white"/>
</clipPath>
</defs>
</svg>
