<svg width="320" height="80" viewBox="0 0 320 80" fill="none" xmlns="http://www.w3.org/2000/svg">
<path d="M242.047 28.8377C242.683 28.5668 243.323 28.2959 243.968 28.0383C244.729 29.0997 245.614 30.3077 247.082 30.281C257.307 30.5697 267.563 30.2899 277.78 30.8229C281.729 32.6703 285.363 35.708 289.922 35.8279C290.429 35.2861 291.341 34.7531 291.056 33.8694C290.62 32.7724 289.66 32.0042 288.881 31.1559C299.178 31.7244 309.35 33.4697 319.549 34.913C315.079 38.9321 310.586 42.9246 306.134 46.9615C305.578 47.5077 304.902 47.9163 304.119 48.0229C300.441 48.769 296.758 49.5017 293.085 50.2656C289.117 51.3048 284.981 50.7497 280.933 50.9495C276.561 51.2248 272.251 50.3322 267.942 49.7638C265.94 49.2397 263.756 49.7637 261.897 48.7201C258.583 48.4226 255.119 48.8001 252.241 50.5942C251.423 49.5328 250.208 47.9252 248.678 48.6491C247.971 49.635 247.691 50.8562 247.206 51.962C246.543 51.9176 245.89 51.8777 245.236 51.8377C245.071 51.5668 244.742 51.025 244.578 50.7497C244.191 50.8029 243.421 50.9051 243.034 50.9584C242.981 50.683 242.874 50.1279 242.821 49.8526C241.749 50.048 240.637 49.9458 240.463 48.6535C240.108 48.7557 239.4 48.9555 239.049 49.0576C238.796 48.6357 238.546 48.2138 238.302 47.7964C236.02 48.3115 234.17 46.4685 231.973 46.2509C227.472 45.0252 222.815 46.393 218.652 48.1383C214.818 47.037 211.113 45.3405 207.088 45.043C203.231 44.3901 199.357 45.1096 195.524 45.5048C190.551 46.3353 185.743 47.9518 180.775 48.7734C178.6 46.4685 180.272 43.0312 178.707 40.4954C178.031 38.9676 177.862 37.2179 178.106 35.5792C178.426 34.4378 179.761 34.3357 180.708 34.0204C182.296 33.7006 183.515 32.4971 185.12 32.2173C195.301 29.5616 205.931 29.002 216.41 29.4595C219.439 29.5794 222.468 30.0013 225.381 30.8495C226.533 31.1959 227.73 31.3424 228.922 31.4579C229.104 31.6622 229.469 32.0663 229.651 32.2706C230.198 31.831 230.861 31.6489 231.541 31.5512C231.804 31.8265 232.071 32.1063 232.342 32.3905C232.956 31.3913 234.174 31.7155 234.81 32.5015C234.97 32.315 235.291 31.942 235.451 31.7555C235.695 31.7155 236.176 31.6355 236.416 31.5911C236.638 31.7288 237.079 31.9953 237.297 32.133C237.692 31.0271 238.555 30.6719 239.645 31.0449C239.801 29.8636 240.917 29.7526 241.882 29.8725C241.922 29.6149 242.007 29.0997 242.047 28.8377ZM179.636 35.0418C179.645 35.5747 179.663 36.1076 179.685 36.6406C179.925 36.6006 180.401 36.5162 180.641 36.4762C180.57 35.8234 180.286 35.2816 179.636 35.0418ZM254.443 35.6413C253.171 36.836 254.314 39.0654 256.004 38.9277C264.463 39.0165 272.932 38.8833 281.396 38.8122C282.312 38.9721 283.331 38.2793 282.864 37.2801C281.939 36.5562 280.702 36.756 279.617 36.645C272.198 36.2009 264.784 35.7169 257.365 35.2461C256.413 35.2905 255.194 34.9041 254.443 35.6413Z" fill="white"/>
</svg>
