<svg width="320" height="80" viewBox="0 0 320 80" fill="none" xmlns="http://www.w3.org/2000/svg">
<path d="M242.019 16.8821C248.967 15.6183 256.142 14.6916 263.171 15.7869C264.042 16.7003 265.186 17.2279 266.373 17.6093C270.746 19.4006 275.844 20.1145 280.315 18.2611C281.631 17.6226 283.104 18.1059 284.416 18.5049C285.225 18.7666 285.212 19.6977 285.372 20.3894C290.074 21.6842 294.571 23.7416 298.753 26.2468C305.51 30.437 311.177 36.4186 314.771 43.5219C318.068 50.0223 320.074 57.374 319.429 64.6991C317.307 56.9217 311.889 50.3815 305.55 45.5572C297.61 39.8816 287.588 36.7556 277.81 37.8197C277.57 38.1301 277.33 38.4449 277.094 38.7642C275.808 39.0435 274.496 39.1943 273.184 39.2342C272.743 37.1812 272.993 34.9066 271.783 33.0842C270.622 31.3637 268.771 30.1311 266.8 29.5236C263.931 28.9294 261.151 30.4503 259.309 32.5521C256.854 30.2153 253.108 30.2464 250.097 31.3593C248.673 31.8825 247.584 32.9689 246.414 33.8823C244.492 33.2172 242.383 32.4146 240.346 33.0842C238.571 33.7803 236.89 35.013 236.045 36.7556C234.648 40.1121 231.663 42.9411 228.024 43.6505C225.546 44.023 222.855 43.7791 220.764 42.2981C218.812 41.2162 217.597 39.3184 216.272 37.6069C215.209 37.1413 214.065 36.7866 213.131 36.086C212.597 35.075 213.83 34.3745 214.386 33.7094C217.006 31.3416 218.99 28.4151 220.8 25.4176C220.991 25.3467 221.369 25.2137 221.561 25.1427C221.948 23.7682 222.904 22.6951 223.967 21.7817C224.323 21.9103 225.035 22.1675 225.391 22.3005C225.911 21.8571 226.289 20.7087 227.148 21.0767C227.424 21.192 227.984 21.4137 228.26 21.5245C228.482 21.0501 228.705 20.5801 228.927 20.1056C229.839 19.9105 230.613 20.3185 231.312 20.8639C231.547 20.3229 231.779 19.782 232.019 19.2499C232.691 19.3607 233.362 19.4893 234.034 19.6401C234.541 19.2632 234.995 18.7399 235.671 18.7089C237.882 18.4251 239.817 17.1969 242.019 16.8821ZM224.163 27.4751C220.595 28.5924 218.349 32.6895 219.386 36.2811C220.271 39.9747 224.377 42.5332 228.086 41.5665C231.756 40.6221 234.047 36.4053 233.02 32.8048C232.152 29.0403 227.931 26.3976 224.163 27.4751Z" fill="white"/>
</svg>
