<svg width="320" height="80" viewBox="0 0 320 80" fill="none" xmlns="http://www.w3.org/2000/svg">
<g clip-path="url(#clip0_79_1078)">
<path d="M247.94 31.1755C250.511 30.4388 253.176 32.5863 253.474 35.1669C254.962 35.2428 256.609 34.9302 257.862 35.9437C268.797 36.0241 279.718 36.5598 290.617 37.4126C300.499 38.109 310.452 38.81 320.099 41.1762C315.716 42.0736 311.27 42.5915 306.811 42.9085C300.899 43.6005 294.948 43.6318 289.009 43.8014C281.081 44.1943 273.136 43.8059 265.212 44.1497C262.339 44.5738 259.354 43.7523 256.556 44.672C255.29 45.0203 253.967 44.9221 252.674 45.0248C252.83 46.1989 253.136 47.3508 253.554 48.4625C251.12 50.0028 247.886 47.8062 247.638 45.1051C237.587 45.2257 227.531 45.6721 217.476 45.5248C210.072 45.5069 202.664 45.1319 195.26 45.4176C189.731 45.6498 184.05 45.2971 178.76 47.2302C176.482 43.1942 176.495 38.118 178.338 33.9212C178.605 33.1667 179.418 32.747 180.168 33.1042C182.909 33.9391 185.733 34.4793 188.607 34.457C200.306 35.2294 212.022 34.457 223.734 34.582C231.937 34.6936 240.141 34.8008 248.339 35.0553C248.539 33.7248 247.513 32.4479 247.94 31.1755ZM262.13 41.3995C262.108 41.9977 262.086 42.6049 262.059 43.2121C262.987 43.7478 263.951 43.5291 264.479 42.5647C264.049 41.5423 263.178 41.1405 262.13 41.3995Z" fill="white"/>
</g>
<defs>
<clipPath id="clip0_79_1078">
<rect width="320" height="80" fill="white"/>
</clipPath>
</defs>
</svg>
