<svg width="320" height="80" viewBox="0 0 320 80" fill="none" xmlns="http://www.w3.org/2000/svg">
<g clip-path="url(#clip0_79_1075)">
<path d="M258.43 27.1545C259.154 26.8646 259.9 26.3696 260.704 26.7175C264.267 27.6896 267.804 28.9115 271.509 29.237C281.313 29.5224 291.171 29.8792 300.847 31.6451C307.409 32.76 314.046 33.6653 320.359 35.8682C316.738 38.3745 312.74 40.2697 308.848 42.2988C304.237 43.9711 299.55 45.8262 294.583 45.9154C291.185 46.0002 287.786 46.2142 284.388 46.1696C278.754 45.8976 273.126 45.5631 267.493 45.2733C264.17 45.0815 260.829 45.9332 257.541 45.1974C256.2 47.1105 255.515 49.367 254.849 51.5834C254.609 52.7384 253.356 53.7908 252.17 53.2601C251.1 52.1631 250.771 50.6023 250.295 49.1976C248.332 48.2165 247.781 45.8574 246.039 44.6311C243.969 43.0257 241.379 42.2765 238.829 41.8885C236.981 41.6522 234.96 41.7637 233.325 42.7314C231.943 43.8596 230.868 45.3357 229.313 46.2543C226.492 44.2387 223.085 42.3032 219.5 43.1104C217.234 43.2576 215.27 44.4483 213.329 45.5007C212.658 45.8129 211.965 46.3346 211.188 46.0982C209.091 45.5899 207.003 44.9789 204.848 44.7916C202.556 44.7649 200.299 45.4382 198.224 46.3747C196.385 47.1284 195.079 48.7427 193.24 49.5097C191.88 47.7929 191.374 45.6389 191.21 43.4984C189.823 42.0981 188.708 40.3232 189.068 38.263C192.102 35.4981 195.843 33.643 199.695 32.323C203.911 30.722 208.34 29.7276 212.818 29.2504C215.79 29.072 218.784 28.528 221.756 29.0408C224.84 29.4734 227.954 29.5314 231.064 29.4645C235.266 29.4957 239.393 28.5859 243.543 28.0018C245.897 27.6405 248.292 27.6941 250.66 27.4577C251.068 27.9973 251.482 28.5458 251.89 29.0943C252.015 28.8446 252.268 28.3407 252.392 28.0865C252.917 28.1355 253.445 28.1935 253.978 28.247C254.702 27.926 255.475 27.7431 256.266 27.6495C256.977 27.4488 257.701 27.3061 258.43 27.1545ZM190.699 38.6509C190.765 39.5072 190.916 40.3589 191.13 41.1973C191.503 40.2118 191.76 39.1861 191.983 38.1604C191.663 38.2808 191.018 38.5305 190.699 38.6509Z" fill="white"/>
</g>
<defs>
<clipPath id="clip0_79_1075">
<rect width="320" height="80" fill="white"/>
</clipPath>
</defs>
</svg>
