<svg width="320" height="80" viewBox="0 0 320 80" fill="none" xmlns="http://www.w3.org/2000/svg">
<path d="M229.579 26.3438C231.91 26.6012 233.877 24.6527 236.199 24.9723C237.402 25.3984 238.574 26.0464 239.898 25.9043C242.637 28.1457 246.353 28.2168 249.577 29.3619C254.057 30.6446 258.719 31.0529 263.341 31.4923C266.795 31.8163 270.21 30.831 273.256 29.2509C274.095 28.7272 275.089 28.7494 276.044 28.7982C276.488 29.9921 276.928 31.7098 278.526 31.6787C279.139 31.013 279.023 30.0632 279.179 29.2465C279.814 30.396 280.307 31.6876 281.417 32.4821C281.723 32.3489 282.336 32.0871 282.642 31.9539C282.704 31.266 282.775 30.578 282.851 29.8945C283.77 30.7644 283.899 32.2824 285.053 32.9082C286.576 33.4364 286.247 31.4169 286.381 30.5336C286.971 31.4302 287.393 32.4288 288.037 33.2943C288.778 33.7825 289.613 33.4541 290.19 32.886C290.181 32.4288 290.159 31.5056 290.15 31.044C291.012 32.309 291.438 34.0977 293.183 34.4173C293.48 33.5873 293.658 32.7262 293.778 31.8607C294.501 32.9748 294.848 35.0608 296.588 34.8167C297.641 34.4838 297.268 33.1701 297.445 32.3623C298.342 33.5251 298.786 35.083 300.238 35.7266C301.015 35.0342 300.979 34 301.037 33.0547C301.854 34.1376 302.121 36.0373 303.777 36.1127C304.296 35.5046 304.247 34.7102 304.296 33.9734C309.473 35.0519 314.668 36.0683 319.859 37.0803C316.684 40.1872 313.496 43.2763 310.357 46.4187C309.531 47.2221 308.736 48.1897 307.551 48.4471C304.389 49.3037 301.193 50.0849 297.942 50.5331C292.761 50.9637 287.579 51.4519 282.393 51.8735C279.743 51.9445 277.105 51.6294 274.459 51.5495C273.646 49.2593 271.52 47.4839 269.055 47.3863C258.648 46.6673 248.245 45.8506 237.833 45.1893C236.958 47.9233 236.305 50.724 235.449 53.4625C235.178 54.4567 234.165 55.1402 233.144 55.0559C231.453 54.9849 229.783 54.6697 228.109 54.4256C228.735 52.6369 230.453 51.6339 231.492 50.1292C232.314 49.0596 232.247 47.6349 232.434 46.3699C231.248 45.0029 230.374 43.2808 228.74 42.3842C226.471 41.0349 223.216 41.0882 221.351 43.1032C219.984 44.2705 219.384 45.9971 218.563 47.5328C218.301 48.0787 217.586 48.0521 217.111 48.3006C215.712 46.361 215.277 43.7734 213.359 42.22C211.836 41.0704 209.727 40.4757 207.88 41.1459C206.246 41.6918 204.959 42.8991 203.4 43.6003C202.104 43.3784 201.091 42.3531 199.782 42.1889C198.512 42.0557 197.22 41.9848 195.95 42.1534C193.481 42.5617 191.971 45.1405 189.396 45.2292C187.154 45.3979 184.787 45.8861 183.158 47.5594C181.75 49.0551 180.272 50.4887 178.953 52.0688C178.438 52.0111 177.928 51.9534 177.417 51.9002C176.658 50.2136 175.676 48.6424 174.82 47.0046C173.776 45.0606 172.972 42.9967 171.831 41.1059C171.356 40.2227 170.646 39.2196 171.205 38.2032C172.142 36.4145 174.091 35.4736 175.237 33.8314C176.041 32.9304 176.538 31.4968 177.892 31.3192C179.846 30.9908 181.839 30.9952 183.788 30.6224C190.893 29.0201 197.646 25.2031 205.123 25.8245C211.028 26.468 216.96 28.3988 222.932 27.227C225.183 27.1915 227.341 26.4281 229.579 26.3438ZM231.59 52.1532C231.244 53.245 232.278 53.8398 233.197 53.9152C233.344 53.5868 233.637 52.9343 233.784 52.6059C233.393 51.767 232.123 50.9903 231.59 52.1532Z" fill="white"/>
</svg>
