<svg width="320" height="80" viewBox="0 0 320 80" fill="none" xmlns="http://www.w3.org/2000/svg">
<g clip-path="url(#clip0_79_1083)">
<path d="M213.495 29.2221C224.915 27.2993 236.539 26.9573 248.101 26.9307C248.345 27.1261 248.839 27.5257 249.083 27.7211C249.835 27.2726 250.644 27.1128 251.399 27.6678C251.768 27.508 252.137 27.3437 252.506 27.1838C252.742 27.357 253.217 27.7123 253.453 27.8854C253.782 27.73 254.44 27.4236 254.769 27.2682C255.418 27.992 256.231 27.8766 257.04 27.5169C257.783 27.9298 258.578 28.0276 259.361 27.6412C259.73 27.8055 260.103 27.9787 260.477 28.1519C261.552 27.3747 262.615 28.707 263.69 28.0054C264.428 28.5604 265.224 28.8669 266.06 28.254C266.478 28.4761 266.891 28.7025 267.313 28.9335C267.66 28.8313 268.349 28.6182 268.696 28.516C268.905 28.7025 269.314 29.0845 269.518 29.271C271.674 28.3029 273.963 29.4397 276.173 29.6174C281.347 30.2702 286.361 31.7445 291.304 33.3654C294.314 34.3823 297.425 35.2971 300.613 35.4703C302.44 35.3815 302.942 32.5261 301.395 31.6867C299.506 30.5677 297.354 30.0081 295.385 29.0534C295.265 27.7833 296.696 28.1253 297.457 28.2274C305.267 30.057 312.899 32.5571 320.447 35.2571C317.745 37.8461 315.042 40.5417 311.69 42.2869C308.299 44.1342 305.147 46.4879 301.426 47.6514C296.639 49.6852 291.451 50.4091 286.352 51.2084C275.973 52.2875 265.535 52.6828 255.102 52.5984C254.858 51.9811 254.702 51.2928 254.213 50.8221C253.257 50.4713 252.342 51.9589 251.546 51.0663C251.026 48.9481 250.55 46.6611 248.892 45.1023C246.327 42.7221 242.616 41.8828 239.206 42.4645C236.268 42.6288 234.432 45.2622 231.96 46.4479C229.933 47.2161 228.76 44.6316 226.795 44.9958C217.682 45.2223 208.632 46.4257 199.648 47.8867C194.687 48.4818 190.819 52.2476 185.925 53.0691C183.938 53.1002 182.133 51.426 182.022 49.441C181.969 48.1354 181.965 46.7543 182.56 45.5553C183.676 43.1573 184.907 40.817 186.116 38.4634C186.859 37.0468 187.419 35.3992 188.886 34.5511C189.481 34.591 190.082 34.6221 190.682 34.6487C190.908 33.8627 191.606 33.8539 192.3 33.8938C199.248 31.8777 206.387 30.5677 213.495 29.2221ZM184.632 47.1762C183.023 48.0199 183.28 50.6711 185.036 51.1729C186.356 51.8568 187.726 50.1693 187.352 48.9081C187.201 47.6958 185.783 46.6078 184.632 47.1762Z" fill="white"/>
</g>
<defs>
<clipPath id="clip0_79_1083">
<rect width="320" height="80" fill="white"/>
</clipPath>
</defs>
</svg>
