<svg width="320" height="80" viewBox="0 0 320 80" fill="none" xmlns="http://www.w3.org/2000/svg">
<g clip-path="url(#clip0_79_1077)">
<path d="M250.132 29.3416C250.648 29.0338 251.128 28.4271 251.778 28.4851C253.005 29.1007 253.908 30.2741 255.251 30.6934C256.257 30.9209 257.32 30.9432 258.271 31.3894C260.051 32.1567 262.03 31.7374 263.907 31.8667C271.606 32.2326 279.323 32.0809 287.018 32.5047C292.671 33.1382 298.302 33.9635 303.946 34.6684C307.945 35.574 311.85 36.8768 315.817 37.9207C317.481 38.3267 319.051 39.0405 320.492 39.9773C319.198 40.7358 317.926 41.5923 316.444 41.9358C312.375 43.0333 308.345 44.2914 304.257 45.3175C300.161 45.8796 296.06 46.3882 291.964 46.928C284.291 48.1683 276.494 47.6106 268.764 48.0121C265.797 48.1772 262.817 48.0567 259.85 48.2084C258.476 48.2262 257.324 49.1542 255.95 49.172C254.233 49.1943 253.165 50.6978 251.773 51.4517C250.848 51.7863 250.199 50.7825 249.509 50.3453C246.787 47.9006 243.162 46.2097 239.444 46.5131C235.854 46.4239 232.216 46.1651 228.662 46.8343C225.669 47.7489 222.529 47.8917 219.433 48.0433C215.096 48.8018 210.702 47.8693 206.432 47.1421C203.247 45.6699 199.778 44.6126 197.029 42.3418C195.757 41.2488 195.597 39.0672 196.927 37.9608C199.2 35.9711 202.069 34.8825 204.804 33.7182C206.988 32.6162 209.474 32.5627 211.827 32.0809C216.275 31.7106 220.821 31.6481 225.202 32.6296C227.119 32.9865 229.08 32.9374 230.993 33.3033C234.96 34.0304 238.999 33.4862 242.989 33.33C245.76 32.8928 248.019 31.0682 250.132 29.3416ZM248.953 33.4951C245.969 33.968 243.233 36.8098 243.518 39.9684C243.184 44.4877 248.611 47.963 252.632 46.0937C254.335 45.1435 255.652 43.5107 256.132 41.6102C257.315 37.4121 253.325 32.6876 248.953 33.4951ZM200.512 38.3445C199.498 39.1564 199.329 40.4458 200.089 41.4942C200.592 41.6458 201.108 41.7797 201.628 41.8912C202.469 41.6548 202.576 40.7001 202.9 40.0264C202.304 39.2501 201.744 37.7824 200.512 38.3445ZM260.967 38.8308C260.86 39.5089 260.575 40.1825 260.691 40.8874C261.438 41.4183 262.412 41.1997 263.262 41.1016C263.337 40.2093 263.409 39.2234 262.568 38.6657C262.03 38.7193 261.501 38.7773 260.967 38.8308ZM265.935 40.2896C266.086 41.4942 267.505 41.1685 268.101 40.5127C267.91 39.9773 267.723 39.442 267.536 38.9156C266.571 38.5988 265.633 39.1966 265.935 40.2896ZM271.117 39.1654C271.112 39.6918 271.112 40.2272 271.126 40.7581C271.615 40.7402 272.109 40.7134 272.602 40.6867C272.54 40.2495 272.482 39.8167 272.424 39.384C271.984 39.3081 271.548 39.2323 271.117 39.1654ZM275.587 39.1921C275.64 39.7275 275.711 40.2673 275.796 40.8027C277.059 40.4591 276.592 39.3438 275.587 39.1921Z" fill="white"/>
</g>
<defs>
<clipPath id="clip0_79_1077">
<rect width="320" height="80" fill="white"/>
</clipPath>
</defs>
</svg>
