<svg width="320" height="80" viewBox="0 0 320 80" fill="none" xmlns="http://www.w3.org/2000/svg">
<g clip-path="url(#clip0_79_1067)">
<path d="M191.208 32.4985C197.348 30.3308 203.9 29.5487 210.38 29.723C220.035 29.799 229.659 30.6928 239.278 31.4929C241.351 31.475 242.927 33.3522 245.04 33.008C246.918 33.0393 248.622 32.1767 250.363 31.5957C259.218 34.6037 268.522 36.1725 277.849 36.5345C285.093 36.9278 292.364 36.9859 299.604 36.5032C306.618 36.0875 313.485 34.4472 320.441 33.5891C314.395 37.4418 308.513 41.6833 301.846 44.4053C292.64 48.6692 282.399 49.8312 272.384 50.3005C271.985 49.9787 271.59 49.6614 271.199 49.3441C270.218 49.4111 269.277 49.6927 268.403 50.1352C267.12 49.4424 265.682 49.4424 264.452 50.2558C263.227 49.5631 261.828 49.5809 260.594 50.2246C259.476 49.3843 258.175 49.5541 256.941 49.9743C255.68 49.3798 254.295 49.0804 252.999 49.7731C252.067 49.1742 250.895 48.4859 249.799 49.1251C247.948 50.2156 245.83 49.2994 243.842 49.3038C243.682 48.6111 243.522 47.9272 243.371 47.2389C242.288 48.0837 241.28 49.0357 240.122 49.7731C239.336 50.0368 238.573 49.5497 237.827 49.3664C236.89 47.9138 236.433 46.0098 234.893 45.0533C233.064 43.7393 230.494 43.5918 228.492 44.5885C227.79 44.888 227.124 45.3081 226.365 45.4467C224.843 44.9282 223.462 44.0209 221.882 43.6678C220.346 43.346 218.77 43.5516 217.248 43.8153C215.734 44.0969 214.5 45.107 213.048 45.5629C210.523 44.7181 208.112 43.4622 205.462 42.9929C202.723 42.4298 199.891 42.5236 197.126 42.7963C193.743 43.1538 190.765 44.9505 187.981 46.8009C186.738 47.7484 185.105 47.2434 183.702 47.0557C183.489 46.4746 183.303 45.8891 183.023 45.3483C182.157 44.2801 180.475 43.9851 180.013 42.5728C179.893 41.6476 180.613 40.9816 181.145 40.3425C184.026 37.2004 187.151 34.036 191.208 32.4985ZM231.87 35.6003C231.892 35.7791 231.932 36.1456 231.954 36.3244C233.432 36.2305 235.194 37.0663 236.468 36.0518C234.95 35.7523 233.41 35.654 231.87 35.6003Z" fill="white"/>
</g>
<defs>
<clipPath id="clip0_79_1067">
<rect width="320" height="80" fill="white"/>
</clipPath>
</defs>
</svg>
