<svg width="320" height="80" viewBox="0 0 320 80" fill="none" xmlns="http://www.w3.org/2000/svg">
<path d="M275.921 17.4471C277.146 17.1045 278.428 16.4148 279.72 16.6951C280.816 17.7318 281.704 18.9599 282.742 20.0544C283.239 19.0666 282.618 18.1056 282.245 17.2112C283.576 17.6962 284.908 18.1812 286.222 18.7107C286.603 19.5605 287.007 20.4059 287.455 21.2291C287.779 20.6551 288.099 20.0767 288.423 19.5027C289.16 20.5083 289.848 21.5494 290.509 22.6084C290.784 22.0166 291.059 21.4337 291.339 20.8508C291.956 21.9587 292.577 23.0667 293.216 24.1657C293.371 23.5516 293.531 22.9465 293.695 22.3459C294.383 23.4582 295.071 24.5706 295.812 25.6562C295.95 25.1223 296.088 24.5973 296.23 24.0722C304.334 29.4026 311.665 36.366 316.13 45.0913C318.682 50.7865 319.854 57.1358 319.472 63.3695C312.926 54.969 305.772 46.8132 296.771 40.9756C294.721 39.7564 292.803 38.2837 290.584 37.3715C287.056 35.8676 283.625 34.0345 279.875 33.1446C277.958 33.3849 275.832 32.7531 274.141 33.9455C271.434 35.5473 268.127 36.3704 265.052 35.4227C264.435 33.8876 264.182 32.0856 262.966 30.8887C260.791 29.3893 258.057 28.9844 255.474 28.9888C251.853 29.1579 248.409 30.3859 245.005 31.5339C243.931 31.9521 242.808 31.5517 241.734 31.3515C238.702 30.644 235.503 30.3993 232.44 31.0089C229.409 31.9922 228.686 35.4672 226.884 37.7231C224.656 41.118 220.053 42.0879 216.325 41.0512C212.553 39.9077 210.485 35.5384 211.111 31.7964C211.617 29.3937 212.624 26.9332 214.621 25.4026C218.305 22.377 222.876 20.6195 227.505 19.6673C232.729 18.2435 238.121 17.674 243.482 17.0421C250.366 16.2146 257.076 18.5016 263.907 18.862C267.95 19.258 272.099 18.8798 275.921 17.4471ZM284.171 26.0745C284.713 26.9421 285.844 26.6084 286.692 26.5951C287.509 25.4338 287.562 23.4271 285.915 22.9999C284.184 22.3414 282.928 24.8731 284.171 26.0745ZM289.359 25.5939C287.664 26.2791 288.827 28.9354 290.496 28.4327C292.08 27.6674 291.068 24.9888 289.359 25.5939ZM217.515 27.1112C215.376 27.9788 213.738 30.1902 213.818 32.5439C213.64 35.5428 216.139 38.3015 219.095 38.5595C222.233 39.0178 225.41 36.2058 225.224 33.0022C225.37 29.1579 221.305 25.5005 217.515 27.1112ZM292.59 28.9933C292.244 30.2792 293.678 30.8487 294.703 30.5817C294.743 29.8654 295.067 29.06 294.579 28.4282C293.939 28.0634 292.568 27.961 292.59 28.9933Z" fill="white"/>
</svg>
