<svg width="320" height="80" viewBox="0 0 320 80" fill="none" xmlns="http://www.w3.org/2000/svg">
<path d="M233.362 28.2075C234.287 26.5321 234.909 24.7105 235.638 22.9509C236.82 22.8755 237.935 23.3631 239.033 23.7354C238.753 25.2778 238.313 26.7847 237.842 28.2828C237.353 29.8208 237.553 31.4607 237.553 33.0474C238.238 33.2779 238.927 33.4995 239.62 33.7255C242.051 32.8214 244.713 32.9632 247.229 33.3754C252.713 33.3311 258.202 33.3133 263.69 33.3C263.93 33.2424 264.406 33.1272 264.646 33.0696C264.908 33.1494 265.175 33.2291 265.441 33.3178C266.926 33.3843 268.384 33.207 269.837 32.9277C281.121 32.9942 292.463 32.3781 303.689 33.8585C307.116 34.3416 310.56 34.9931 313.787 36.2829C315.778 37.289 317.876 38.1178 319.751 39.3367C316.764 40.7239 313.973 42.6032 310.747 43.4143C303.671 45.4487 296.254 45.7323 288.943 46.1268C282.721 46.211 276.499 46.1977 270.281 46.2996C269.068 46.406 267.89 45.6525 266.708 46.1268C266.077 46.1268 265.441 46.1135 264.819 46.1046C263.837 45.7944 262.833 46.0514 261.846 46.1401C257.157 45.9495 252.459 46.2731 247.753 46.1756C245.042 46.3927 242.233 46.734 239.584 45.914C238.953 46.0692 238.335 46.2332 237.713 46.3972C236.58 49.9784 235.762 53.728 233.984 57.0566C232.909 56.6133 231.833 56.1834 230.749 55.7757C230.598 53.5019 232.029 50.7052 230.087 48.8836C229.038 47.7002 227.425 47.1107 225.856 47.2393C221.696 47.4387 217.532 47.5318 213.381 47.8908C211.354 47.9529 209.31 48.3695 207.301 47.9218C207.67 48.1789 208.203 48.2808 208.403 48.7329C207.527 48.0548 206.412 48.4093 205.412 48.3118C198.297 48.0016 191.172 47.7933 184.052 47.5008C181.426 47.0354 179.59 49.3401 177.426 50.3861C176.355 50.0005 175.297 49.5972 174.244 49.1761C173.595 47.5274 172.591 45.9938 172.244 44.2431C172.071 42.0447 171.791 39.8021 172.253 37.6259C172.715 36.0303 173.533 34.5721 174.146 33.0341C175.208 32.5732 176.275 32.1255 177.342 31.6823C179.399 32.2851 181.417 33.3444 183.621 33.0962C189.59 32.7904 195.554 32.3604 201.523 32.0369C208.887 31.2878 216.256 32.653 223.638 32.4048C225.914 32.5023 228.34 32.3383 230.296 31.0441C231.367 30.1621 232.513 29.3155 233.362 28.2075Z" fill="white"/>
</svg>
