<svg width="320" height="80" viewBox="0 0 320 80" fill="none" xmlns="http://www.w3.org/2000/svg">
<path d="M110.283 3.47729C111.147 2.38662 112.651 2.40528 113.901 2.16528C115.845 2.49862 117.648 3.35728 119.507 3.99195C120.259 4.24795 121.011 4.51729 121.757 4.79462C123.344 5.37862 124.939 5.93329 126.52 6.52795C126.549 7.83995 126.581 9.15195 126.605 10.4639C134.157 10.4293 141.707 10.5013 149.256 10.3546C149.315 10.1786 149.432 9.82662 149.491 9.65062C151.76 9.71728 154.032 9.63996 156.301 9.68796C156.912 9.67196 157.477 9.93862 157.925 10.344C161.208 10.4373 164.493 10.3866 167.776 10.4026C169.421 10.5493 171.133 10.8346 172.44 11.928C173.163 12.096 172.901 11.264 172.976 10.8293C173.387 10.792 173.84 10.7893 174.072 10.3813C175.232 10.2293 176.352 10.4693 177.443 10.8399C177.544 11.6319 177.747 12.4133 177.784 13.2133C177.853 14.3546 177.685 15.568 178.24 16.6213C178.283 16.3493 178.365 15.808 178.405 15.5386C178.827 15.8133 179.248 16.088 179.669 16.3706C180.216 16.8186 180.803 17.224 181.445 17.528C181.429 16.64 181.408 15.752 181.344 14.8693C181.301 14.1226 181.264 13.3786 181.211 12.6346C180.315 12.648 179.421 12.6506 178.528 12.6399C178.467 11.0826 178.469 9.52529 178.52 7.96795C181.653 7.97062 184.789 7.96529 187.925 7.97062C187.933 8.55729 187.941 9.14395 187.955 9.73328C193.323 9.73328 198.693 9.67195 204.064 9.65862C204.568 9.62662 204.843 10.1546 205.197 10.4346C205.28 10.504 205.443 10.6453 205.525 10.7146L205.544 10.8346C206.744 11.5173 206.405 13.024 206.509 14.176C215.848 14.176 225.187 14.1733 234.525 14.1786C234.563 14.824 234.6 15.4693 234.629 16.1173C237.005 16.1306 239.216 17.0933 241.533 17.4613C241.552 17.6026 241.592 17.8853 241.613 18.0266C241.632 17.8933 241.675 17.632 241.696 17.5013C242.917 17.808 244.147 18.0933 245.363 18.4293C246.84 18.7866 248.36 18.92 249.853 19.2186C249.891 19.072 249.968 18.7786 250.005 18.6319C251.277 18.4239 252.573 18.5653 253.859 18.5306C253.893 17.2159 253.776 15.8933 253.912 14.584C254.315 13.0586 255.349 11.7893 255.821 10.2853C255.851 8.79729 255.744 7.30662 255.875 5.82129C257.043 5.80262 258.213 5.80796 259.384 5.81329C259.573 7.74929 259.344 9.68262 259.36 11.6213C259.488 13.9013 259.424 16.1893 259.435 18.4746C259.739 18.5333 260.045 18.5919 260.357 18.6559C260.347 19.3386 260.344 20.0213 260.349 20.7093C264.589 20.8026 268.829 20.7893 273.069 20.8586C279.744 20.8986 286.416 21.0559 293.091 21.0906C295.456 21.0933 297.835 21.2533 300.184 20.8986L300.28 20.9626C302.04 20.784 303.808 20.712 305.573 20.5626C305.645 20.8613 305.723 21.1626 305.803 21.4639C305.917 21.4693 306.149 21.48 306.264 21.4853C306.379 21.0693 306.499 20.6533 306.621 20.2399C307.216 20.2346 307.813 20.2346 308.416 20.2373C308.533 20.6853 308.656 21.136 308.795 21.5866C309.077 21.2186 309.213 20.7733 309.347 20.3386C309.717 20.4026 310.099 20.4746 310.477 20.544C311 20.1413 311.677 20.2826 312.293 20.2613C314.667 20.3093 317.048 20.2 319.421 20.3093C319.923 21.0346 319.859 21.984 319.917 22.8266C319.888 23.8613 319.976 24.992 319.453 25.9253C317.072 26.0373 314.685 25.9253 312.301 25.976C311.672 25.944 310.963 26.104 310.435 25.68C310.093 25.784 309.741 25.8533 309.397 25.9093C309.205 25.576 309.013 25.2453 308.819 24.92C308.669 25.2746 308.525 25.6346 308.389 25.9946C307.803 25.9946 307.219 25.992 306.637 25.9839C306.576 25.7973 306.453 25.4213 306.395 25.2319C305.88 24.7519 305.605 25.4959 305.381 25.8399C301.819 25.5999 298.261 25.1626 294.685 25.2826C283.237 25.3706 271.792 25.576 260.341 25.6853C260.339 26.1706 260.341 26.6613 260.347 27.1493C262.12 27.0773 263.883 27.2133 265.648 27.3413C265.973 28.6826 265.899 30.0826 266.267 31.4186C266.659 32.6906 265.765 33.808 265.645 35.0426C265.035 35.0453 264.427 35.048 263.821 35.0453C263.709 34.464 263.643 33.88 263.531 33.304C262.528 33.0346 261.445 33.2506 260.413 33.1679C260.299 33.4933 260.189 33.8213 260.083 34.152C257.296 34.1466 254.509 34.1626 251.723 34.144C251.541 33.9333 251.533 33.4746 251.192 33.472C250.291 33.416 249.389 33.4746 248.491 33.4586C248.275 35.9039 248.531 38.3626 248.469 40.8159L248.341 40.5386L248.421 40.9706C248.027 40.7866 247.605 40.7119 247.163 40.7493C247.16 41.4639 247.16 42.1839 247.163 42.9013C247.619 42.936 248.075 43.0213 248.493 43.224C248.331 43.5413 248.171 43.8613 248.016 44.1813C247.512 45.0346 247.547 46.4079 246.512 46.7973C246.211 46.9919 245.888 47.1546 245.563 47.2933C245.557 47.4826 245.552 47.864 245.547 48.0533C245.029 48.032 244.507 48.0666 244.005 47.9413C243.859 47.688 243.731 47.4293 243.616 47.1653C241.496 47.1839 239.373 47.1546 237.256 47.1866C237.219 47.0106 237.144 46.664 237.107 46.4906C216.224 46.3946 195.341 46.4719 174.459 46.4453C174.483 47.7839 174.464 49.1226 174.541 50.4586C174.293 50.5626 174.051 50.8613 173.765 50.7013C172.808 50.2319 171.949 49.5893 171.011 49.088C171.008 55.448 171.008 61.8079 171.011 68.1679C171 68.5519 170.928 68.936 170.867 69.3173C170.216 69.3066 169.563 69.2373 168.923 69.3466C168.408 69.5173 168.123 70.0266 167.784 70.4106C167.456 70.6213 167.077 70.7013 166.693 70.6746C160.157 70.6613 153.621 70.6693 147.085 70.672C147.072 63.5253 147.08 56.3813 147.069 49.2373C147.067 48.416 147.048 47.5919 147.155 46.7786C147.683 42.7759 148.149 38.7653 148.685 34.7626C149.219 34.632 149.752 34.4986 150.293 34.3866C150.693 34.264 151.165 34.2346 151.443 33.8746C149.653 33.7706 147.859 33.8506 146.067 33.8266C146.053 34.2026 146.045 34.5813 146.04 34.9599C145.28 35.2613 144.272 35.2053 143.712 35.8373C143.509 37.136 143.589 38.464 143.555 39.776C143.141 39.8773 142.723 39.968 142.304 40.0373C142.312 42.8453 142.277 45.6533 142.248 48.4613C142.171 49.2639 141.773 50.4239 140.792 50.3973C135.904 50.4159 131.013 50.4079 126.125 50.3973C125.821 49.9493 125.427 49.5306 125.275 49.0026C125.2 48.2613 125.237 47.5146 125.227 46.7733C122.187 52.5546 119.211 58.3653 116.176 64.1493C115.963 64.5413 115.752 64.9306 115.579 65.3439C115.984 65.8586 116.573 66.1893 117 66.688C116.936 67.1759 116.573 67.5653 116.336 67.9839C116.043 68.104 115.752 68.2319 115.464 68.3626C112.768 68.5146 110.277 67.4053 107.765 66.6159C106.437 66.1546 105.104 65.7119 103.771 65.2693C103.501 65.1759 103.232 65.0853 102.963 64.9946C101.453 64.4159 99.7333 64.096 98.472 63.0586C98.5333 62.256 99.3947 61.7493 99.8373 61.1146C99.9893 60.9119 100.144 60.7093 100.299 60.5093C100.661 60.0906 101.021 59.6746 101.371 59.2506C102.749 57.5946 104.144 55.9546 105.499 54.2799L105.512 54.3386C106.445 53.0986 107.499 51.9573 108.461 50.7413C108.664 50.4986 108.872 50.2613 109.08 50.024C109.144 49.9546 109.272 49.8133 109.336 49.7439C109.533 49.4826 109.731 49.224 109.933 48.9706C110.331 48.4773 110.904 48.0453 111.003 47.3813C111.109 46.5013 111.272 45.6186 111.256 44.7306C111.008 44.0373 110.573 43.4373 110.261 42.776C109.757 41.64 108.355 41.7653 107.344 41.4479C107.291 40.9626 107.235 40.4799 107.179 40C106.84 39.9786 106.507 39.944 106.176 39.8933C105.669 39.3653 105.323 38.7119 104.883 38.1306C103.611 38.1306 102.339 38.1146 101.067 38.128C100.731 38.1013 100.424 38.2426 100.133 38.3839C98.8987 38.5466 97.64 38.568 96.4 38.4613C95.68 38.096 95.1013 37.5066 94.44 37.0506C93.8613 37.104 93.2853 37.1546 92.7067 37.2053C92.608 36.9093 92.512 36.6159 92.4133 36.3253C88.464 36.2213 84.5173 35.9466 80.5653 35.9466C73.792 36.648 67.0293 37.4319 60.256 38.1493C59.24 38.1653 58.5947 39.0613 57.8453 39.6239C57.144 40.1146 56.4853 40.6666 55.8053 41.1866C56.1787 42.5493 56.6507 43.8853 57.0533 45.24C57.2613 45.9413 57.48 46.6426 57.7253 47.336C57.8427 47.7253 57.96 48.1173 58.0747 48.5119C58.1387 48.7093 58.2693 49.1013 58.3333 49.2986C46.368 49.3306 34.4 49.2906 22.4347 49.3546C21.944 50.36 20.5893 49.9493 19.728 49.7386C19.6507 49.8773 19.4933 50.1599 19.416 50.2986C19.1173 50.1119 18.8213 49.92 18.5307 49.7226C18.248 49.344 17.936 48.9893 17.5787 48.6853C17.3973 48.1813 17.288 47.6559 17.2213 47.1279C17.1173 46.2239 16.768 45.3626 16.7547 44.4479C16.6133 35.0213 16.4107 25.5946 16.2347 16.168C16.2507 15.5653 16.0587 14.9946 15.8827 14.4293L15.7413 14.3733C15.5173 13.7946 15.2267 13.2399 15.04 12.6479C14.9867 12.0613 15.648 11.4693 15 10.9866C15.5707 11.0026 16.152 11.12 16.7173 11C17.0053 10.7866 17.2587 10.5333 17.512 10.2853C17.8293 9.94662 18.088 9.49595 18.5307 9.31462C19.048 9.24528 19.568 9.31462 20.0853 9.33862C20.5867 10.152 21.1093 10.9519 21.584 11.7813C22.2507 11.9653 22.928 12.1093 23.6053 12.2533C23.6107 12.6026 23.6133 12.9546 23.6187 13.3066C28.2187 13.9253 32.8187 14.5626 37.4187 15.1866C39.36 15.4453 41.2987 15.7146 43.24 15.984C44.0613 16.072 44.88 16.1973 45.6907 16.3626L45.76 16.5306C46.656 16.9573 47.5307 17.4293 48.4107 17.8906C49.4613 18.3386 49.896 19.4666 50.5307 20.3306C50.8027 20.6986 51.1147 21.0479 51.56 21.208C52.552 21.6399 53.5173 22.136 54.5067 22.5786C55.1147 22.856 55.7867 22.5919 56.416 22.5306C59.144 22.1333 61.8693 21.7039 64.6053 21.3493L64.7093 21.2933C67.9627 20.856 71.2053 20.3493 74.4533 19.8933C75.0853 19.832 75.6827 19.6026 76.2267 19.2826C76.5227 19.1546 76.8187 19.032 77.1173 18.9093C78.0987 18.464 79.064 17.9866 80.056 17.5706C80.1627 17.5226 80.3787 17.4239 80.4853 17.3733C80.768 17.2479 81.0507 17.1173 81.336 16.9946C82.0613 16.64 82.8 16.3093 83.5413 15.992C84.48 15.544 85.432 15.1279 86.3733 14.6906C86.2373 14.1759 86.104 13.6613 85.9707 13.1493C87.136 13.2373 88.3093 13.0773 89.3707 12.5706L89.5093 12.5946C90.9413 12.136 92.3573 11.5546 93.8667 11.4159C95.664 11.1786 97.3867 10.4373 99.224 10.512C102.197 10.536 105.171 10.4853 108.144 10.5226C108.059 9.21595 108.091 7.90661 108.096 6.59728C108.675 5.45328 109.195 4.24262 110.283 3.47729ZM115.571 6.40262C115.4 6.99195 115.939 7.47729 116.213 7.94662C117.008 7.94129 117.808 8.01596 118.603 7.95462C118.965 7.47462 119.341 6.94929 119.448 6.34662C119.227 5.61862 118.744 5.00529 118.389 4.33862C117.845 4.32796 117.301 4.31995 116.76 4.31195C116.368 5.01062 115.901 5.66929 115.571 6.40262ZM116.432 8.28529C116.491 8.40529 116.605 8.64795 116.664 8.76795C117.312 8.75729 118 8.82129 118.563 8.42129C117.853 8.33862 117.141 8.30929 116.432 8.28529ZM187.949 11.1626C187.941 11.656 187.936 12.1519 187.933 12.6479C186.221 12.6453 184.509 12.6506 182.797 12.6426C182.861 14.2373 183.029 15.8266 183.101 17.4239C183.96 17.4266 184.819 17.4266 185.68 17.4213C185.669 16.3413 185.696 15.2586 185.76 14.1813C192.248 14.1679 198.733 14.1813 205.221 14.1733C205.192 13.4479 205.152 12.7226 205.064 12.0026C204.664 11.656 204.419 10.9653 203.805 11.008C198.52 11.008 193.235 11.096 187.949 11.1626ZM255.547 14.088C255.544 14.6453 255.544 15.2026 255.547 15.76C256.28 15.76 257.013 15.76 257.749 15.76C257.747 15.2026 257.749 14.648 257.755 14.0933C257.016 14.088 256.28 14.088 255.547 14.088ZM151.416 14.504C151.424 14.9466 151.435 15.3946 151.445 15.8399C153.672 15.8613 155.901 15.8346 158.131 15.8373C158.125 15.3946 158.12 14.9493 158.117 14.5093C155.885 14.5066 153.651 14.5146 151.416 14.504ZM165.307 14.5146C165.304 14.9946 165.304 15.4773 165.307 15.96C165.72 15.96 166.139 15.9626 166.557 15.968C166.56 16.16 166.571 16.544 166.573 16.7333C167.043 16.84 167.512 16.9493 167.984 17.0613C168.069 16.2 168.104 15.336 168.112 14.472C167.176 14.496 166.24 14.5119 165.307 14.5146ZM237.667 17.3066C238.403 17.3413 239.267 17.7946 239.912 17.2586C238.944 17.128 238.003 16.8746 237.064 16.6186C236.608 16.952 237.347 17.2906 237.667 17.3066ZM242.771 25.9013C242.784 26.2346 242.803 26.568 242.824 26.9013C244.64 26.88 246.456 26.8826 248.275 26.8986C248.363 27.4799 248.429 28.064 248.493 28.6533C249.48 28.6506 250.464 28.6506 251.453 28.6533C251.448 27.7066 251.443 26.7626 251.44 25.8213C248.549 25.832 245.659 25.8773 242.771 25.9013ZM171.035 33.7333C170.976 36.1359 171.027 38.5413 171.003 40.9466C172.04 41.0693 173.091 40.9146 174.125 41.0266C174.379 41.2906 174.685 41.4666 175.053 41.5413C175.075 38.9359 175.235 36.3333 175.131 33.728C173.765 33.736 172.397 33.7359 171.035 33.7333ZM218.315 34.7893C218.075 37.0053 217.792 39.2213 217.645 41.4479C223.952 41.4506 230.259 41.464 236.568 41.4266C236.968 41.5066 237.181 41.232 237.283 40.888C238.963 40.88 240.645 40.8853 242.325 40.8853C242.323 39.5946 242.325 38.3039 242.323 37.0159C241.621 37.0133 240.917 37.016 240.219 37.0213C240.459 37.6826 240.669 38.3573 240.824 39.0479C240.544 39.2159 240.272 39.3866 240 39.56C239.765 39.7626 239.536 39.9653 239.309 40.1733C238.379 39.9013 237.616 39.2906 236.891 38.6773C237.08 38.136 237.267 37.5946 237.453 37.0533C236.851 37.024 236.253 36.9519 235.667 36.8239C235.669 36.4079 235.675 35.9946 235.685 35.5813C236.285 35.5786 236.891 35.5786 237.499 35.576C237.512 35.3839 237.539 35 237.552 34.8079C234.485 34.7466 231.416 34.8346 228.352 34.76C228.584 35.0293 228.912 35.3413 228.771 35.7439C228.451 37.1893 228.029 38.6133 227.64 40.0426C225.979 40.0693 224.331 40.264 222.672 40.2933C222.379 39.712 222.139 39.1093 221.957 38.488L221.749 38.4106L221.853 38.2293C221.547 37.432 221.163 36.6613 220.936 35.8399C220.8 35.3653 221.333 35.1013 221.576 34.784C220.488 34.792 219.4 34.7839 218.315 34.7893ZM126.395 39.9546C126.365 42.6933 126.379 45.4346 126.381 48.176C126.312 48.8213 126.832 49.2773 127.179 49.7519C128.419 49.7386 129.661 49.7573 130.904 49.736C131.067 49.5493 131.227 49.3653 131.389 49.1839C129.829 48.8933 129.632 47.1839 129.165 45.9599C128.843 44.3306 129.176 42.6506 128.997 41.0079C128.483 40.0506 127.392 39.8346 126.395 39.9546ZM132.611 39.9733C132.608 40.2879 132.608 40.6053 132.608 40.9226C133.392 40.9226 134.179 40.9359 134.965 40.9813C134.64 41.2666 134.317 41.5546 133.989 41.8373C133.213 42.424 132.504 43.0933 131.701 43.6453L131.637 43.7386C131.003 44.1173 130.856 44.8479 130.693 45.5119C130.291 46.7519 130.747 48.2479 131.701 49.1119C131.691 49.2773 131.672 49.6053 131.661 49.7679C134.544 49.7466 137.429 49.7493 140.312 49.7413C140.997 49.7973 141.269 48.992 141.24 48.4346C141.264 45.616 141.28 42.7973 141.296 39.9813C138.4 39.9733 135.504 39.9813 132.611 39.9733ZM240.752 43.0453C240.744 43.6559 240.747 44.2693 240.763 44.8853C241.128 45.048 241.493 45.224 241.845 45.424C241.667 45.6906 241.493 45.9573 241.323 46.2266C241.653 46.2426 241.987 46.2613 242.325 46.2826C242.32 44.7386 242.331 43.1973 242.32 41.6559C241.501 41.6853 241.467 42.7733 240.752 43.0453ZM239.547 43.1653C239.544 43.6666 239.544 44.1706 239.552 44.6746C239.699 44.6746 239.992 44.6746 240.136 44.6746C240.131 44.16 240.128 43.6453 240.131 43.1333C239.984 43.1413 239.693 43.1573 239.547 43.1653Z" fill="white"/>
</svg>
