<svg width="320" height="80" viewBox="0 0 320 80" fill="none" xmlns="http://www.w3.org/2000/svg">
<path d="M212.817 11.806C213.695 11.6002 214.523 11.9317 215.284 12.3408C215.457 12.7911 215.629 13.2437 215.798 13.7008C215.711 14.1945 215.494 14.7042 215.599 15.2117C215.942 16.1145 215.775 17.0974 215.787 18.0391C215.585 18.2882 215.387 18.5374 215.197 18.7957C215.677 18.8071 216.159 18.814 216.641 18.8185C216.742 18.4505 216.847 18.0848 216.952 17.7191C217.937 17.726 218.923 17.7191 219.908 17.7328C220.027 18.3431 220.143 18.9557 220.246 19.5705C228.929 19.6231 237.613 19.55 246.296 19.6071C246.278 20.686 246.257 21.7671 246.413 22.8391C246.966 21.854 247.638 20.9465 248.2 19.9682C249.304 19.854 250.449 20.0985 251.517 19.7191C251.432 19.5637 251.263 19.2528 251.181 19.0974C265.094 19.0677 279.007 19.0928 292.923 19.086C292.955 20.6951 292.966 22.3065 293.019 23.9157C293.4 23.9157 293.782 23.9157 294.168 23.9157C294.23 22.7728 294.056 21.598 294.255 20.4757C295.638 18.4437 297.044 16.4254 298.459 14.4162C299.327 13.5271 300.369 12.8277 301.293 11.9934C301.942 12.6517 302.619 13.2848 303.247 13.966C303.572 14.2517 303.51 14.7088 303.526 15.0997C303.517 18.0391 303.531 20.9808 303.54 23.9202C305.192 23.9042 306.854 23.9911 308.5 23.758C312.237 23.2734 316.011 23.5294 319.768 23.4654C319.947 25.054 319.889 26.6517 319.853 28.2471C317.821 28.2425 315.791 28.2425 313.761 28.2425C310.353 28.3408 306.973 27.6917 303.563 27.854C303.524 28.0505 303.448 28.4437 303.412 28.6402C302.888 28.6357 302.367 28.6311 301.851 28.6288C301.839 28.4368 301.816 28.0528 301.805 27.8608C299.873 27.8517 297.944 27.8677 296.013 27.854C295.976 28.0505 295.901 28.4414 295.862 28.638C295.309 28.6357 294.758 28.6334 294.209 28.6357C294.191 28.3774 294.177 28.1191 294.164 27.8631C293.782 27.8585 293.403 27.8562 293.028 27.8562C293.009 29.6071 292.911 31.358 292.927 33.1088C279.028 33.1111 265.128 33.102 251.229 33.1157C251.169 32.8414 251.11 32.5694 251.053 32.2997C250.139 32.302 249.227 32.2974 248.315 32.3111C247.512 31.182 246.646 30.0848 245.988 28.8642C245.688 28.8597 245.389 28.8551 245.092 28.8551C245.519 29.1134 245.94 29.3808 246.363 29.6528C245.963 30.4094 245.201 31.0722 245.297 32.0002C245.272 35.2825 245.089 38.5602 245.069 41.8425C245.085 42.3065 245.277 42.7408 245.412 43.1797C245.14 43.2848 244.868 43.3922 244.6 43.4997C244.657 45.2368 244.833 46.9648 244.891 48.6997C244.927 50.4871 245.43 52.2174 245.743 53.966C246.054 55.3945 246.26 56.846 246.639 58.2585C247.375 60.4871 248.029 62.7408 248.788 64.9625C248.872 65.3123 249.236 65.7694 248.849 66.062C248.486 66.3203 248.017 66.366 247.604 66.5054C243.174 67.7443 238.735 68.9465 234.315 70.2128C233.745 68.0003 233.023 65.8311 232.369 63.646C231.403 60.7088 230.993 57.6345 230.319 54.6265C229.647 51.95 229.773 49.1705 229.526 46.4414C228.207 46.6677 226.87 46.51 225.542 46.5328C222.648 46.5443 219.757 46.5168 216.863 46.5465C215.924 46.5145 215.073 47.0334 214.326 47.5431C212.013 53.0174 209.832 58.5488 207.521 64.0231C204.987 63.8174 202.491 63.3214 200.022 62.7363C198.253 62.3043 196.42 62.046 194.747 61.294C198.685 54.0117 202.811 46.8277 206.737 39.5431C206.609 38.5465 205.828 37.6871 205.455 36.7385C204.305 36.4871 203.144 36.2997 201.981 36.126C201.617 35.7694 201.044 35.5157 200.966 34.9625C200.68 33.2803 200.799 31.5682 200.721 29.8722C200.36 29.8631 200.001 29.8585 199.645 29.854C199.617 29.6848 199.56 29.3488 199.533 29.182C198.806 29.1751 198.081 29.166 197.359 29.1911C197.108 29.3625 196.845 29.5408 196.525 29.5317C192.744 29.7671 188.959 29.9614 185.183 30.2677C184.456 31.5157 183.672 32.7294 182.932 33.9683C182.76 33.9751 182.415 33.9888 182.241 33.9957C181.656 35.1111 181.142 36.2608 180.603 37.3991C179.56 37.4768 178.516 37.4585 177.473 37.4494C177.473 37.79 177.473 38.1351 177.473 38.4802C174.701 38.6837 171.912 38.5877 169.137 38.75C166.603 40.3705 164.166 42.1511 161.654 43.8128C161.265 44.0711 160.776 44.0414 160.333 44.1168C160.331 43.9202 160.326 43.5248 160.324 43.326C155.311 46.6425 150.28 49.934 145.272 53.2597C145.055 53.8151 144.765 54.3385 144.44 54.8414C143.563 54.4163 142.644 54.0734 141.782 53.614C140.923 53.0517 141.105 51.8905 141.012 51.0037C140.993 42.686 141.016 34.3682 141 26.0528C140.989 25.198 141.364 24.3911 141.752 23.6528C142.68 23.2025 143.622 22.6951 144.625 22.4574C158.507 22.4345 172.39 22.4574 186.271 22.446C186.385 22.7705 186.5 23.0951 186.616 23.422C190.918 23.4197 195.22 23.4197 199.524 23.422C199.636 23.1842 199.748 22.9511 199.862 22.7157C201.656 22.462 203.505 22.0894 205.302 22.5465C205.302 22.4734 205.3 22.3294 205.297 22.2562C204.39 22.2997 203.483 22.2562 202.575 22.2105C202.584 21.5202 202.605 20.8322 202.685 20.1465C203.304 20.1534 203.928 20.158 204.55 20.1534C204.575 20.014 204.628 19.7351 204.655 19.5957C207.028 19.5545 209.403 19.6345 211.775 19.5591C212.676 19.0448 212.907 18.0002 213.341 17.15C212.708 16.2997 211.823 15.5751 211.597 14.4894C211.867 13.7877 211.668 12.8894 212.292 12.3614C212.461 12.1717 212.639 11.9888 212.817 11.806ZM297.972 16.1122C297.028 17.5637 296.043 18.9877 295.083 20.4277C294.806 20.7545 294.868 21.1957 294.849 21.5934C297.528 21.5888 300.205 21.5934 302.881 21.5911C302.886 20.6151 302.888 19.6368 302.891 18.6631C302.47 18.6494 302.054 18.6425 301.638 18.6311C301.339 17.7808 301.019 16.9374 300.694 16.0985C299.787 16.1031 298.877 16.0962 297.972 16.1122ZM295.791 23.6437C296.088 24.0642 296.648 23.8837 297.087 23.9248C298.646 23.8837 300.212 23.9751 301.768 23.886C301.809 23.8197 301.892 23.6894 301.933 23.6231C300.703 23.438 299.467 23.6345 298.235 23.5614C297.416 23.5225 296.6 23.5705 295.791 23.6437ZM221.224 39.1934C220.984 39.758 220.641 40.302 220.564 40.9237C220.557 41.6162 220.667 42.3043 220.765 42.99C220.847 43.6597 221.38 44.1717 221.432 44.8551C220.797 44.334 220.155 43.7054 220.008 42.8643C219.855 42.1397 219.59 41.4357 219.503 40.6997C219.611 40.2334 219.803 39.7922 219.969 39.3442C219.373 39.3671 218.779 39.4014 218.184 39.454C217.713 40.1511 216.76 40.6654 216.872 41.6231C216.854 42.2585 217.119 42.8505 217.288 43.4517C217.483 44.0368 217.56 44.7134 218.084 45.118C218.102 45.2574 218.136 45.5408 218.152 45.6803C220.993 45.7168 223.835 45.694 226.676 45.694C226.781 45.4197 226.936 45.1751 227.163 44.9854C227.224 43.31 227.169 41.6322 227.215 39.9568C226.47 39.3762 225.528 39.1477 224.623 38.9557C223.487 38.9397 222.358 39.1317 221.224 39.1934Z" fill="white"/>
</svg>
