<svg width="320" height="80" viewBox="0 0 320 80" fill="none" xmlns="http://www.w3.org/2000/svg">
<path d="M147.143 8.89265C147.845 8.51322 148.67 8.3395 149.465 8.4195C160.222 9.58064 170.981 10.7121 181.735 11.8778C183.632 12.2069 185.536 13.7566 185.552 15.8115C185.625 17.8846 185.413 19.9646 185.596 22.0355C185.756 21.0001 185.68 19.9235 186.021 18.9201C186.665 18.7944 187.278 19.0892 187.881 19.2698C188.124 19.1258 188.368 18.9841 188.611 18.8378C188.905 18.5521 189.239 18.2686 189.685 18.3281C199.913 18.3829 210.14 18.6092 220.368 18.7098C222.096 18.7349 223.831 18.6984 225.557 18.8515C225.815 19.2332 225.897 19.6972 226.019 20.1361C226.485 20.2275 227.15 20.1269 227.36 20.6846C227.637 21.4435 227.456 22.2869 227.518 23.0778C227.959 23.0732 228.407 23.0709 228.855 23.0664C228.871 21.9304 228.819 20.7921 228.869 19.6561C228.867 19.2561 229.15 18.9452 229.353 18.6275C230.855 16.5406 232.272 14.3944 233.785 12.3189C234.537 11.3886 235.241 10.1406 236.572 10.0378C237.365 10.0584 238.451 10.2161 238.764 11.0778C239.015 11.6972 239.02 12.3807 239.033 13.0389C239.036 16.3807 239.047 19.7201 239.056 23.0618C242.501 23.1349 245.957 22.9818 249.399 23.1372C251.689 23.7246 254.071 23.3726 256.407 23.4732C256.471 23.3726 256.599 23.1738 256.661 23.0732C261.477 23.0481 266.291 23.0869 271.104 23.2104C271.104 22.2641 271.203 21.2995 271.735 20.4881C287.481 20.5658 303.225 20.7304 318.972 20.7715C319.82 22.0766 319.776 23.6675 319.888 25.1601C319.888 27.0458 319.808 28.9704 319.129 30.7532C307.381 30.6687 295.632 30.5315 283.884 30.4721C280.572 30.4721 277.264 30.3578 273.955 30.3601C273.904 30.4721 273.801 30.6961 273.751 30.8081C272.352 30.7509 270.949 30.8035 269.559 30.6252C269.571 29.9715 269.589 29.3178 269.609 28.6641C270.092 28.6641 270.576 28.6664 271.065 28.6709C271.038 28.3486 271.015 28.0287 270.992 27.7109C266.243 27.8024 261.491 27.8412 256.741 27.7795C256.457 27.5578 256.163 27.3475 255.788 27.4092C253.639 27.4595 251.459 27.2104 249.356 27.7658C245.913 27.8961 242.462 27.6949 239.02 27.8664C239.758 28.0012 240.505 28.0675 241.253 28.1406C241.257 28.7441 241.303 29.3498 241.219 29.9509C240.627 30.7578 239.424 30.2687 238.553 30.4035C238.528 30.5887 238.483 30.9589 238.46 31.1441C237.884 31.1532 237.31 31.1601 236.736 31.1601C236.723 30.2184 236.729 29.2766 236.755 28.3349C236.905 28.2138 237.205 27.9738 237.353 27.8526C235.168 27.7475 232.976 27.8275 230.789 27.8046C230.686 28.4949 230.741 29.2149 230.517 29.8824C230.201 30.3281 229.257 30.3098 229.111 29.7178C228.921 29.0984 228.912 28.4446 228.846 27.8069C228.4 27.8046 227.957 27.8024 227.516 27.8001C227.491 28.5201 227.559 29.2561 227.395 29.9646C227.157 30.4926 226.483 30.4538 226.003 30.5521C225.907 31.0847 225.776 31.6149 225.616 32.1338C213.728 32.2984 201.84 32.4721 189.952 32.6366C189.203 32.6961 188.567 32.2412 187.932 31.9189C187.283 32.0561 186.631 32.1887 185.973 32.2527C185.843 31.4687 185.747 30.6824 185.678 29.8915C185.225 29.9326 184.775 29.9784 184.327 30.0241C184.313 30.7852 184.375 31.6698 183.795 32.2595C183.296 32.4835 182.725 32.4926 182.252 32.7715C181.749 33.1098 181.863 33.7818 181.829 34.3052C181.838 36.6709 181.765 39.0367 181.799 41.4001C181.758 41.8801 182.297 42.0538 182.579 42.3395C182.627 43.1555 181.733 43.3201 181.161 43.6127C181.118 46.4607 181.251 49.3018 181.525 52.1384C181.726 55.9258 182.428 59.6789 183.511 63.3132C184.126 65.2881 184.787 67.2492 185.379 69.2309C185.536 69.7726 185.769 70.2938 186.078 70.7692C185.943 70.9955 185.806 71.2218 185.673 71.4481C180.608 72.8492 175.55 74.2755 170.485 75.6789C170.521 74.5909 170.094 73.5784 169.785 72.5567C168.492 68.2938 167.088 64.0378 166.439 59.6172C165.87 56.5109 165.795 53.3452 165.5 50.2069C165.369 49.0412 165.369 47.8709 165.376 46.7006C164.115 46.8766 162.862 46.5544 161.598 46.6024C158.777 46.6549 155.952 46.5018 153.139 46.7235C151.733 46.7167 150.181 46.9384 149.065 47.8549C148.3 49.0618 147.744 50.3966 147.075 51.6606C147.39 52.1635 148.163 52.5726 147.973 53.2469C147.079 53.7064 145.865 53.8824 145.406 54.8949C144.158 57.3178 142.928 59.7498 141.683 62.1726C141.497 62.5338 141.328 62.9155 141.315 63.3315C141.171 63.9646 141.824 64.3281 142.083 64.8287C142.012 65.1418 141.877 65.4367 141.765 65.7384C138.579 65.4229 135.461 64.6504 132.341 63.9578C130.832 63.6035 129.285 63.3452 127.859 62.7121C132.046 55.4618 136.183 48.1818 140.307 40.8949C141.038 39.6264 140.723 38.0767 140.105 36.8378C139.319 35.5075 137.772 34.7692 136.245 34.8629C135.296 34.6732 134.592 35.4846 133.653 35.4229C133.091 33.6424 133.246 31.7566 133.113 29.9212C132.446 29.9166 131.765 29.9989 131.107 29.8641C130.965 29.6264 130.848 29.3772 130.732 29.1304C128.069 29.1578 125.406 29.1624 122.743 29.1464C121.177 28.9589 120.389 30.8469 118.878 30.8926C115.998 30.9498 113.116 30.8812 110.236 30.9201C110.121 31.3018 110.094 31.9578 109.516 31.8641C106.947 31.9006 104.377 31.8595 101.811 31.8778C101.82 32.5132 101.799 33.1646 102.014 33.7726C102.309 34.7029 102.272 35.7018 102.181 36.6641C102.14 37.1098 101.582 37.0115 101.267 37.0984C99.5729 37.1829 97.8746 37.0915 96.1786 37.1418C96.1809 37.7612 96.1832 38.3829 96.1878 39.0046C95.2849 39.3338 94.3386 39.3041 93.4335 39.0069C93.4335 38.3647 93.4312 37.7246 93.4175 37.0846C92.8872 37.3475 92.3661 37.6332 91.8792 37.9738C89.7283 39.4732 87.5501 40.9384 85.3969 42.4378C84.8895 42.8378 84.2312 42.8904 83.6118 42.9589C83.6003 41.5258 83.5958 40.0949 83.6095 38.6618C80.1741 40.2892 76.7272 41.8938 73.2438 43.4161C73.0678 44.3052 73.0015 45.2629 72.5032 46.0492C72.1146 46.2275 71.4792 46.2687 71.2735 45.8092C71.0701 45.4412 70.9718 45.0298 70.9032 44.6207C70.0003 37.9212 69.8083 31.1326 70.1763 24.3852C70.2472 22.9041 70.3546 21.3704 71.0175 20.0172C71.3261 19.3864 72.1192 19.4938 72.6998 19.4755C75.6712 19.5075 78.6426 19.4504 81.6141 19.5006C82.5558 19.5326 82.8232 20.5795 82.9078 21.3452C86.9626 21.4206 91.0312 21.3041 95.0769 21.5806C96.6723 21.3544 98.2861 21.4595 99.8929 21.4389C103.017 21.4458 106.144 21.4252 109.271 21.4458C109.808 21.3681 110.08 21.9098 110.414 22.2252C115.893 22.2389 121.374 22.2184 126.853 22.2184C128.16 22.1841 129.47 22.1269 130.777 22.2344C130.885 21.9464 130.997 21.6607 131.109 21.3749C131.861 21.3658 132.615 21.3544 133.369 21.3429C133.472 21.1166 133.575 20.8926 133.68 20.6686C134.227 20.6755 134.871 20.5841 135.129 21.2012C135.534 21.2195 135.941 21.2355 136.348 21.2515C136.446 20.8629 136.544 20.4766 136.643 20.0926C137.724 20.0926 138.805 20.0949 139.886 20.0858C141.813 16.9955 143.751 13.9121 145.591 10.7669C146.005 10.0698 146.4 9.29493 147.143 8.89265ZM148.487 11.5601C148.446 11.8755 148.46 12.1955 148.46 12.5155C148.755 12.5041 149.052 12.4858 149.349 12.4584C149.344 12.0561 149.328 11.6561 149.315 11.2561C149.033 11.3406 148.711 11.3498 148.487 11.5601ZM153.388 13.7247C152.615 14.0538 152.101 14.7509 151.495 15.3041C150.99 16.5589 150.503 17.8229 150.005 19.0801C150.832 19.7749 151.934 19.5578 152.926 19.5806C162.222 19.5944 171.516 19.6172 180.809 19.6172C182.544 19.6881 183.742 17.8618 183.678 16.2709C183.516 14.8538 182.366 13.3201 180.803 13.4526C172.574 13.4595 164.345 13.4618 156.117 13.4572C155.205 13.4732 154.247 13.3521 153.388 13.7247ZM233.719 14.5064C232.588 16.3281 231.264 18.0378 230.238 19.9212C230.332 19.9806 230.521 20.1018 230.615 20.1612C232.133 20.3738 233.676 20.1498 235.205 20.1932C236.005 20.1315 236.905 20.3349 237.625 19.8938C237.824 19.0458 237.783 18.1658 237.827 17.3041C237.436 17.2858 237.054 17.2698 236.67 17.2538C236.384 16.3487 236.172 15.4252 235.955 14.5041C235.209 14.5041 234.464 14.5041 233.719 14.5064ZM73.0221 20.2984C73.1203 20.6801 73.2186 21.0641 73.3146 21.4504C76.0575 21.4344 78.8026 21.4641 81.5478 21.4229C81.5341 21.2081 81.5226 20.9932 81.5135 20.7806C81.3032 20.6206 81.0929 20.4607 80.8849 20.3029C78.2632 20.2938 75.6438 20.3029 73.0221 20.2984ZM230.775 22.1178C230.777 22.4355 230.782 22.7509 230.791 23.0709C232.928 23.0801 235.065 23.0732 237.205 23.0732C237.207 22.7532 237.214 22.4355 237.221 22.1178C235.072 22.1178 232.924 22.1178 230.775 22.1178ZM225.98 28.2184C225.975 28.5566 225.973 28.8972 225.975 29.2424C226.291 28.8995 226.611 28.5589 226.933 28.2206C226.611 28.2161 226.295 28.2161 225.98 28.2184ZM229.632 29.2698C229.523 29.5898 229.63 29.7041 229.952 29.6149C230.055 29.2926 229.95 29.1784 229.632 29.2698ZM73.9135 31.8824C73.9089 32.2161 73.9043 32.5544 73.9021 32.8926C76.2769 32.8858 78.6518 32.9086 81.0289 32.8789C81.0175 32.4812 80.9512 31.9052 80.4301 31.9121C78.2609 31.8344 76.0849 31.9098 73.9135 31.8824ZM152.867 39.9921C152.053 41.2355 152.158 42.8949 152.926 44.1315C153.431 44.7669 154.185 45.1327 154.764 45.6949C157.529 45.7201 160.295 45.6926 163.063 45.7064C162.979 44.4858 163.591 43.4138 163.929 42.2869C163.923 41.6538 163.712 41.0366 163.502 40.4469C163.177 39.8846 162.647 39.4824 162.201 39.0184C160.752 38.3852 159.171 38.5658 157.637 38.5749C156.94 39.4778 155.936 40.3601 156.016 41.6104C155.859 42.8127 156.64 43.8458 157.481 44.6092C157.376 44.7121 157.168 44.9201 157.065 45.0252C156.441 44.5018 155.749 44.0606 155.196 43.4618C154.707 42.9338 154.579 42.1955 154.419 41.5235C154.188 40.4584 154.739 39.4481 155.216 38.5361C154.183 38.4881 153.456 39.2515 152.867 39.9921Z" fill="white"/>
</svg>
