<svg width="320" height="80" viewBox="0 0 320 80" fill="none" xmlns="http://www.w3.org/2000/svg">
<path d="M244.976 11.8618C245.979 11.0564 247.336 11.2111 248.536 11.2138C252.246 11.5951 255.776 12.9418 259.475 13.3791C261.667 13.6324 263.891 13.2511 266.067 13.6378C266.075 13.8031 266.088 14.1311 266.094 14.2964C265.907 14.4671 265.71 14.6298 265.507 14.7818C263.958 15.0058 262.382 15.0804 260.83 14.8564C259.227 14.8324 257.63 14.7204 256.051 14.4351C256.248 14.6111 256.448 14.7844 256.651 14.9631C258.568 14.9871 260.491 14.8831 262.406 15.0724C267.264 14.8884 272.134 15.0431 276.998 15.0244C276.83 14.1364 276.864 13.2298 276.974 12.3391C278.16 12.3284 279.35 12.3311 280.539 12.3444C280.646 13.2351 280.646 14.1364 280.56 15.0298C288.04 15.0538 295.518 15.0778 302.998 15.0884C302.99 14.4644 302.984 13.8431 302.984 13.2218C304.688 12.6058 306.427 11.1044 308.315 11.8751C309.339 12.5498 308.931 13.9391 308.992 14.9658C308.896 15.0271 308.699 15.1498 308.603 15.2084C308.504 16.2644 308.603 17.3284 308.587 18.3871C309.107 18.3924 309.627 18.4031 310.15 18.4138C310.208 18.9578 310.267 19.5018 310.323 20.0511C311.075 19.7738 311.872 19.8191 312.656 19.7898C314.936 20.2191 317.267 19.9871 319.576 20.0591C319.947 21.6244 319.971 23.3364 319.539 24.8938C317.822 24.8778 316.107 24.8804 314.392 24.8644C314.008 24.8324 313.651 24.9524 313.304 25.0991C312.296 25.1044 311.262 25.2244 310.31 24.8111C310.251 25.3818 310.16 25.9498 310.024 26.5098C309.835 26.5124 309.456 26.5151 309.267 26.5178C309.416 27.8884 309.443 29.2671 309.534 30.6431C309.752 30.7818 309.974 30.9231 310.195 31.0644C310.592 32.5178 309.52 33.9444 310.11 35.3924C309.883 35.4751 309.656 35.5604 309.432 35.6484C309.264 36.5231 309.062 37.4164 309.187 38.3124C309.347 38.9471 309.838 39.5018 309.739 40.1951C309.622 43.4938 309.456 46.7898 309.355 50.0911C309.059 53.1125 309.462 56.1365 309.547 59.1578C309.547 60.2031 309.952 61.3658 309.368 62.3258C309.04 62.9818 308.323 63.2564 307.726 63.6004C307.075 63.3364 306.387 62.8751 306.432 62.0831C306.472 59.3018 306.838 56.5338 306.904 53.7524C306.923 54.0484 306.947 54.3471 306.971 54.6484C306.864 49.9258 306.614 45.2085 306.467 40.4885C306.384 39.8671 306.707 39.3204 307.014 38.8138C307.248 37.7604 306.635 36.6431 307.144 35.6591C307.499 35.5284 307.851 35.3951 308.206 35.2644C308.112 33.7391 307.768 32.2111 308.096 30.6911C303.107 30.6111 298.123 30.4938 293.134 30.5391C292.523 31.2138 291.731 31.7311 291.219 32.4885C290.992 34.0965 291.451 35.8245 290.742 37.3551C290.067 38.9018 288.272 39.6271 286.672 39.6084C284.355 39.5178 282.048 39.2911 279.734 39.2164C278.483 39.1978 277.264 38.6191 276.624 37.5178C276.611 42.1098 276.579 46.6991 276.6 51.2884C275.267 51.8004 273.816 51.4778 272.43 51.5658C272.419 58.6244 272.4 65.6831 272.39 72.7418C272.395 74.0004 272.326 75.2645 272.483 76.5204C272.096 76.7498 271.691 76.9871 271.224 76.9391C268.475 76.9791 265.728 76.9764 262.982 76.9044C263.184 75.2618 263.062 73.6058 263.11 71.9578C263.102 65.1578 263.264 58.3605 263.262 51.5578C262.04 51.5471 260.819 51.5471 259.598 51.4938C259.651 49.4671 259.408 47.3818 260.043 45.4191C260.795 43.1471 261.592 40.8938 262.36 38.6298C262.888 36.8938 262.942 34.8618 261.851 33.3284C261.192 32.1098 259.963 31.4111 258.955 30.5231C256.099 30.5338 253.243 30.4964 250.39 30.5098C249.886 30.5364 249.408 30.3818 248.944 30.2138C248.926 31.8724 248.966 33.5285 248.899 35.1871C247.355 35.4165 245.792 35.4111 244.235 35.3658C243.032 35.3844 241.976 34.2058 242 33.0324C242.192 31.5258 243.115 30.2298 243.392 28.7498C243.424 27.5124 243.43 26.2724 243.595 25.0431C243.795 21.3951 243.907 17.7391 243.963 14.0858C244.048 13.2778 244.2 12.2991 244.976 11.8618ZM246.835 12.9311C246.707 13.6644 246.598 14.4058 246.614 15.1524C246.659 18.7738 246.504 22.4058 246.843 26.0191C247.208 26.0244 247.574 26.0324 247.942 26.0404C247.958 22.7658 247.939 19.4911 247.968 16.2164C247.974 14.9951 248.275 13.8031 248.696 12.6671C248.054 12.5231 247.382 12.5204 246.835 12.9311ZM307.374 13.6058C307.392 13.1924 307.376 12.7764 307.219 12.3898C307.075 12.7978 306.76 13.4191 307.374 13.6058ZM250.059 13.0404C250.168 13.4164 250.28 13.7978 250.392 14.1791C251.939 14.2004 253.488 14.2351 255.035 14.1498C253.366 13.8164 251.726 13.3658 250.059 13.0404ZM308.64 26.3818C308.635 27.7071 308.563 29.0324 308.579 30.3604C308.566 30.6244 308.68 30.8244 308.92 30.9604C308.859 29.4351 308.902 27.8938 308.64 26.3818ZM277.398 30.5258C277.406 32.4138 277.344 34.3044 277.408 36.1924C277.456 37.3711 278.566 38.2911 279.718 38.3071C282.03 38.4938 284.35 38.5605 286.662 38.7391C287.894 38.8965 289.251 38.3338 289.755 37.1444C290.392 35.6324 290.088 33.9444 290.163 32.3498C289.944 32.3418 289.504 32.3258 289.286 32.3178C288.648 31.7284 288.014 31.1338 287.398 30.5231C285.328 30.5098 283.259 30.5364 281.19 30.5178C280.496 32.7444 280.96 35.1258 281.907 37.2004C281.758 37.1898 281.462 37.1631 281.315 37.1524C280.782 36.4858 280.08 35.9204 279.792 35.0964C279.203 33.6538 279.067 32.0724 279.123 30.5284C278.547 30.5284 277.971 30.5258 277.398 30.5258Z" fill="white"/>
</svg>
