<svg width="320" height="80" viewBox="0 0 320 80" fill="none" xmlns="http://www.w3.org/2000/svg">
<path d="M195.888 11.4065C198.339 11.4172 200.792 11.3745 203.245 11.4279C204.267 11.4305 205.184 11.9292 206.133 12.2412C208.36 13.0145 210.573 13.8332 212.805 14.5932C214.875 15.0785 216.984 15.3852 219.064 15.8252C219.08 16.2252 219.093 16.6279 219.112 17.0305C240.32 17.0225 261.528 17.0385 282.739 17.0225C282.779 16.8945 282.859 16.6332 282.899 16.5025C284.443 16.2065 285.992 15.8705 287.48 15.3425C288.219 14.9559 288.869 14.4225 289.568 13.9639C290.632 13.9719 291.696 13.9692 292.763 13.9719C293.819 15.1585 293.677 16.7719 293.992 18.2279C294.864 18.2305 295.739 18.2279 296.613 18.2252C297.272 18.6172 297.856 19.3185 298.691 19.2519C301.949 19.2892 305.205 19.3025 308.464 19.3345C308.483 19.5265 308.517 19.9079 308.533 20.0999C312.229 20.1212 315.928 20.0945 319.624 20.0972C319.627 21.5292 319.659 22.9585 319.616 24.3879C315.917 24.3345 312.221 24.3879 308.523 24.3799C308.512 24.7212 308.501 25.0652 308.493 25.4092C305.059 25.4625 301.616 25.4012 298.184 25.5772C297.651 25.7665 297.256 26.2092 296.757 26.4652C295.867 26.5825 294.965 26.4972 294.075 26.5132C294.019 28.3692 294.2 30.2412 293.907 32.0839C292.131 32.1159 290.355 32.0652 288.581 32.0945C285.989 32.2625 283.403 32.4839 280.813 32.6385C279.653 32.7292 278.592 33.2599 277.496 33.6039C276.387 34.0172 275.229 34.3105 274.152 34.8039C273.147 35.4652 272.261 36.2919 271.293 37.0065C270.459 37.5879 270.157 38.6039 269.667 39.4465C268.109 39.6545 266.555 39.8759 264.997 40.0839C264.096 37.4625 264.085 34.6599 263.923 31.9239C259.664 32.3719 255.421 32.9692 251.168 33.4599C251.155 33.6225 251.131 33.9479 251.117 34.1105C249.667 34.7079 248.437 35.9452 248.056 37.4892C247.768 38.6519 247.16 39.7212 246.339 40.5905C244.467 41.8652 242.152 41.3345 240.037 41.4759C238.784 41.5585 237.528 41.5132 236.272 41.5585C235.757 41.5132 235.488 42.0225 235.304 42.4172C233.933 45.5639 232.552 48.7025 231.168 51.8412C230.808 52.4599 231.128 53.1425 231.312 53.7639C231.043 54.4839 230.907 55.2865 230.451 55.9212C229.621 56.0625 228.76 55.9665 227.955 56.2439C226.821 59.2919 225.523 62.2785 224.357 65.3185C223.851 65.5959 223.307 65.8519 222.715 65.8092C218.36 65.8199 214.011 65.6999 209.659 65.7079C210.928 62.5505 212.184 59.3879 213.459 56.2332C213.2 56.2119 212.688 56.1665 212.429 56.1452C212.931 54.5879 212.496 52.9239 212.792 51.3505C214.616 48.1959 216.595 45.1292 218.416 41.9719C219.029 40.5639 219.701 39.1692 220.205 37.7185C219.816 36.6865 218.936 35.8652 218.365 34.9079C214.261 34.3959 210.371 32.8839 206.443 31.6572C205.725 31.4385 204.947 31.4732 204.256 31.1585C201.533 29.8812 198.587 29.1985 195.763 28.1905C195.376 28.1185 195.213 27.7719 195.045 27.4679C194.056 27.1559 193.08 26.4145 192.005 26.7479C190.659 27.2385 189.213 25.0945 190.501 24.2279C191.248 23.5505 191.984 22.8625 192.709 22.1612C192.757 21.0545 192.461 19.8279 193.163 18.8652C193.741 17.9372 193.955 16.8332 193.835 15.7532C194.515 15.9212 195.208 16.0385 195.907 16.0945C195.896 14.5319 195.899 12.9692 195.888 11.4065ZM198.765 13.0065C198.776 13.7479 198.789 14.4919 198.805 15.2359C198.941 15.2305 199.211 15.2199 199.344 15.2172C199.344 14.5959 199.347 13.9772 199.349 13.3585C199.893 13.3772 200.44 13.4012 200.987 13.4332C201.461 14.0465 201.968 14.6332 202.477 15.2172C204.208 15.2145 205.939 15.2652 207.667 15.1852C207.451 14.3905 206.563 14.3345 205.925 14.0599C204.683 13.6919 203.515 12.9319 202.176 13.0012C201.04 13.0039 199.901 13.0065 198.765 13.0065ZM276.768 19.0465C276.645 19.3692 276.525 19.6945 276.405 20.0172C277.227 20.2999 278.104 20.1959 278.96 20.2012C281.419 20.2039 283.88 20.1745 286.341 20.1345C286.325 19.7719 286.309 19.4119 286.299 19.0545C283.12 19.0625 279.944 19.0492 276.768 19.0465ZM286.627 20.0945C287.184 20.1772 287.752 20.1772 288.307 20.0359C288.144 19.5425 287.907 18.8972 287.248 19.0412C286.589 18.9212 286.619 19.6625 286.627 20.0945ZM190.293 24.9399C190.349 25.9825 191.664 27.1239 192.483 26.0385C192.453 24.9559 192.456 23.8705 192.488 22.7879C191.829 23.5772 191.051 24.2492 190.293 24.9399ZM238.419 36.1585C237.461 36.9452 237.2 38.2279 236.704 39.3079C236.931 39.8039 237.152 40.3052 237.368 40.8092C239.064 40.8092 240.757 40.7932 242.453 40.7852C241.467 40.5905 240.493 40.1185 240.013 39.1985C239.232 37.8012 239.693 36.1025 240.445 34.7985C239.587 34.9185 239.04 35.6359 238.419 36.1585ZM242.08 34.9239C241.333 35.7052 240.92 36.6972 240.749 37.7559C240.904 38.9612 241.677 40.1025 242.928 40.3532C242.976 40.4705 243.072 40.7052 243.123 40.8199C244.008 40.8545 244.867 40.6519 245.659 40.2572C245.947 39.7745 246.261 39.3052 246.491 38.7905C246.629 38.0039 246.565 37.2012 246.589 36.4092C246.251 35.9212 245.981 35.3612 245.536 34.9639C244.389 34.8199 243.229 34.9132 242.08 34.9239Z" fill="white"/>
</svg>
