<svg width="320" height="80" viewBox="0 0 320 80" fill="none" xmlns="http://www.w3.org/2000/svg">
<g clip-path="url(#clip0_79_1098)">
<path d="M266.961 11.9386C266.591 10.1172 266.655 8.24257 266.799 6.3999C267.359 6.40524 267.921 6.42391 268.487 6.45324C269.02 8.15991 270.052 9.80257 269.732 11.6639C270.457 11.8932 270.897 12.5199 271.18 13.1919C271.169 14.1652 271.369 15.2266 270.815 16.0986C270.857 16.2746 270.94 16.6266 270.983 16.7999C287.127 16.7839 303.273 16.8266 319.42 16.8292C320.303 20.1332 320.5 23.7012 319.351 26.9679C303.212 26.8746 287.071 26.9599 270.932 26.9732C270.868 27.7786 270.983 29.1652 269.844 29.2106C255.785 29.2612 241.727 29.2079 227.668 29.2372C227.175 29.2399 226.681 29.1999 226.196 29.1439C225.953 28.4586 225.772 27.7572 225.692 27.0372C225.3 27.0346 224.911 27.0639 224.521 27.0959C224.54 27.4772 224.559 27.8612 224.583 28.2479C224.719 28.3172 224.991 28.4586 225.127 28.5279C225.028 29.9092 225.292 31.2666 225.668 32.5892C225.855 32.6666 226.231 32.8186 226.42 32.8959C226.065 33.1439 225.7 33.3706 225.327 33.5839C226.108 35.7946 227.015 37.9626 227.844 40.1572C229.159 43.1146 230.625 46.0026 231.983 48.9412C232.847 50.8986 234.079 52.6639 235.113 54.5332C236.473 56.7466 237.673 59.0612 239.164 61.1946C240.737 63.5759 242.492 65.8319 244.161 68.1466C243.807 68.5546 243.439 68.9572 243.004 69.2826C241.071 70.7359 239.199 72.2692 237.255 73.7092C235.481 71.2186 233.58 68.8186 231.903 66.2612C230.292 63.9306 228.961 61.4239 227.489 59.0079C226.401 57.1386 225.225 55.3199 224.273 53.3759C222.887 50.7999 221.812 48.0746 220.599 45.4186C219.724 43.3866 218.708 41.4079 218.033 39.2959C217.719 38.4399 217.476 37.5572 217.105 36.7252C216.265 36.4159 215.252 36.4052 214.415 36.7466C214.004 37.9252 214.097 39.2826 213.596 40.4586C213.42 40.4666 213.065 40.4799 212.889 40.4852C213.084 39.2612 213.369 38.0532 213.695 36.8559C212.815 36.8612 211.935 36.8666 211.057 36.8319C210.263 37.5199 209.921 38.5359 209.431 39.4346C208.657 40.9039 207.945 42.4052 207.159 43.8639C206.924 44.3759 206.356 44.6159 205.817 44.5759C202.791 44.5732 199.767 44.5492 196.743 44.5386C195.871 44.5519 195.071 44.1626 194.263 43.9039C193.884 44.3652 193.388 44.7892 193.26 45.3972C193.039 46.3172 193.073 47.3359 192.516 48.1439C192.063 48.7946 191.545 49.4266 191.308 50.1999C190.905 51.3039 191.175 52.5972 190.455 53.5919C189.607 54.8212 188.927 56.2319 188.897 57.7519C188.935 58.8932 187.972 59.7012 187.129 60.3039C185.833 60.0612 184.74 59.2186 183.54 58.7039C181.228 57.3812 178.78 56.2772 176.567 54.7919C176.769 52.9066 177.633 51.2052 178.276 49.4479C178.708 48.3732 179.073 47.2719 179.548 46.2159C180.663 44.0772 182.097 42.1279 183.407 40.1066C184.54 38.2452 184.345 35.9492 183.716 33.9572C183.201 32.7786 181.791 32.5759 180.668 32.3972C180.639 32.2239 180.585 31.8772 180.556 31.7039C178.399 31.6986 176.241 31.6959 174.084 31.6799C173.628 31.7039 173.265 31.3892 172.884 31.1999C172.761 30.7839 172.639 30.3706 172.521 29.9572C172.353 30.1679 172.183 30.3786 172.015 30.5919C170.889 30.5919 169.761 30.5972 168.636 30.6212C168.439 30.3226 168.241 30.0266 168.047 29.7306C168.551 28.2212 169.465 26.8212 169.631 25.2212C168.953 25.8666 168.148 26.4772 167.852 27.4079C167.529 28.3039 167.159 29.1892 166.953 30.1252C166.26 33.7306 165.604 37.3439 164.9 40.9492C164.74 41.5946 164.567 42.4426 163.833 42.6506C162.663 42.7892 161.361 42.8159 160.364 42.0906C160.001 41.7252 159.967 41.1866 160.02 40.7066C160.076 40.1466 159.967 39.5412 160.281 39.0426C160.225 38.0532 160.631 37.1252 160.639 36.1466C160.649 35.3066 161.001 34.5172 160.937 33.6719C161.225 32.9172 161.199 32.0586 161.212 31.2639C161.615 29.9066 161.316 28.4559 161.548 27.0719C161.425 24.6559 161.423 22.2132 161.423 19.7839C161.444 19.5812 161.487 19.1786 161.511 18.9759C161.591 18.2666 161.932 17.6666 162.324 17.0879C162.665 16.9066 163.012 16.7386 163.367 16.5812C164.708 16.7759 166.087 16.7572 167.393 17.1706C168.593 17.3972 169.815 18.0639 171.052 17.6586C171.633 16.0826 172.052 14.4452 172.655 12.8719C172.9 12.2799 173.3 11.5892 174.023 11.5519C175.551 11.4932 177.081 11.5572 178.612 11.5332C179.377 11.5492 180.167 11.4372 180.916 11.6692C181.919 11.9706 182.972 11.7252 183.999 11.7386C184.081 11.5626 184.249 11.2079 184.332 11.0319C184.409 10.1706 183.993 9.05324 184.783 8.41857C185.495 7.73324 186.561 8.0079 187.447 8.01857C187.559 8.22124 187.671 8.42391 187.785 8.62924C187.913 8.23724 188.041 7.84524 188.167 7.45324C189.449 7.80791 190.692 8.28257 191.919 8.7919C191.737 9.42124 191.497 10.0319 191.199 10.6159C191.868 10.6052 192.108 11.2346 192.305 11.7546C193.241 12.0052 194.209 11.9972 195.159 11.8159C199.148 11.7519 203.14 11.7332 207.129 11.6692C208.108 11.5386 209.087 11.4159 210.076 11.4319C210.953 11.4586 211.916 11.1706 212.721 11.6479C216.905 11.6906 221.092 11.6372 225.279 11.6479C225.996 11.6639 226.676 11.9732 227.401 11.9199C234.964 11.9012 242.527 11.9146 250.089 11.9092C251.327 11.6932 252.575 11.6052 253.809 11.9092C258.191 11.9492 262.577 11.9332 266.961 11.9386ZM195.127 39.8506C194.804 40.6506 194.551 41.4826 194.492 42.3519C195.385 42.7919 196.265 43.4212 197.305 43.3919C198.079 43.3866 198.849 43.3412 199.623 43.2799C199.783 43.0932 199.943 42.9092 200.105 42.7279C199.209 42.5786 198.969 41.5599 198.681 40.8426C198.401 39.5252 198.159 38.1812 198.18 36.8319C197.585 36.8319 196.991 36.8292 196.399 36.8026C195.732 37.7012 195.54 38.8292 195.127 39.8506ZM199.628 38.7812C199.521 40.3279 200.588 41.8132 200.065 43.3492C202.033 43.3172 203.999 43.2612 205.969 43.2906C206.673 41.5519 207.305 39.7839 208.001 38.0426C208.183 37.6612 208.071 37.2452 208.028 36.8506C205.487 36.8559 202.943 36.8532 200.401 36.8239C200.041 37.4292 199.735 38.0772 199.628 38.7812Z" fill="white"/>
</g>
<defs>
<clipPath id="clip0_79_1098">
<rect width="320" height="80" fill="white"/>
</clipPath>
</defs>
</svg>
