<svg width="320" height="80" viewBox="0 0 320 80" fill="none" xmlns="http://www.w3.org/2000/svg">
<path d="M237.78 8.52266C237.791 7.016 237.727 5.504 237.847 4C238.012 4.04533 238.343 4.136 238.508 4.18133C238.695 5.872 238.54 7.584 238.591 9.28266C239.025 9.28266 239.46 9.28266 239.897 9.28799C239.908 9.43199 239.932 9.72266 239.943 9.86666C241.161 9.86133 242.38 9.86399 243.601 9.86133C243.697 10.5147 243.777 11.1707 243.833 11.8293C243.895 11.6827 244.015 11.3947 244.073 11.2507C245.193 11.1493 246.324 11.184 247.444 11.296C247.951 11.232 248.468 11.1573 248.983 11.2347C249.044 11.448 249.169 11.8747 249.233 12.088C249.399 11.8027 249.551 11.5147 249.687 11.216C250.161 11.208 250.639 11.2053 251.116 11.2053C251.167 11.5307 251.22 11.856 251.276 12.184C251.364 11.8587 251.452 11.536 251.537 11.2133C252.023 11.208 252.511 11.2053 252.999 11.2027C253.033 11.4107 253.108 11.8293 253.143 12.0373C253.188 11.8267 253.276 11.4107 253.319 11.2027C253.801 11.2027 254.284 11.2053 254.769 11.2107C254.839 11.528 254.913 11.848 254.991 12.1707C255.057 11.8453 255.121 11.5253 255.188 11.2027C255.668 11.2053 256.148 11.2053 256.628 11.2107C256.705 11.5413 256.783 11.872 256.865 12.2053C256.943 11.872 257.02 11.5387 257.1 11.208C257.569 11.208 258.044 11.208 258.519 11.208C258.588 11.5413 258.663 11.8747 258.737 12.208C258.831 11.8747 258.921 11.5413 259.009 11.2107C259.476 11.208 259.94 11.2053 260.409 11.208C260.471 11.5387 260.537 11.872 260.604 12.2053C260.729 11.864 260.852 11.5227 260.977 11.184C261.631 11.2187 262.532 10.9973 262.489 11.968C262.527 11.7093 262.569 11.4533 262.612 11.1973C263.047 11.2 263.484 11.208 263.921 11.216C264.124 11.4027 264.036 12.1227 264.431 12.016C264.564 11.7493 264.687 11.48 264.804 11.208C265.228 11.2053 265.655 11.2053 266.081 11.208C266.119 11.456 266.196 11.9493 266.233 12.1973C266.38 11.864 266.527 11.5333 266.673 11.2053C267.108 11.2053 267.548 11.2053 267.985 11.208C268.001 11.3973 268.031 11.7707 268.047 11.9573C268.143 11.96 268.337 11.9653 268.433 11.968C268.46 11.7813 268.516 11.408 268.543 11.2213C268.967 11.2053 269.393 11.1893 269.82 11.176C269.945 11.5093 270.068 11.8453 270.193 12.184C270.295 11.8613 270.388 11.5333 270.487 11.2107C270.937 11.208 271.388 11.2053 271.839 11.2053C271.86 11.4053 271.903 11.8027 271.924 12.0027C272.049 11.992 272.303 11.9707 272.428 11.96C272.455 11.7733 272.511 11.4 272.537 11.2133C272.956 11.2053 273.375 11.2 273.796 11.1973C273.916 11.5227 274.039 11.8507 274.161 12.1787C274.279 11.8587 274.385 11.5333 274.503 11.216C274.897 11.208 275.295 11.2027 275.695 11.1947C275.788 11.4507 275.977 11.96 276.071 12.2133C276.204 11.872 276.34 11.5307 276.479 11.1893C276.881 11.1973 277.284 11.208 277.689 11.216C277.737 11.4587 277.828 11.9467 277.873 12.192C278.06 11.8667 278.22 11.528 278.396 11.1973C278.796 11.2 279.196 11.2053 279.599 11.216C279.615 11.4053 279.644 11.784 279.66 11.976C279.796 11.9813 280.068 11.9973 280.204 12.0027C280.289 11.7227 280.375 11.4427 280.463 11.1627C280.729 11.1813 281.265 11.2187 281.532 11.2373C281.697 11.5307 281.831 11.84 281.937 12.1653C281.991 11.8427 282.047 11.52 282.105 11.2C282.524 11.2027 282.945 11.208 283.367 11.2133C283.385 11.424 283.425 11.8453 283.444 12.0587C283.98 12.0667 284.196 11.696 284.268 11.2107C284.663 11.2053 285.057 11.2053 285.455 11.208C285.481 11.416 285.529 11.832 285.553 12.04C285.665 12.0133 285.887 11.96 285.999 11.9333C286.023 11.752 286.076 11.3867 286.1 11.2027C286.516 11.2053 286.932 11.208 287.348 11.2133C287.364 11.4 287.393 11.7787 287.407 11.968C287.543 11.9787 287.815 12 287.951 12.0107C288.031 11.7413 288.113 11.472 288.199 11.2027C288.465 11.2027 289.001 11.2 289.268 11.2C289.401 11.5333 289.537 11.8667 289.676 12.2027C289.735 11.872 289.796 11.5413 289.855 11.2107C290.039 11.208 290.409 11.2027 290.593 11.2027C290.591 10.7493 290.591 10.2987 290.596 9.85067C292.116 9.85067 293.636 9.85067 295.156 9.85067C295.263 8.04533 294.903 6.18933 295.399 4.42666C296.009 4.39733 296.623 4.42667 297.233 4.50933C297.399 5.536 297.335 6.58133 297.433 7.61333C298.151 7.728 298.865 7.85866 299.58 7.99733C299.361 9.14666 298.215 9.49066 297.199 9.60533C297.703 9.97333 298.345 9.81867 298.927 9.85067C299.025 10.3707 299.095 10.8987 299.145 11.4267C300.516 11.4293 301.729 12.2427 302.727 13.1093C303.308 13.28 303.823 13.6027 304.281 13.9947C304.964 14 305.647 13.9973 306.332 13.9947C307.121 16.4053 307.716 18.8747 308.353 21.3307C308.876 21.336 309.399 21.3467 309.924 21.352C310.116 21.56 310.308 21.768 310.503 21.9787C310.58 21.8507 310.737 21.5973 310.815 21.4693C311.407 21.3547 312.009 21.2773 312.62 21.288C314.964 21.3067 317.308 21.2933 319.652 21.3067C319.703 22.544 319.697 23.784 319.657 25.0213C316.759 24.9973 313.852 25.16 310.961 24.9307C310.841 24.7813 310.601 24.4827 310.481 24.336C310.34 24.4827 310.06 24.7733 309.919 24.92C309.756 24.9307 309.433 24.9493 309.271 24.9573C309.831 26.792 310.103 28.696 310.591 30.5493C310.281 31.0267 309.812 31.264 309.244 31.2293C308.684 30.136 308.076 29.0667 307.465 28C306.295 27.1627 304.879 27.0773 303.489 27.1867C302.86 28.3227 301.868 29.344 301.772 30.7013C301.657 31.7787 301.252 32.8187 301.273 33.912C301.3 40.416 301.268 46.92 301.295 53.424C301.26 53.84 301.393 54.3893 300.921 54.6133C298.505 54.2613 296.161 53.5387 293.817 52.8827C293.332 52.248 293.953 51.184 293.292 50.5733C293.364 48.768 293.068 46.92 293.556 45.1573C293.425 41.1466 293.575 37.1307 293.479 33.1173C293.351 32.7813 293.169 32.4507 293.185 32.0853C293.183 30.4533 293.263 28.8213 293.281 27.192C288.703 27.1893 284.127 27.1786 279.551 27.1893C279.239 27.376 278.927 27.568 278.615 27.7547C278.207 29.328 277.913 30.9307 277.495 32.5013C276.9 34.0907 275.284 34.96 273.684 35.2C271.447 35.2827 269.204 35.1573 266.969 35.2693C265.881 35.5093 265.007 36.3013 263.921 36.576C264.033 39.9627 264.271 43.3413 264.471 46.7226C264.479 48.4933 265.188 50.144 265.575 51.848C265.34 51.872 264.876 51.9226 264.644 51.9467C264.935 56.448 265.289 60.9706 266.316 65.3733C266.735 67.8906 267.62 70.288 268.303 72.7387C268.524 72.8347 268.745 72.9333 268.969 73.0346C269.183 73.3707 269.393 73.704 269.609 74.048C268.407 74.4693 267.127 74.5573 265.879 74.7626C262.737 75.1493 259.601 75.5653 256.455 75.8906C256.319 75.512 256.185 75.128 256.057 74.752C256.487 74.5466 256.924 74.3493 257.367 74.1733C256.732 71.5173 255.993 68.888 255.487 66.2027C254.369 61.5013 254.02 56.6613 253.783 51.848C252.815 51.9627 251.839 51.9546 250.868 51.9093C250.479 50.2986 249.953 48.6747 250.084 46.9973C250.159 44.856 250.177 42.7093 250.375 40.576C250.788 37.824 251.177 35.0667 251.599 32.3173C251.407 31.7813 251.217 31.2453 251.036 30.7066C250.684 30.5173 250.364 30.2293 249.961 30.1653C242.881 30.0507 235.791 30.2693 228.713 30.048C228.052 33.1493 227.511 36.28 226.905 39.3947C226.724 40.1493 226.775 41.04 226.188 41.6266C225.681 42.1813 225.191 42.792 224.519 43.1493C223.183 43.6427 221.711 44.0773 220.289 43.6933C220.236 36.5307 220.177 29.3653 220.028 22.2027C220.052 20.1813 219.801 18.0987 220.452 16.1413C222.076 15.92 223.716 16.064 225.348 16.0267C225.348 14.92 225.351 13.8133 225.337 12.7067C226.345 12.4293 227.393 12.4427 228.431 12.4693C228.433 12.688 228.439 13.12 228.444 13.3387C229.073 13.3307 229.705 13.328 230.34 13.32C230.953 12.48 231.58 11.648 232.193 10.808C232.788 10.792 233.383 10.7867 233.98 10.7707C234.161 10.512 234.332 10.2453 234.548 10.016C235.233 9.86933 235.948 9.77333 236.529 9.34399C236.585 9.06133 236.639 8.78399 236.689 8.50399C237.052 8.50933 237.415 8.51466 237.78 8.52266ZM286.9 14.36C286.153 14.776 286.564 15.7973 287.135 16.192C288.199 16.1493 289.263 16.152 290.327 16.1867C290.572 15.8267 290.975 15.4827 290.897 14.9973C290.783 14.448 290.207 14.184 289.689 14.24C288.764 14.2613 287.801 14.1253 286.9 14.36ZM294.428 14.4C293.751 14.9547 294.255 15.6987 294.727 16.176C295.425 16.1547 296.137 16.224 296.831 16.0933C297.364 15.7733 297.329 15.128 297.335 14.592C296.452 14.128 295.359 14.096 294.428 14.4ZM290.396 19.3387C292.815 19.3547 295.236 19.4053 297.657 19.36C297.393 18.984 297.228 18.3467 296.644 18.4267C294.852 18.4 293.055 18.4027 291.263 18.4373C290.7 18.3627 290.513 18.9093 290.396 19.3387ZM312.553 21.9413C313.26 22.1547 313.993 22.3013 314.737 22.2747C316.073 22.2533 317.444 22.3947 318.737 21.968C317.695 21.6987 316.615 21.7653 315.551 21.7547C314.548 21.7573 313.532 21.6907 312.553 21.9413ZM312.513 24.336C313.329 24.568 314.183 24.576 315.028 24.5627C316.255 24.5333 317.497 24.6427 318.708 24.3787C316.687 23.952 314.54 23.9707 312.513 24.336ZM267.844 27.9013C267.655 28.6587 267.801 29.472 268.017 30.2133C268.471 31.04 269.257 31.608 269.999 32.1653C269.865 32.2347 269.596 32.3733 269.463 32.4453C269.596 32.5627 269.865 32.7973 269.999 32.9147C268.401 32.5707 267.359 31.1573 266.647 29.7893C266.185 29.64 265.724 29.5013 265.263 29.3627C264.761 30.4907 265.196 31.6667 265.385 32.8107C265.868 33.3147 266.372 33.8027 266.903 34.2586C268.988 34.2027 271.073 34.2507 273.156 34.2533C274.017 34.2667 274.948 34.0507 275.564 33.4107C276.884 32.1893 276.676 30.2187 277.063 28.6027C276.857 28.36 276.657 28.12 276.463 27.8773C273.588 27.8773 270.713 27.8187 267.844 27.9013ZM266.044 28.1253C265.673 28.296 265.66 28.4747 266.004 28.6587C266.372 28.4827 266.385 28.304 266.044 28.1253Z" fill="white"/>
</svg>
