<svg width="320" height="80" viewBox="0 0 320 80" fill="none" xmlns="http://www.w3.org/2000/svg">
<g clip-path="url(#clip0_79_1100)">
<path d="M250.765 13.2263C251.098 12.3463 251.458 11.4769 251.794 10.5996C252.226 10.6449 252.664 10.5996 253.098 10.6476C254.088 11.9809 255.138 13.2689 256.296 14.4636C256.336 14.2929 256.421 13.9489 256.461 13.7756C257.386 13.7836 258.314 13.7809 259.242 13.7756C259.285 13.9383 259.37 14.2636 259.413 14.4263C259.597 14.4289 259.962 14.4369 260.146 14.4396C260.178 14.2769 260.245 13.9543 260.277 13.7916C260.808 13.7836 261.344 13.7356 261.874 13.8236C262.05 14.0743 262.237 14.3276 262.456 14.5489C262.501 14.3569 262.589 13.9756 262.632 13.7836C263.197 13.7836 263.762 13.7809 264.33 13.7889C264.365 13.9516 264.437 14.2716 264.472 14.4343C264.608 14.4369 264.882 14.4476 265.021 14.4503C265.072 14.2823 265.17 13.9463 265.221 13.7783C265.754 13.7783 266.293 13.7783 266.829 13.7836C266.869 14.2423 267.109 14.5116 267.597 14.4983C267.626 14.3223 267.688 13.9676 267.717 13.7889C268.277 13.7836 268.84 13.7836 269.402 13.7809C269.434 13.9436 269.501 14.2743 269.533 14.4369C269.858 14.4316 270.184 14.4289 270.512 14.4263C270.536 14.2663 270.584 13.9489 270.61 13.7889C271.146 13.7809 271.682 13.7756 272.221 13.7676C272.266 13.9329 272.36 14.2636 272.405 14.4289C272.6 14.4263 272.986 14.4209 273.178 14.4183C273.2 14.2583 273.245 13.9436 273.266 13.7836C273.802 13.7809 274.336 13.7783 274.874 13.7729C274.904 13.9303 274.965 14.2449 274.994 14.4023C275.162 14.4156 275.498 14.4449 275.664 14.4609C275.712 14.2903 275.805 13.9489 275.853 13.7809C276.373 13.7783 276.893 13.7756 277.416 13.7756C277.456 13.9356 277.53 14.2609 277.57 14.4236C277.837 14.4289 278.109 14.4369 278.381 14.4449C278.432 14.2769 278.533 13.9383 278.584 13.7703C279.106 13.7783 279.629 13.7863 280.154 13.8023C280.173 13.9596 280.21 14.2769 280.229 14.4369C280.453 14.4343 280.898 14.4289 281.122 14.4263C281.157 14.2636 281.224 13.9383 281.258 13.7756C281.781 13.7783 282.304 13.7809 282.826 13.7863C282.848 13.9463 282.888 14.2689 282.909 14.4289C283.152 14.4316 283.64 14.4369 283.882 14.4396C283.906 14.2769 283.954 13.9516 283.978 13.7889C284.498 13.7836 285.018 13.7783 285.541 13.7756C285.565 13.9356 285.613 14.2583 285.637 14.4209C285.962 14.4263 286.288 14.4343 286.616 14.4423C286.65 14.2743 286.722 13.9436 286.76 13.7756C287.245 13.7756 287.736 13.7729 288.224 13.7729C288.269 13.9356 288.36 14.2583 288.405 14.4183C288.56 14.4289 288.874 14.4476 289.029 14.4556C289.077 14.2876 289.173 13.9489 289.221 13.7783C289.693 13.7756 290.168 13.7756 290.642 13.7703C290.693 13.9383 290.792 14.2743 290.84 14.4423C291.098 14.4369 291.357 14.4316 291.618 14.4289C291.528 13.4663 292.594 13.8556 293.192 13.7756C293.218 14.2796 293.49 14.5329 294.008 14.4849C294.029 14.3116 294.077 13.9596 294.101 13.7836C294.61 13.7863 295.12 13.7916 295.634 13.8076C295.645 13.9783 295.669 14.3223 295.68 14.4929C296.101 14.4609 296.525 14.4423 296.952 14.4396C296.962 14.2769 296.984 13.9489 296.994 13.7863C298.152 13.9436 299.528 13.4023 300.538 14.1063C301.728 13.5916 302.93 13.0556 304.234 12.9249C304.221 12.0529 305.706 11.9756 305.624 12.8876C306.784 13.1809 307.706 14.0023 308.685 14.6503C309.25 15.6396 309.877 16.6129 310.157 17.7329C310.677 17.7356 311.2 17.7383 311.725 17.7409C311.733 18.0529 311.744 18.3623 311.754 18.6769C311.33 18.6769 310.906 18.6823 310.485 18.6903L310.677 19.1596C311.552 19.1196 312.781 19.5863 313.416 18.8023C313.626 18.7916 314.048 18.7756 314.258 18.7649C314.288 18.8796 314.346 19.1063 314.373 19.2209C314.73 19.2183 315.09 19.2156 315.45 19.2183C315.506 19.0556 315.618 18.7276 315.672 18.5649C316.109 18.5943 316.453 18.8103 316.672 19.1889C317.752 19.2316 318.832 19.2156 319.914 19.1996C320.12 21.2396 320.074 23.2983 319.92 25.3409C318.085 25.3809 316.253 25.3463 314.421 25.3596C314.29 25.5516 314.154 25.7383 314.016 25.9223C313.57 25.9329 313.272 25.5729 312.93 25.3543C313.258 26.3223 313.768 27.2556 313.762 28.3036C314.077 30.1169 315.048 31.7676 315.277 33.6049C314.93 33.7089 314.586 33.8023 314.242 33.9036C313.658 32.7009 313.136 31.4636 312.461 30.3089C311.904 29.7489 311.154 29.4049 310.448 29.0716C308.989 29.1143 307.578 29.6129 306.144 29.8556C305.677 30.7516 305.205 31.6449 304.754 32.5489C305.736 35.0343 306.402 37.6236 307.2 40.1703C308.109 42.9996 308.592 45.9356 309.269 48.8236C309.773 50.8956 310.104 53.0023 310.402 55.1143C308.677 55.6263 306.893 55.8769 305.128 56.1996C303.52 56.4663 301.922 56.8503 300.285 56.8396C299.378 52.6369 298.96 48.3543 298.376 44.0983C298.154 40.6423 297.893 37.1809 297.872 33.7169C297.016 33.0876 296.152 32.4716 295.282 31.8609C294.512 31.9569 293.746 32.0663 292.981 32.1916C291.258 33.7623 289.541 35.3383 287.808 36.8956C287.154 37.4903 286.272 37.8156 285.392 37.7863C283.445 37.7943 281.498 37.8103 279.552 37.8369C278.56 37.8796 277.744 37.2129 276.84 36.9223C276.256 38.8716 275.57 40.7943 275.056 42.7649C274.797 44.7916 274.442 46.8236 274.509 48.877C274.536 51.509 274.514 54.1409 274.586 56.7729C274.181 56.8636 273.776 56.9489 273.37 57.0369C273.357 64.2929 273.389 71.5516 273.357 78.8103C272.712 79.117 271.97 79.0503 271.277 79.1009C268.576 79.1569 265.874 79.1276 263.176 79.1196C263.093 71.7649 263.149 64.4103 263.117 57.0556C261.856 57.0396 260.594 56.9889 259.336 56.9303C259.317 53.9703 259.341 51.0103 259.418 48.0529C259.437 47.3516 259.669 46.6823 259.85 46.013C260.802 42.6103 261.642 39.1756 262.418 35.7303C262.384 34.5996 261.978 33.4903 261.618 32.4236C260.968 31.8689 260.162 31.3996 259.282 31.3943C256.258 31.2129 253.242 30.8903 250.216 30.8156C250.168 30.7703 250.072 30.6849 250.024 30.6423C246.752 30.6423 243.493 30.1969 240.226 30.0609C239.472 29.4876 239.317 28.5729 239.392 27.6796C239.816 27.5969 240.245 27.5249 240.672 27.4423C240.026 27.3889 239.381 27.3223 238.733 27.3169C223.986 27.3303 209.237 27.3196 194.49 27.3329C192.696 27.4156 190.914 27.6583 189.136 27.9036C187.778 28.1756 186.922 29.3596 186.018 30.2983C185.218 30.7943 184.293 31.1996 183.816 32.0716C183.49 33.0183 183.506 34.0663 183.885 34.9996C182.114 40.7383 180.589 46.5463 179.048 52.3489C178.917 52.8183 178.826 53.3116 178.594 53.7489C177.216 54.6289 175.57 54.0183 174.064 54.029C173.84 51.9543 174.269 49.8876 174.381 47.8183C174.885 42.2236 175.373 36.6263 175.848 31.0289C175.904 30.197 176.282 29.4316 176.357 28.6049C176.496 26.6956 176.616 24.7676 177.032 22.8929C177.8 22.4689 178.693 22.5756 179.536 22.5676C183.357 22.5809 187.178 22.5943 191.002 22.5836C192.53 22.5649 194.008 23.0796 195.538 23.0423C209.674 23.0103 223.81 23.0609 237.946 23.0396C238.832 23.1169 238.426 22.0129 238.512 21.4849C239.97 21.4663 241.429 21.4636 242.888 21.4849C242.954 20.3969 242.829 19.3009 242.978 18.2209C243.269 16.9836 243.512 15.7196 243.392 14.4449C242.893 14.0156 243.285 13.4529 243.426 12.9649C245.061 12.9303 246.696 12.9569 248.333 12.9383C249.157 12.9223 249.936 13.2743 250.765 13.2263ZM279.096 29.7329C278.821 30.1969 278.546 30.6583 278.277 31.1249C277.594 32.1303 277.84 33.4076 277.578 34.5409C277.978 35.3809 278.557 36.3489 279.576 36.4636C281.341 36.5063 283.109 36.4503 284.877 36.4823C285.509 36.4529 286.277 36.5969 286.752 36.0636C287.642 35.1756 288.442 34.1996 289.293 33.2743C289.864 32.7303 289.525 31.8743 289.57 31.1863C288.912 30.7569 288.346 30.2103 287.693 29.7809C286.184 29.6529 284.658 29.7409 283.146 29.7596C282.789 30.4156 282.29 31.0343 282.194 31.7996C281.944 33.0156 282.469 34.3489 283.464 35.0876C283.389 35.1543 283.242 35.2903 283.168 35.3569C283.05 35.6556 282.93 35.9569 282.813 36.261C282.013 35.9916 281.232 35.5463 280.853 34.7569C280.314 33.3729 280.413 31.8343 280.989 30.4796C280.824 30.2369 280.661 29.9969 280.501 29.7569C280.029 29.7463 279.562 29.7329 279.096 29.7329Z" fill="white"/>
</g>
<defs>
<clipPath id="clip0_79_1100">
<rect width="320" height="80" fill="white"/>
</clipPath>
</defs>
</svg>
