<svg width="320" height="80" viewBox="0 0 320 80" fill="none" xmlns="http://www.w3.org/2000/svg">
<path d="M201.114 8.32313C205.226 8.12579 209.349 8.27513 213.466 8.20579C219.349 8.19246 225.229 8.14446 231.112 8.13379C231.346 9.35246 231.65 10.5578 231.864 11.7818C232.032 13.1018 231.893 14.4378 231.941 15.7658C231.52 16.1205 231.138 16.6191 230.536 16.6111C228.506 16.8565 226.472 17.0671 224.442 17.3205C223.288 17.4778 222.098 17.4778 220.994 17.8831C221.754 18.1685 222.576 18.1151 223.376 18.1205C223.456 18.0218 223.616 17.8271 223.696 17.7311C224.16 17.7285 224.624 17.7285 225.093 17.7258C225.434 18.5231 225.266 19.3658 225.074 20.1765C235.034 20.2058 244.994 20.1818 254.954 20.1898C254.946 19.5685 254.946 18.9445 254.944 18.3258C255.226 18.0538 255.512 17.7871 255.8 17.5205C256.269 17.5205 256.744 17.5205 257.218 17.5205C257.485 15.8351 258.04 14.2165 258.464 12.5658C258.714 11.7285 258.858 10.8458 259.274 10.0698C260.32 9.79779 261.424 10.0085 262.493 9.97646C263.176 12.4431 264.082 14.8431 264.658 17.3391C265.544 17.9685 265.234 19.2671 265.552 20.1925C272.032 20.1925 278.512 20.1791 284.992 20.2005C285.018 20.3898 285.072 20.7658 285.098 20.9525C290.754 20.9365 296.41 20.9791 302.069 20.9311C302.088 20.7285 302.13 20.3178 302.152 20.1125C307.984 20.0911 313.813 19.9098 319.648 19.9231C320.088 21.9525 320.069 24.0698 319.656 26.1018C313.829 26.0858 308.005 26.0058 302.181 25.9391C302.144 25.7365 302.066 25.3285 302.029 25.1258C296.381 25.1045 290.733 25.1205 285.085 25.1151C285.066 25.2938 285.026 25.6511 285.008 25.8298C278.938 25.8431 272.866 25.8325 266.797 25.8351C267.018 27.1551 267.36 28.4538 267.573 29.7765C268.309 29.8031 269.05 29.8085 269.792 29.8191C269.802 30.5685 269.8 31.3178 269.792 32.0698C268.992 32.0751 268.194 32.0778 267.4 32.0911C267.136 32.5391 266.874 32.9871 266.613 33.4325C267.786 33.4298 268.96 33.4245 270.136 33.4538C270.144 33.9738 270.114 34.4965 270.122 35.0191C267.448 35.0538 264.773 34.9951 262.104 35.0351C264.744 35.5151 267.453 35.0698 270.12 35.3125C269.965 37.2431 269.776 39.1711 269.576 41.0965C268.538 41.5951 267.509 42.1045 266.485 42.6218C265.602 42.3205 264.733 41.9898 263.882 41.6245C263.568 41.3365 263.242 41.0591 262.914 40.7978C262.658 39.0511 262.514 37.2911 262.376 35.5338C260.352 35.5418 258.33 35.5285 256.306 35.5311C256.122 37.2405 256.074 38.9658 255.874 40.6725C255.13 41.7658 254.197 42.7631 253.221 43.6538C251.904 43.7524 250.578 43.6618 249.261 43.6858C249.336 46.1258 249.909 48.5685 249.528 51.0085C249.37 52.2405 249.226 53.4725 249.074 54.7044C248.842 56.0298 249.53 57.2484 249.869 58.4884C248.762 58.8965 247.656 59.3045 246.546 59.7071C245.73 59.3258 244.914 58.9444 244.096 58.5711C244.314 57.5231 244.85 56.5605 245.002 55.5018C244.906 53.3551 244.461 51.2298 244.469 49.0751C244.608 47.2805 244.866 45.4964 245.048 43.7044C244.549 43.6938 244.056 43.6858 243.565 43.6751C243.405 42.2938 243.176 40.9205 243.053 39.5365C243.573 39.5231 244.09 39.5098 244.616 39.4991C244.026 38.7898 243.45 38.0698 242.877 37.3525C243.317 37.2565 243.76 37.1578 244.202 37.0565C228.789 36.9285 213.376 37.1151 197.96 37.1285C197.85 37.0351 197.632 36.8458 197.522 36.7498C196.405 36.7605 195.29 36.7578 194.173 36.7551C194.096 39.5525 194.304 42.3631 194.061 45.1551C194.624 45.8698 195.498 45.9925 196.36 45.9498C196.568 46.6191 196.746 47.3018 196.765 48.0085C196.925 52.0031 197.389 55.9951 197.189 59.9978C197.12 63.6511 197.178 67.3071 197.138 70.9631C197.168 71.7231 196.738 72.3925 196.237 72.9285C195.48 73.7498 194.72 74.5685 193.992 75.4165C188.042 75.3978 182.093 75.3071 176.141 75.2911C175.706 75.2698 175.258 75.3045 174.845 75.1658C174.106 74.9498 174.146 74.0458 174 73.4325C173.645 69.4138 173.84 65.3791 173.922 61.3551C174.106 58.8538 174.05 56.3365 174.41 53.8511C174.677 51.8351 174.736 49.7605 175.397 47.8271C176.181 46.5018 177.706 45.9311 178.994 45.2245C178.906 45.1578 178.73 45.0244 178.642 44.9551C178.653 43.3631 178.642 41.7685 178.642 40.1765C177.253 40.1605 175.869 40.1525 174.482 40.1525C174.248 41.4165 173.968 42.6725 173.765 43.9418C172.93 44.1711 172.066 44.2565 171.205 44.2591C170.89 45.6325 170.61 47.0138 170.352 48.4005C169.68 48.8325 168.941 49.1631 168.13 49.1951C167.608 49.7978 167.112 50.4245 166.61 51.0431C165.997 51.8991 164.89 52.0644 163.986 52.4565C162.81 52.8458 161.669 53.5951 160.381 53.3791C158.434 53.1765 156.472 53.1684 154.53 52.9204C153.845 52.8644 153.09 52.4191 152.448 52.8538C151.965 53.0831 151.757 53.6031 151.506 54.0405C149.138 58.5391 146.645 62.9738 144.306 67.4831C144.325 69.2218 144.706 70.9445 144.856 72.6778C144.216 72.9791 143.584 73.5151 142.829 73.3578C140.061 73.0191 137.29 72.6911 134.522 72.3631C132.994 72.1605 131.434 72.0885 129.965 71.5898C129.717 71.2751 129.469 70.9631 129.218 70.6538C129.701 68.6218 130.205 66.5924 130.733 64.5738C131.21 63.0618 131.877 61.6191 132.432 60.1364C133.138 58.4351 134.365 57.0245 135.296 55.4485C136.106 54.0645 137.501 53.1925 138.525 51.9951C138.989 51.1818 139.384 50.2964 139.56 49.3711C139.45 48.1711 139.026 47.0325 138.829 45.8511C137.898 45.0138 136.672 44.4565 136.029 43.3391C135.088 41.7418 134.117 40.1631 133.176 38.5658C132.688 38.5525 132.2 38.5418 131.714 38.5311C131.648 38.6645 131.517 38.9338 131.453 39.0671C129.28 39.2965 127.093 39.3178 124.912 39.2511C123.944 39.1045 123.325 38.1498 123.434 37.1978C120.288 37.2005 117.138 37.1951 113.989 37.2031C113.106 37.2111 112.245 37.0085 111.381 36.8511C111.376 36.3231 111.349 35.7951 111.346 35.2698C110.69 35.2671 110.034 35.2671 109.381 35.2725C109.373 35.6218 109.368 35.9738 109.365 36.3258C107.037 36.3871 104.709 36.3445 102.384 36.3578C102.378 36.0111 102.373 35.6671 102.37 35.3258C102.202 35.3151 101.872 35.2965 101.706 35.2858C101.677 34.7551 101.65 34.2298 101.624 33.7045C100.053 33.7098 98.4717 33.7818 96.9251 33.4538C92.4797 33.4218 88.0291 33.4751 83.5837 33.5125C81.7491 33.8431 79.9837 34.6111 78.4664 35.6938C69.7757 41.3098 61.0771 46.9098 52.3811 52.5151C50.4931 53.7338 49.4077 56.0991 47.1064 56.6618C45.6851 57.0565 44.3064 57.7658 42.7917 57.6751C40.8851 57.6031 38.9624 57.8138 37.0691 57.5018C36.8397 53.6271 37.2477 49.7525 37.3331 45.8778C37.3864 43.1231 37.6717 40.3711 37.5811 37.6138C37.4771 33.6138 37.3197 29.6138 37.2531 25.6111C37.2611 24.5098 36.9864 23.3765 37.3437 22.3045C37.5517 21.6618 37.7491 21.0085 38.0691 20.4138C39.4691 19.8165 41.0397 20.1845 42.5144 20.0805C44.0824 19.9498 45.5757 20.4725 47.0717 20.8458C48.6984 21.1978 49.7091 22.6431 50.9517 23.6245C66.3517 23.6378 81.7517 23.6538 97.1517 23.6165C97.4104 23.3951 97.5597 22.9365 97.9624 22.9525C99.1784 22.8538 100.402 22.9471 101.621 22.9071C101.618 22.3471 101.616 21.7871 101.616 21.2298C101.986 21.2298 102.357 21.2298 102.73 21.2298C102.73 20.8965 102.73 20.5631 102.733 20.2325C104.949 20.2698 107.173 20.1391 109.386 20.3231C109.384 20.5551 109.378 21.0165 109.376 21.2485C110.05 21.2538 110.722 21.2565 111.397 21.2591C111.402 20.7098 111.408 20.1658 111.418 19.6191C115.544 19.6565 119.669 19.5791 123.794 19.6645C123.797 19.3711 123.8 19.0805 123.805 18.7898C123.408 18.7685 123.01 18.7471 122.613 18.7285C122.69 15.8005 122.677 12.8698 122.872 9.94713C123.506 9.45379 124.064 8.72046 124.93 8.67246C126.101 8.55513 127.426 8.57646 128.392 9.34179C129.773 10.2538 131.08 11.2885 132.509 12.1205C136.392 12.4085 140.333 11.9098 144.184 12.6671C144.216 13.0911 144.253 13.5178 144.293 13.9445C144.632 13.9898 144.973 14.0351 145.317 14.0831C145.357 15.3658 145.338 16.6485 145.349 17.9311C154.258 17.9525 163.168 17.8938 172.074 17.9605C172.08 18.3551 172.085 18.7498 172.093 19.1471C172.669 19.1658 173.24 19.1818 173.818 19.2058C173.584 19.3471 173.117 19.6271 172.882 19.7685C173.389 19.7845 173.898 19.7978 174.41 19.8138C174.341 19.1391 174.544 18.3578 174.082 17.7871C173.869 18.4085 173.277 18.3791 172.752 18.4058C172.741 17.6831 172.744 16.9631 172.76 16.2431C173.306 16.3765 173.832 16.5658 174.354 16.7711C174.349 16.1178 174.346 15.4671 174.344 14.8165C175.44 14.8111 176.536 14.8005 177.634 14.8138C177.704 14.6911 177.84 14.4458 177.906 14.3231C179.304 14.4431 180.68 14.2245 182.053 13.9925C182.05 13.7791 182.05 13.3551 182.048 13.1418C182.792 13.1391 183.538 13.1365 184.285 13.1338C184.285 13.3578 184.282 13.8031 184.282 14.0245C184.618 14.0431 184.957 14.0671 185.298 14.0938C185.861 14.2938 186.461 14.3338 187.056 14.3178C189.237 14.2831 191.416 14.3071 193.597 14.2751C193.677 14.3871 193.84 14.6165 193.92 14.7285C194.736 14.7258 195.56 14.6645 196.37 14.7898C197.277 14.9365 197.81 16.0138 198.8 15.8671C202.173 15.8565 205.549 15.8698 208.925 15.8538C210.421 15.7498 211.76 16.6511 213.264 16.5018C213.346 16.6191 213.509 16.8565 213.589 16.9738C215.162 17.3925 216.68 18.1551 218.341 18.1311C218.237 17.3631 218.213 16.5871 218.301 15.8191C218.92 15.5845 219.541 15.3445 220.157 15.0965C213.781 15.0911 207.402 15.1525 201.029 15.2405C200.93 12.9338 201.101 10.6298 201.114 8.32313ZM221.213 19.3498C221.968 19.5765 222.722 19.7978 223.482 20.0138C223.48 19.8351 223.48 19.4805 223.48 19.3018C222.725 19.3098 221.968 19.3205 221.213 19.3498ZM109.373 22.9791C109.376 23.4298 109.378 23.8805 109.384 24.3338C109.245 24.3471 108.973 24.3685 108.834 24.3818C108.84 27.0538 108.84 29.7258 108.837 32.4005C108.973 32.4085 109.245 32.4271 109.378 32.4378C109.381 32.8538 109.381 33.2725 109.384 33.6938C110.045 33.6938 110.706 33.6965 111.368 33.6965C111.376 30.0885 111.389 26.4805 111.392 22.8725C110.717 22.8938 110.045 22.9311 109.373 22.9791ZM52.4957 47.9978C58.6717 43.9765 64.8931 40.0218 71.0717 36.0031C72.0184 35.0965 72.3544 33.7338 73.0157 32.6218C72.7064 31.2938 72.5677 29.9285 72.2104 28.6138C71.7144 28.0165 71.0211 27.6298 70.4211 27.1525C64.4451 27.1311 58.4691 27.1551 52.4904 27.1391C52.4771 34.0911 52.4691 41.0458 52.4957 47.9978ZM97.1144 27.3071C97.1357 28.2485 97.1251 29.1925 97.1117 30.1391C97.1997 29.8191 97.2797 29.4938 97.3624 29.1738C98.9464 29.1658 100.53 29.1711 102.114 29.1685C102.114 28.5631 102.112 27.9605 102.112 27.3578C100.448 27.3391 98.7784 27.4005 97.1144 27.3071ZM246.925 35.5765C247.117 35.9605 247.917 35.8378 248.28 35.6671C248.085 35.2565 247.277 35.3738 246.925 35.5765ZM159.034 46.9471C159.101 47.7925 159.501 48.5578 159.896 49.2938C160.309 50.1178 161.149 50.6244 161.538 51.4698C159.136 50.9764 157.221 49.3045 155.058 48.2458C154.333 49.3791 153.565 50.4858 152.912 51.6618C154.208 52.1098 155.56 52.3978 156.936 52.4031C158.541 52.4218 160.138 52.7204 161.741 52.6378C162.936 52.2724 164.112 51.8138 165.25 51.2991C166.061 50.5845 166.73 49.7018 167.36 48.8271C167.618 47.6885 167.589 46.4991 167.757 45.3445C168.101 45.1018 168.338 44.7818 168.466 44.3765C166.488 44.3445 164.509 44.4404 162.53 44.4725C161.501 44.4671 160.402 44.6751 159.464 44.1391C159.256 45.0591 158.909 45.9871 159.034 46.9471Z" fill="white"/>
</svg>
