<svg width="320" height="80" viewBox="0 0 320 80" fill="none" xmlns="http://www.w3.org/2000/svg">
<g clip-path="url(#clip0_79_1118)">
<path d="M164.467 18.3946C165.4 17.9653 166.603 18.0746 167.456 18.6586C168.576 19.424 169.755 20.12 171.019 20.6186C172.181 20.8453 173.381 20.68 174.56 20.6373C175.083 21.2346 175.541 21.8933 175.84 22.6373C187.587 22.664 199.333 22.624 211.08 22.6506C211.333 23.1386 211.619 23.6106 211.904 24.0826C212.936 24.216 213.979 24.2 215.021 24.1893C239.019 24.224 263.016 24.3173 287.013 24.3626C293.6 24.3546 300.187 24.4053 306.773 24.456C307.4 23.7866 308.165 23.1706 308.357 22.224C308.533 22.2293 308.888 22.24 309.067 22.2453C309.12 21.6906 309.181 21.1386 309.243 20.5866C310.893 19.9013 312.771 20.6533 314.301 21.3786C314.288 21.5866 314.264 22.0026 314.253 22.2106C314.411 22.224 314.723 22.2506 314.877 22.264C314.869 22.6 314.864 22.936 314.861 23.2746C315.579 23.608 316.277 23.984 316.915 24.4586C317.987 24.4933 319.059 24.4826 320.136 24.4853C320.533 26.072 320.485 27.736 320.171 29.3333C313.651 29.4266 307.128 29.4133 300.605 29.4506C295.456 29.5866 290.304 29.5253 285.155 29.5813C285.091 29.8506 285.029 30.12 284.968 30.3946C284.363 30.392 283.76 30.3973 283.163 30.4533C284.688 31.1653 286.571 29.9493 288.075 30.8586C288.907 31.576 289.467 32.6426 289.584 33.7386C289.885 35.504 288.613 37.0293 287.381 38.1226C286.053 38.0933 284.728 37.9866 283.405 37.9226C283.323 38.0426 283.157 38.28 283.075 38.4C281.803 38.3946 280.531 38.4026 279.264 38.384C279.235 38.1706 279.173 37.7466 279.144 37.5333C277.733 37.536 276.32 37.5253 274.912 37.544C274.581 38.208 274.301 38.9093 273.835 39.4906C273.149 39.5546 272.477 39.2773 271.795 39.3173C252.779 40.3386 233.763 41.312 214.741 42.2373C213.608 42.2053 212.389 42.536 211.333 41.9973C210.173 41.416 209.029 40.7973 207.864 40.2266C207.899 39.8293 207.941 39.4373 207.984 39.0453C206.133 38.9466 204.304 39.1573 202.467 39.264C202.157 39.0026 201.917 38.5413 201.448 38.6026C194.509 38.5733 187.571 38.608 180.635 38.584C179.371 38.528 178.224 39.152 177.027 39.4533C174.693 40.9706 172.309 42.416 169.912 43.8346C168.48 44.7093 166.848 45.3493 165.149 45.3413C163.123 45.3733 161.101 45.7066 159.077 45.64C156.515 44.6133 155.805 41.6533 155.019 39.2933C153.323 39.1866 151.592 39.0186 149.912 39.3333C148.275 39.9653 146.472 40.3013 145.059 41.3973C143.691 42.4213 142.075 43.184 141.112 44.656C139.211 46.6186 138.256 49.32 138.043 52.0106C136.723 52.184 135.403 52.3333 134.083 52.5013C131.483 52.944 128.875 52.2826 126.285 52.056C126.208 51.688 126.125 51.32 126.045 50.9573C125.512 50.7546 124.973 50.2266 124.381 50.528C109.424 56.3946 94.4801 62.2933 79.5254 68.1733C78.5974 68.56 77.6614 68.9493 76.6667 69.1386C75.4854 69.4773 74.2001 70.1946 72.9734 69.6373C72.4188 69.36 71.6748 69.208 71.4161 68.5786C70.5388 66.92 70.4294 65.008 70.0081 63.2133C69.0721 56.928 68.8294 50.544 69.1094 44.2C69.1361 42.4933 69.6774 40.8533 70.1921 39.2426C70.8294 38.5733 71.6241 38.056 72.4001 37.56C73.6507 37.0373 75.0214 36.8853 76.3494 36.68C93.4854 35.1226 110.611 33.4426 127.749 31.936C128.512 32.7493 129.192 33.6693 130.091 34.3386C131.008 34.5706 131.992 34.5786 132.893 34.2666C137.613 32.912 142.2 31.128 146.72 29.216C150.552 27.472 154.325 25.6053 158.131 23.8053C159.152 23.3546 160.096 22.6346 161.253 22.5973C162.04 21.008 163.101 19.536 164.467 18.3946ZM309.069 23.0106C308.965 23.408 308.861 23.8053 308.763 24.2053C310.707 24.216 312.651 24.2 314.595 24.216C314.197 23.7893 313.824 23.344 313.464 22.8933C312.672 22.8773 311.88 22.8773 311.093 22.8746C311.083 23.0106 311.067 23.2773 311.056 23.4106C310.648 23.416 310.24 23.424 309.837 23.4346C309.765 23.28 309.624 22.9706 309.552 22.816C309.429 22.864 309.189 22.9626 309.069 23.0106ZM277.659 30.48C277.373 30.76 277.147 31.0853 276.907 31.4C277.648 31.408 278.389 31.408 279.133 31.4106C279.144 31.0666 279.16 30.7226 279.184 30.3813C278.672 30.4 278.152 30.3466 277.659 30.48ZM160.819 39.256C160.307 40.1893 159.72 41.248 160.04 42.3493C160.445 43.2133 161.269 43.7626 161.968 44.376L161.192 44.408C161.485 44.568 161.757 44.896 162.139 44.7733C163.472 44.6 164.835 44.6346 166.152 44.3706C166.752 43.776 167.275 43.0853 167.661 42.336C167.717 41.2 167.416 40.0613 166.584 39.2533C164.661 39.2693 162.739 39.2666 160.819 39.256ZM157.536 41.9973C157.517 43.0906 158.267 44.0373 159.136 44.6186C159.749 45.0666 160.552 44.856 161.256 44.912C161.221 44.728 161.155 44.3626 161.12 44.1786L160.989 44.4026C160.195 43.992 159.44 43.4586 158.939 42.704C158.507 41.8773 158.512 40.9173 158.392 40.0133C157.421 40.0986 157.461 41.2773 157.536 41.9973Z" fill="white"/>
</g>
<defs>
<clipPath id="clip0_79_1118">
<rect width="320" height="80" fill="white"/>
</clipPath>
</defs>
</svg>
