<svg width="320" height="80" viewBox="0 0 320 80" fill="none" xmlns="http://www.w3.org/2000/svg">
<g clip-path="url(#clip0_79_1087)">
<path d="M251.697 3.42977C252.99 3.31643 254.303 3.29643 255.597 3.4031C257.143 3.7931 258.607 4.62309 260.243 4.57642C266.58 4.56642 272.917 4.56976 279.253 4.5731C279.833 4.52976 280.377 4.74643 280.8 5.13976C284.68 5.18309 288.56 5.16976 292.443 5.14976C292.793 4.93643 293.087 4.53309 293.547 4.57976C299.55 4.55309 305.56 4.58643 311.567 4.5631C312.457 4.54643 313.337 4.68976 314.22 4.81976C314.423 4.44643 314.63 4.07643 314.843 3.70643C316.153 3.90976 317.623 3.68976 318.763 4.49643C319.22 4.84976 319.813 4.83976 320.367 4.8831C320.35 9.89976 320.447 14.9298 320.127 19.9364C319.583 19.9764 319.04 20.0098 318.503 20.0464C318.403 20.5364 318.31 21.0331 318.21 21.5264C317.36 21.5398 316.513 21.5398 315.667 21.5398C315.603 21.3298 315.47 20.9098 315.403 20.6964C314.807 20.6931 314.21 20.6931 313.617 20.6998C313.56 20.9164 313.447 21.3431 313.387 21.5564C312.74 21.5398 312.093 21.5264 311.447 21.5131C311.387 21.3031 311.263 20.8864 311.203 20.6764C310.59 20.6831 309.977 20.6931 309.367 20.7098C309.247 21.8698 308.083 21.5131 307.26 21.5598C307.117 21.2664 306.977 20.9764 306.837 20.6864C306.267 20.6898 305.7 20.6998 305.133 20.7131C305.077 20.9231 304.967 21.3364 304.913 21.5431C302.21 21.7631 299.197 20.8898 296.793 22.5064C295.073 24.1064 295.27 26.5764 294.8 28.6898C294.357 30.4298 294.947 32.1598 295.48 33.8064C294.85 33.9164 294.22 34.0264 293.587 34.0431C288.697 34.1231 283.81 34.2664 278.923 34.4364C276.657 34.6031 274.5 33.7498 272.283 33.4531C271.453 34.2498 270.503 34.9164 269.727 35.7697C268.963 37.2631 269.07 38.9931 268.987 40.6231C267.777 45.2131 266.573 49.8098 265.29 54.3798C264.663 54.4364 264.043 54.4998 263.42 54.5664C263.897 54.8064 264.377 55.0497 264.857 55.2897C264.82 55.8964 264.783 56.5064 264.75 57.1164C258.707 57.6864 252.62 57.4164 246.56 57.4464C245.77 56.3564 244.12 56.8264 243.03 56.1798C243.047 54.5564 242.97 52.9031 243.463 51.3331C244.503 47.4497 244.953 43.3831 246.563 39.6698C247.83 36.1998 249.287 32.7998 250.427 29.2864C250.957 27.8864 250.77 26.3198 250.253 24.9498C249.667 24.0998 249.107 23.1764 248.3 22.5264C246.617 21.7598 244.853 21.1831 243.17 20.4198C242.57 20.1564 242.29 19.5364 242 18.9998C243.333 18.6964 244.68 18.3131 245.843 17.5731C247.177 16.3498 247.22 14.0998 248.813 13.1198C248.773 11.1864 249.893 9.45643 249.813 7.52976C250.55 6.21643 251.023 4.77643 251.697 3.42977ZM272.117 24.8698C271.96 25.5464 271.697 26.2198 271.723 26.9231C272.217 28.1198 272.847 29.2531 273.397 30.4231C273.767 31.3231 274.823 31.5031 275.597 31.9298C276.587 32.3264 277.487 33.0131 278.56 33.1631C282.743 33.1264 286.923 32.9031 291.107 32.8098C291.64 32.3364 292.18 31.8698 292.73 31.4131C293.017 29.2831 293.277 27.1498 293.45 25.0098C292.85 24.2831 292.287 23.5298 291.753 22.7564C288.363 22.2531 284.923 22.5964 281.513 22.4631C280.837 23.3898 280.983 24.5698 280.95 25.6498C280.967 26.8498 280.977 28.1598 281.74 29.1631C282.43 30.3264 283.613 31.0297 284.593 31.9164C284.123 32.0731 283.657 32.2331 283.19 32.3898C282.32 32.1231 281.413 31.9564 280.577 31.5964C279.86 31.1264 279.333 30.4164 278.823 29.7431C277.563 27.4664 277.64 24.6898 276.33 22.4398C274.463 22.0864 273.453 23.9498 272.117 24.8698Z" fill="white"/>
</g>
<defs>
<clipPath id="clip0_79_1087">
<rect width="320" height="80" fill="white"/>
</clipPath>
</defs>
</svg>
