<svg width="320" height="80" viewBox="0 0 320 80" fill="none" xmlns="http://www.w3.org/2000/svg">
<g clip-path="url(#clip0_79_1101)">
<path d="M299.135 0C299.729 0.008 300.327 0.0133379 300.924 0.0213379C301.012 1.504 300.919 2.98933 300.924 4.47467C301.308 4.68533 301.863 4.82667 301.959 5.33067C302.06 5.90934 302.015 6.49867 302.023 7.08267C302.689 7.11467 303.412 6.968 304.049 7.176C305.423 8.90667 306.823 10.6293 308.231 12.3387C308.252 15.2347 308.241 18.1307 308.236 21.0293C307.617 21.0773 306.996 21.1253 306.38 21.1973C307.193 21.6107 308.116 21.568 308.999 21.648C309.073 21.504 309.217 21.2133 309.289 21.0693C312.633 21.0533 315.98 21.088 319.327 21.0853C319.831 22.784 320.084 24.5493 320.204 26.3147C316.58 26.3173 312.953 26.3787 309.329 26.3413C309.249 26.2213 309.087 25.9813 309.004 25.8613C308.129 25.7467 307.26 25.9973 306.399 26.1067C307.247 26.4427 307.631 27.3093 308.063 28.048C308.337 28.456 308.231 28.9653 308.236 29.4293C308.052 32.6053 308.055 35.8 307.679 38.96C306.292 38.9493 304.911 39.0453 303.532 39.128C303.188 37.4213 303.199 35.6693 302.916 33.9547C302.849 33.4427 302.473 32.896 301.927 32.8507C300.575 32.7787 299.22 32.8053 297.871 32.7547C297.455 33.0987 296.951 33.3867 296.713 33.896C296.34 34.5733 296.487 35.3653 296.479 36.104C296.489 36.904 296.263 37.68 296.127 38.4613C295.921 39.4747 295.855 40.5547 295.297 41.456C294.62 42.5813 294.124 43.816 293.385 44.9013C292.332 45.7227 291.236 46.5147 290.089 47.1973C288.241 47.8827 286.359 48.592 284.361 48.5867C282.199 48.992 280.033 48.4987 277.887 48.2507C278.281 46.136 278.831 44.0533 279.26 41.9493C279.447 41.064 279.273 40.1573 278.772 39.408C277.228 39.456 275.681 39.424 274.14 39.4907C273.137 39.5307 272.601 40.4907 272.068 41.2027C271.217 42.4693 269.905 43.2933 268.831 44.3467C267.897 45.304 266.588 45.696 265.431 46.296C264.225 46.8293 263.081 47.5653 261.753 47.7547C259.847 48.0667 257.967 48.5787 256.041 48.7653C253.289 48.6987 250.521 48.8827 247.791 48.472C246.463 48.304 245.127 48.184 243.804 47.9787C243.447 47.104 243.039 46.2453 242.788 45.3307C238.913 43.9307 235.036 42.5467 231.148 41.1787C230.761 41.992 230.313 42.776 229.807 43.5227C219.921 43.5173 210.036 43.5227 200.153 43.472C199.316 42.5787 199.249 41.256 199.129 40.0987C199.255 36.3653 199.375 32.6347 199.497 28.9013C199.436 25.0747 198.897 21.256 199.017 17.424C198.993 16.616 199.359 15.8827 199.687 15.1707C203.703 14.9573 207.732 15.144 211.756 15.0853C219.577 15.096 227.401 15.0533 235.223 15.112C236.132 15.08 236.985 15.4613 237.887 15.5067C247.372 15.4987 256.857 15.4933 266.343 15.512C266.615 13.904 266.575 12.1973 267.409 10.7413C267.895 9.448 268.953 8.38134 269.097 6.97067C269.209 6.88534 269.439 6.71733 269.553 6.63467C269.607 6.26133 269.66 5.89066 269.716 5.52266C270.532 4.984 271.388 4.30401 272.439 4.53067C272.217 4.48001 271.777 4.37334 271.556 4.32C271.497 2.93867 271.417 1.48 272.196 0.261336C272.911 0.248003 273.633 0.261336 274.327 0.461336C274.343 0.645336 274.372 1.008 274.388 1.18933C274.967 1.52266 275.548 2.032 275.561 2.76C275.543 3.57867 274.921 4.272 274.127 4.432C274.513 4.56 274.903 4.69867 275.292 4.82934C275.543 5.384 275.596 5.98666 275.58 6.58933C275.807 6.73333 276.033 6.88 276.263 7.02934C276.377 6.93067 276.604 6.73066 276.719 6.632C277.207 6.63733 277.719 6.67467 278.116 6.99734C278.273 6.88267 278.433 6.77067 278.593 6.65867C278.831 6.664 279.305 6.672 279.54 6.67467C279.655 6.77067 279.881 6.96267 279.993 7.05867C280.108 6.95733 280.335 6.752 280.449 6.648C280.695 6.656 281.183 6.66934 281.425 6.67734C281.527 6.784 281.724 7 281.823 7.10666C281.943 6.984 282.185 6.73867 282.308 6.616C282.985 6.504 283.663 7.29333 284.225 6.65867C284.679 6.63733 285.159 6.67467 285.5 7.016C285.692 6.896 285.887 6.776 286.084 6.65867C286.308 6.664 286.759 6.67733 286.983 6.68267C287.095 6.79467 287.316 7.02133 287.428 7.13333C287.729 6.44 288.807 6.48534 289.201 7.072C289.719 6.56534 290.583 6.472 291.089 7.05067C291.628 6.48267 292.361 6.69067 292.999 6.92533C293.649 6.6 294.385 6.56534 294.935 7.112C295.121 6.456 295.844 6.704 296.343 6.65867C296.353 6.288 296.369 5.91734 296.385 5.54667C297.207 4.98134 298.073 4.32267 299.14 4.536C299.137 3.024 299.044 1.512 299.135 0ZM269.607 8.87734C269.508 9.39734 269.396 9.91734 269.276 10.4373C271.295 10.4533 273.313 10.4507 275.335 10.44C275.329 9.904 275.327 9.37066 275.332 8.84C273.423 8.85333 271.513 8.78667 269.607 8.87734ZM276.476 12.1467C276.359 13.272 276.145 14.3813 275.927 15.4907C282.7 15.5173 289.476 15.5307 296.249 15.4853C296.956 14.776 298.071 14.88 298.956 15.1387C299.028 16.904 298.751 18.7093 299.1 20.4507C299.201 19.2373 299.151 18.0213 299.148 16.808C299.404 16.6187 299.663 16.432 299.924 16.248C299.892 15.8293 300.033 15.36 299.801 14.9867C299.391 14.7493 298.892 14.7093 298.508 14.4373C298.249 14.0987 298.1 13.696 297.916 13.3173C296.34 12.9733 294.724 12.7867 293.111 12.864C287.553 13.0027 282.017 12.4507 276.476 12.1467ZM279.316 31.8187C279.207 32.9627 279.428 34.0907 279.692 35.1973C278.647 35.232 277.596 35.176 276.553 35.2693C278.572 35.5227 280.636 35.2 282.663 35.4853C282.948 36.096 283.156 36.776 283.633 37.2773C284.804 38.1067 286.308 38.5867 287.724 38.104C289.204 37.3253 290.201 35.6587 289.871 33.9627C289.599 32.4293 288.295 31.2987 286.836 30.9067C286.543 30.0427 286.049 29.2747 285.513 28.544C284.228 28.5573 282.94 28.376 281.66 28.4773C280.255 28.8933 279.193 30.3413 279.316 31.8187ZM251.591 28.976C250.641 29.9067 249.665 30.8053 248.705 31.7227C248.351 32.0107 248.313 32.4827 248.273 32.9067C248.199 34.016 247.855 35.2053 248.468 36.2293C249.132 38.1627 251.145 39.3387 253.095 39.392C254.401 38.9387 255.668 38.3733 256.964 37.8907C258.601 37.3307 259.932 36.1867 261.417 35.3413C262.22 34.9387 262.511 34.04 262.913 33.3013C263.34 32.5973 263.063 31.7573 262.964 31.0027C262.849 30.1307 262.02 29.6453 261.511 29.008C258.204 28.968 254.897 28.984 251.591 28.976Z" fill="white"/>
</g>
<defs>
<clipPath id="clip0_79_1101">
<rect width="320" height="80" fill="white"/>
</clipPath>
</defs>
</svg>
