<svg width="320" height="80" viewBox="0 0 320 80" fill="none" xmlns="http://www.w3.org/2000/svg">
<g clip-path="url(#clip0_79_1088)">
<path d="M294.012 3.33313C296.575 3.31979 298.935 4.42313 301.092 5.7098C301.088 6.18646 301.092 6.66646 301.095 7.14646C303.222 7.07646 305.382 7.04646 307.445 6.46979C308.648 6.11313 309.905 6.08313 311.148 6.1098C311.185 5.44313 311.232 4.77313 311.282 4.10646C313.102 4.1998 314.922 4.33312 316.745 4.39312C316.978 4.93312 317.195 5.48313 317.412 6.03313C319.378 7.09646 320.428 9.3698 320.148 11.5665C320.375 13.3698 319.155 14.7998 318.342 16.2698C318.535 17.6931 318.782 19.1531 318.182 20.5265C316.865 20.5731 315.522 20.7198 314.228 20.4465C314.128 20.2565 313.935 19.8765 313.835 19.6831C313.618 19.6865 313.178 19.6898 312.962 19.6931C312.865 19.8798 312.672 20.2531 312.575 20.4398C310.328 20.7765 308.035 20.5298 305.768 20.5865C305.748 20.3565 305.702 19.8965 305.682 19.6631C304.888 19.6598 304.095 19.6631 303.305 19.6598C303.288 19.4231 303.252 18.9498 303.235 18.7098C302.078 18.7098 300.922 18.7065 299.765 18.7131C299.738 18.4298 299.678 17.8565 299.648 17.5731C298.592 18.2731 297.812 19.2998 296.818 20.0631C293.738 20.1998 290.648 20.0965 287.565 20.1498C285.938 20.2031 284.068 19.8698 282.735 21.0331C281.825 21.8965 280.725 22.8365 280.655 24.1865C280.492 25.9231 280.498 27.6731 280.505 29.4165C278.515 29.4631 276.522 29.3765 274.535 29.4998C273.498 29.5431 272.628 30.2131 271.962 30.9531C270.668 32.9365 271.195 35.6865 269.502 37.4598C268.485 38.6665 267.055 39.3798 265.622 39.9665C263.435 41.0231 260.942 41.2365 258.548 41.0698C257.092 41.0065 255.932 40.0198 254.665 39.4231C252.182 39.2131 249.702 38.8065 247.198 38.9665C245.478 38.9965 244.145 40.5998 243.852 42.1998C243.702 43.7598 244.998 44.9798 245.138 46.4665C244.332 47.5731 242.935 48.3631 242.788 49.8531C242.552 51.3598 243.795 52.5065 244.085 53.9098C243.392 54.7431 242.415 55.2531 241.602 55.9465C240.372 56.9098 240.432 58.9031 238.968 59.6298C237.932 60.2331 236.735 60.4731 235.548 60.5231C231.082 60.9931 226.512 60.5998 222.215 59.2898C221.248 58.9731 219.822 58.5265 220.018 57.2265C220.498 55.1965 221.665 53.4265 222.425 51.4998C223.645 48.3331 224.658 45.0965 225.875 41.9298C226.875 39.7331 228.105 37.6498 229.188 35.4965C230.352 33.0998 231.972 30.9765 233.385 28.7331C234.198 27.4065 235.232 26.1898 235.772 24.7131C236.218 22.9698 236.122 21.1365 236.482 19.3765C236.655 18.6165 237.255 17.9798 238.018 17.7965C239.522 17.3498 241.228 17.4865 242.565 16.5565C243.882 15.6631 245.332 15.0065 246.798 14.3965C246.142 13.2798 245.465 12.0698 244.235 11.5065C243.048 10.7265 241.598 10.6931 240.288 10.2498C242.652 9.68313 245.708 9.52647 247.268 11.7765C248.735 11.9898 249.458 10.4631 250.405 9.63312C250.945 9.63979 251.488 9.64646 252.032 9.6598C252.302 8.61646 252.918 7.55647 252.555 6.46313C252.198 5.5798 253.205 4.99313 253.518 4.26313C253.822 4.26313 254.125 4.26646 254.432 4.27313C254.508 4.4498 254.658 4.79979 254.735 4.97646C255.818 4.98979 256.918 4.93979 257.988 5.16312C259.685 5.56646 261.442 5.36979 263.168 5.42646C263.158 5.21313 263.138 4.7898 263.132 4.57646C263.455 4.1798 263.782 3.78313 264.112 3.3898C264.852 3.39313 265.592 3.39979 266.335 3.40646C266.388 3.68646 266.492 4.24979 266.545 4.52979C267.165 4.37979 267.562 3.92646 267.855 3.39312C268.378 3.39646 268.905 3.40646 269.432 3.42646C269.718 3.92313 270.105 4.3398 270.638 4.58646C270.715 4.2898 270.862 3.69313 270.935 3.39646C271.595 3.39646 272.255 3.40312 272.922 3.41312C272.958 3.64979 273.035 4.12646 273.072 4.36313C273.398 4.36313 273.728 4.36313 274.062 4.36646C274.092 4.12313 274.158 3.6398 274.188 3.3998C274.802 3.3998 275.415 3.40646 276.028 3.4198C276.218 4.0598 276.685 4.41646 277.335 4.51979C277.382 4.23979 277.472 3.68312 277.515 3.40312C278.095 3.39979 278.675 3.39646 279.262 3.3998C279.538 3.97646 279.958 4.42313 280.622 4.52979C280.672 4.24646 280.768 3.67979 280.818 3.39646C281.398 3.39646 281.982 3.3998 282.565 3.4098C282.842 3.9998 283.272 4.43646 283.952 4.51979C283.998 4.23979 284.092 3.67979 284.138 3.39646C284.775 3.39646 285.415 3.39646 286.058 3.3998C286.085 3.63646 286.138 4.1098 286.165 4.34646C286.452 4.35313 287.025 4.36313 287.308 4.36646C287.338 4.12313 287.392 3.63979 287.422 3.39646C288.062 3.39646 288.705 3.39646 289.352 3.3998C289.378 3.63646 289.432 4.11313 289.455 4.35313C289.745 4.35313 290.325 4.35647 290.615 4.3598C290.648 4.11647 290.708 3.63313 290.742 3.3898C291.372 3.39313 292.002 3.39979 292.638 3.40646C292.665 3.64646 292.722 4.12646 292.748 4.36646C293.045 4.36313 293.635 4.35646 293.932 4.35313C293.952 4.09646 293.992 3.58646 294.012 3.33313ZM300.725 17.0865C301.708 17.1598 302.705 17.1698 303.675 16.9498C302.795 16.0965 301.668 16.7931 300.725 17.0865ZM262.978 28.2165C263.218 28.5498 263.455 28.8865 263.702 29.2265C262.785 31.0498 260.728 32.6131 261.268 34.8731C261.695 36.8031 263.578 37.8598 265.362 38.2831C265.352 38.4665 265.328 38.8365 265.315 39.0231C261.995 39.0765 259.608 35.9865 259.228 32.9131C259.392 32.4065 259.552 31.9031 259.712 31.3998C258.675 31.1765 257.568 31.0798 256.708 30.3931C256.335 30.2265 255.882 29.6265 255.572 30.1898C254.385 31.5198 253.692 33.4265 254.122 35.2031C254.385 36.4631 254.518 37.9798 255.638 38.8165C258.422 41.0698 262.445 40.5131 265.552 39.2731C267.455 38.6465 269.358 37.2898 269.788 35.2231C270.138 33.4398 270.538 31.3431 269.248 29.8265C267.672 28.4131 265.582 27.8131 263.492 27.8165C263.365 27.9165 263.108 28.1165 262.978 28.2165Z" fill="white"/>
</g>
<defs>
<clipPath id="clip0_79_1088">
<rect width="320" height="80" fill="white"/>
</clipPath>
</defs>
</svg>
