<svg width="320" height="80" viewBox="0 0 320 80" fill="none" xmlns="http://www.w3.org/2000/svg">
<path d="M199.635 23.9151C200.971 23.7684 202.296 23.5097 203.643 23.4831C216.453 23.4857 229.264 23.4511 242.072 23.4751C244.408 23.7711 246.771 23.6911 249.12 23.8217C256.093 24.1924 263.077 24.0244 270.056 24.0617C286.619 24.0617 303.184 24.0591 319.747 24.0617C320.053 25.9524 320.037 27.8777 319.755 29.7711C318.352 29.7737 316.949 29.7497 315.547 29.7924C315.544 30.3471 315.541 30.9044 315.541 31.4617C316.472 31.4804 317.488 31.3444 318.309 31.8964C319.227 32.3951 319.197 33.6004 319.216 34.5071C319.227 35.5871 319.315 37.0271 318.203 37.6217C317.08 38.3337 315.752 37.8911 314.544 37.7497C314.499 38.3311 314.443 38.9124 314.387 39.4964C313.803 39.9257 313.293 40.4617 312.656 40.8084C311.221 41.3017 309.683 41.2137 308.192 41.2111C297.256 41.2137 286.323 41.2084 275.387 41.2137C273.92 41.1924 272.293 40.9204 271.312 39.7177C271.125 39.0884 271.232 38.4137 271.211 37.7684C261.749 37.7817 252.288 37.7311 242.829 37.7951C242.621 38.4484 242.285 39.0751 241.741 39.5097C241.123 40.1284 240.168 39.8271 239.392 39.8964C238.453 40.0484 237.821 39.2724 237.219 38.6991C234.56 38.6831 231.909 38.8964 229.256 38.9871C226.563 39.4271 223.819 39.0564 221.117 39.3844C220.784 39.8751 220.173 39.8564 219.651 39.9497C219.259 40.1871 218.837 40.3764 218.408 40.5364C218.355 40.8537 218.307 41.1737 218.261 41.4964C215.203 41.7871 212.168 42.5791 209.461 44.0564C207.168 45.4111 204.915 46.8484 202.488 47.9497C200.397 48.7097 198.144 49.2111 195.917 48.8591C195.085 48.6644 194.267 48.4057 193.443 48.1844C192.493 47.9417 191.792 47.1951 191.131 46.5177C190.109 45.1017 189.371 43.4991 188.336 42.0964C187.195 40.9951 185.437 40.8991 183.939 40.9737C182.557 41.6164 181.149 42.3257 180.053 43.4111C178.309 44.9604 176.552 46.4937 174.8 48.0324C174.24 48.4831 173.901 49.1231 173.565 49.7444C172.531 51.6671 171.299 53.4964 170.595 55.5791C170.435 56.4404 169.424 56.4377 168.757 56.2511C167.008 55.7204 165.277 54.9764 163.923 53.7204C162.904 52.7791 161.533 52.1631 160.853 50.9071C160.381 50.1044 159.76 49.3417 159.677 48.3817C159.472 47.0377 159.139 45.7124 159 44.3604C159.072 41.0244 159.037 37.6137 160.101 34.4084C160.288 33.8111 160.845 33.3817 161.488 33.5471C162.565 34.1791 163.491 35.0457 164.568 35.6777C165.656 36.0591 166.795 36.3044 167.92 36.5631C168.496 36.7177 169.043 36.4031 169.568 36.2191C172.755 34.9284 175.992 33.7657 179.155 32.4191C181.32 31.2484 183.168 29.5471 185.413 28.5097C187.04 27.7524 188.576 26.7791 190.301 26.2457C193.344 25.2404 196.419 24.1844 199.635 23.9151ZM196.232 41.2857C195.024 42.0351 194.499 43.5524 194.659 44.9177C194.861 45.6831 195.291 46.3631 195.531 47.1204C193.515 45.9177 193.269 43.2537 194.021 41.2244C192.749 41.8191 191.579 43.1364 191.851 44.6324C191.944 45.5364 192.587 46.2324 193.28 46.7604C196.568 48.3817 200.792 48.0964 203.696 45.7897C204.971 45.1924 205.413 43.6111 205.139 42.3177C204.517 41.1471 203.109 40.5017 201.811 40.6697C199.952 40.8244 197.92 40.2671 196.232 41.2857Z" fill="white"/>
</svg>
