<svg width="320" height="80" viewBox="0 0 320 80" fill="none" xmlns="http://www.w3.org/2000/svg">
<g clip-path="url(#clip0_79_1114)">
<path d="M169.062 4.06358C170.454 4.01268 171.85 4.0248 173.244 4.06844C173.251 4.64056 173.232 5.21268 173.193 5.7848C173.382 5.79934 173.763 5.82601 173.952 5.84056C174.221 6.63813 174.427 7.45511 174.626 8.2745C174.929 8.31571 175.234 8.35934 175.542 8.4054C175.552 8.56298 175.571 8.87813 175.579 9.03571C176.783 9.03571 177.988 9.03571 179.196 9.03813C179.254 8.49753 179.336 7.95935 179.433 7.42601C181.748 7.41632 184.063 7.40904 186.376 7.43086C186.451 7.96177 186.514 8.4951 186.575 9.03086C188.58 9.00177 190.592 9.11813 192.594 8.97267C194.502 8.5751 196.405 8.14359 198.299 7.67813L198.354 7.72662C199.062 7.54722 199.77 7.37268 200.48 7.19328L200.524 7.24177C201.103 7.08662 201.685 6.94601 202.272 6.81995C204.587 6.34965 206.873 5.72904 209.2 5.32419C214.454 5.29025 219.712 5.27813 224.968 5.33389C224.946 9.92056 224.973 14.5072 224.953 19.0963C219.928 19.1036 214.902 19.0866 209.877 19.106C209.278 19.123 208.689 18.9993 208.114 18.8612L208.059 18.9339C207.782 18.8369 207.508 18.7399 207.234 18.6478C207.135 18.6357 206.936 18.6163 206.837 18.6066C202.616 17.62 198.376 16.7157 194.151 15.7557C191.683 15.026 189.091 15.4309 186.56 15.3266C186.444 17.9739 186.728 20.609 186.657 23.2563C186.924 23.249 187.193 23.2442 187.467 23.2418C187.731 22.9824 187.996 22.723 188.265 22.4684C188.536 22.7157 188.8 22.9775 189.101 23.1957C189.581 23.2781 190.073 23.2515 190.56 23.266C190.8 23.0042 191.04 22.7424 191.285 22.483C191.576 22.7375 191.865 22.9945 192.153 23.2539C193.011 23.3606 193.857 23.2175 194.398 22.483C194.64 22.7327 194.885 22.9848 195.13 23.2418C195.617 23.2466 196.107 23.2709 196.599 23.2248C196.929 23.0212 197.203 22.7399 197.499 22.4903C197.734 22.7424 197.971 22.9993 198.209 23.2563C199.057 23.3654 199.884 23.2102 200.427 22.4951C200.655 22.7472 200.89 22.9993 201.123 23.2539C201.974 23.3024 202.897 23.3509 203.428 22.546C204.013 23.329 204.958 23.3072 205.845 23.266C206.063 23.009 206.282 22.7545 206.502 22.5C207.246 23.4915 208.827 23.5812 209.581 22.5533C210.1 23.3412 211.011 23.3072 211.855 23.2442C212.141 23.0454 212.371 22.6793 212.749 22.66C212.958 22.8393 213.159 23.0284 213.353 23.2296C214.177 23.3242 215.062 23.3242 215.581 22.563C216.143 23.3678 217.101 23.2902 217.974 23.2612C218.211 23.0066 218.446 22.7521 218.689 22.5C218.909 22.7448 219.135 22.9921 219.36 23.2393C219.913 23.2442 220.468 23.2466 221.026 23.2466C221.237 23.0066 221.45 22.769 221.666 22.5339C222.209 23.3654 223.169 23.2903 224.046 23.2709C224.291 23.0309 224.536 22.7933 224.783 22.5533C225.443 23.4648 226.762 23.4672 227.646 22.8951C227.639 22.7181 227.62 22.3666 227.613 22.1921C226.968 22.2139 226.33 22.2212 225.688 22.2309C225.566 21.043 225.613 19.8454 225.613 18.6551C227.717 18.6018 229.823 18.6575 231.928 18.6721C232.745 18.6599 233.52 18.946 234.286 19.1981C234.512 19.2709 234.737 19.3412 234.97 19.4163C234.965 19.22 234.953 18.8272 234.948 18.6309C235.891 18.6454 236.837 18.6648 237.782 18.6987C238.08 20.2381 238.616 21.7412 238.648 23.3242C239.22 23.2975 239.625 22.9072 240 22.5218C240.236 22.7618 240.468 23.0018 240.706 23.2466C241.246 23.2442 241.787 23.2418 242.33 23.2345C242.563 22.9824 242.8 22.7327 243.04 22.4854C243.273 22.7424 243.513 23.0018 243.751 23.2612C244.628 23.3121 245.554 23.3169 246.156 22.5678C246.682 23.3315 247.571 23.3048 248.405 23.2515C248.655 22.9896 248.905 22.7327 249.159 22.4757C249.406 22.7327 249.659 22.9896 249.911 23.2515C250.621 23.2078 251.516 23.4575 251.988 22.7569C252.063 22.6963 252.216 22.5727 252.294 22.5121C252.522 22.7593 252.754 23.0115 252.989 23.2612C253.845 23.3678 254.667 23.1957 255.217 22.4854C255.448 22.7351 255.683 22.9896 255.92 23.2442C256.425 23.2442 256.934 23.2466 257.443 23.249C257.726 22.9921 258.012 22.7375 258.301 22.4854C258.539 22.7448 258.781 23.0066 259.023 23.266C259.891 23.3509 260.769 23.2369 261.3 22.4636C261.549 22.723 261.799 22.9824 262.051 23.2442C262.529 23.249 263.009 23.2709 263.491 23.2175C263.816 23.0115 264.1 22.7448 264.4 22.5C264.863 23.0793 265.508 23.3848 266.262 23.2903C266.25 23.6684 266.24 24.0466 266.236 24.4248C265.886 24.4345 265.54 24.449 265.196 24.4636C265.14 25.0066 265.695 24.9678 266.008 25.1642C266.228 25.8381 266.153 26.563 266.134 27.2612C266.015 28.8563 266.093 30.4563 266.1 32.0563C273.872 32.0806 281.644 32.0587 289.419 32.066C289.979 32.2357 290.032 31.6248 290.233 31.2709C291.096 31.0939 291.942 31.3121 292.796 31.4284C298.609 31.443 304.425 31.4139 310.238 31.4406C313.494 31.5884 316.747 31.8115 320.003 32.0102C320.061 32.3206 320.124 32.6309 320.192 32.946C320.059 32.9509 319.789 32.9606 319.654 32.9654C319.756 33.6418 319.331 34.6842 320.204 34.9824C320.044 35.2442 320.088 35.8042 319.671 35.7775C316.529 35.9618 313.385 36.1484 310.24 36.3302C304.194 36.3569 298.148 36.323 292.102 36.3472C291.486 36.7787 290.745 36.5339 290.076 36.4248C290.025 36.1727 289.976 35.9206 289.932 35.6733C282.042 35.666 274.151 35.6684 266.26 35.6709C266.141 36.1048 265.882 36.3812 265.404 36.2721C253.433 36.2769 241.46 36.2575 229.486 36.2818C229.474 37.4599 229.474 38.6405 229.477 39.8212C228.653 39.8212 227.831 39.8187 227.009 39.8163C227.006 39.6733 227.002 39.3872 226.997 39.2442C226.182 39.283 225.186 39.0066 224.643 39.7993C224.541 39.6612 224.342 39.3848 224.243 39.2466C223.722 39.249 223.205 39.2539 222.689 39.2636C222.58 39.4115 222.364 39.7048 222.255 39.8527C222.146 39.7024 221.925 39.4018 221.814 39.2515C221.125 39.249 220.442 39.249 219.756 39.2539C219.659 39.3872 219.467 39.6563 219.37 39.7896C218.786 39.0115 217.765 39.2418 216.929 39.2636C216.616 39.283 216.434 39.5957 216.194 39.7557C215.596 38.9315 214.507 39.329 213.651 39.249C213.508 39.4454 213.365 39.6418 213.227 39.8406C213.048 39.6442 212.868 39.4478 212.691 39.2539C211.799 39.3024 210.694 38.9557 210.088 39.8212C209.986 39.683 209.78 39.4042 209.676 39.2636C208.764 39.3193 207.622 38.9266 206.975 39.7799C206.473 39.0648 205.566 39.2127 204.815 39.2684C204.478 39.3096 204.284 39.649 204.022 39.826C203.906 39.683 203.678 39.3993 203.562 39.2587C202.9 39.2515 202.238 39.249 201.581 39.2466C201.365 39.4502 201.154 39.6563 200.943 39.8648C200.832 39.7121 200.611 39.4066 200.5 39.2539C199.644 39.2999 198.585 38.9678 198.003 39.7945C197.397 39.0163 196.391 39.2709 195.542 39.2587C195.322 39.4454 195.111 39.6418 194.88 39.8139C194.691 39.6393 194.509 39.4599 194.337 39.2757C193.726 39.2515 193.116 39.2442 192.507 39.2345C192.471 39.3799 192.393 39.6733 192.354 39.8212C191.397 39.7799 190.393 39.923 189.467 39.7436C189.402 38.5557 189.462 37.3606 189.363 36.1727C189.215 36.2187 188.922 36.3109 188.774 36.3569C188.243 37.3993 188.439 38.7642 187.61 39.649C186.774 40.0709 186.012 40.6236 185.198 41.0842C184.846 41.3072 184.5 41.5351 184.153 41.7654C184.097 43.2393 183.891 44.7012 183.792 46.1727C183.649 46.8757 184.398 47.2757 184.572 47.889C184.648 48.4418 184.628 49.0018 184.633 49.5593C184.095 49.6975 183.557 49.826 183.019 49.9521C182.868 54.6672 182.914 59.3848 182.844 64.0999C182.798 64.8854 182.939 65.7024 182.728 66.4709C182.371 66.7327 181.916 66.7763 181.501 66.8733C180.206 67.1084 178.917 67.3581 177.625 67.5981C177.145 67.6854 176.667 67.7775 176.189 67.8697C174.122 68.2842 172.037 68.6066 169.983 69.0866L169.952 69.009C168.558 69.3557 167.14 69.5812 165.729 69.8357C165.661 64.2818 165.726 58.7181 165.564 53.169C164.975 53.2078 164.391 53.2781 163.809 53.3412C162.829 53.4405 161.925 53.9545 160.924 53.9012C157.608 53.8502 154.291 53.7557 150.972 53.7121C150.076 53.8381 148.817 53.3315 148.219 54.1896L148.189 54.2454C148.122 54.3472 147.988 54.5533 147.92 54.6575L148.032 54.8006L147.838 54.8466C147.491 55.6078 146.948 56.2769 146.689 57.0745C146.669 57.7145 146.769 58.3521 146.82 58.9896C146.136 59.3145 145.246 59.4381 144.837 60.146C143.969 61.5448 143.147 62.9727 142.255 64.3569C142.105 64.6284 141.957 64.8999 141.811 65.1739L141.717 65.1836C141.637 65.2854 141.477 65.4915 141.397 65.5933L141.486 65.7193C140.764 66.2284 141.557 67.0333 141.409 67.6951C141.232 68.146 140.958 68.563 140.616 68.9048C138.769 68.7909 136.982 68.289 135.193 67.8527C133.583 67.409 131.981 66.9436 130.374 66.5024C129.976 66.3642 129.489 66.2672 129.273 65.8696C129.501 65.4139 129.804 65.0042 130.105 64.5969C130.153 64.5169 130.25 64.3545 130.299 64.2721C130.451 64.0854 130.606 63.8987 130.762 63.7169L130.689 63.4842L131.067 63.4987L130.873 63.1884L131.234 63.2636L131.096 62.9169L131.474 62.9218L131.336 62.6939C131.501 62.5096 131.668 62.3278 131.833 62.146C131.94 61.9618 132.046 61.7799 132.156 61.6005C133.503 59.5933 134.934 57.6442 136.226 55.6005L136.33 55.5521C136.461 55.3363 136.589 55.123 136.72 54.9096C137.363 54.0296 137.964 53.1206 138.585 52.226C139.2 51.2296 139.962 50.3254 140.536 49.3048C140.764 48.3666 140.893 47.3969 140.951 46.4345C140.444 44.8902 138.934 43.8527 137.416 43.4575C134.611 43.4066 131.806 43.4769 129.002 43.4284C128.878 43.1133 128.759 42.7981 128.643 42.483C124.606 42.5315 120.572 42.6381 116.534 42.6648C115.68 42.5121 115.326 43.4284 114.849 43.9448C114.585 44.2939 114.328 44.6478 114.078 45.009L113.979 45.0381C113.736 45.3727 113.496 45.7096 113.256 46.0466C113.2 46.1121 113.086 46.243 113.031 46.306C112.512 46.9896 111.974 47.6587 111.448 48.3351C111.21 48.6503 110.973 48.9654 110.725 49.2709C110.354 49.6854 110.189 50.209 110.114 50.7496C110.008 51.3969 109.836 52.0321 109.627 52.6551C99.5664 52.6454 89.5058 52.6551 79.4452 52.6333C78.4416 52.6018 78.238 51.3945 78.0489 50.6236C76.2161 50.5969 74.3858 50.6042 72.5555 50.6187C72.5434 52.3715 72.5773 54.1266 72.524 55.8793C72.507 56.6066 72.3252 57.3387 71.8186 57.8866C70.8246 57.8551 69.8307 57.8599 68.8392 57.8769C68.6186 58.3618 68.3907 58.8466 68.1483 59.3218C66.941 59.4963 65.741 59.7266 64.541 59.9545C64.3446 59.4939 64.078 59.0381 64.0804 58.5242C64.0077 56.9193 64.124 55.3145 64.2501 53.7169C64.2574 53.6393 64.267 53.4842 64.2743 53.4066C64.4052 50.5072 64.6743 47.6127 64.781 44.7133C64.6331 41.0745 64.4174 37.4381 64.2646 33.7993C64.1701 32.1654 63.6755 30.4539 64.3446 28.8709C65.084 28.9751 65.8283 29.0575 66.5749 29.1181C67.1301 29.1836 67.6877 29.2515 68.2428 29.3145C68.4101 29.666 68.5773 30.0199 68.7398 30.3763C69.7507 30.3836 70.7592 30.3884 71.7701 30.3666C72.4464 31.4648 72.5798 32.786 72.5798 34.0515C72.5774 35.6199 72.5701 37.186 72.5725 38.7545C74.3495 38.7593 76.1264 38.7545 77.9034 38.7569C77.9107 38.0903 77.9131 37.426 77.918 36.7593C81.2246 36.5824 84.541 36.7084 87.8525 36.6309C87.838 35.7339 87.8234 34.8393 87.804 33.9448C85.9155 33.9593 84.027 33.9618 82.1361 33.9787C81.3458 33.9642 80.4876 34.1218 79.7895 33.6539L79.8767 33.4866C79.7822 33.4212 79.5955 33.2903 79.5034 33.2248C79.1252 32.866 78.7495 32.5048 78.3713 32.1509C78.4198 29.8793 78.587 27.6103 78.6792 25.3412C78.861 24.2284 78.8464 22.9581 79.6101 22.049C80.3446 21.8672 81.1325 21.9763 81.8864 21.9084C94.524 21.7412 107.162 21.5521 119.797 21.3678C119.676 22.1606 119.438 22.9315 118.987 23.603C118.805 23.8406 118.628 24.0854 118.454 24.3302C118.391 24.4078 118.267 24.5606 118.204 24.6381C117.911 25.0672 117.615 25.4963 117.314 25.923L117.212 25.9569C117.14 26.0442 116.989 26.2187 116.917 26.306L116.96 26.369C116.449 26.9921 115.928 27.6127 115.532 28.3206L115.28 28.2357L115.423 28.5121C115.351 28.5533 115.205 28.6357 115.13 28.6769C114.827 29.1327 114.502 29.5739 114.17 30.0078C114.037 30.1703 113.906 30.3327 113.777 30.4951C113.145 31.2442 112.769 32.2987 111.811 32.6963C110.752 33.1521 109.739 33.8624 108.539 33.8236C105.297 33.8818 102.054 33.8381 98.8125 33.8963C98.8077 34.8054 98.8077 35.7145 98.8367 36.6236C102.706 36.563 106.58 36.6454 110.444 36.5072C111.639 35.3848 112.585 34.0272 113.753 32.8757L113.734 32.6939L113.932 32.6915C113.996 32.6042 114.122 32.4272 114.185 32.3399C114.32 32.1557 114.459 31.9715 114.597 31.7896L114.677 31.8066C114.762 31.7145 114.929 31.5278 115.014 31.4357L114.972 31.2854L115.171 31.2684C115.229 31.1909 115.343 31.0333 115.402 30.9557C115.625 30.6915 115.853 30.4272 116.08 30.1654C116.139 30.0975 116.26 29.9593 116.32 29.8915C116.788 29.3799 117.251 28.866 117.705 28.3448L117.7 28.2381C117.882 28.0757 118.063 27.9133 118.248 27.7509C118.815 27.0963 119.309 26.2769 120.153 25.9545C122.388 25.8793 124.628 25.9496 126.866 25.9448C126.914 25.8187 127.014 25.569 127.062 25.4454C127.474 25.4284 127.886 25.409 128.301 25.3945C128.461 24.4563 128.517 23.506 128.512 22.5557C130.703 22.5799 132.895 22.5775 135.086 22.563C134.16 22.5775 133.484 21.8842 132.589 21.8042C132.485 22.0442 132.274 22.5799 131.923 22.2527C131.229 21.7096 130.362 21.6006 129.513 21.5084C129.581 21.0551 129.457 20.5218 129.76 20.1412C130.277 19.7315 130.97 19.906 131.576 19.8624C132.32 19.8915 133.009 19.5133 133.76 19.5763C134.442 19.6466 135.043 19.3072 135.566 18.9121C136.812 18.5121 138.296 18.9315 139.234 19.843C139.69 20.3763 140.434 20.3206 141.062 20.466C141.605 20.5363 142.204 20.7787 142.701 20.4248C143.651 20.3642 144.604 20.3884 145.554 20.3933C145.557 21.346 145.552 22.2987 145.547 23.2539C145.998 23.249 146.449 23.2442 146.902 23.2418C147.196 22.9799 147.482 22.7109 147.802 22.4806C148.369 22.7715 148.829 23.4139 149.545 23.2636C150.139 23.3096 150.4 22.4733 150.994 22.5703C151.448 22.8539 151.821 23.3848 152.429 23.266C153.14 23.3606 153.591 22.706 154.158 22.3957C154.1 20.0272 154.454 17.666 154.216 15.2999C153.705 15.3169 153.188 15.2999 152.684 15.3824C151.676 15.6078 150.829 16.3666 149.768 16.3957C143.986 16.4224 138.202 16.3666 132.42 16.4224C131.76 15.4818 131.76 14.2915 131.678 13.1909C131.659 11.46 131.542 9.63449 132.265 8.01268C137.45 8.01268 142.636 8.01268 147.821 8.01268C148.808 8.0248 149.819 7.91086 150.776 8.21389L150.817 8.23813C151.191 8.42237 151.566 8.60177 151.947 8.77389C152.044 8.82723 152.233 8.93147 152.328 8.9848C152.958 9.02844 153.591 9.04056 154.226 9.04298C154.316 8.49753 154.442 7.95935 154.611 7.43329C156.936 7.40904 159.261 7.41147 161.583 7.43086C161.731 7.96419 161.865 8.50238 161.983 9.04541C163.518 9.02844 165.052 9.03813 166.589 9.03813C166.655 8.41268 167.067 8.17026 167.668 8.20662C167.874 7.40662 168.08 6.60661 168.316 5.81389C168.517 5.80904 168.922 5.80177 169.125 5.79692C169.099 5.21995 169.077 4.64055 169.062 4.06358ZM161.966 15.3266C161.947 16.8103 161.85 18.2963 162.003 19.7751C167.729 19.729 173.462 19.8672 179.186 19.7048C179.217 18.2575 179.336 16.7909 179.14 15.3533C177.966 15.283 176.791 15.346 175.62 15.3266C175.566 15.5933 175.518 15.8575 175.469 16.1242C174.621 16.2187 173.414 15.8236 173.038 16.8636C171.758 17.0115 170.468 17.0163 169.191 16.8393C168.893 15.7993 167.659 16.2066 166.849 16.0563C166.762 15.809 166.677 15.5618 166.594 15.3169C165.052 15.3387 163.508 15.3242 161.966 15.3266ZM228.364 22.2212C228.211 22.3787 228.061 22.5412 227.918 22.706C228.078 22.8393 228.4 23.1084 228.56 23.2418C229.106 23.2442 229.654 23.2442 230.204 23.2393C230.439 23.0139 230.682 22.7909 230.924 22.5678C231.159 22.8006 231.397 23.0309 231.637 23.2636C232.473 23.2903 233.399 23.3654 233.891 22.5412C234.209 22.8345 234.539 23.1133 234.893 23.3678C234.919 22.8539 234.941 22.3424 234.958 21.8333C233.7 21.7872 232.454 21.5739 231.196 21.5909C230.316 22.0612 229.377 22.3666 228.364 22.2212ZM235.869 25.4212C235.867 25.7969 235.869 26.1727 235.874 26.5484C237.096 26.5702 238.318 26.563 239.542 26.5727C239.537 27.1763 239.533 27.7799 239.525 28.386C239.399 28.3933 239.147 28.4054 239.021 28.4127C239.014 28.5848 238.994 28.9315 238.985 29.1036C239.297 29.1084 239.613 29.1157 239.93 29.1254C239.92 29.6393 239.809 30.1363 239.462 30.5315C244.051 30.5387 248.64 30.5169 253.227 30.5436C253.901 28.9242 253.867 27.1739 253.821 25.4551C247.838 25.3799 241.853 25.4454 235.869 25.4212ZM72.2816 40.6818C72.1725 42.4296 72.2525 44.1824 72.2186 45.9351C72.1701 46.8757 72.5846 47.7557 72.621 48.6915C74.3834 48.6963 76.1434 48.689 77.9034 48.6939C77.9131 46.0199 77.9058 43.3436 77.9083 40.6696C76.0319 40.6745 74.1555 40.6575 72.2816 40.6818ZM155.916 47.2466C155.377 47.8503 154.968 48.5848 154.677 49.3363C154.851 50.4418 155.348 51.4696 155.562 52.5702C157.423 52.643 159.288 52.6478 161.152 52.6915C162.037 52.786 162.762 52.2042 163.508 51.8357C163.46 50.2793 163.421 48.7254 163.377 47.1715C163.191 46.9315 163.004 46.6915 162.822 46.4563C162.759 46.3836 162.638 46.243 162.577 46.1703C162.415 45.9909 162.252 45.8115 162.092 45.6321C160.798 45.6612 159.499 45.5593 158.209 45.6757C157.375 46.0781 156.65 46.6842 155.916 47.2466ZM151.729 46.643C151.739 48.0999 151.731 49.5618 151.785 51.0187C151.753 51.6272 152.216 52.1121 152.652 52.4757C153.273 52.5848 153.908 52.5484 154.536 52.5678C154.262 51.9351 154 51.2975 153.734 50.6648C153.44 50.0078 153.152 49.3218 153.203 48.5848C153.118 47.6878 153.469 46.5484 152.655 45.8963C152.318 46.1072 152.025 46.3787 151.729 46.643Z" fill="white"/>
</g>
<defs>
<clipPath id="clip0_79_1114">
<rect width="320" height="80" fill="white"/>
</clipPath>
</defs>
</svg>
