<svg width="320" height="80" viewBox="0 0 320 80" fill="none" xmlns="http://www.w3.org/2000/svg">
<g clip-path="url(#clip0_79_1106)">
<path d="M181.774 1.40039C182.028 1.40268 182.284 1.40268 182.542 1.40497C182.905 2.93411 182.981 4.51125 183.294 6.04725C183.977 6.10211 184.663 6.06782 185.347 6.06097C185.445 5.88954 185.543 5.71582 185.641 5.54668C186.197 5.54439 186.752 5.54439 187.308 5.55125C187.493 5.88268 187.737 6.13868 188.156 6.12953C188.158 5.63582 188.163 5.14439 188.165 4.65296C189.255 4.60725 190.348 4.61411 191.44 4.65982C191.44 5.28839 191.443 5.91696 191.445 6.54554C194.368 6.55696 197.289 6.54554 200.213 6.55239C201.397 6.62782 202.007 5.24039 203.161 5.16039C204.949 4.94097 206.752 5.21068 208.547 5.18096C208.595 4.74668 208.627 4.31011 208.679 3.87811C209.033 3.8964 209.388 3.91925 209.744 3.93982C209.811 4.39011 209.863 4.84039 209.927 5.29296C210.115 5.27925 210.489 5.24953 210.677 5.23582C210.464 7.08496 209.799 8.84268 209.212 10.5981C208.693 11.9375 208.284 13.3524 207.433 14.5295C207.095 14.3055 206.716 14.2461 206.327 14.3375C206.501 14.3901 206.846 14.4975 207.02 14.5501C206.846 14.9158 206.677 15.2838 206.508 15.6495C207.648 15.6655 208.793 15.6061 209.934 15.7135C209.932 16.2141 209.936 16.7147 209.943 17.2175C210.533 17.2107 210.974 16.8221 211.395 16.4587C211.824 16.8587 212.286 17.2838 212.926 17.1764C213.173 16.925 213.426 16.6804 213.683 16.4381C213.982 16.6735 214.279 16.9181 214.581 17.1581C214.777 17.1581 215.171 17.1581 215.367 17.1581C215.401 17.0004 215.465 16.6827 215.5 16.5227C218.208 16.5044 220.919 16.5021 223.63 16.525C223.687 17.2061 223.708 17.8918 223.724 18.5775C223.769 18.3215 223.815 18.0701 223.865 17.8187C236.096 17.8164 248.329 17.8187 260.56 17.8187C266.451 17.805 272.343 17.8804 278.231 17.6884C278.227 16.9295 278.229 16.173 278.229 15.4141C279.717 15.1033 281.196 14.7124 282.711 14.5501C284.782 14.4404 286.86 14.4427 288.933 14.2964C288.93 15.4141 288.924 16.5295 288.951 17.6473C289.353 17.1398 289.961 17.1033 290.565 17.1421C290.64 17.8735 290.711 18.6072 290.78 19.3432C292.099 19.3364 293.42 19.3387 294.741 19.341C294.745 19.5055 294.759 19.8347 294.764 19.9993C294.345 19.997 293.932 19.997 293.518 19.997C293.513 20.4404 293.513 20.8861 293.516 21.3318C293.927 21.3318 294.341 21.3295 294.759 21.3318C294.759 21.4941 294.757 21.8187 294.755 21.981C293.426 21.9764 292.101 21.981 290.775 21.9764C290.718 22.6873 290.656 23.3981 290.588 24.109C290.115 24.1798 289.57 24.0998 289.202 24.4678C291.989 24.5798 294.784 24.4884 297.573 24.5181C300.387 24.4953 303.205 24.5638 306.016 24.4884C307.326 24.1981 308.654 23.9832 310.003 24.093C310.076 23.9878 310.224 23.7798 310.297 23.677C313.543 23.6907 316.786 23.6747 320.032 23.6861C320.336 25.2221 320.354 26.8198 320.03 28.3558C316.775 28.3833 313.518 28.3444 310.261 28.3695C310.192 28.2667 310.057 28.0633 309.989 27.9604C308.979 27.9833 307.952 28.0198 306.974 27.7387C305.998 27.4507 304.979 27.5467 303.98 27.5398C299.088 27.5421 294.197 27.533 289.305 27.5421C289.273 27.9215 289.246 28.3033 289.219 28.685C288.617 28.6827 288.016 28.685 287.417 28.685C287.388 30.269 287.456 31.853 287.429 33.437C286.734 33.4347 286.041 33.4347 285.351 33.4324C285.317 31.9993 285.378 30.5684 285.358 29.1375C284.976 29.1284 284.599 29.1261 284.222 29.1215C284.204 28.9592 284.165 28.6347 284.146 28.4747C283.92 28.4678 283.472 28.4564 283.246 28.4495C283.159 29.3638 283.12 30.2804 283.045 31.197C282.759 31.197 282.476 31.1993 282.195 31.2038C281.47 32.5364 280.846 33.9238 280.096 35.2427C265.033 35.1924 249.968 35.2358 234.903 35.2221C234.073 34.7352 233.358 33.9787 232.435 33.7021C228.928 33.6427 225.417 33.6473 221.911 33.6221C221.305 33.6267 220.661 33.5535 220.117 33.8758C218.35 34.7467 216.569 35.597 214.78 36.4244C214.805 37.6038 214.659 38.781 214.7 39.9604C214.896 40.5021 215.443 40.893 215.493 41.4895C215.18 41.693 214.791 41.7204 214.444 41.8233C214.334 44.2804 214.857 46.6873 215.317 49.085C216.563 53.709 217.817 58.3284 219.093 62.9433C219.127 63.2335 219.381 63.6221 219.072 63.8484C218.803 64.0838 218.437 64.1455 218.112 64.2644C213.589 65.645 209.102 67.1353 204.569 68.4861C203.376 63.629 202.112 58.7901 200.892 53.9398C200.512 52.6164 200.375 51.245 200.16 49.8895C199.909 48.0701 199.522 46.2575 199.555 44.413C199.164 44.4747 198.775 44.541 198.387 44.6073C198.423 44.3924 198.499 43.9604 198.535 43.7455C196.192 43.8278 193.859 43.5832 191.516 43.6632C188.999 43.7158 186.473 43.5992 183.966 43.8758C183.086 43.7844 182.247 44.0358 181.411 44.2735C179.212 47.6861 177.305 51.2747 175.23 54.7604C175.008 55.149 174.748 55.5284 174.62 55.9627C174.707 56.5181 175.134 57.0553 174.892 57.629C174.782 57.8621 174.764 58.2393 174.441 58.2804C173.31 58.1844 172.252 57.7295 171.196 57.3387C168.153 56.1387 165.059 55.0575 162.078 53.7044C162.055 52.8541 162.505 52.0838 162.937 51.3821C165.36 48.2438 167.827 45.1353 170.259 42.0015C170.75 41.4004 170.59 40.5593 170.757 39.8461C170.787 39.2061 171.102 38.4815 170.691 37.9101C170.092 36.9775 169.47 36.0587 168.871 35.1284C168.631 35.1124 168.391 35.0964 168.153 35.085C168.151 34.7581 168.151 34.4335 168.151 34.109C167.161 34.0404 166.174 33.9444 165.187 33.8758C165.027 32.5981 164.967 31.309 164.937 30.0221C164.252 30.0312 163.566 30.0427 162.88 30.0564C162.876 30.6873 162.873 31.3204 162.876 31.9535C162.807 32.0221 162.67 32.1593 162.601 32.2278C162.581 32.9113 162.556 33.5947 162.547 34.2804C162.14 34.6735 161.79 35.3227 161.129 35.229C159.123 35.2587 157.116 35.1947 155.109 35.2518C155.061 36.221 155.102 37.1924 155.312 38.1433C153.408 38.3101 151.5 38.3718 149.593 38.4632C149.593 39.2244 149.593 39.9878 149.589 40.749C149.075 40.7467 148.56 40.749 148.048 40.7444C148.044 40.0015 148.041 39.2587 148.035 38.5181C147.257 38.5867 146.343 38.3718 145.717 38.957C143.516 40.733 141.23 42.3947 138.99 44.1181C138.508 44.5227 137.859 44.5593 137.269 44.6873C137.331 43.9878 137.155 43.2153 137.452 42.5661C138.407 41.4278 139.507 40.4175 140.462 39.277C138.99 39.7912 137.552 40.4175 136.137 41.069C134.988 42.2804 134.003 43.6473 132.928 44.9273C132.096 46.0953 130.784 46.7627 129.797 47.773C129.175 48.9798 128.672 50.2507 128.156 51.5101C127.977 51.5147 127.616 51.5215 127.438 51.5261C127.326 51.901 127.216 52.2781 127.109 52.6553C126.071 52.6621 125.031 52.6667 123.993 52.6507C123.55 52.0838 123.013 51.549 122.821 50.8335C122.503 49.7958 122.099 48.7787 121.943 47.6998C121.347 43.997 120.691 40.3055 120.101 36.6027C120.003 33.453 120.053 30.2964 120.014 27.1444C120.044 25.0598 119.801 22.8975 120.567 20.9067C120.876 20.7078 121.155 20.3741 121.561 20.4198C122.608 20.4244 123.669 20.3444 124.711 20.4701C125.509 20.8907 125.507 21.8873 125.797 22.637C137.646 22.6095 149.497 22.6324 161.347 22.6255C161.767 22.653 162.124 22.4038 162.489 22.237C162.572 22.349 162.736 22.573 162.819 22.685C164.023 22.6804 165.429 23.0667 166.439 22.1981C167.806 20.973 169.189 19.7615 170.556 18.5364C171.038 18.525 171.52 18.5181 172.003 18.5181C171.753 17.8827 171.543 17.2244 171.529 16.5387C172.88 16.4884 174.231 16.5067 175.582 16.5273C175.703 16.7741 175.822 17.0233 175.945 17.2701C176.323 17.021 176.688 16.7444 177.084 16.5227C177.628 16.509 178.032 17.005 178.496 17.2404C178.896 16.9638 179.273 16.301 179.84 16.5844C180.217 16.8267 180.574 17.1193 181.02 17.2381C181.141 16.9935 181.264 16.7513 181.39 16.509C182.633 16.5227 183.881 16.477 185.125 16.5524C185.168 16.717 185.253 17.0461 185.296 17.2107C185.886 17.2153 186.318 16.8198 186.713 16.4358C187.269 16.6987 187.724 17.2244 188.387 17.1855C188.403 16.093 188.567 15.0004 188.485 13.9078C188.517 13.4827 187.945 13.6564 187.696 13.5855C187.376 14.4404 186.425 14.1113 185.728 14.157C185.605 13.9718 185.481 13.7867 185.358 13.6038C183.987 13.597 182.615 13.597 181.244 13.6015C181.189 13.7524 181.077 14.0541 181.022 14.205C180.823 14.2255 180.428 14.2621 180.231 14.2804C179.628 13.0301 179.726 11.6038 179.635 10.2553C179.644 8.67811 179.646 7.07353 180.076 5.54439C180.425 5.54896 180.777 5.55354 181.129 5.55582C181.303 4.16382 181.504 2.77639 181.774 1.40039ZM282.869 18.0015C283.349 18.2255 283.891 18.2438 284.375 18.0107C283.891 17.7844 283.356 17.8027 282.869 18.0015ZM274.384 33.6335C275.82 33.7958 277.262 33.9193 278.697 34.0861C278.812 33.1261 278.933 32.1661 279.013 31.2038C278.24 31.2038 277.47 31.2038 276.7 31.1924C275.909 31.9878 275.145 32.8107 274.384 33.6335ZM155.23 31.8118C155.23 32.8084 155.173 33.8027 155.123 34.797C157.111 34.8061 159.097 34.8084 161.086 34.797C161.28 34.5821 161.479 34.3695 161.678 34.1593C161.694 33.4667 161.712 32.7764 161.735 32.0861C159.575 31.8301 157.404 31.773 155.23 31.8118ZM127.253 32.5821C127.253 33.0095 127.253 33.4393 127.255 33.869C129.605 33.8941 131.957 33.8667 134.307 33.8827C134.309 33.4484 134.313 33.0141 134.316 32.5821C131.961 32.573 129.607 32.5775 127.253 32.5821ZM188.204 42.8244C187.989 42.8313 187.774 42.8358 187.561 42.8381C187.077 42.0038 186.471 41.2381 186.064 40.3627C185.653 39.0918 185.191 37.789 185.294 36.4313C184.759 36.5867 184.224 36.7375 183.692 36.893C183.724 37.0095 183.79 37.2404 183.822 37.3547C184.217 37.2313 184.606 37.0964 185.004 36.9752C185.132 37.4187 185.189 37.8781 185.093 38.3375C184.615 38.2598 184.144 38.1524 183.673 38.045C183.625 38.9593 183.587 39.8735 183.573 40.7878C184.211 41.597 185.086 42.237 185.486 43.2153C188.339 43.2221 191.189 43.1078 194.041 43.1033C194.462 43.1513 194.768 42.8335 195.072 42.6004C195.98 41.8964 196.455 40.8175 197.166 39.9421C196.869 38.6781 197.024 37.1101 195.854 36.2621C193.223 36.2438 190.59 36.2758 187.959 36.2438C187.639 38.4267 187.525 40.6941 188.204 42.8244Z" fill="white"/>
</g>
<defs>
<clipPath id="clip0_79_1106">
<rect width="320" height="80" fill="white"/>
</clipPath>
</defs>
</svg>
