<svg width="80" height="80" viewBox="0 0 80 80" fill="none" xmlns="http://www.w3.org/2000/svg">
<path d="M37.5796 28.5685C40.5886 28.5685 44.1849 28.9503 46.2633 29.207C47.2515 29.3291 47.9796 30.1727 47.9796 31.1685L50.0214 34.1226C50.7322 35.1509 51.1129 36.3714 51.1129 37.6215V65.8469C51.1129 66.0101 51.0481 66.1666 50.9327 66.282L50.8247 66.3901C50.7958 66.4189 50.7796 66.458 50.7796 66.4988V67.6146C50.7796 67.6996 50.8485 67.7685 50.9334 67.7685H51.5825C51.6233 67.7685 51.6625 67.7522 51.6913 67.7234L52.2426 67.1722C52.4157 66.999 52.5129 66.7643 52.5129 66.5194V36.5051C52.5129 35.7104 52.359 34.9232 52.0596 34.1871L46.0186 19.331C45.995 19.273 45.9387 19.2351 45.8761 19.2351H45.6668C45.5818 19.2351 45.513 19.1662 45.513 19.0813V18.3223C45.513 18.2373 45.4441 18.1685 45.3591 18.1685H44.5335C44.4485 18.1685 44.3796 18.2373 44.3796 18.3223V18.4351C43.6463 19.0351 43.113 20.1018 43.113 20.1018V19.789C43.113 19.704 43.0441 19.6351 42.9591 19.6351H32.4617C32.1219 19.6351 31.8463 19.9106 31.8463 20.2505V21.8351H31.7335C31.6486 21.8351 31.5797 21.904 31.5797 21.989V22.8813C31.5797 22.9662 31.6486 23.0351 31.7335 23.0351H33.2463L33.7797 23.8351V26.8351L33.2463 27.5018V28.7625C34.678 28.6497 36.1913 28.5685 37.5796 28.5685Z" fill="white"/>
<path fill-rule="evenodd" clip-rule="evenodd" d="M27.1797 70.7503C27.1797 70.931 27.2573 71.1006 27.4033 71.207C28.2779 71.8443 31.7116 74.0351 37.5796 74.0351C43.4477 74.0351 46.8814 71.8443 47.756 71.207C47.902 71.1006 47.9796 70.931 47.9796 70.7503V31.1685C47.9796 30.1727 47.2515 29.3291 46.2633 29.207C44.1849 28.9503 40.5886 28.5685 37.5796 28.5685C36.1913 28.5685 34.678 28.6497 33.2463 28.7625C30.8418 28.9519 28.6678 29.2302 27.7044 29.3615C27.4021 29.4027 27.1797 29.6611 27.1797 29.9663V70.7503ZM28.2464 63.1018C28.2464 63.1018 36.513 64.1018 37.5796 64.1018C38.6463 64.1018 46.9129 63.1018 46.9129 63.1018V59.8351C46.9129 59.8351 38.6463 60.8351 37.5796 60.8351C36.513 60.8351 28.2464 59.8351 28.2464 59.8351V63.1018Z" fill="white"/>
</svg>
