<svg width="320" height="80" viewBox="0 0 320 80" fill="none" xmlns="http://www.w3.org/2000/svg">
<g clip-path="url(#clip0_79_1115)">
<path d="M157.809 10.6786C160.33 10.5962 162.875 10.4531 165.384 10.7853C165.416 12.3804 165.3 13.9731 165.06 15.5513C165.496 15.8568 165.872 16.3828 166.463 16.344C167.741 16.3731 169.021 16.3392 170.298 16.344C170.344 16.1768 170.434 15.8398 170.48 15.6725C171.93 15.6677 173.38 15.6386 174.829 15.6337C174.846 15.8204 174.88 16.1937 174.897 16.3804C176.657 16.378 178.325 15.7404 180.032 15.3889C182.068 14.9453 184.073 14.3077 186.133 14.0095C191.363 14.1283 196.597 14.2107 201.823 14.3925C201.869 18.2398 201.872 22.0871 201.821 25.9343C198.601 26.0847 195.375 26.0968 192.153 26.1768C189.983 26.1647 187.811 26.4192 185.646 26.2713C183.464 25.801 181.307 25.2119 179.13 24.7246C177.734 24.4265 176.364 23.9028 174.914 23.961C174.895 25.3768 174.9 26.7925 174.907 28.2083C177.137 28.2228 179.367 28.1986 181.6 28.2228C181.821 27.9416 182.044 27.658 182.269 27.3768C183.123 27.7453 183.978 28.1162 184.829 28.4992C184.832 28.8095 184.834 29.1222 184.841 29.435C185.324 29.4325 185.811 29.4301 186.298 29.4277C186.308 29.6119 186.325 29.9828 186.335 30.1671C188.281 30.2616 190.23 30.2665 192.172 30.424C194.684 30.618 197.176 31.064 199.7 31.1125C232.846 31.1465 265.993 31.2337 299.137 31.275C299.273 30.8507 299.411 30.424 299.552 30.0022C300.083 29.995 300.616 29.9877 301.154 29.9804C301.253 30.1962 301.36 30.4168 301.469 30.6374C303.103 30.6519 304.742 30.5913 306.378 30.6544C306.999 30.9065 307.593 31.2434 308.262 31.3889C308.917 30.9259 309.639 30.4774 310.485 30.5646C313.069 30.6422 315.653 30.5525 318.24 30.5598C318.742 30.5501 319.239 30.6398 319.733 30.7465C320.264 32.4265 320.245 34.2325 319.988 35.961C319.86 36.3562 319.78 37.0907 319.222 37.0543C316.141 37.0859 313.06 37.0616 309.978 37.0665C309.152 37.1562 308.601 36.0895 307.777 36.3925C305.758 37.0034 303.641 36.6083 301.578 36.7731C301.389 37.0665 301.256 37.3889 301.108 37.704C300.587 37.6871 300.068 37.6822 299.554 37.6677C299.372 37.1101 299.193 36.555 299.011 36.0022C282.507 36.0265 266.005 36.0604 249.501 36.0919C249.493 37.3986 249.496 38.7077 249.501 40.0143C249.661 40.0119 249.978 40.0047 250.138 40.0022C250.184 39.658 250.24 39.3162 250.296 38.9768C252.524 38.9743 254.754 38.9671 256.984 38.9816C257.086 39.6556 257.166 40.3343 257.237 41.0156C257.426 41.178 257.62 41.3404 257.816 41.5053C257.612 41.6943 257.413 41.8834 257.217 42.0749C257.224 43.5562 257.181 45.035 257.055 46.5137C258.74 46.6107 260.432 46.4556 262.114 46.6422C262.296 47.1659 262.487 47.6895 262.684 48.2131C264.177 48.0507 265.612 48.5768 267.091 48.6277C272.832 48.6253 278.57 48.6228 284.31 48.6277C284.715 48.6834 285.076 48.5525 285.266 48.1695C286.315 48.1453 287.367 48.1671 288.422 48.1356C288.473 47.9416 288.577 47.5513 288.63 47.3574C289.086 47.6725 289.544 47.9877 290.01 48.2956C290.087 48.1186 290.24 47.7598 290.315 47.5828C291.103 48.2859 292.575 48.6859 292.429 49.995C292.308 51.1319 291.072 51.6071 290.274 52.2325C290.209 52.0313 290.078 51.6313 290.012 51.4301C289.544 51.481 289.101 51.6192 288.696 51.8471C288.349 51.2483 287.559 51.5562 286.999 51.4422C286.594 51.2677 286.172 51.0689 285.726 51.195C285.68 51.464 285.649 51.7356 285.632 52.0119C284.686 52.0095 283.743 52.0265 282.8 51.9877C282.24 51.7016 281.605 51.7162 280.999 51.7065C280.98 51.4737 280.963 51.2434 280.953 51.0155C276.257 50.9962 271.561 51.0156 266.868 51.0034C266.497 50.9549 266.167 51.081 265.937 51.3719C264.846 51.4107 263.755 51.3913 262.667 51.3889C262.461 51.9101 262.257 52.4313 262.056 52.9525C260.262 52.9865 258.458 53.0616 256.667 52.921C256.592 52.7756 256.437 52.4846 256.359 52.3392C254.703 52.2713 253.04 52.4119 251.392 52.2325C251.256 50.9477 251.217 49.6531 251.207 48.3634C251.843 47.9222 251.872 47.1586 251.891 46.458C252.027 46.458 252.296 46.4556 252.432 46.4531C252.405 45.6774 252.364 44.904 252.337 44.1283C251.656 44.121 250.977 44.1186 250.298 44.1137C250.238 43.6677 250.18 43.2216 250.133 42.778C249.976 42.7683 249.658 42.7537 249.501 42.744C249.503 43.9077 249.51 45.0689 249.467 46.2325C229.154 46.2422 208.844 46.0313 188.533 45.9974C188.097 45.9343 187.852 46.3489 187.573 46.5962C184.301 50.0968 180.967 53.5368 177.707 57.0495C176.281 56.8095 175.605 58.5113 174.252 58.5016C166.82 58.6568 159.384 58.8386 151.952 59.0422C151.074 59.1683 150.483 58.3925 149.731 58.1065C149.038 58.0313 148.344 58.1089 147.651 58.1259C145.365 58.2446 143.074 58.104 140.788 58.0846C134.643 58.058 128.497 58.041 122.354 58.0216C121.409 58.0313 120.509 57.7307 119.637 57.4059C119.37 56.9162 119.081 56.4386 118.776 55.9731C117.961 57.7356 117.229 59.5368 116.369 61.2774C115.46 62.138 114.289 62.6859 113.312 63.4762C113.152 64.235 112.989 64.9937 112.805 65.7501C112.57 67.098 110.9 67.4422 110.451 68.6883C109.93 69.9586 109.239 71.1853 109.011 72.5574C108.807 73.5853 108.587 74.6131 108.371 75.641C106.849 75.4762 105.367 75.0446 103.867 74.7465C101.52 73.5004 99.2341 72.1307 96.8996 70.8556C96.8074 69.801 96.4729 68.7634 96.502 67.7016C96.8099 66.9404 97.3068 66.2762 97.702 65.5634C98.3177 64.5695 98.7856 63.464 99.6244 62.6301C102.424 59.8228 105.22 57.0107 107.998 54.1816C107.799 52.6665 107.673 51.1465 107.472 49.6337C104.357 49.6337 101.239 49.641 98.1214 49.6313C97.2293 49.5368 96.5844 50.2471 95.8911 50.681C95.8935 51.5974 95.8911 52.5137 95.8814 53.4301C94.7444 53.5586 93.5977 53.5295 92.4559 53.5125C92.2692 53.6556 92.0826 53.801 91.8983 53.9489C91.3602 53.961 90.8244 53.978 90.2886 53.9925C90.0971 54.3222 89.9032 54.6519 89.7141 54.984C88.3468 55.3162 86.9796 54.298 85.6632 54.9113C78.2014 57.641 70.6935 60.2422 63.2438 63.0034C62.9117 63.6071 62.2668 63.8931 61.6971 64.2228C60.0802 65.1731 58.1408 65.2798 56.3105 65.2095C56.3056 68.6519 56.3105 72.0943 56.308 75.5368C56.8874 75.578 57.4668 75.6265 58.0462 75.6992C58.0608 76.8483 58.068 77.9974 58.0438 79.1489C55.988 79.2968 53.9056 79.5537 51.8571 79.1852C51.8571 78.0507 51.8644 76.9162 51.8644 75.784C52.4389 75.7113 53.0135 75.641 53.588 75.5731C53.5686 72.1162 53.588 68.6616 53.5808 65.2046C52.6741 65.1974 51.7699 65.1901 50.8656 65.1974C50.8123 65.8059 50.5432 66.3489 50.1747 66.8289C49.0596 66.7222 47.7286 67.1756 46.8632 66.2495C46.868 66.0022 46.8753 65.755 46.885 65.5125C46.725 65.9974 46.468 66.4386 46.1553 66.8434C45.3359 66.8143 44.519 66.8119 43.6996 66.8434C43.4086 66.5356 43.1638 66.1865 42.9868 65.801C42.9796 66.2083 42.6935 66.4968 42.4486 66.7925C41.0426 66.7101 39.6293 66.8628 38.2256 66.7343C37.3602 66.344 36.5432 65.835 35.7699 65.2871C34.9917 63.7598 34.6183 62.058 34.2693 60.3877C33.942 54.9065 33.9008 49.4034 34.2135 43.9198C34.4317 42.5356 34.7929 41.178 35.108 39.8156C35.3335 39.0156 35.4814 38.0701 36.2232 37.5683C36.8583 37.195 37.5202 36.8459 38.2183 36.6059C39.6123 36.504 41.0135 36.6204 42.4123 36.5816C42.6426 36.9065 42.8705 37.2313 43.0935 37.5634C43.2826 37.2095 43.445 36.8313 43.7165 36.5307C44.5408 36.4192 45.3796 36.4919 46.2111 36.4895C46.5214 36.938 46.788 37.4228 46.8632 37.9756C46.9747 37.4446 47.1953 36.9477 47.4814 36.4895C48.405 36.4774 49.3262 36.4749 50.2499 36.4968C50.4656 36.9259 50.6571 37.3646 50.8244 37.8156C53.8256 37.8349 56.8244 37.8277 59.8232 37.818C61.0741 37.7113 62.0656 38.5889 63.1153 39.115C63.108 40.4943 63.1056 41.8737 63.1177 43.2531C64.405 43.2556 65.6923 43.2483 66.9795 43.2628C67.0208 41.8253 66.9941 40.3877 67.0014 38.9477C66.8317 38.9404 66.4899 38.9259 66.3177 38.9186C66.3153 38.2689 66.3153 37.6216 66.3129 36.9743C65.702 36.9574 65.0911 36.9404 64.4826 36.9186C64.5674 34.9477 64.1844 32.875 65.028 31.018C75.7117 31.0543 86.3953 30.9453 97.0789 31.0204C97.4474 31.7016 97.9274 32.3247 98.2329 33.0398C98.3153 33.9634 98.3056 34.904 98.2111 35.8277C97.5711 36.9307 96.708 37.8883 95.988 38.938C88.8099 38.9331 81.6341 38.938 74.4583 38.9356C74.468 40.3756 74.4389 41.8204 74.4802 43.2628C80.4802 43.2362 86.4777 43.2895 92.4753 43.2386C92.468 42.7877 92.4608 42.3368 92.4559 41.8883C93.5153 41.8156 94.5796 41.8107 95.6414 41.8737C95.6341 42.2956 95.6244 42.7174 95.6171 43.144C97.8305 43.1343 100.039 43.3137 102.252 43.2531C103.564 43.2022 104.907 43.4131 106.189 43.0568C110.744 41.675 115.309 40.3271 119.862 38.9428C121.758 38.1428 123.787 37.7743 125.758 37.2071C126.55 36.9743 127.358 36.7659 128.189 36.744C127.784 36.7562 127.38 36.7683 126.977 36.7828C127.595 35.6556 128.022 34.4192 128.737 33.3525C129.714 32.538 130.744 31.7574 131.855 31.1295C133.203 30.6398 134.546 30.0798 135.944 29.7477C138.723 29.5877 141.51 29.4956 144.296 29.4883C144.296 29.2919 144.298 28.8992 144.301 28.7028C145.152 28.2107 146.017 27.7453 146.892 27.2992C147.287 27.6337 147.581 28.1646 148.126 28.2713C148.638 27.6483 148.097 26.6956 148.572 26.024C148.589 25.4083 148.582 24.795 148.575 24.184C146.073 24.4847 143.537 24.3586 141.026 24.2543C140.866 24.4143 140.708 24.5768 140.553 24.7392C138.456 24.9549 136.32 24.5962 134.247 25.0446C133.763 25.1392 133.268 25.1513 132.778 25.1537C129.033 25.1368 125.287 25.1562 121.542 25.144C120.907 23.4859 120.994 21.675 120.958 19.9319C120.992 18.3416 120.917 16.6883 121.515 15.1804C124.873 15.1828 128.23 15.1828 131.588 15.1804C132.509 15.1853 133.44 15.1222 134.352 15.2968C136.235 15.7186 138.177 15.4156 140.087 15.5416C140.613 15.5634 140.98 16.0677 141.51 16.0701C143.857 16.1331 146.211 15.9998 148.555 16.1477C148.616 16.0434 148.737 15.8374 148.798 15.7331C150.245 15.578 151.714 15.6871 153.169 15.6289C153.222 15.864 153.278 16.1016 153.333 16.3416C154.563 16.3465 155.794 16.3489 157.026 16.3392C157.37 16.0168 157.719 15.6968 158.073 15.3792C157.78 13.8301 157.765 12.2495 157.809 10.6786ZM153.37 23.9877C153.355 24.6737 153.35 25.3622 153.348 26.0507C159.001 26.0362 164.655 26.058 170.306 25.9634C170.31 25.3016 170.308 24.6398 170.303 23.9804C168.878 23.9853 167.455 23.9683 166.032 23.9925C165.586 24.3465 165.178 24.8968 164.541 24.8216C162.521 24.8459 160.497 24.8653 158.48 24.8071C157.809 24.8119 157.479 23.9998 156.817 23.9974C155.668 23.9562 154.519 24.0047 153.37 23.9877ZM121.675 49.6677C121.13 50.2713 120.567 50.8556 120.005 51.4422C120.005 52.6301 120.015 53.818 120.022 55.0059C120.645 55.6192 121.268 56.235 121.884 56.8556C126.378 56.8556 130.873 56.8046 135.37 56.8386C136.037 54.8095 136.567 52.7392 137.161 50.6859C136.645 50.3004 136.184 49.6628 135.474 49.7016C133.287 49.6822 131.103 49.704 128.919 49.6725C127.624 49.6046 126.424 50.1549 125.178 50.4095C124.79 50.9452 124.286 51.4325 124.063 52.0677C123.983 52.8143 123.983 53.5756 124.08 54.3198C124.303 55.1586 124.931 55.8616 124.938 56.761C124.104 56.2277 123.763 55.241 123.27 54.4265C122.975 53.5513 122.98 52.5937 122.984 51.6774C123.227 50.9695 123.634 50.3343 123.973 49.6725C123.207 49.658 122.441 49.6531 121.675 49.6677ZM63.1105 53.9901C63.1153 56.5331 63.1032 59.0737 63.1177 61.6168C70.1214 59.1077 77.1105 56.5477 84.1068 54.0144C80.8947 53.9489 77.6777 54.0022 74.4656 53.9852C74.4656 54.984 74.468 55.9804 74.4511 56.9792C71.9929 56.9695 69.5323 57.0204 67.0741 56.9622C66.902 55.9877 67.0402 54.9743 67.0014 53.9852C65.7044 53.9852 64.4074 53.9828 63.1105 53.9901Z" fill="white"/>
</g>
<defs>
<clipPath id="clip0_79_1115">
<rect width="320" height="80" fill="white"/>
</clipPath>
</defs>
</svg>
