<svg width="320" height="80" viewBox="0 0 320 80" fill="none" xmlns="http://www.w3.org/2000/svg">
<g clip-path="url(#clip0_79_1090)">
<path d="M308.19 4.3603C310.087 4.55364 311.167 2.61364 312.9 2.33697C313.913 2.25697 314.07 3.40697 314.143 4.15364C314.843 4.49697 315.61 4.67031 316.367 4.85364C316.43 5.87364 316.487 6.89697 316.527 7.9203C317.853 7.95364 319.143 8.28697 320.46 8.4403C320.513 9.95697 320.51 11.4736 320.44 12.9903C319.913 12.9803 319.387 12.9703 318.863 12.9636C318.747 13.0636 318.507 13.2636 318.39 13.3636C317.757 13.357 317.133 13.3703 316.51 13.377C316.477 14.437 316.437 15.497 316.38 16.557C314.433 16.7136 312.497 16.167 310.557 16.4903C308.9 16.727 307.243 16.2136 305.587 16.4403C304.357 16.6103 303.113 16.5836 301.883 16.427C300.553 16.2636 299.23 16.607 297.903 16.5436C294.913 16.167 291.93 16.7703 288.933 16.5936C288.817 18.1803 288.89 19.797 288.493 21.3536C287.47 21.347 286.45 21.3436 285.43 21.357C283.9 22.917 282.343 24.4503 280.78 25.9736C280.763 28.5136 280.773 31.0536 280.77 33.5936C281.183 33.7636 281.607 33.9203 282.007 34.1336C282.27 34.6336 282.063 35.2303 281.553 35.467C280.677 35.8803 279.673 35.837 278.74 35.9903C278.747 49.6436 278.733 63.2936 278.747 76.947C279.007 76.9503 279.523 76.9537 279.783 76.9537C279.773 77.4237 279.763 77.897 279.753 78.3703C279.527 78.5737 279.3 78.7803 279.077 78.987C275.127 79.2136 271.18 79.4503 267.23 79.6603C267.14 78.7037 267.41 77.8336 268.293 77.3636C268.343 63.5536 268.297 49.747 268.317 35.937C268.043 35.9336 267.493 35.9237 267.22 35.9203C267.057 36.6337 266.89 37.3436 266.723 38.057C266.18 38.147 265.447 38.657 265.02 38.0703C264.213 37.2903 265.37 36.457 265.817 35.8503C265.163 35.787 264.517 35.717 263.87 35.647C263.77 35.4536 263.563 35.0703 263.46 34.877C263.557 34.697 263.753 34.337 263.85 34.1536C264.01 34.0903 264.33 33.9637 264.49 33.9003C264.497 33.4237 264.503 32.947 264.513 32.4736C259.313 32.4703 254.113 32.4836 248.913 32.467C248.077 33.1303 247.06 33.717 246.713 34.797C244.52 40.237 242.267 45.6536 240.113 51.1136C240.27 51.9436 240.41 52.777 240.537 53.617C236.963 53.5936 233.463 52.817 229.94 52.3337C227.62 51.937 225.243 51.7803 223 51.027C223.337 48.707 224.05 46.4803 225.023 44.357C226.06 41.947 226.84 39.4103 228.183 37.1403C229.957 34.007 231.683 30.847 233.463 27.717C234.08 26.807 233.613 25.697 233.46 24.7203C233.297 23.2836 232.157 22.2636 231.117 21.3903C229.607 21.1936 227.973 21.6503 226.59 20.837C225.13 20.3603 224.613 18.7836 224.03 17.5236C223.977 15.9936 223.957 14.4603 223.717 12.947C223.853 11.317 224.223 9.67031 224.927 8.19364C225.163 7.60364 225.87 7.66364 226.373 7.49364C226.58 6.56364 226.837 5.64364 227.157 4.74364C228.473 4.7403 229.79 4.74697 231.11 4.74364C230.957 4.17697 230.81 3.60697 230.677 3.04363C231.587 2.9203 232.047 3.63364 232.477 4.29031C240.19 4.35364 247.903 4.25364 255.617 4.39364C256.407 4.86364 257.35 4.74364 258.233 4.75697C262.76 4.72697 267.29 4.75364 271.82 4.74364C271.947 4.41364 272.073 4.08364 272.203 3.75364C272.85 3.60364 273.527 3.23697 274.19 3.52363C274.73 3.76697 275.047 4.30697 275.437 4.73364C281.483 4.78364 287.53 4.68697 293.577 4.81363C295.687 5.2403 297.8 4.53363 299.913 4.87697C300.803 5.00363 301.703 4.98364 302.593 4.8603C304.413 4.58697 306.227 5.1103 308.053 4.9603C308.09 4.8103 308.157 4.5103 308.19 4.3603ZM310.7 4.24697C311.61 4.27364 312.523 4.27697 313.437 4.28363C313.403 3.93363 313.333 3.23697 313.3 2.88697C312.307 3.0603 311.467 3.62364 310.7 4.24697ZM291.063 6.50697C291.48 6.98031 291.773 7.84697 292.563 7.71364C293.137 7.6903 293.473 7.11364 293.933 6.84031C293.097 6.14031 292.04 6.29697 291.063 6.50697ZM296.517 6.81697C297.147 7.22697 297.807 8.0303 298.65 7.6903C298.973 7.41364 299.23 7.04031 299.223 6.60031C298.36 6.06697 297.307 6.23364 296.517 6.81697ZM303.15 6.60031C302.997 6.88031 302.843 7.15697 302.717 7.4503C303.36 7.9203 304.113 7.61698 304.777 7.36364C304.79 7.18364 304.813 6.82697 304.827 6.64697C304.267 6.6303 303.703 6.61364 303.15 6.60031ZM307.7 6.66698C308.11 7.45031 308.903 7.78031 309.75 7.84031C310.04 7.44364 310.333 7.05031 310.62 6.65364C309.643 6.62364 308.67 6.62031 307.7 6.66698ZM290.977 14.5936C291.937 15.057 293 15.227 293.933 14.5836C293.327 14.207 292.75 13.417 291.95 13.6236C291.593 13.9136 291.287 14.257 290.977 14.5936ZM296.537 14.5736C297.433 15.0203 298.43 15.107 299.41 14.9236C299.063 14.3503 298.707 13.547 297.9 13.637C297.257 13.5436 296.95 14.2336 296.537 14.5736ZM302.103 14.6703C302.967 14.927 303.94 15.2903 304.803 14.797C304.97 14.077 304.117 13.737 303.557 13.597C302.823 13.4236 302.497 14.2236 302.103 14.6703ZM307.717 14.1203C307.837 14.3336 308.083 14.7603 308.203 14.977C309.063 15.077 309.94 15.0336 310.73 14.637C310.34 14.3103 309.997 13.9203 309.54 13.6936C308.883 13.437 308.293 13.8836 307.717 14.1203ZM251.863 22.0803C250.94 24.2303 250.083 26.417 249.197 28.5836C248.697 29.3736 249.503 30.0903 249.777 30.807C254.497 30.8503 259.22 30.827 263.943 30.827C264.973 29.6136 264.55 27.977 264.63 26.527C264.643 25.047 264.86 23.307 263.58 22.237C261.55 20.7136 258.857 21.5436 256.52 21.3503C256.433 22.947 255.82 24.8003 256.903 26.1936C257.743 27.5636 259.517 27.8836 260.453 29.1703C258.493 28.9603 256.42 28.1303 255.36 26.3803C254.2 24.9437 254.48 23.0136 254.52 21.3036C253.647 21.437 252.29 21.0503 251.863 22.0803Z" fill="white"/>
</g>
<defs>
<clipPath id="clip0_79_1090">
<rect width="320" height="80" fill="white"/>
</clipPath>
</defs>
</svg>
