<svg width="320" height="80" viewBox="0 0 320 80" fill="none" xmlns="http://www.w3.org/2000/svg">
<path d="M306.803 6.74223C307.864 6.73157 308.923 6.73157 309.987 6.7369C310.691 8.87024 311.317 11.0302 312.008 13.1689C312.208 15.9422 312.069 18.7369 312.128 21.5182C313.024 21.4889 313.997 21.7156 314.827 21.2649C316.355 21.7236 317.968 21.4729 319.539 21.5209C319.589 22.5022 319.589 23.4862 319.571 24.4676C317.995 24.5182 316.384 24.2889 314.851 24.7422C313.992 24.3529 313.043 24.4702 312.133 24.4676C312.091 25.5849 312.192 26.7182 311.997 27.8249C311.869 27.9076 311.613 28.0782 311.485 28.1609C311.459 28.6996 311.437 29.2409 311.419 29.7822C310.584 29.8969 309.744 29.8969 308.909 29.8036C308.869 29.2516 308.832 28.7022 308.797 28.1529C308.144 28.2062 307.509 28.3556 306.891 28.5636C306.003 27.9796 304.912 28.2356 303.92 28.2222C303.296 28.7316 302.573 28.4489 301.941 28.1129C301.8 29.0276 302.112 30.0862 301.52 30.8756C301.203 31.3742 300.707 31.8409 300.792 32.4889C300.824 36.4116 300.659 40.3289 300.704 44.2516C300.765 45.4836 300.381 46.6702 300.08 47.8489C298.76 47.9182 297.437 47.9262 296.12 47.8542C295.864 46.7529 295.483 45.6622 295.496 44.5209C295.485 40.5129 295.469 36.5049 295.456 32.4996C295.504 31.7316 294.845 31.2089 294.435 30.6489C294.373 29.8062 294.301 28.9662 294.229 28.1236C293.611 28.6596 292.88 28.5876 292.219 28.1876C291.208 28.7476 290.029 28.5262 288.928 28.5662C288.84 28.2889 288.747 28.0169 288.653 27.7449C285.733 27.4996 283.008 28.9609 280.088 28.7502C280.371 30.9769 280.779 33.1902 280.947 35.4276C280.728 35.4836 280.291 35.5956 280.072 35.6516C282.755 48.4116 285.344 61.1955 288.075 73.9449C288.496 74.2596 288.917 74.5796 289.339 74.9049C289.456 75.6756 289.643 76.5262 289.069 77.1742C286.024 77.9289 283.019 78.8649 279.941 79.4702C279.464 78.0249 279.283 76.5129 278.96 75.0329C276.301 62.2356 273.675 49.4329 271.003 36.6382C270.576 36.6756 270.149 36.7129 269.725 36.7529C269.885 37.8809 270.019 39.0142 270.064 40.1556C269.832 40.2382 269.603 40.3209 269.376 40.4036C269.397 40.2489 269.44 39.9422 269.461 39.7876C268.96 38.8302 268.907 37.7342 268.632 36.7076C267.163 36.7636 265.693 36.8409 264.224 36.8702C263.344 37.9236 262.56 39.0622 261.605 40.0516C260.28 40.3369 258.893 40.1289 257.544 40.2009C255.424 40.1342 253.304 40.3982 251.189 40.2516C250.016 39.6916 248.992 38.8622 247.888 38.1822C247.76 38.2116 247.501 38.2676 247.373 38.2969C245.4 42.7209 243.448 47.1582 241.461 51.5769C240.987 52.5902 240.917 53.7236 240.824 54.8196C239.933 55.3769 239.027 54.6329 238.224 54.2649C235.461 52.7022 232.528 51.4249 229.875 49.6809C232.781 45.0169 235.653 40.3289 238.568 35.6702C239.275 34.6862 239.045 33.4009 239.083 32.2649C238.333 30.2222 236.264 29.2009 234.603 27.9902C233.952 27.5742 233.341 26.9049 232.493 27.0276C228.843 27.0916 225.189 26.9636 221.539 27.0302C219.483 27.2862 217.443 27.7049 215.451 28.2836C203.347 31.5556 191.245 34.8356 179.139 38.1049C177.168 38.6569 175.112 38.4809 173.091 38.4516C172.4 37.8302 171.699 37.2222 171 36.6116C171.029 29.9449 171.019 23.2756 171.051 16.6089C171.795 15.8942 172.352 14.9822 173.187 14.3689C174.651 14.1902 176.101 14.5849 177.555 14.6969C185.469 15.3849 193.376 16.1636 201.285 16.9182C204.736 17.2942 208.216 17.1422 211.675 17.3609C213.179 17.3502 214.685 17.5262 216.187 17.4089C219.184 16.1662 222.109 14.7342 225.104 13.4862C226.829 13.3129 228.576 13.4436 230.312 13.3876C230.307 12.7982 230.323 12.2142 230.315 11.6276C232.605 10.3502 234.952 9.17956 237.259 7.93156C237.587 7.7609 237.933 7.6009 238.315 7.61423C239.944 7.55023 241.579 7.57423 243.205 7.68357C243.208 8.9609 243.203 10.2409 243.224 11.5209C244.648 11.5129 246.072 11.4996 247.496 11.5369C247.595 11.6676 247.792 11.9289 247.891 12.0596C248.459 12.0569 249.029 12.0542 249.603 12.0569C249.696 11.9209 249.883 11.6489 249.976 11.5129C250.424 11.5182 250.875 11.5236 251.325 11.5289C251.419 11.6596 251.605 11.9209 251.699 12.0516C252.533 12.0516 253.365 12.0569 254.203 12.0622C254.325 11.8782 254.451 11.6969 254.579 11.5156C255.024 11.5182 255.469 11.5209 255.917 11.5236C255.995 11.6542 256.149 11.9156 256.229 12.0462C257.112 12.0569 258 12.0649 258.885 12.0409C259.253 11.3876 259.981 11.5049 260.619 11.5209C260.712 11.6542 260.896 11.9209 260.989 12.0542C261.925 12.0542 262.861 12.0542 263.797 12.0649C263.88 11.9316 264.048 11.6622 264.133 11.5289C264.563 11.5262 264.992 11.5262 265.424 11.5262C265.515 11.6596 265.696 11.9236 265.787 12.0542C266.597 12.0542 267.413 12.0542 268.227 12.0542C268.317 11.9182 268.499 11.6489 268.587 11.5156C268.992 11.5209 269.395 11.5236 269.803 11.5236C269.88 11.6542 270.029 11.9129 270.107 12.0436C270.581 12.0516 271.059 12.0596 271.539 12.0729C271.675 11.8889 271.816 11.7076 271.957 11.5262C273.512 11.5529 275.08 11.4169 276.629 11.5849C277.144 11.9076 276.899 12.6489 276.987 13.1529C285.776 13.1689 294.563 13.1689 303.352 13.1582C304.08 12.2249 304.904 11.3636 305.581 10.3902C306.221 9.26756 306.448 7.97157 306.803 6.74223ZM178.301 17.1582C178.301 21.8409 178.299 26.5236 178.301 31.2062C178.736 31.5849 179.171 31.9662 179.608 32.3449C180.227 32.3636 180.845 32.3956 181.464 32.4276C181.771 32.8836 182.011 33.4142 182.44 33.7742C183.123 34.1076 183.928 34.3556 184.675 34.0782C188.28 33.0676 191.883 32.0516 195.488 31.0462C196.224 29.2249 197.504 27.5956 197.749 25.6036C197.968 24.3316 198.195 23.0622 198.437 21.7956C198.003 21.2249 197.568 20.6542 197.139 20.0782C194.16 19.7689 191.171 19.6062 188.189 19.3342C186.984 19.2676 186.2 18.0836 185.011 17.9449C182.779 17.6542 180.539 17.4169 178.301 17.1582ZM287.997 19.4116C288.003 19.6382 288.013 20.0916 288.016 20.3182C290.323 20.3182 292.627 20.3209 294.933 20.3156C294.933 20.0862 294.933 19.6329 294.933 19.4062C292.621 19.4009 290.309 19.3929 287.997 19.4116ZM299.805 19.3982C299.803 19.6276 299.8 20.0889 299.797 20.3209C302.461 20.3156 305.125 20.3209 307.787 20.3156C307.784 20.0889 307.776 19.6329 307.773 19.4062C305.117 19.3929 302.461 19.4062 299.805 19.3982ZM202.725 21.4356C202.565 22.1956 202.381 22.9502 202.261 23.7182C202.016 24.6702 202.496 25.5822 202.747 26.4782C203.019 27.6462 204.424 27.8569 205.323 28.3929C207.184 28.5876 209.059 27.9556 210.531 26.8142C211.355 25.3982 211.205 23.6862 210.872 22.1449C210.517 21.4836 209.944 20.9742 209.459 20.4116C207.808 20.4009 206.157 20.2542 204.509 20.3236C203.848 20.5689 203.317 21.0622 202.725 21.4356ZM250.048 32.9342C249.408 34.2249 248.768 35.5156 248.109 36.7956C248.2 37.0622 248.293 37.3316 248.389 37.6009C249.213 38.1369 250.032 38.6862 250.848 39.2382C251.253 39.4942 251.672 39.8169 252.187 39.7689C255.189 39.7982 258.195 39.6702 261.2 39.6596C262.019 38.1742 262.952 36.7529 263.755 35.2596C263.984 34.4756 264.013 33.4729 263.256 32.9689C260.184 33.0169 257.109 32.9769 254.04 32.9849C253.651 33.5289 253.187 34.0569 253.037 34.7289C252.811 35.5769 253.051 36.4649 253.347 37.2649C253.56 37.9342 254.32 38.3662 254.24 39.1289C253.795 39.0622 253.275 39.1209 252.987 38.7049C251.944 37.6702 251.536 36.0676 251.747 34.6382C251.805 34.1689 251.896 33.6222 251.504 33.2676C251.064 33.0062 250.533 33.0142 250.048 32.9342Z" fill="white"/>
</svg>
