<svg width="320" height="80" viewBox="0 0 320 80" fill="none" xmlns="http://www.w3.org/2000/svg">
<path d="M252.743 4.33301C254.293 4.37634 255.87 4.28634 257.376 4.72634C257.4 5.33967 257.41 5.95301 257.416 6.56967C257.833 6.74634 258.256 6.933 258.673 7.11967C258.706 7.52967 258.766 8.34634 258.8 8.75634C258.88 8.25634 258.963 7.75634 259.05 7.25634C259.716 7.253 260.386 7.24967 261.06 7.253C261.16 6.423 261.266 5.593 261.373 4.76634C280.81 4.753 300.243 4.75634 319.68 4.76301C319.676 8.54968 319.68 12.3363 319.676 16.123C300.243 16.123 280.81 16.123 261.376 16.123C261.266 15.5497 261.163 14.9763 261.066 14.4063C260.39 14.4097 259.71 14.4163 259.036 14.4263C258.946 14.0063 258.86 13.5863 258.77 13.173C258.756 14.2597 258.78 15.3497 258.84 16.4397C258.94 18.013 258.5 19.5497 258.393 21.1163C253.223 21.1897 248.05 21.1263 242.883 21.1497C241.57 21.1763 240.243 21.0363 238.943 21.243C238.25 21.703 238.01 22.5363 237.68 23.253C236.85 25.2563 235.993 27.2463 235.143 29.2397C234.763 30.0063 234.453 30.893 233.72 31.3963C232.516 31.943 231.16 31.8663 229.873 31.903C227.763 31.8963 225.656 32.123 223.546 32.043C222.043 31.903 220.67 31.1997 219.196 30.9163C217.956 30.6063 216.666 30.633 215.4 30.7063C213.97 36.9063 212.56 43.1063 211.116 49.303C211.01 49.913 210.813 50.5697 211.023 51.183C211.31 51.6497 211.676 52.063 212.016 52.4964C209.886 52.853 207.723 52.7197 205.576 52.7363C201.633 52.653 197.67 52.933 193.74 52.5263C193.71 48.4263 194.036 44.2997 195.046 40.3163C195.983 35.813 197.286 31.3463 199.57 27.3263C200.376 26.1197 200.02 24.1863 198.65 23.5563C197.3 22.8863 195.83 22.513 194.416 22.003C194.473 20.0963 195.36 18.3597 195.54 16.4763C193.71 16.393 191.856 16.4897 190.066 16.0297C190.103 15.4863 189.766 14.7797 190.333 14.423C190.78 13.9197 191.516 13.9897 192.116 13.833C192.203 13.1297 192.29 12.4263 192.376 11.7263C193.626 12.3097 194.85 12.9397 196.066 13.593C196.393 12.0797 196.64 10.523 197.34 9.12301C197.9 7.96967 198.523 6.813 198.52 5.493C199.03 5.48633 199.54 5.483 200.053 5.483C200.123 5.66634 200.263 6.02967 200.333 6.213C202.403 6.26634 204.54 5.90301 206.516 6.68634C212.076 6.77967 217.643 6.68967 223.206 6.723C224.653 6.76967 226.09 7.103 227.543 6.983C229.763 6.82967 231.993 7.02301 234.213 6.85634C236.43 6.61634 238.663 6.75634 240.89 6.723C244.803 6.723 248.713 6.71634 252.626 6.72634C252.656 5.92634 252.696 5.12967 252.743 4.33301ZM221.803 21.1563C220.47 21.8597 218.946 22.2063 217.746 23.153C216.803 23.7363 216.466 24.8963 216.396 25.9363C216.583 28.0263 218.23 29.743 220.166 30.3963C221.656 31.1297 223.293 30.5297 224.853 30.613C227.523 30.9863 230.243 31.393 232.913 30.7497C233.643 28.583 234.573 26.4897 235.203 24.293C235.326 23.5797 235.653 22.803 235.4 22.093C234.593 21.4497 233.543 21.203 232.533 21.1797C230.733 21.133 228.933 21.163 227.133 21.143C226.306 22.253 225.236 23.2664 224.87 24.643C224.66 25.733 224.59 26.9363 225.15 27.9397C225.65 29.233 227.216 29.263 228.33 29.723C227.456 29.7297 226.483 29.9663 225.7 29.463C224.136 28.4297 223.23 26.5063 223.34 24.6463C223.426 23.2897 224.256 22.153 225.066 21.123C223.976 21.123 222.89 21.1263 221.803 21.1563Z" fill="white"/>
</svg>
