<svg width="320" height="80" viewBox="0 0 320 80" fill="none" xmlns="http://www.w3.org/2000/svg">
<path d="M167.277 18.2064C168.533 17.9718 170.011 17.9344 171 18.8838C171.816 19.8358 172.835 20.9131 174.189 20.8838C175.357 20.9024 176.528 20.8704 177.696 20.9504C177.851 21.7238 178.024 22.4971 178.187 23.2704C178.4 23.2731 178.824 23.2811 179.037 23.2838C179.029 22.5824 179.027 21.8838 179.029 21.1851C179.469 21.1824 179.909 21.1798 180.355 21.1824C180.379 21.6678 180.688 21.8971 181.157 21.9211C181.168 21.7371 181.192 21.3691 181.205 21.1851C181.664 21.1798 182.125 21.1744 182.587 21.1691C182.605 21.3371 182.637 21.6704 182.656 21.8384C182.883 21.8304 183.341 21.8198 183.571 21.8118C183.579 21.6544 183.6 21.3398 183.608 21.1824C184.064 21.1798 184.523 21.1771 184.984 21.1771C184.992 21.3398 185.013 21.6651 185.021 21.8278C185.269 21.8304 185.763 21.8331 186.011 21.8358C186.021 21.6731 186.045 21.3504 186.059 21.1878C186.509 21.1824 186.963 21.1744 187.419 21.1691C187.421 21.3371 187.429 21.6731 187.432 21.8411C188.032 22.0704 188.371 21.6944 188.525 21.1584C188.88 21.1718 189.24 21.1664 189.595 21.2304C189.768 21.6118 190.072 21.8624 190.459 22.0251C190.523 21.8438 190.653 21.4811 190.717 21.2998C191.075 21.0998 191.544 21.2011 191.949 21.1424C191.984 21.3104 192.053 21.6464 192.088 21.8144C192.301 21.8198 192.728 21.8331 192.939 21.8411C192.949 21.6758 192.968 21.3451 192.979 21.1798C193.416 21.1798 193.859 21.1798 194.301 21.1851C194.312 21.3531 194.336 21.6891 194.349 21.8571C194.864 21.8224 195.592 21.9878 195.491 21.2064C195.899 21.1878 196.309 21.1771 196.72 21.1638C196.733 21.3318 196.757 21.6624 196.768 21.8278C197.013 21.8304 197.499 21.8384 197.741 21.8438C197.755 21.6784 197.779 21.3478 197.792 21.1824C198.219 21.1798 198.648 21.1798 199.08 21.1798C199.096 21.3664 199.128 21.7424 199.144 21.9318C199.64 21.8571 200.403 21.9611 200.296 21.2091C200.701 21.1904 201.112 21.1744 201.523 21.1611C201.531 21.3291 201.549 21.6678 201.557 21.8358C201.768 21.8331 202.189 21.8304 202.4 21.8278C202.437 21.6651 202.515 21.3371 202.552 21.1744C202.923 21.1718 203.299 21.1718 203.675 21.1691C203.723 21.3584 203.819 21.7371 203.867 21.9238C204.371 21.8998 204.907 21.8731 204.837 21.2064C205.235 21.1878 205.632 21.1798 206.032 21.1664C206.043 21.3344 206.061 21.6678 206.069 21.8358C206.453 21.8278 206.837 21.8224 207.224 21.8144C207.253 21.6624 207.312 21.3584 207.341 21.2064C207.68 21.1638 208.021 21.1291 208.368 21.1024C208.432 21.8598 209.069 21.9371 209.712 21.9451C209.728 21.7558 209.76 21.3744 209.776 21.1851C210.173 21.1771 210.571 21.1771 210.973 21.1718C211.016 21.8624 211.032 22.5531 211.035 23.2438C211.171 23.2704 211.44 23.3238 211.576 23.3504C211.611 23.6251 211.645 23.9024 211.688 24.1798C226.019 24.2224 240.349 24.3771 254.683 24.4118C256.683 24.4598 258.685 24.3638 260.683 24.5104L260.797 24.2891L260.965 24.6358L261.149 24.2971L261.304 24.5131C264.176 24.3664 267.051 24.6144 269.925 24.5878C281.773 24.8011 293.616 24.3104 305.461 24.4118C305.947 23.5504 306.541 22.7264 306.717 21.7318C306.856 21.7291 307.131 21.7238 307.269 21.7211C307.565 21.0998 307.752 20.3798 308.277 19.9051C309.384 19.7851 310.387 20.4251 311.445 20.6598C311.501 20.9744 311.56 21.2891 311.621 21.6038C311.853 21.7638 312.189 21.8331 312.272 22.1504C312.653 22.9984 313.365 23.6224 313.851 24.4064C315.68 24.4118 317.512 24.4011 319.344 24.4144C319.704 26.1718 319.667 27.9904 319.371 29.7531C317.485 29.8011 315.603 29.7584 313.72 29.7718C313.651 29.9264 313.515 30.2384 313.445 30.3931C312.933 30.4091 312.421 30.4224 311.915 30.4544C311.917 30.7584 311.925 31.0624 311.936 31.3691C312.24 31.3664 312.549 31.3691 312.864 31.3691C312.904 31.2064 312.987 30.8784 313.029 30.7158C314.128 30.7051 315.229 30.6598 316.331 30.7264C317.048 30.6891 317.507 31.3104 318.019 31.7078L318.021 31.8171C318.101 31.8944 318.261 32.0464 318.341 32.1211C318.776 32.5051 319.277 32.8331 319.624 33.3104C319.741 34.2918 319.568 35.2784 319.555 36.2651C318.739 37.1238 317.808 38.0598 316.568 38.1958C315.405 38.3078 314.235 38.2384 313.072 38.2544C313.032 38.1024 312.949 37.7984 312.907 37.6438C312.669 37.6411 312.195 37.6304 311.957 37.6251C311.917 37.7691 311.837 38.0544 311.795 38.1984C310.341 38.2171 308.888 38.2011 307.435 38.2118C307.368 38.0704 307.232 37.7878 307.165 37.6464C303.195 37.5638 299.219 37.6864 295.248 37.6224C294.416 37.5424 293.688 38.0864 292.861 38.0171C288.325 37.9958 283.787 38.0118 279.253 38.0118C278.517 38.0251 277.869 37.5691 277.131 37.6278C273.392 37.6304 269.653 37.6438 265.915 37.6224C265.141 37.6171 264.403 37.8544 263.651 37.9904C263.659 38.8224 263.661 39.6544 263.659 40.4864C263.387 40.4678 262.843 40.4278 262.571 40.4091C262.533 39.5851 262.533 38.7638 262.552 37.9424C261.483 37.9531 260.296 37.6998 259.413 38.4598C257.507 38.6464 255.579 38.5611 253.664 38.6118C247.797 38.8278 241.923 38.7318 236.053 38.7451C227.845 38.7478 219.637 38.7344 211.429 38.8384C211.344 38.4811 211.259 38.1238 211.176 37.7691C208.976 37.8198 206.768 37.6544 204.579 37.9318C201.533 38.0118 198.485 38.1051 195.44 38.0944L195.291 38.3398L195.104 38.0064L194.931 38.3451L194.813 38.1051C191.099 38.3744 187.363 38.2624 183.645 38.4704C183.56 38.2304 183.475 37.9958 183.392 37.7611C182.395 37.8384 181.253 37.5264 180.4 38.1958C179.347 38.8278 178.776 39.9451 177.976 40.8304C176.603 42.5024 174.485 43.5691 172.315 43.5904C170.536 43.5744 168.741 43.7104 167 43.2784C165.792 43.3984 164.427 43.4198 163.427 44.1931L163.269 44.1958C162.835 45.0251 162.472 45.8918 161.979 46.6918L162.053 46.7371C161.973 46.8918 161.813 47.1984 161.733 47.3531L161.619 47.4011C161.227 48.5638 160.507 49.5824 160.128 50.7504L159.965 50.8011C159.867 51.0598 159.771 51.3184 159.672 51.5798C159.272 52.2944 158.947 53.0464 158.587 53.7851C158.253 54.4918 157.92 55.2011 157.509 55.8678L157.587 55.9478C157.416 56.2384 157.235 56.5238 157.048 56.8064C156.312 58.0091 156.432 59.4998 156.912 60.7744C157.397 61.2518 157.763 61.8384 157.893 62.5184C156.931 62.7051 155.933 62.8704 154.963 62.6438C152.403 62.1238 149.851 61.5718 147.285 61.0838C146.248 60.8064 145.165 60.7238 144.149 60.3744C143.795 59.8704 143.547 59.2891 143.392 58.6944C143.539 57.7398 143.805 56.7878 144.283 55.9398C144.827 54.9611 145.213 53.8838 145.912 52.9958L145.581 52.7611L146.144 52.8651L145.827 52.5664L146.035 52.5718C146.208 52.2438 146.365 51.9104 146.536 51.5824C146.651 51.3424 146.771 51.1051 146.901 50.8731C147.141 50.4651 147.336 50.0304 147.568 49.6171C147.707 49.3131 147.845 49.0091 148.011 48.7238C148.147 48.4998 148.283 48.2784 148.427 48.0624C148.523 47.7931 148.624 47.5264 148.725 47.2624L148.824 47.2464C148.904 47.0918 149.067 46.7851 149.147 46.6304L149.133 46.3744L149.424 46.2331L149.248 45.9984L149.533 45.9824C149.645 45.5744 149.824 45.1904 150.093 44.8624C150.752 42.9584 149.131 40.3798 146.987 40.7104C146.005 40.6864 145.253 41.3611 144.456 41.8278C144.549 41.0038 144.941 40.2811 145.365 39.5878C143.419 40.1131 141.453 40.5558 139.509 41.0811C135.645 42.0518 131.771 42.9904 127.925 44.0331C127.909 44.2011 127.877 44.5371 127.861 44.7051C121.984 46.1638 116.123 47.6811 110.229 49.0731L110.141 49.2731L109.976 49.1051C109.371 49.3398 108.741 49.5024 108.101 49.6144L107.941 49.7371L107.723 49.5904L107.621 49.8091C105.595 50.2278 103.581 50.7344 101.592 51.3051L101.411 51.1744C101.32 51.2358 101.136 51.3584 101.045 51.4198C99.3893 51.8518 97.6747 52.1131 96.08 52.7504C95.376 54.0704 94.2933 55.1398 93.576 56.4491C93 57.6704 92.4533 58.9078 91.8693 60.1264C91.4133 61.1291 90.1307 61.1238 89.296 61.6544L89.1253 61.4144L89.0773 61.7904L88.872 61.7184C86.7173 62.4971 84.568 63.2891 82.4027 64.0304C81.9973 64.2411 81.7547 63.7904 81.6933 63.4731C81.0827 61.3558 81.344 59.1318 81.096 56.9718L81.3413 56.8384L81 56.6731L81.312 56.4864L81.1067 56.3451C81.0667 51.3478 81.016 46.3451 81.0507 41.3424C81.0533 39.4891 81.048 37.6251 81.2933 35.7824C81.4053 35.1051 81.6107 34.1904 82.4347 34.0891C84.2187 33.8731 86.0053 33.6571 87.7947 33.4598C89.904 33.2464 92.024 33.6678 94.1253 33.4944C95.992 32.8304 98.1227 33.2838 99.872 32.2571C100.731 32.3664 101.592 32.5984 102.461 32.3718C104.344 31.9691 106.475 32.3318 108.128 31.1984C108.787 31.2358 109.408 31.6224 110.083 31.4864C111.72 31.2784 113.36 31.1104 115 30.9131C115.584 30.8864 116.077 30.5664 116.56 30.2704C117.776 30.7931 119.077 30.4331 120.331 30.3104C123.709 29.9264 127.085 29.5478 130.467 29.1931C131.645 29.0838 132.821 28.8624 134.013 28.9131C134.021 29.4864 134.016 30.0624 133.997 30.6384C131.563 31.9638 129.147 33.3264 126.693 34.6198C124.227 35.6864 121.707 36.6278 119.224 37.6544C119.021 37.5451 118.816 37.4411 118.611 37.3451C118.629 38.1744 118.651 39.0038 118.669 39.8358C121.112 39.2544 123.541 38.6251 125.971 38.0011C126.085 38.1451 126.312 38.4304 126.427 38.5744C129.416 37.9078 132.403 37.1878 135.349 36.3558L135.432 36.4624C136.397 36.0598 137.443 35.9131 138.448 35.6411C142.387 34.6411 146.347 33.7238 150.272 32.6758C150.752 31.7158 151.24 30.7611 151.744 29.8144C152.021 29.3318 152.312 28.7611 152.888 28.5958C154.488 28.0224 156.157 27.6411 157.739 27.0118C160.197 25.8171 162.584 24.4838 165.037 23.2784C165.075 21.7638 165.403 20.2544 166.339 19.0251L166.6 19.0331L166.587 18.7158L166.747 18.8064C166.923 18.6064 167.099 18.4064 167.277 18.2064ZM307.635 22.4331C307.283 22.8864 306.979 23.3718 306.696 23.8678C307.384 23.8464 308.179 24.0171 308.744 23.5078C308.155 23.3958 308.384 22.4784 307.739 22.5451L307.635 22.4331ZM309.443 22.5798C309.325 22.8144 309.096 23.2784 308.979 23.5131C309.957 24.2171 311.28 23.7478 312.408 23.8731C312.091 23.4491 311.848 22.9584 311.443 22.6171C310.779 22.5078 310.104 22.5691 309.443 22.5798ZM264.507 29.6544C264.507 29.9638 264.509 30.2758 264.515 30.5878C264.144 30.6651 263.776 30.7504 263.413 30.8384C264.195 31.1984 265.061 31.3638 265.923 31.3771C269.659 31.3664 273.395 31.3638 277.131 31.3771C277.867 31.4518 278.501 30.9531 279.237 30.9851C283.779 30.9851 288.323 30.9958 292.867 30.9798C293.613 30.8971 294.243 31.4331 294.987 31.3771C299.056 31.3611 303.125 31.3771 307.197 31.3664C307.195 31.1371 307.189 30.6784 307.189 30.4491C306.955 30.4384 306.485 30.4198 306.253 30.4118C305.824 30.3904 305.4 30.3318 304.976 30.3211C304.912 30.1744 304.787 29.8838 304.723 29.7371C295.875 29.7904 287.029 29.5798 278.181 29.5024C273.621 29.4731 269.064 29.6038 264.507 29.6544ZM93.968 44.2704C93.8613 45.0331 94.5787 45.4598 95.0107 45.9611C96.6 45.5531 98.1813 45.1078 99.7867 44.7718C98.9147 44.3158 98.0613 43.8171 97.152 43.4411C96.4933 42.9478 96.0107 42.2758 95.5227 41.6278C94.6427 40.4251 94.2933 38.9184 94.04 37.4731C93.7893 39.7318 94.016 42.0038 93.968 44.2704ZM167.795 39.2998C167.635 40.3558 168.053 41.3584 168.259 42.3744C167.749 42.1211 167.293 41.7451 167.136 41.1744C166.819 40.5984 166.859 39.6758 166.069 39.5104C166.144 40.9451 166.837 42.5904 168.384 42.9211C169.773 43.1024 171.187 42.9584 172.587 42.9958C173.648 43.0411 174.789 42.6224 175.331 41.6571C175.896 40.4384 175.837 38.9878 175.259 37.7851C173.211 37.7744 171.16 37.7558 169.112 37.7824C168.283 37.7291 168.107 38.7318 167.795 39.2998Z" fill="white"/>
</svg>
